<?xml version="1.0" encoding="UTF-8" standalone="no"?>
<!-- Created with Inkscape (http://www.inkscape.org/) -->

<svg
   width="313.93317"
   height="224.18446"
   viewBox="0 0 83.061482 59.315473"
   version="1.1"
   id="svg1"
   xml:space="preserve"
   xmlns="http://www.w3.org/2000/svg"
   xmlns:svg="http://www.w3.org/2000/svg"><defs
     id="defs1"><clipPath
       clipPathUnits="userSpaceOnUse"
       id="clipPath26"><path
         style="opacity:1;fill:#4e3403;fill-opacity:1;stroke:#a08848;stroke-width:1.2;stroke-dasharray:none;stroke-opacity:1"
         id="path27"
         transform="matrix(-0.98945234,-0.13632662,0.08470627,-0.86650766,253.24016,327.5045)" /></clipPath><clipPath
       clipPathUnits="userSpaceOnUse"
       id="clipPath29"><rect
         style="opacity:1;fill:#c6b380;fill-opacity:1;stroke:#a08848;stroke-width:1.5454;stroke-dasharray:none;stroke-opacity:1"
         id="rect30"
         width="15.794116"
         height="15.837982"
         x="225.92316"
         y="-104.04984"
         transform="matrix(0.4402556,0.89787249,-0.8301148,0.55759252,0,0)" /></clipPath></defs><g
     id="layer6"
     transform="translate(-140.13361,-8.1227684)"><g
       id="g27"
       transform="matrix(0.88513104,-0.03536661,0.03536661,0.88513104,17.253388,10.592155)"><path
         style="opacity:1;fill:#c6b380;fill-opacity:1;stroke:#a08848;stroke-width:2.25775;stroke-dasharray:none;stroke-opacity:1"
         d="m 224.55374,26.338478 -0.50313,1.901511 -0.40197,1.023941 -0.42829,0.792702 -1.21772,2.185913 -0.8312,1.369284 -1.20209,2.179479 -0.99428,1.728677 -1.09839,1.497312 -0.53932,0.616954 -0.76846,0.754218 -0.89239,0.802828 -0.8692,0.848132 -1.04013,0.993737 -0.93771,0.825999 -0.9467,0.909683 -1.12611,0.990201 -1.15192,0.866038 -0.85814,0.596904 -0.8393,0.598293 -0.75802,0.473544 -0.79431,0.451911 -0.89876,0.531347 -0.717,0.367613 -1.62102,0.868404 -1.53212,0.713335 -1.08712,0.503074 -1.66118,0.583835 -1.23866,0.432881 -1.46984,0.514917 -1.70876,0.412796 -1.9975,0.484534 -1.76031,0.42104 -1.03806,0.248746 -0.64486,0.140506 -0.84146,0.271338 -1.58503,0.422762 -1.84323,0.4551 -3.29552,0.977343 -3.28805,0.696484 -3.6182,0.911221 -1.36644,0.32224 -2.05027,0.627375 -1.42268,0.351931 -2.77778,0.55471 -2.03757,0.438013 -2.67226,0.578181 -3.15883,0.814596 -1.85293,0.423568 -1.17074,0.237069 -1.05309,0.153157 -1.29228,0.42421 -0.98047,0.48351 -0.81603,0.352952 -0.28955,-0.205704 0.26181,-1.026553 0.51489,-1.385717 0.0434,-0.909398 -0.0503,-0.740101 0.12967,-0.545862 -0.54705,-0.86068 -0.0737,-0.722402 0.0779,-1.167485 0.20105,-1.056519 0.32794,-0.456143 0.5153,-0.416785 0.12751,-0.287959 -0.0447,-0.314281 -0.2413,-0.332122 -0.45368,-0.349883 -0.49295,-0.244917 -0.22428,-0.164646 -0.10979,-0.279543 0.17828,-0.262164 0.12556,-0.256722 -0.20136,-0.148276 -0.21749,-0.246611 0.0681,-0.475372 0.0827,-0.707487 0.15636,-0.291944 0.70608,0.343041 0.70715,-0.05949 0.71183,-0.03236 0.86591,0.283871 0.98131,0.0077 1.11181,-0.06905 0.89408,0.05752 0.4963,0.308137 1.06065,0.06987 1.13988,0.121303 2.06657,0.100838 2.71749,0.17588 2.66322,0.185244 1.09149,0.07818 3.1323,0.296265 1.16468,0.04006 1.34648,0.08165 0.9938,-0.02219 0.99299,-0.0477 1.5044,-0.0058 1.32227,-0.0796 1.04107,-0.162746 1.8464,-0.227526 2.07587,-0.250299 2.39675,-0.322287 2.93735,-0.394139 2.76847,-0.510509 1.7333,-0.553698 3.31699,-1.128189 3.23005,-1.132969 2.25053,-0.816227 1.53223,-0.795747 1.51317,-0.909046 1.42258,-0.988132 1.17514,-0.894562 0.80231,-0.736587 0.76804,-0.680416 0.90251,-0.822964 1.36307,-1.404629 1.24504,-1.357746 1.03077,-1.15185 0.86434,-1.120619 0.53613,-0.724122 0.98766,-1.399388 0.691,-1.177 0.63424,-1.287761 0.96832,-1.83523 0.69936,-1.355971 0.39074,-1.37347 0.22279,-0.889406 0.91485,-0.222344 1.44548,0.07492 1.29086,-0.179751 0.34419,0.173558 z"
         id="path23" /><path
         style="opacity:1;fill:#4e3403;fill-opacity:1;stroke:#a08848;stroke-width:0.998322;stroke-dasharray:none;stroke-opacity:1"
         d="m 205.48955,137.46263 -0.50313,1.90152 -0.40197,1.02394 -0.42829,0.7927 -1.21772,2.18591 -0.8312,1.36929 -1.20209,2.17947 -0.99428,1.72868 -1.09839,1.49731 -0.53932,0.61696 -0.76846,0.75422 -0.89239,0.80282 -0.8692,0.84814 -1.04013,0.99373 -0.93771,0.826 -0.9467,0.90968 -1.12611,0.99021 -1.15192,0.86603 -0.85814,0.59691 -0.8393,0.59829 -0.75802,0.47354 -0.79431,0.45192 -0.89876,0.53134 -0.717,0.36762 -1.62102,0.8684 -1.53212,0.71333 -1.08712,0.50308 -1.66118,0.58383 -1.23866,0.43288 -1.46984,0.51492 -1.70876,0.4128 -1.9975,0.48453 -1.76031,0.42104 -1.03806,0.24875 -0.64486,0.1405 -0.84146,0.27134 -1.58503,0.42276 -1.84323,0.4551 -3.29552,0.97735 -3.28805,0.69648 -3.6182,0.91122 -1.36644,0.32224 -2.05027,0.62738 -1.42268,0.35193 -2.77778,0.55471 -2.03757,0.43801 -2.67226,0.57818 -3.15883,0.8146 -1.85293,0.42357 -1.17074,0.23706 -1.05309,0.15316 -1.29228,0.42421 -0.98047,0.48351 -0.81603,0.35295 -0.28955,-0.2057 0.26181,-1.02655 0.51489,-1.38572 0.0434,-0.9094 -0.0503,-0.7401 0.12967,-0.54586 -0.54705,-0.86068 -0.0737,-0.7224 0.0779,-1.16749 0.20105,-1.05652 0.32794,-0.45614 0.5153,-0.41679 0.12751,-0.28795 -0.0447,-0.31429 -0.2413,-0.33212 -0.45368,-0.34988 -0.49295,-0.24492 -0.22428,-0.16464 -0.10979,-0.27955 0.17828,-0.26216 0.12556,-0.25672 -0.20136,-0.14828 -0.21749,-0.24661 0.0681,-0.47537 0.0827,-0.70749 0.15636,-0.29194 0.70608,0.34304 0.70715,-0.0595 0.71183,-0.0324 0.86591,0.28387 0.98131,0.008 1.11181,-0.0691 0.89408,0.0575 0.4963,0.30814 1.06065,0.0699 1.13988,0.1213 2.06657,0.10084 2.71749,0.17588 2.66322,0.18524 1.09149,0.0782 3.1323,0.29627 1.16468,0.0401 1.34648,0.0816 0.9938,-0.0222 0.99299,-0.0477 1.5044,-0.006 1.32227,-0.0796 1.04107,-0.16275 1.8464,-0.22753 2.07587,-0.25029 2.39675,-0.32229 2.93735,-0.39414 2.76847,-0.51051 1.7333,-0.5537 3.31699,-1.12819 3.23005,-1.13297 2.25053,-0.81622 1.53223,-0.79575 1.51317,-0.90905 1.42258,-0.98813 1.17514,-0.89456 0.80231,-0.73659 0.76804,-0.68041 0.90251,-0.82297 1.36307,-1.40463 1.24504,-1.35774 1.03077,-1.15185 0.86434,-1.12062 0.53613,-0.72412 0.98766,-1.39939 0.691,-1.177 0.63424,-1.28776 0.96832,-1.83523 0.69936,-1.35597 0.39074,-1.37347 0.22279,-0.88941 0.91485,-0.22234 1.44548,0.0749 1.29086,-0.17975 0.34419,0.17355 z"
         id="path25"
         clip-path="url(#clipPath26)"
         transform="translate(18.915943,-111.13807)" /></g><g
       id="g30"
       transform="matrix(0.88583732,0,0,0.88583732,22.984025,3.9073959)"><path
         style="opacity:1;fill:#c6b380;fill-opacity:1;stroke:#a08848;stroke-width:2.25775;stroke-dasharray:none;stroke-opacity:1"
         d="m 220.98202,24.131384 -4.68429,2.834456 -3.49425,2.414033 -3.7465,2.56924 -4.11606,2.668141 -6.07812,3.510696 -4.19369,2.694226 -3.90956,1.926184 -4.27573,2.406758 -5.12135,3.343482 -4.81823,3.129993 -4.56731,2.609044 -2.73341,1.371557 -1.95901,0.790393 -1.74541,0.789066 -1.02868,0.720418 0.5885,0.905681 0.55641,0.393913 1.2073,0.59491 0.92679,0.658137 0.64631,1.044202 0.17355,1.072388 -0.0288,1.066115 0.48211,0.314098 1.02393,0.0733 0.8623,0.458003 0.55543,1.103873 0.52691,1.185341 0.31805,0.966967 0.48515,2.042471 0.36389,0.374952 4.89348,-4.275662 4.36841,-3.975196 5.44775,-4.59815 1.78233,-1.939723 1.51508,-1.870422 1.96263,-2.39863 3.68758,-4.248829 3.62262,-3.628515 3.03826,-2.916151 3.12894,-2.599022 2.36302,-1.900754 3.67902,-2.955053 2.63272,-1.779692 2.22128,-1.31114 1.60437,-0.777591 c 0,0 1.4067,-0.626093 1.38111,-0.433412 -0.0257,0.192707 0.86818,-1.914282 0.86818,-1.914282 z"
         id="path28" /><path
         style="opacity:1;fill:#4e3403;fill-opacity:1;stroke:#a08848;stroke-width:1.2;stroke-dasharray:none;stroke-opacity:1"
         d="m 238.54114,114.05917 -4.68429,2.83446 -3.49425,2.41403 -3.7465,2.56924 -4.11606,2.66814 -6.07812,3.5107 -4.19369,2.69422 -3.90956,1.92619 -4.27573,2.40676 -5.12135,3.34348 -4.81823,3.12999 -4.56731,2.60904 -2.73341,1.37156 -1.95901,0.79039 -1.74541,0.78907 -1.02868,0.72042 0.5885,0.90568 0.55641,0.39391 1.2073,0.59491 0.92679,0.65814 0.64631,1.0442 0.17355,1.07239 -0.0288,1.06611 0.48211,0.3141 1.02393,0.0733 0.8623,0.45801 0.55543,1.10387 0.52691,1.18534 0.31805,0.96697 0.48515,2.04247 0.36389,0.37495 4.89348,-4.27566 4.36841,-3.9752 5.44775,-4.59815 1.78233,-1.93972 1.51508,-1.87042 1.96263,-2.39863 3.68758,-4.24883 3.62262,-3.62852 3.03826,-2.91615 3.12894,-2.59902 2.36302,-1.90075 3.67902,-2.95506 2.63272,-1.77969 2.22128,-1.31114 1.60437,-0.77759 c 0,0 1.4067,-0.62609 1.38111,-0.43341 -0.0257,0.1927 0.86818,-1.91428 0.86818,-1.91428 z"
         id="path29"
         clip-path="url(#clipPath29)"
         transform="translate(-17.684544,-89.802366)" /></g></g><g
     id="layer1"
     transform="translate(-140.13361,-8.1227684)"><ellipse
       style="fill:#9a3420;fill-opacity:1;stroke:#6e2517;stroke-width:1.2;stroke-dasharray:none;stroke-opacity:1"
       id="path4"
       cx="201.3261"
       cy="17.25943"
       rx="4.8909321"
       ry="8.4027567" /><ellipse
       style="fill:#9a3420;fill-opacity:1;stroke:#7c2a1a;stroke-width:1.2;stroke-dasharray:none;stroke-opacity:1"
       id="ellipse4"
       cx="201.92525"
       cy="31.953943"
       rx="4.8909321"
       ry="8.4027567" /><g
       id="g20"
       transform="matrix(0.46644164,0,0,0.46644164,123.50171,-35.273678)"><rect
         style="fill:#c6b380;fill-opacity:1;stroke:#a08848;stroke-width:4.78597;stroke-dasharray:none;stroke-opacity:1"
         id="rect15"
         width="45.416439"
         height="45.416439"
         x="-243.3268"
         y="8.7331495"
         transform="rotate(-135)" /><path
         style="fill:#ffffff;fill-opacity:1;stroke:#a08848;stroke-width:2;stroke-dasharray:none;stroke-opacity:1"
         d="m 155.72012,140.60694 30.86306,-29.97619"
         id="path15" /><path
         style="fill:#ffffff;fill-opacity:1;stroke:#a08848;stroke-width:2;stroke-dasharray:none;stroke-opacity:1"
         d="M 163.34719,149.12089 194.21025,119.1447"
         id="path16" /><path
         style="fill:#ffffff;fill-opacity:1;stroke:#a08848;stroke-width:2;stroke-dasharray:none;stroke-opacity:1"
         d="m 170.97427,156.39322 30.86306,-29.97619"
         id="path17" /><path
         style="fill:#ffffff;fill-opacity:1;stroke:#a08848;stroke-width:2;stroke-dasharray:none;stroke-opacity:1"
         d="m 171.47178,110.51967 30.25906,30.58578"
         id="path18" /><path
         style="fill:#ffffff;fill-opacity:1;stroke:#a08848;stroke-width:2;stroke-dasharray:none;stroke-opacity:1"
         d="m 163.02841,118.22481 30.25906,30.58577"
         id="path19" /><path
         style="fill:#ffffff;fill-opacity:1;stroke:#a08848;stroke-width:2;stroke-dasharray:none;stroke-opacity:1"
         d="m 155.82661,125.91852 30.25906,30.58577"
         id="path20" /></g><rect
       style="display:inline;fill:#9a3420;fill-opacity:1;stroke:#7c2a1a;stroke-width:1.00173;stroke-dasharray:none;stroke-opacity:1"
       id="rect1"
       width="60.581562"
       height="31.77903"
       x="140.63448"
       y="8.6236334" /><path
       style="fill:#9a3420;fill-opacity:1;stroke:#6e2517;stroke-width:1.10426;stroke-dasharray:none;stroke-opacity:1"
       d="m 140.69173,9.1995426 0.16907,30.4140884 4.199,-3.487983 0.0432,-23.777211 z"
       id="path3" /></g><g
     id="layer2"
     transform="translate(-140.13361,-8.1227684)"><g
       id="layer1-3"
       transform="matrix(0.17290528,0,0,0.17290528,147.50236,1.0902463)"><path
         style="fill:none;stroke:#e7dfca;stroke-width:0.465;stroke-linecap:round;stroke-linejoin:round;stroke-dasharray:none;stroke-opacity:1"
         d="m 166.06702,57.244649 c 0.17981,0.236919 0.36258,0.477734 0.52346,0.61257 0.16088,0.134836 0.30135,0.165639 0.43737,0.177057 0.13602,0.01142 0.27219,0.0032 0.43247,-0.0479 0.16028,-0.05107 0.34697,-0.145102 0.5961,-0.382623 0.24913,-0.237521 0.56068,-0.618512 1.27475,-2.26846 0.71408,-1.649948 1.83062,-4.568723 2.4228,-6.022467 0.59218,-1.453743 0.66005,-1.442387 0.68016,-1.376184 0.0201,0.0662 -0.007,0.187256 -0.0846,0.630142 -0.0771,0.442887 -0.2038,1.207572 -0.27223,1.888242 -0.0684,0.680671 -0.0786,1.277288 -0.0621,2.179268 0.0165,0.90198 0.0597,2.109265 0.13358,2.954764 0.0738,0.845499 0.17829,1.329173 0.27973,1.63396 0.10144,0.304788 0.19991,0.430729 0.30376,0.512332 0.10385,0.0816 0.21311,0.118895 0.26623,0.139984 0.0531,0.02109 0.0501,0.02591 0.0786,0.02564 0.0285,-2.65e-4 0.0886,-0.0057 0.1687,-0.02378 0.0801,-0.0181 0.18039,-0.04891 0.47514,-0.261568 0.29475,-0.212659 0.78399,-0.607162 1.34618,-1.274867 0.56219,-0.667705 1.1973,-1.608566 1.69345,-2.470282 0.49616,-0.861716 0.85333,-1.644233 1.09495,-2.236274 0.24163,-0.59204 0.36769,-0.993566 0.44484,-1.35349 0.0771,-0.359924 0.10538,-0.678225 0.11709,-0.924125 0.0117,-0.245901 0.007,-0.41938 -0.0309,-0.548528 -0.0378,-0.129149 -0.10866,-0.214009 -0.21161,-0.290481 -0.10296,-0.07647 -0.23802,-0.144562 -0.41211,-0.175905 -0.17409,-0.03134 -0.38719,-0.02594 -0.64472,0.06908 -0.25754,0.09502 -0.56189,0.281119 -0.86414,0.584842 -0.30226,0.303722 -0.60361,0.725786 -0.82812,1.192719 -0.22452,0.466932 -0.37219,0.978703 -0.44636,1.398616 -0.0742,0.419913 -0.0748,0.747942 -0.0466,1.118676 0.0282,0.370734 0.0852,0.784156 0.19116,1.147055 0.10595,0.3629 0.26083,0.675256 0.40641,0.867918 0.14557,0.192663 0.28183,0.265617 0.43341,0.321553 0.15158,0.05593 0.31846,0.09484 0.53247,0.07674 0.21401,-0.0181 0.47514,-0.09322 0.93378,-0.293997 0.45864,-0.200772 1.11475,-0.52718 1.62981,-0.842521 0.51507,-0.31534 0.88905,-0.619593 1.22732,-0.929259 0.33828,-0.309666 0.64083,-0.62473 0.84553,-0.924668 0.20471,-0.299938 0.31156,-0.584736 0.29565,-0.734703 -0.0159,-0.149967 -0.15458,-0.165101 -0.30706,-0.155643 -0.15248,0.0095 -0.31876,0.0435 -0.49255,0.108626 -0.17379,0.06512 -0.35507,0.161313 -0.56548,0.264536 -0.21041,0.103223 -0.44993,0.213469 -0.65583,0.306153 -0.20591,0.09268 -0.37819,0.167799 -0.42383,0.174565 -0.0456,0.0068 0.0354,-0.05486 0.21883,-0.159435 0.1834,-0.104575 0.46913,-0.252105 0.69305,-0.383971 0.22391,-0.131865 0.38599,-0.248056 1.06002,-0.589423 0.67402,-0.341367 1.85925,-0.907554 3.04485,-1.473918"
         id="path3827"
         transform="matrix(12.144087,0,0,12.144087,-1990.1579,-507.88515)" /><text
         xml:space="preserve"
         style="font-style:normal;font-variant:normal;font-weight:bold;font-stretch:normal;font-size:18.127px;line-height:1.45;font-family:Arial;-inkscape-font-specification:'Arial Bold';letter-spacing:1.73694px;fill:#e7dfca;fill-opacity:1;stroke-width:0.453177"
         x="174.01929"
         y="198.07326"
         id="text2379"><tspan
           id="tspan2379"
           style="font-style:normal;font-variant:normal;font-weight:bold;font-stretch:normal;line-height:1.45;font-family:Arial;-inkscape-font-specification:'Arial Bold';letter-spacing:1.73694px;fill:#e7dfca;fill-opacity:1;stroke-width:0.453177"
           x="174.01929"
           y="198.07326">SHOP</tspan></text></g></g></svg>
