<?xml version="1.0" encoding="UTF-8" standalone="no"?>
<!-- Created with Inkscape (http://www.inkscape.org/) -->

<svg
   width="120"
   height="120"
   viewBox="0 0 31.749999 31.75"
   version="1.1"
   id="svg1"
   xml:space="preserve"
   inkscape:version="1.3 (0e150ed6c4, 2023-07-21)"
   sodipodi:docname="Message.svg"
   inkscape:dataloss="true"
   inkscape:export-filename="Lorry.svg"
   inkscape:export-xdpi="96"
   inkscape:export-ydpi="96"
   xmlns:inkscape="http://www.inkscape.org/namespaces/inkscape"
   xmlns:sodipodi="http://sodipodi.sourceforge.net/DTD/sodipodi-0.dtd"
   xmlns="http://www.w3.org/2000/svg"
   xmlns:svg="http://www.w3.org/2000/svg"><sodipodi:namedview
     id="namedview1"
     pagecolor="#ffffff"
     bordercolor="#666666"
     borderopacity="1.0"
     inkscape:showpageshadow="2"
     inkscape:pageopacity="0.0"
     inkscape:pagecheckerboard="0"
     inkscape:deskcolor="#d1d1d1"
     inkscape:document-units="mm"
     inkscape:zoom="2.8044052"
     inkscape:cx="110.36208"
     inkscape:cy="107.50943"
     inkscape:window-width="1920"
     inkscape:window-height="1001"
     inkscape:window-x="-9"
     inkscape:window-y="-9"
     inkscape:window-maximized="1"
     inkscape:current-layer="layer1" /><defs
     id="defs1" /><g
     inkscape:label="Layer 1"
     inkscape:groupmode="layer"
     id="layer1"><path
       d="m 28.847023,28.448528 -0.538048,-0.619717 -2.555733,2.555731 -0.0023,-0.0023 c -0.285838,0.285838 -0.749424,0.290643 -1.040068,0.0072 l -2.603772,-2.531713 -2.550927,2.450046 c -0.278633,0.28824 -0.737417,0.302652 -1.035264,0.02883 l -2.707059,-2.500471 -2.45725,2.529311 c -0.01441,0.01681 -0.02883,0.03122 -0.04324,0.04805 -0.290644,0.290641 -0.761436,0.290641 -1.049676,0 L 9.68624,27.836019 7.0296239,30.367731 v 0 C 6.7389775,30.643959 6.2777926,30.639156 5.9943562,30.353321 L 3.4674478,27.799986 2.9414089,28.405291 c -0.1345122,0.182552 -0.3530946,0.300251 -0.5980991,0.300251 -0.4107426,0 -0.7422192,-0.333879 -0.7422192,-0.74222 V 1.8607433 c 0,-0.4107422 0.3314766,-0.7422188 0.7422192,-0.7422188 H 29.406692 c 0.41074,0 0.742217,0.3314766 0.742217,0.7422188 V 27.963322 h -0.0023 c 0,0.206573 -0.08647,0.413145 -0.257015,0.559667 -0.307457,0.269025 -0.775848,0.235396 -1.04247,-0.07447 z M 8.7182291,21.881448 V 20.702064 C 8.4251843,20.666034 8.1585617,20.61319 7.9207635,20.548336 7.6781609,20.48108 7.4643826,20.399411 7.2770264,20.303332 7.08967,20.207251 6.9167257,20.079945 6.7533894,19.923814 6.5924551,19.767684 6.4435309,19.58273 6.3090187,19.368951 v 0 C 6.1721043,19.152771 6.0664162,18.914973 5.9871502,18.653154 5.907884,18.391335 5.857442,18.105496 5.8358239,17.79564 v -0.01201 l 0.01201,-0.0023 1.1913941,-0.230592 0.01201,-0.0023 0.00241,0.01201 c 0.045638,0.321869 0.1104925,0.598099 0.1897583,0.833496 0.081668,0.235395 0.1801503,0.425154 0.2954465,0.574078 0.1657382,0.211377 0.3482905,0.374713 0.547657,0.492411 0.1945622,0.115296 0.4059386,0.184954 0.631727,0.211376 V 15.96291 C 8.4756264,15.900457 8.230622,15.816388 7.9856175,15.715504 7.735809,15.612217 7.4835986,15.487313 7.2289863,15.345595 v 0 C 7.039228,15.239906 6.8710875,15.115002 6.7245654,14.96848 6.5780432,14.821958 6.4531389,14.653817 6.3498527,14.46406 v 0 C 6.2465665,14.274301 6.1697024,14.072533 6.1192603,13.858754 c -0.050442,-0.213778 -0.076865,-0.439568 -0.076865,-0.677365 0,-0.425155 0.074462,-0.809475 0.2257884,-1.152962 0.1513268,-0.343486 0.3771152,-0.648541 0.6773657,-0.912761 0.2017684,-0.177748 0.4515767,-0.319467 0.7494253,-0.427557 0.2954466,-0.108091 0.6389332,-0.180152 1.0280576,-0.220984 V 9.9098596 9.8978445 h 0.012013 0.7037873 0.012003 v 0.012015 0.5572655 c 0.3386815,0.03363 0.6461384,0.100878 0.9151614,0.201767 0.27383,0.103283 0.514031,0.240202 0.718201,0.410744 0.259417,0.218581 0.468391,0.475596 0.624522,0.773444 0.156129,0.29785 0.261819,0.638935 0.314662,1.01845 l 0.0023,0.01201 -0.01201,0.0023 -1.217815,0.189758 -0.01201,0.0023 -0.0023,-0.01201 c -0.03359,-0.23534 -0.08883,-0.441911 -0.160898,-0.622062 -0.07207,-0.180149 -0.163336,-0.331477 -0.273829,-0.453978 v 0 C 10.23632,11.865091 10.10661,11.761804 9.9552849,11.680136 9.8087617,11.600871 9.6406213,11.540821 9.4556678,11.499987 v 3.403638 c 0.2930445,0.07446 0.5356458,0.14172 0.7302082,0.199367 0.201769,0.06004 0.350693,0.112895 0.449175,0.153728 v 0 c 0.184954,0.08168 0.353096,0.172945 0.504422,0.271428 0.151325,0.09849 0.285838,0.208974 0.401134,0.326671 0.117699,0.117699 0.220985,0.245005 0.312261,0.384322 0.09128,0.139316 0.165739,0.290642 0.230592,0.451575 v 0 c 0.06246,0.160935 0.11049,0.329076 0.141719,0.504422 0.03122,0.175346 0.04804,0.355496 0.04804,0.542853 0,0.82629 -0.261818,1.515665 -0.787858,2.070527 -0.261819,0.27623 -0.56447,0.487607 -0.903153,0.636531 -0.336281,0.146523 -0.7109943,0.230593 -1.121737,0.252211 v 1.191394 0.01201 H 9.4484702 8.7446839 8.732671 v -0.01922 z M 22.793973,20.81736 c 0.302652,0 0.547657,0.245005 0.547657,0.547657 0,0.302652 -0.245005,0.547657 -0.547657,0.547657 H 15.09555 c -0.302653,0 -0.547657,-0.245005 -0.547657,-0.547657 0,-0.302652 0.245004,-0.547657 0.547657,-0.547657 z M 25.926187,9.876232 c 0.302652,0 0.547656,0.245004 0.547656,0.547656 0,0.302653 -0.245004,0.547657 -0.547656,0.547657 H 15.09555 c -0.302653,0 -0.547657,-0.245004 -0.547657,-0.547657 0,-0.302652 0.245004,-0.547656 0.547657,-0.547656 z m -0.02883,7.294886 c 0.302652,0 0.547657,0.245004 0.547657,0.547656 0,0.302653 -0.245005,0.547657 -0.547657,0.547657 H 15.095544 c -0.302653,0 -0.547657,-0.245004 -0.547657,-0.547657 0,-0.302652 0.245004,-0.547656 0.547657,-0.547656 z m 0.02883,-3.648645 c 0.302652,0 0.547656,0.245004 0.547656,0.547657 0,0.302653 -0.245004,0.547657 -0.547656,0.547657 H 15.09555 c -0.302653,0 -0.547657,-0.245004 -0.547657,-0.547657 0,-0.302653 0.245004,-0.547657 0.547657,-0.547657 z M 8.7182291,11.475965 c -0.2233866,0.03604 -0.425155,0.09849 -0.6005014,0.18976 -0.1801503,0.09128 -0.3362805,0.211376 -0.4659886,0.362702 v 0 c -0.1321104,0.148925 -0.2305925,0.31226 -0.2978487,0.487606 -0.064855,0.175347 -0.098482,0.365106 -0.098482,0.569276 0,0.201768 0.028824,0.386722 0.084069,0.554863 0.055245,0.16814 0.1393163,0.319466 0.2522104,0.45638 0.1128943,0.134513 0.2642206,0.254613 0.4539788,0.357899 0.1873563,0.100889 0.4107427,0.184954 0.6749635,0.254613 v -3.233099 z m 0.7278071,8.200443 c 0.2233867,-0.02883 0.4299594,-0.09128 0.6149128,-0.189758 0.189757,-0.09849 0.360302,-0.235396 0.509226,-0.405939 0.148924,-0.170543 0.261817,-0.3603 0.33628,-0.571677 0.07446,-0.211376 0.112893,-0.441969 0.112893,-0.694179 0,-0.21618 -0.02642,-0.408341 -0.07927,-0.581285 -0.05284,-0.172944 -0.132104,-0.321869 -0.237791,-0.453979 -0.105693,-0.129709 -0.264223,-0.247406 -0.4756,-0.353094 -0.208974,-0.103282 -0.4683897,-0.196965 -0.7782493,-0.278632 v 3.528543 z M 25.806086,4.8776601 c 0.422753,0 0.766239,0.3434871 0.766239,0.7686419 0,0.4227529 -0.343486,0.7662389 -0.766239,0.7662389 -0.422753,0 -0.766238,-0.343486 -0.766238,-0.7662389 0,-0.4251548 0.343485,-0.7686419 0.766238,-0.7686419 z m -4.964941,0 c 0.422753,0 0.766238,0.3434871 0.766238,0.7686419 0,0.4227529 -0.343485,0.7662389 -0.766238,0.7662389 -0.422755,0 -0.76624,-0.343486 -0.76624,-0.7662389 -0.0023,-0.4251548 0.341084,-0.7686419 0.76624,-0.7686419 z m -4.964944,0 c 0.422754,0 0.766239,0.3434871 0.766239,0.7686419 0,0.4227529 -0.343485,0.7662389 -0.766239,0.7662389 -0.422753,0 -0.766238,-0.343486 -0.766238,-0.7662389 -0.0023,-0.4251548 0.341084,-0.7686419 0.766238,-0.7686419 z m -4.967344,0 c 0.422753,0 0.766239,0.3434871 0.766239,0.7686419 0,0.4227529 -0.343486,0.7662389 -0.766239,0.7662389 -0.422754,0 -0.766241,-0.343486 -0.766241,-0.7662389 0,-0.4251548 0.343487,-0.7686419 0.766241,-0.7686419 z m -4.9649429,0 c 0.4227526,0 0.7662393,0.3434871 0.7662393,0.7686419 0,0.4227529 -0.3434867,0.7662389 -0.7662393,0.7662389 -0.4227528,0 -0.7662394,-0.343486 -0.7662394,-0.7662389 -0.0024,-0.4251548 0.3410846,-0.7686419 0.7662394,-0.7686419 z M 28.664471,26.070543 V 2.6053642 H 3.0879312 V 26.058533 c 0.2618184,-0.136914 0.590893,-0.108091 0.8286913,0.09608 0.014412,0.01201 0.028824,0.02402 0.040835,0.03843 v 0 l 2.5773505,2.603773 2.6542145,-2.526908 c 0.2930434,-0.278633 0.7518267,-0.271426 1.0352625,0.01201 l 0.0023,-0.0023 2.555734,2.555732 2.474065,-2.548527 c 0.281034,-0.288239 0.739817,-0.30025 1.032862,-0.02883 v 0 l 2.726274,2.5173 2.584555,-2.478867 c 0.290643,-0.278634 0.751828,-0.27383 1.035263,0.0072 l 2.58696,2.514899 2.601369,-2.601371 c 0.223388,-0.228191 0.564472,-0.276229 0.840703,-0.146522 z"
       id="path1-31"
       style="stroke-width:0.2402" /></g></svg>
