<?xml version="1.0" encoding="UTF-8" standalone="no"?>
<!-- Created with Inkscape (http://www.inkscape.org/) -->

<svg
   width="120"
   height="120"
   viewBox="0 0 31.749999 31.75"
   version="1.1"
   id="svg1"
   xml:space="preserve"
   inkscape:version="1.3 (0e150ed6c4, 2023-07-21)"
   sodipodi:docname="Message.svg"
   inkscape:dataloss="true"
   inkscape:export-filename="Invoice2.svg"
   inkscape:export-xdpi="96"
   inkscape:export-ydpi="96"
   xmlns:inkscape="http://www.inkscape.org/namespaces/inkscape"
   xmlns:sodipodi="http://sodipodi.sourceforge.net/DTD/sodipodi-0.dtd"
   xmlns="http://www.w3.org/2000/svg"
   xmlns:svg="http://www.w3.org/2000/svg"><sodipodi:namedview
     id="namedview1"
     pagecolor="#ffffff"
     bordercolor="#666666"
     borderopacity="1.0"
     inkscape:showpageshadow="2"
     inkscape:pageopacity="0.0"
     inkscape:pagecheckerboard="0"
     inkscape:deskcolor="#d1d1d1"
     inkscape:document-units="mm"
     inkscape:zoom="2.8044052"
     inkscape:cx="110.36208"
     inkscape:cy="107.50943"
     inkscape:window-width="1920"
     inkscape:window-height="1001"
     inkscape:window-x="-9"
     inkscape:window-y="-9"
     inkscape:window-maximized="1"
     inkscape:current-layer="layer1" /><defs
     id="defs1" /><g
     inkscape:label="Layer 1"
     inkscape:groupmode="layer"
     id="layer1"><path
       d="M 20.706087,0.58557416 C 20.595403,0.48495302 20.439439,0.41954883 20.285992,0.41954883 c -0.0327,0 -0.0654,0 -0.10062,0.010062 H 4.9512869 c -0.3748146,0 -0.7295056,0.15596322 -0.9835745,0.41003238 C 3.7136434,1.0937123 3.5576799,1.4358252 3.5576799,1.8232177 V 29.936844 c 0,0.387393 0.1559635,0.729506 0.4100325,0.983574 0.2540689,0.25407 0.5961824,0.410033 0.9835745,0.410033 7.0988411,0 14.7611631,0 21.8247871,0 0.387393,0 0.729505,-0.155963 0.983574,-0.410033 0.25407,-0.254068 0.410032,-0.596181 0.410032,-0.983574 V 8.5447286 c 0.01005,-0.055343 0.02264,-0.1006211 0.02264,-0.1559626 0,-0.1886656 -0.08804,-0.354691 -0.211305,-0.4754367 L 20.781553,0.63085382 c -0.02264,-0.022639 -0.0327,-0.032702 -0.05535,-0.0452801 z M 8.7220747,5.3701233 c -0.3421125,0 -0.6288836,0.2767083 -0.6288836,0.6313993 0,0.3421125 0.2767083,0.6288835 0.6288836,0.6288835 h 4.3141433 c 0.342113,0 0.631399,-0.2767092 0.631399,-0.6288835 0,-0.3421135 -0.276708,-0.6313993 -0.631399,-0.6313993 z M 13.400971,21.386539 h -2.233795 v -0.369784 c 0,-0.39494 -0.02767,-0.651524 -0.07798,-0.77227 -0.05031,-0.123261 -0.160996,-0.183634 -0.329536,-0.183634 -0.135839,0 -0.238976,0.05283 -0.306895,0.155964 -0.06793,0.108168 -0.103136,0.264131 -0.103136,0.475436 0,0.34966 0.07043,0.596181 0.208789,0.734536 0.135838,0.14087 0.538324,0.412548 1.20494,0.817549 0.565996,0.344629 0.953389,0.606244 1.159663,0.787363 0.206274,0.183635 0.379846,0.440219 0.520716,0.774785 0.14087,0.334566 0.213821,0.74963 0.213821,1.247705 0,0.794909 -0.191181,1.421278 -0.573543,1.874075 -0.382361,0.452796 -0.960935,0.73202 -1.725657,0.840189 v 0.837672 h -1.03137 V 27.745812 C 9.730805,27.687955 9.2075733,27.456527 8.7623229,27.056556 8.3170736,26.6591 8.0931911,25.959783 8.0931911,24.96363 v -0.437702 h 2.2337939 v 0.54587 c 0,0.601213 0.02264,0.973513 0.07043,1.119413 0.04528,0.145902 0.155965,0.216336 0.332052,0.216336 0.150931,0 0.264131,-0.05031 0.337081,-0.150931 0.07295,-0.103137 0.110685,-0.254069 0.110685,-0.452797 0,-0.500591 -0.03521,-0.860313 -0.105653,-1.074134 C 11.00115,24.51335 10.764688,24.276889 10.354656,24.025336 9.672944,23.597694 9.2100851,23.283253 8.9635633,23.08201 8.7195561,22.880767 8.5057354,22.599027 8.3296483,22.231758 8.1510454,21.867006 8.0604861,21.454458 8.0604861,20.994116 c 0,-0.666618 0.1886648,-1.189849 0.5659951,-1.569695 0.3773303,-0.379846 0.9458414,-0.61379 1.7005018,-0.701835 v -0.714412 h 1.03137 v 0.714412 c 0.689257,0.08804 1.204941,0.319473 1.54957,0.694288 0.342113,0.374815 0.513169,0.893016 0.513169,1.552087 0.0024,0.09056 -0.0051,0.231428 -0.02012,0.417578 z M 19.654592,1.6798322 v 5.4511657 c 0,0.5207154 0.211305,0.9961521 0.553418,1.3382647 0.342113,0.3421134 0.817549,0.5534183 1.338265,0.5534183 h 5.350544 V 29.93936 c 0,0.0327 -0.01005,0.07798 -0.04528,0.10062 -0.02263,0.02263 -0.05535,0.04528 -0.10062,0.04528 -5.619706,0 -16.345951,0 -21.8122083,0 -0.032706,0 -0.077981,-0.01005 -0.1006222,-0.04528 -0.022637,-0.02264 -0.045275,-0.06541 -0.045275,-0.10062 V 1.8232177 c 0,-0.04528 0.010062,-0.077982 0.045275,-0.1006212 0.022637,-0.02264 0.055343,-0.04528 0.1006222,-0.04528 h 14.7033043 0.01258 z m 1.250222,5.4511657 V 2.5653007 l 5.141754,5.2071583 h -4.500293 c -0.176087,0 -0.33205,-0.077981 -0.452797,-0.1886646 C 20.98028,7.4731104 20.904814,7.3070851 20.904814,7.1309979 Z M 8.719559,9.7169688 c -0.3421125,0 -0.6288836,0.2767094 -0.6288836,0.6313992 0,0.342112 0.2767093,0.6314 0.6288836,0.6314 h 11.03314 c 0.342112,0 0.631398,-0.276709 0.631398,-0.6314 0,-0.342113 -0.276709,-0.6313992 -0.631398,-0.6313992 z m 7.164245,8.4018892 c -0.342112,0 -0.628884,0.276709 -0.628884,0.631398 0,0.342114 0.27671,0.631401 0.628884,0.631401 h 7.098842 c 0.342112,0 0.6314,-0.276709 0.6314,-0.631401 0,-0.342112 -0.27671,-0.631398 -0.6314,-0.631398 z M 8.719559,13.917914 c -0.3421125,0 -0.6288836,0.276708 -0.6288836,0.631399 0,0.342112 0.2767093,0.6314 0.6288836,0.6314 H 22.98013 c 0.342112,0 0.6314,-0.27671 0.6314,-0.6314 0,-0.342114 -0.276709,-0.631399 -0.6314,-0.631399 z"
       id="path1-36"
       style="stroke-width:0.251553" /></g></svg>
