<?xml version="1.0" encoding="UTF-8" standalone="no"?>
<!-- Created with Inkscape (http://www.inkscape.org/) -->

<svg
   width="120"
   height="120"
   viewBox="0 0 31.749999 31.75"
   version="1.1"
   id="svg1"
   xml:space="preserve"
   inkscape:version="1.3 (0e150ed6c4, 2023-07-21)"
   sodipodi:docname="Message.svg"
   inkscape:dataloss="true"
   inkscape:export-filename="Invoice1.svg"
   inkscape:export-xdpi="96"
   inkscape:export-ydpi="96"
   xmlns:inkscape="http://www.inkscape.org/namespaces/inkscape"
   xmlns:sodipodi="http://sodipodi.sourceforge.net/DTD/sodipodi-0.dtd"
   xmlns="http://www.w3.org/2000/svg"
   xmlns:svg="http://www.w3.org/2000/svg"><sodipodi:namedview
     id="namedview1"
     pagecolor="#ffffff"
     bordercolor="#666666"
     borderopacity="1.0"
     inkscape:showpageshadow="2"
     inkscape:pageopacity="0.0"
     inkscape:pagecheckerboard="0"
     inkscape:deskcolor="#d1d1d1"
     inkscape:document-units="mm"
     inkscape:zoom="2.8044052"
     inkscape:cx="110.36208"
     inkscape:cy="107.50943"
     inkscape:window-width="1920"
     inkscape:window-height="1001"
     inkscape:window-x="-9"
     inkscape:window-y="-9"
     inkscape:window-maximized="1"
     inkscape:current-layer="layer1" /><defs
     id="defs1" /><g
     inkscape:label="Layer 1"
     inkscape:groupmode="layer"
     id="layer1"><path
       d="M 20.15592,31.470479 H 5.0223124 c -0.3731361,0 -0.7234276,-0.154839 -0.9772626,-0.408673 C 3.7912157,30.807971 3.6389151,30.470372 3.6389151,30.084543 V 1.6627056 c 0,-0.38329 0.1548391,-0.72342799 0.4061347,-0.97726244 0.2512965,-0.2538343 0.5939725,-0.406135 0.9772626,-0.406135 7.0515206,0 14.6640136,0 21.6799966,0 0.385828,0 0.723428,0.154839 0.977262,0.406135 0.253835,0.25129605 0.408674,0.59143414 0.408674,0.97726244 V 23.408698 c 0.01015,0.0533 0.02284,0.099 0.02284,0.154839 0,0.187838 -0.0863,0.35283 -0.210683,0.472132 L 20.74735,31.26995 c -0.119303,0.119302 -0.398521,0.205606 -0.591435,0.200529 z M 6.8829187,3.7644544 h 0.845269 v 3.5384509 h -0.845269 z m 1.5585435,0 H 9.2283485 L 10.251302,5.7189787 V 3.7644544 h 0.797039 V 7.3029053 H 10.251302 L 9.2334255,5.3585342 V 7.3029053 H 8.4414622 Z m 3.0003238,0 h 0.880805 l 0.614278,2.5484968 0.606665,-2.5484968 h 0.855421 l -1.012798,3.5384509 h -0.913804 z m 3.09424,1.7717635 c 0,-0.5787419 0.124379,-1.0280288 0.373137,-1.3478601 0.248758,-0.3223697 0.593973,-0.4822853 1.038183,-0.4822853 0.454363,0 0.804655,0.1573773 1.050874,0.4746702 0.24622,0.3147548 0.36806,0.7589649 0.36806,1.3275536 0,0.4137502 -0.0533,0.7513501 -0.159916,1.0153382 -0.10661,0.2639872 -0.263988,0.4695935 -0.464516,0.6168171 -0.203068,0.1472237 -0.456902,0.2208364 -0.758966,0.2208364 -0.307139,0 -0.563512,-0.063463 -0.764041,-0.1903763 C 15.018312,7.0439942 14.85332,6.8409274 14.728941,6.5667862 14.599485,6.2951836 14.536026,5.9499682 14.536026,5.5362179 Z m 0.842731,0.00249 c 0,0.357907 0.05077,0.6142796 0.154839,0.7691187 0.101533,0.1548391 0.243681,0.233528 0.418826,0.233528 0.180223,0 0.32237,-0.076155 0.421366,-0.228451 0.09899,-0.1523006 0.149762,-0.4264418 0.149762,-0.8224234 0,-0.3325239 -0.0533,-0.5762044 -0.154839,-0.7285051 -0.104072,-0.154839 -0.243681,-0.2309893 -0.421365,-0.2309893 -0.170069,0 -0.30714,0.078689 -0.411212,0.2335276 -0.104072,0.154839 -0.157377,0.41375 -0.157377,0.7741945 z m 2.57388,-1.7743019 h 0.845269 v 3.5384517 h -0.845269 z m 3.368383,2.0915957 0.738658,0.2893712 c -0.05077,0.2690641 -0.129456,0.4924381 -0.236066,0.6726603 -0.10661,0.1802233 -0.238604,0.3172938 -0.39852,0.4086742 -0.157378,0.09138 -0.360445,0.1370706 -0.604126,0.1370706 -0.296986,0 -0.540667,-0.055845 -0.728504,-0.1675307 C 19.904624,7.0845604 19.74217,6.8865696 19.6051,6.6073514 19.468029,6.3281333 19.399493,5.9651502 19.399493,5.5285554 c 0,-0.583819 0.119302,-1.0356443 0.360445,-1.3503989 0.241143,-0.3147547 0.581281,-0.472132 1.020414,-0.472132 0.342677,0 0.61428,0.088842 0.812271,0.2690644 0.195452,0.1802225 0.342676,0.4569019 0.439133,0.8300385 l -0.743735,0.2132209 c -0.02538,-0.1066105 -0.0533,-0.1852991 -0.08123,-0.2335276 -0.04823,-0.083766 -0.10661,-0.147224 -0.172607,-0.1929142 -0.06854,-0.04569 -0.144686,-0.068536 -0.228451,-0.068536 -0.192914,0 -0.3376,0.098995 -0.439133,0.2969863 -0.07615,0.147224 -0.116764,0.3807516 -0.116764,0.6955059 0,0.3909056 0.0457,0.6599697 0.13707,0.8046549 0.09138,0.144686 0.220837,0.2182979 0.388367,0.2182979 0.162454,0 0.284294,-0.058378 0.365522,-0.1751453 0.08377,-0.114225 0.142149,-0.2842942 0.180225,-0.5076685 z M 22.567347,3.764406 h 2.256588 v 0.7564308 h -1.411319 v 0.5635121 h 1.307247 v 0.72089 h -1.307247 v 0.6980444 h 1.451932 V 7.3053958 H 22.567347 Z M 10.63713,23.48231 c 0.558436,0 1.063567,0.225914 1.431626,0.593973 0.365521,0.365521 0.593972,0.87319 0.593972,1.431626 0,0.558436 -0.225912,1.063567 -0.593972,1.431626 -0.365522,0.365521 -0.87319,0.591435 -1.431626,0.591435 -0.558436,0 -1.0635672,-0.225914 -1.4316271,-0.591435 -0.3655206,-0.365522 -0.5939715,-0.87319 -0.5939715,-1.431626 0,-0.558436 0.2259124,-1.066105 0.5939715,-1.431626 C 9.5735628,23.708224 10.078694,23.48231 10.63713,23.48231 Z m 0.911266,1.114333 c -0.233528,-0.233527 -0.555898,-0.375674 -0.911266,-0.375674 -0.355368,0 -0.6777382,0.144685 -0.9112662,0.375674 -0.233527,0.23099 -0.3756748,0.555898 -0.3756748,0.911266 0,0.355368 0.1446848,0.677738 0.3756748,0.911266 0.23099,0.233527 0.5558982,0.375674 0.9112662,0.375674 0.355368,0 0.677738,-0.144685 0.911266,-0.375674 0.233527,-0.23099 0.375675,-0.555898 0.375675,-0.911266 0.0025,-0.357906 -0.142148,-0.680276 -0.375675,-0.911266 z m -0.911266,-2.78964 c 1.020414,0 1.944372,0.41375 2.614495,1.083873 0.670122,0.670123 1.083873,1.594081 1.083873,2.614495 0,1.020414 -0.413751,1.944371 -1.083873,2.611956 -0.670123,0.670122 -1.594081,1.083873 -2.614495,1.083873 -1.0204152,0 -1.9469108,-0.413751 -2.6144951,-1.083873 -0.6701228,-0.670123 -1.083873,-1.59408 -1.083873,-2.614494 0,-1.020415 0.4137502,-1.94691 1.083873,-2.614495 l 0.022843,-0.01777 c 0.6675843,-0.657431 1.5839269,-1.063567 2.5916491,-1.063567 z m 2.096672,1.604234 c -0.53559,-0.535591 -1.276786,-0.865575 -2.094134,-0.865575 -0.8097322,0 -1.5433131,0.324908 -2.0789038,0.850345 l -0.017768,0.01777 c -0.5355908,0.535591 -0.8681137,1.276787 -0.8681137,2.094134 0,0.817347 0.3325229,1.558543 0.8681137,2.094134 0.5355907,0.535591 1.2767876,0.868114 2.0941348,0.868114 0.817346,0 1.558543,-0.332523 2.094134,-0.868114 0.535591,-0.535591 0.868114,-1.276787 0.868114,-2.094134 0,-0.819885 -0.329985,-1.561081 -0.865577,-2.096672 z M 9.6090998,11.628245 c -0.2462193,0 -0.4442101,-0.197991 -0.4442101,-0.444211 0,-0.246219 0.1979908,-0.44421 0.4442101,-0.44421 h 8.9146652 c 0.246219,0 0.44421,0.197991 0.44421,0.44421 0,0.24622 -0.197991,0.444211 -0.44421,0.444211 z m 0,6.632692 c -0.2462193,0 -0.4442101,-0.197991 -0.4442101,-0.444211 0,-0.246218 0.1979908,-0.444209 0.4442101,-0.444209 H 21.899762 c 0.24622,0 0.444211,0.197991 0.444211,0.444209 0,0.24622 -0.197991,0.444211 -0.444211,0.444211 z m 0,-2.716028 c -0.2462193,0 -0.4442101,-0.19799 -0.4442101,-0.44421 0,-0.246219 0.1979908,-0.44421 0.4442101,-0.44421 h 8.9146652 c 0.246219,0 0.44421,0.197991 0.44421,0.44421 0,0.24622 -0.197991,0.44421 -0.44421,0.44421 z M 23.77306,13.405085 H 7.9769447 v 6.074257 H 23.77306 Z M 7.9769447,12.516664 H 23.77306 V 9.818405 H 7.9769447 Z M 7.5327344,8.9299849 H 24.217271 c 0.246219,0 0.44421,0.197991 0.44421,0.444209 v 3.5866811 6.965216 c 0,0.246219 -0.197991,0.44421 -0.44421,0.44421 H 7.5327344 c -0.2462186,0 -0.4442094,-0.200529 -0.4442094,-0.44421 V 12.960875 9.3741939 c 0,-0.243681 0.1979908,-0.444209 0.4442094,-0.444209 z M 19.630483,30.226691 v -5.414288 c 0,-0.517822 0.210682,-0.989954 0.550821,-1.330093 0.340137,-0.340137 0.812269,-0.55082 1.330091,-0.55082 h 5.315292 V 1.6601672 c 0,-0.032999 -0.01015,-0.07615 -0.04569,-0.098995 -0.02284,-0.022846 -0.05585,-0.04569 -0.09899,-0.04569 -5.581819,0 -16.237787,0 -21.667305,0 -0.033002,0 -0.078688,0.010153 -0.098996,0.04569 -0.027918,0.022846 -0.05077,0.065997 -0.05077,0.098995 V 30.084543 c 0,0.0457 0.01015,0.07615 0.045695,0.09899 0.022843,0.02284 0.055845,0.0457 0.098996,0.0457 H 19.61525 Z m 1.24125,-5.414288 v 4.53602 l 5.107148,-5.173144 h -4.470023 c -0.175147,0 -0.329986,0.07869 -0.449288,0.187837 -0.111687,0.109148 -0.187837,0.274141 -0.187837,0.449287 z"
       id="path1-5"
       style="stroke-width:0.253834" /></g></svg>
