<?xml version="1.0" encoding="UTF-8" standalone="no"?>
<!-- Created with Inkscape (http://www.inkscape.org/) -->

<svg
   width="240"
   height="120"
   viewBox="0 0 63.499998 31.75"
   version="1.1"
   id="svg1"
   xml:space="preserve"
   inkscape:version="1.3 (0e150ed6c4, 2023-07-21)"
   sodipodi:docname="Message.svg"
   inkscape:dataloss="true"
   inkscape:export-filename="Lorry2.svg"
   inkscape:export-xdpi="96"
   inkscape:export-ydpi="96"
   xmlns:inkscape="http://www.inkscape.org/namespaces/inkscape"
   xmlns:sodipodi="http://sodipodi.sourceforge.net/DTD/sodipodi-0.dtd"
   xmlns="http://www.w3.org/2000/svg"
   xmlns:svg="http://www.w3.org/2000/svg"><sodipodi:namedview
     id="namedview1"
     pagecolor="#ffffff"
     bordercolor="#666666"
     borderopacity="1.0"
     inkscape:showpageshadow="2"
     inkscape:pageopacity="0.0"
     inkscape:pagecheckerboard="0"
     inkscape:deskcolor="#d1d1d1"
     inkscape:document-units="mm"
     inkscape:zoom="2.8044052"
     inkscape:cx="110.36208"
     inkscape:cy="107.50943"
     inkscape:window-width="1920"
     inkscape:window-height="1001"
     inkscape:window-x="-9"
     inkscape:window-y="-9"
     inkscape:window-maximized="1"
     inkscape:current-layer="layer1" /><defs
     id="defs1" /><g
     inkscape:label="Layer 1"
     inkscape:groupmode="layer"
     id="layer1"><g
       style="clip-rule:evenodd;fill-rule:evenodd;image-rendering:optimizeQuality;shape-rendering:geometricPrecision;text-rendering:geometricPrecision"
       id="g2"
       transform="matrix(0.08803999,0,0,0.08803999,3.8801344e-5,3.1408958)"><path
         d="m 429.38,196.01 c -25.83,0 -46.64,20.95 -46.64,46.63 0,25.83 20.95,46.64 46.64,46.64 25.83,0 46.63,-20.95 46.63,-46.64 0,-25.82 -20.95,-46.63 -46.63,-46.63 z M 46.46,169.81 v -37.57 h 15.66 c 6.3,0 10.63,1.44 12.98,4.33 2.35,2.88 3.53,7.7 3.53,14.46 0,6.75 -1.18,11.57 -3.53,14.45 -2.35,2.89 -6.68,4.33 -12.98,4.33 z m 15.83,-27.95 h -4.64 v 18.33 h 4.64 c 1.53,0 2.64,-0.19 3.33,-0.57 0.69,-0.38 1.04,-1.25 1.04,-2.61 v -11.97 c 0,-1.36 -0.35,-2.23 -1.04,-2.61 -0.69,-0.38 -1.8,-0.57 -3.33,-0.57 z m 43.47,13.76 H 94.57 v 4.57 h 13.7 v 9.62 H 83.38 v -37.57 h 24.61 l -1.4,9.62 H 94.57 v 5.05 h 11.19 z m 30.48,14.19 h -22.37 v -37.57 h 11.18 v 27.95 h 11.19 z m 3.92,0 v -37.57 h 11.18 v 37.57 z m 36.69,-37.57 h 11.8 l -8.67,37.57 h -16.33 l -8.67,-37.57 h 11.8 l 4.76,23.86 h 0.5 z m 37.82,23.38 h -11.19 v 4.57 h 13.7 v 9.62 h -24.89 v -37.57 h 24.61 l -1.4,9.62 h -12.02 v 5.05 h 11.19 z m 38.59,14.19 h -12.31 l -4.58,-11.18 h -2.41 v 11.18 h -11.18 v -37.57 h 17.62 c 8.01,0 12.02,4.39 12.02,13.17 0,6.01 -1.73,9.97 -5.2,11.9 z m -19.3,-27.95 v 7.51 h 2.58 c 1.34,0 2.32,-0.15 2.93,-0.45 0.62,-0.3 0.93,-0.99 0.93,-2.07 v -2.47 c 0,-1.08 -0.31,-1.77 -0.93,-2.07 -0.61,-0.3 -1.59,-0.45 -2.93,-0.45 z m 33.62,-9.62 3.08,13.23 h 0.39 l 3.13,-13.23 h 12.37 l -10.08,27.35 v 10.22 H 265.29 V 159.59 L 255.22,132.24 Z M 101.82,88.72 H 85.16 v 22.73 H 65.56 V 50.2 h 40.18 l -2.45,15.68 H 85.16 v 8.23 h 16.66 z m 63.21,22.73 h -21.56 l -8.04,-18.23 h -4.21 v 18.23 h -19.6 V 50.2 h 30.87 c 14.04,0 21.07,7.16 21.07,21.46 0,9.8 -3.04,16.27 -9.12,19.41 z M 131.22,65.88 v 12.25 h 4.5 c 2.36,0 4.07,-0.24 5.15,-0.73 1.08,-0.49 1.62,-1.62 1.62,-3.38 V 70 c 0,-1.77 -0.54,-2.9 -1.62,-3.38 -1.08,-0.49 -2.79,-0.74 -5.15,-0.74 z m 79.87,22.44 h -19.6 v 7.45 h 24.01 v 15.68 H 171.89 V 50.2 h 43.12 l -2.45,15.68 h -21.07 v 8.23 h 19.6 z m 51.94,0 h -19.6 v 7.45 h 24.01 v 15.68 H 223.83 V 50.2 h 43.12 l -2.45,15.68 h -21.07 v 8.23 h 19.6 z m 136.5,-15.43 -70.02,-0.42 v -42.7 c 0,-8.97 -0.6,-15.44 -7.46,-22.31 C 317.46,2.87 311.14,0 304.11,0 H 25.25 C 18.22,0 11.91,2.87 7.32,7.46 -0.19,14.97 0,21.18 0,30.15 v 198.72 c 0,6.89 2.87,13.49 7.46,18.22 4.59,4.74 10.91,7.75 17.94,7.75 h 94.26 c 3.88,0 6.89,-3.16 6.89,-6.89 0,-3.87 -3.16,-6.88 -6.89,-6.88 l -94.26,0.14 c -3.16,0 -5.88,-1.44 -8.04,-3.59 -2.15,-2.29 -3.58,-5.45 -3.58,-8.75 V 23.58 c 0.39,-2.47 1.56,-4.74 3.3,-6.36 2.15,-2.15 5.02,-3.44 8.17,-3.44 h 278.86 c 3.16,0 6.03,1.29 8.18,3.44 4.05,4.06 3.44,8.14 3.44,13.28 v 210.57 h -54.3 c -3.87,0 -6.89,3.01 -6.89,6.88 0,3.73 3.02,6.89 6.89,6.89 h 61.19 c 3.87,0 6.89,-3.01 6.89,-6.89 v -7.89 h 41.61 c 3.16,-71.74 106.04,-81.64 116.51,0 h 22.68 c 2.99,-15.9 1.87,-34.53 -2.27,-54.98 -4.84,-23.9 -3.42,-19.26 -25.73,-27.81 L 436.8,136.89 Z m -17.94,19.66 -34.72,-0.43 v 44.77 h 58.26 z m -191.9,103.46 c -25.83,0 -46.64,20.95 -46.64,46.63 0,25.83 20.95,46.64 46.64,46.64 25.83,0 46.63,-20.95 46.63,-46.64 0,-25.82 -20.95,-46.63 -46.63,-46.63 z m 0,28.7 c -9.9,0 -17.94,8.03 -17.94,17.93 0,9.91 8.04,17.94 17.94,17.94 9.9,0 17.93,-8.03 17.93,-17.94 0,-9.9 -8.03,-17.93 -17.93,-17.93 z m 239.69,0 c -9.9,0 -17.94,8.03 -17.94,17.93 0,9.91 8.04,17.94 17.94,17.94 9.9,0 17.93,-8.03 17.93,-17.94 0,-9.9 -8.03,-17.93 -17.93,-17.93 z"
         id="path1-2" /></g></g></svg>
