<?xml version="1.0" encoding="UTF-8" standalone="no"?>
<!-- Created with Inkscape (http://www.inkscape.org/) -->

<svg
   width="120"
   height="120"
   viewBox="0 0 31.749999 31.75"
   version="1.1"
   id="svg1"
   xml:space="preserve"
   xmlns="http://www.w3.org/2000/svg"
   xmlns:svg="http://www.w3.org/2000/svg"><defs
     id="defs1" /><g
     id="layer1"><path
       d="M 5.7675889,0.65131822 H 20.501935 c 1.171908,0 2.237282,0.47817768 3.010295,1.25119238 0.773014,0.7730145 1.251192,1.8383868 1.251192,3.0102949 v 9.5041125 c 0,1.17191 -0.478178,2.237281 -1.251192,3.010296 -0.773013,0.773014 -1.838387,1.251192 -3.010295,1.251192 H 13.133522 L 6.662005,24.240642 C 6.3622146,24.498313 5.9088127,24.463627 5.6511411,24.161356 5.5247751,24.0127 5.467797,23.829357 5.4801849,23.648491 l 0.3443884,-4.972564 h -0.056982 c -1.1719097,0 -2.237282,-0.478177 -3.0102949,-1.251192 C 1.9842826,16.654202 1.5061032,15.588829 1.5061032,14.416919 V 4.9128071 c 0,-1.1719081 0.4781794,-2.2372804 1.2511939,-3.010295 C 3.5278326,1.1294975 4.5932048,0.65131981 5.7675921,0.65131981 Z M 26.854527,7.5836704 c 0.834954,0.1610443 1.583191,0.5723269 2.162952,1.1520871 0.755671,0.7556715 1.226418,1.7987455 1.226418,2.9483565 v 9.504112 c 0,1.149611 -0.468269,2.192686 -1.226418,2.948356 -0.75567,0.755671 -1.798744,1.226417 -2.948354,1.226417 h -0.151142 l 0.35182,5.064235 v 0 c 0.0099,0.158566 -0.03717,0.322088 -0.148654,0.450925 -0.225463,0.265104 -0.624358,0.294835 -0.886985,0.06937 l -6.496293,-5.748056 h -8.557664 l 4.214415,-4.286266 h 8.929306 c 1.9474,0 3.542982,-1.593103 3.542982,-3.542983 V 7.8636381 c -0.0024,-0.094144 -0.005,-0.1882988 -0.01235,-0.2799692 z M 7.8686025,11.473517 c -0.3964192,0 -0.7185078,-0.322089 -0.7185078,-0.718508 0,-0.396416 0.3220886,-0.718506 0.7185078,-0.718506 h 7.5195455 c 0.396417,0 0.718507,0.32209 0.718507,0.718506 0,0.396419 -0.32209,0.718508 -0.718507,0.718508 z m 0,-3.5578481 c -0.3964192,0 -0.7185078,-0.3220882 -0.7185078,-0.7185057 0,-0.3964177 0.3220886,-0.7185078 0.7185078,-0.7185078 H 18.527279 c 0.396418,0 0.718506,0.3220901 0.718506,0.7185078 0,0.3964175 -0.322088,0.7185057 -0.718506,0.7185057 z M 20.499455,2.0883306 H 5.7675889 c -0.7754921,0 -1.4816104,0.317135 -1.9944775,0.829999 -0.5128639,0.512867 -0.8299989,1.2165078 -0.8299989,1.9944759 v 9.5041125 c 0,0.775491 0.317135,1.48161 0.8299989,1.994476 0.5128671,0.512865 1.2189854,0.829999 1.9944775,0.829999 h 0.8275214 v 0.0024 l 0.047065,0.0024 c 0.3939416,0.02725 0.693732,0.369164 0.6664786,0.763104 l -0.2799713,4.02868 5.3367704,-4.588534 c 0.128837,-0.128837 0.307225,-0.20812 0.505433,-0.20812 h 7.628562 c 0.775492,0 1.48161,-0.317133 1.994476,-0.829999 0.512866,-0.512865 0.829999,-1.218983 0.829999,-1.994475 V 4.9126883 c 0,-0.7754906 -0.317133,-1.4816089 -0.829999,-1.994476 C 21.983536,2.4053485 21.277418,2.0882134 20.499448,2.0882134 Z"
       id="path1"
       style="stroke-width:0.247762" /></g></svg>
