<?xml version="1.0" encoding="UTF-8" standalone="no"?>
<!-- Created with Inkscape (http://www.inkscape.org/) -->

<svg
   width="1024"
   height="1024"
   viewBox="0 0 270.93333 270.93333"
   version="1.1"
   id="svg1"
   inkscape:version="1.3 (0e150ed6c4, 2023-07-21)"
   sodipodi:docname="NG.svg"
   xmlns:inkscape="http://www.inkscape.org/namespaces/inkscape"
   xmlns:sodipodi="http://sodipodi.sourceforge.net/DTD/sodipodi-0.dtd"
   xmlns="http://www.w3.org/2000/svg"
   xmlns:svg="http://www.w3.org/2000/svg">
  <sodipodi:namedview
     id="namedview1"
     pagecolor="#ffffff"
     bordercolor="#666666"
     borderopacity="1.0"
     inkscape:showpageshadow="2"
     inkscape:pageopacity="0.0"
     inkscape:pagecheckerboard="0"
     inkscape:deskcolor="#d1d1d1"
     inkscape:document-units="mm"
     inkscape:zoom="0.99150695"
     inkscape:cx="578.41248"
     inkscape:cy="518.9071"
     inkscape:window-width="1920"
     inkscape:window-height="1001"
     inkscape:window-x="-9"
     inkscape:window-y="-9"
     inkscape:window-maximized="1"
     inkscape:current-layer="layer1"
     showgrid="true">
    <inkscape:grid
       id="grid1"
       units="px"
       originx="0"
       originy="0"
       spacingx="0.26458333"
       spacingy="0.26458333"
       empcolor="#0099e5"
       empopacity="0.30196078"
       color="#0099e5"
       opacity="0.14901961"
       empspacing="5"
       dotted="false"
       gridanglex="30"
       gridanglez="30"
       visible="true" />
  </sodipodi:namedview>
  <defs
     id="defs1">
    <inkscape:path-effect
       effect="bspline"
       id="path-effect3827"
       is_visible="true"
       lpeversion="1.3"
       weight="33.333333"
       steps="2"
       helper_size="0"
       apply_no_weight="true"
       apply_with_weight="true"
       only_selected="false"
       uniform="false" />
  </defs>
  <g
     inkscape:label="Layer 1"
     inkscape:groupmode="layer"
     id="layer1">
    <path
       style="fill:none;stroke:#87310b;stroke-width:0.465;stroke-linecap:round;stroke-linejoin:round;stroke-dasharray:none;stroke-opacity:1"
       d="m 166.06702,57.244649 c 0.17981,0.236919 0.36258,0.477734 0.52346,0.61257 0.16088,0.134836 0.30135,0.165639 0.43737,0.177057 0.13602,0.01142 0.27219,0.0032 0.43247,-0.0479 0.16028,-0.05107 0.34697,-0.145102 0.5961,-0.382623 0.24913,-0.237521 0.56068,-0.618512 1.27475,-2.26846 0.71408,-1.649948 1.83062,-4.568723 2.4228,-6.022467 0.59218,-1.453743 0.66005,-1.442387 0.68016,-1.376184 0.0201,0.0662 -0.007,0.187256 -0.0846,0.630142 -0.0771,0.442887 -0.2038,1.207572 -0.27223,1.888242 -0.0684,0.680671 -0.0786,1.277288 -0.0621,2.179268 0.0165,0.90198 0.0597,2.109265 0.13358,2.954764 0.0738,0.845499 0.17829,1.329173 0.27973,1.63396 0.10144,0.304788 0.19991,0.430729 0.30376,0.512332 0.10385,0.0816 0.21311,0.118895 0.26623,0.139984 0.0531,0.02109 0.0501,0.02591 0.0786,0.02564 0.0285,-2.65e-4 0.0886,-0.0057 0.1687,-0.02378 0.0801,-0.0181 0.18039,-0.04891 0.47514,-0.261568 0.29475,-0.212659 0.78399,-0.607162 1.34618,-1.274867 0.56219,-0.667705 1.1973,-1.608566 1.69345,-2.470282 0.49616,-0.861716 0.85333,-1.644233 1.09495,-2.236274 0.24163,-0.59204 0.36769,-0.993566 0.44484,-1.35349 0.0771,-0.359924 0.10538,-0.678225 0.11709,-0.924125 0.0117,-0.245901 0.007,-0.41938 -0.0309,-0.548528 -0.0378,-0.129149 -0.10866,-0.214009 -0.21161,-0.290481 -0.10296,-0.07647 -0.23802,-0.144562 -0.41211,-0.175905 -0.17409,-0.03134 -0.38719,-0.02594 -0.64472,0.06908 -0.25754,0.09502 -0.56189,0.281119 -0.86414,0.584842 -0.30226,0.303722 -0.60361,0.725786 -0.82812,1.192719 -0.22452,0.466932 -0.37219,0.978703 -0.44636,1.398616 -0.0742,0.419913 -0.0748,0.747942 -0.0466,1.118676 0.0282,0.370734 0.0852,0.784156 0.19116,1.147055 0.10595,0.3629 0.26083,0.675256 0.40641,0.867918 0.14557,0.192663 0.28183,0.265617 0.43341,0.321553 0.15158,0.05593 0.31846,0.09484 0.53247,0.07674 0.21401,-0.0181 0.47514,-0.09322 0.93378,-0.293997 0.45864,-0.200772 1.11475,-0.52718 1.62981,-0.842521 0.51507,-0.31534 0.88905,-0.619593 1.22732,-0.929259 0.33828,-0.309666 0.64083,-0.62473 0.84553,-0.924668 0.20471,-0.299938 0.31156,-0.584736 0.29565,-0.734703 -0.0159,-0.149967 -0.15458,-0.165101 -0.30706,-0.155643 -0.15248,0.0095 -0.31876,0.0435 -0.49255,0.108626 -0.17379,0.06512 -0.35507,0.161313 -0.56548,0.264536 -0.21041,0.103223 -0.44993,0.213469 -0.65583,0.306153 -0.20591,0.09268 -0.37819,0.167799 -0.42383,0.174565 -0.0456,0.0068 0.0354,-0.05486 0.21883,-0.159435 0.1834,-0.104575 0.46913,-0.252105 0.69305,-0.383971 0.22391,-0.131865 0.38599,-0.248056 1.06002,-0.589423 0.67402,-0.341367 1.85925,-0.907554 3.04485,-1.473918"
       id="path3827"
       inkscape:path-effect="#path-effect3827"
       inkscape:original-d="m 166.06702,57.244649 c 0.18009,0.236707 0.36258,0.477734 0.54387,0.716602 0.14047,0.03081 0.28094,0.06161 0.42141,0.09241 0.13147,-0.0097 0.26774,-0.01622 0.40161,-0.02432 0.18669,-0.09404 0.37338,-0.188069 0.56008,-0.282101 0.31156,-0.381008 0.62311,-0.761998 0.93467,-1.142998 1.11659,-2.918894 2.23313,-5.837669 3.34969,-8.756502 0.0678,0.01135 0.13567,0.0227 0.2035,0.03405 -0.0276,0.121057 -0.0552,0.24211 -0.0828,0.363164 -0.12667,0.764718 -0.25333,1.529403 -0.37999,2.294105 -0.0102,0.59664 -0.0204,1.193257 -0.0306,1.789885 0.0432,1.207333 0.0864,2.414619 0.12967,3.621926 0.10445,0.48369 0.20891,0.967362 0.31336,1.451041 0.0984,0.125923 0.1969,0.251838 0.29535,0.377756 0.10925,0.03729 0.21851,0.07458 0.32776,0.111869 -0.003,0.0049 -0.006,0.0097 -0.009,0.01458 0.06,-0.0054 0.12006,-0.01082 0.18009,-0.01622 0.10025,-0.0308 0.2005,-0.06161 0.30075,-0.09241 0.48925,-0.394517 0.97849,-0.789019 1.46774,-1.183531 0.63513,-0.940898 1.27024,-1.881759 1.90536,-2.822636 0.35719,-0.782553 0.71436,-1.565071 1.07154,-2.347606 0.12607,-0.401545 0.25213,-0.803071 0.37819,-1.204608 0.0282,-0.318315 0.0564,-0.636619 0.0847,-0.954929 -0.005,-0.173479 -0.01,-0.346953 -0.0144,-0.52043 -0.0708,-0.08485 -0.14167,-0.169693 -0.21251,-0.25454 -0.13507,-0.06809 -0.27013,-0.136186 -0.4052,-0.204279 -0.21311,0.0054 -0.42621,0.01079 -0.63932,0.01622 -0.30316,0.182668 -0.60631,0.370731 -0.90946,0.556098 -0.30136,0.42208 -0.60271,0.844143 -0.90406,1.266214 -0.14768,0.511794 -0.29535,1.023565 -0.44302,1.535348 -5.3e-4,0.328044 -0.001,0.656074 -0.002,0.984113 0.057,0.413432 0.11406,0.826849 0.17108,1.240274 0.15489,0.312372 0.30976,0.624731 0.46464,0.937096 0.13627,0.07296 0.27253,0.145915 0.4088,0.218874 0.16689,0.03891 0.33377,0.07782 0.50066,0.116731 0.26113,-0.07512 0.52226,-0.150238 0.78339,-0.225359 0.65615,-0.326422 1.31226,-0.652833 1.96839,-0.979249 0.374,-0.304263 0.74798,-0.608518 1.12197,-0.912776 0.30256,-0.315073 0.60511,-0.630137 0.90766,-0.945202 0.10686,-0.284811 0.21371,-0.569609 0.32056,-0.854411 -0.13867,-0.01514 -0.27734,-0.03027 -0.41601,-0.0454 -0.16629,0.03405 -0.33257,0.06809 -0.49885,0.10214 -0.1813,0.0962 -0.36258,0.192392 -0.54388,0.288589 -0.23952,0.110247 -0.47904,0.220493 -0.71856,0.33074 -0.17229,0.07512 -0.34457,0.150236 -0.51686,0.225356 0.081,-0.06161 0.16208,-0.123216 0.24313,-0.184825 0.28575,-0.147539 0.57148,-0.295071 0.85723,-0.442608 0.16208,-0.116194 0.32416,-0.232383 0.48624,-0.348575 1.18502,-0.568537 2.3712,-1.132729 3.5568,-1.699093"
       inkscape:export-filename="..\..\Peyek/NG.png"
       inkscape:export-xdpi="96"
       inkscape:export-ydpi="96"
       transform="matrix(12.144087,0,0,12.144087,-1990.1579,-507.88515)" />
    <text
       xml:space="preserve"
       style="font-style:normal;font-variant:normal;font-weight:bold;font-stretch:normal;font-size:18.127px;line-height:1.45;font-family:Arial;-inkscape-font-specification:'Arial Bold';letter-spacing:1.73694px;fill:#87310b;fill-opacity:1;stroke-width:0.453177"
       x="174.01929"
       y="198.07326"
       id="text2379"><tspan
         sodipodi:role="line"
         id="tspan2379"
         style="font-style:normal;font-variant:normal;font-weight:bold;font-stretch:normal;line-height:1.45;font-family:Arial;-inkscape-font-specification:'Arial Bold';letter-spacing:1.73694px;fill:#87310b;fill-opacity:1;stroke-width:0.453177"
         x="174.01929"
         y="198.07326">SHOP</tspan></text>
  </g>
</svg>
