<?xml version="1.0" encoding="UTF-8" standalone="no"?>
<!-- Created with Inkscape (http://www.inkscape.org/) -->

<svg
   width="130"
   height="130"
   viewBox="0 0 34.395832 34.395834"
   version="1.1"
   id="svg1"
   xml:space="preserve"
   xmlns="http://www.w3.org/2000/svg"
   xmlns:svg="http://www.w3.org/2000/svg"><defs
     id="defs1" /><g
     id="layer1"><path
       style="fill:#161616;stroke:none;stroke-width:0.192515"
       d="m 11.702701,24.368074 v -0.81498 h -1.273404 c 0,-0.866536 -0.7311817,-1.944804 -1.7318347,-1.579023 V 8.6287749 c 1.152854,0.217977 1.7318347,-0.622474 1.7318347,-1.680895 0.63026,0.230391 1.617438,0.05094 2.292129,0.05094 h 5.042694 1.680898 c 0.187673,0 0.501807,-0.06004 0.65651,0.0679 0.2907,0.240435 0.168211,1.037374 0.107517,1.3583 0.210803,-0.09501 0.846223,-0.545535 0.981933,-0.73716 0.334437,-0.472242 -0.192636,-1.308924 -0.62538,-1.484227 -0.823345,-0.333531 -2.025448,-0.121682 -2.90337,-0.121682 h -6.316097 c -0.849933,0 -2.2770997,-0.271089 -3.0052387,0.239118 -0.587526,0.41168 -0.509362,1.064105 -0.509362,1.696458 v 4.1767711 8.608225 c 0,0.891613 -0.322092,2.521845 0.3608,3.204739 0.369848,0.36985 0.835981,0.360799 1.320098,0.360799 h 2.1902567 m 0,-1.37528 v -2.241188 c -0.279455,0 -1.675261,0.170979 -1.54931,-0.355138 0.08934,-0.37323 1.250721,-0.20516 1.54931,-0.20516 v -0.713106 c -0.277943,0 -1.640042,0.165287 -1.547896,-0.35514 0.06512,-0.367759 1.266483,-0.205159 1.547896,-0.205159 v -0.713108 c -0.298048,0 -1.545065,0.175449 -1.545065,-0.305618 0,-0.417152 1.271917,-0.254681 1.545065,-0.254681 v -0.713106 c -0.277943,0 -1.640042,0.165287 -1.547896,-0.355138 0.06512,-0.367758 1.266483,-0.20516 1.547896,-0.20516 v -0.713107 c -0.291621,0 -1.545065,0.170442 -1.545065,-0.305617 0,-0.417152 1.271912,-0.254682 1.545065,-0.254682 v -0.713108 c -0.381305,0 -0.851397,0.07508 -1.222471,-0.01276 -0.138945,-0.03288 -0.354194,-0.172542 -0.307029,-0.343819 0.102244,-0.371318 1.227362,-0.203746 1.5295,-0.203746 V 13.0602 c -0.275465,0 -1.602844,0.16644 -1.540819,-0.305617 0.0478,-0.363556 1.26182,-0.203744 1.540819,-0.203744 v -0.764017 c -0.342806,0 -1.287937,0.164575 -1.5012,-0.157055 -0.121631,-0.183426 0.06377,-0.328987 0.227795,-0.379191 0.32989,-0.100981 0.893838,-0.0615 1.222469,0.02689 0.495919,-1.192197 1.105401,-2.5250631 2.343066,-3.1438981 0.493058,-0.246527 0.955195,-0.242058 1.477156,-0.325426 0.432741,-0.06912 0.757193,-0.292165 1.222471,-0.244777 1.054861,0.107439 1.782767,1.075557 1.782767,2.084142 h 1.222471 v -2.241198 h -6.417972 -1.680892 l -0.645193,0.03679 -0.154223,0.52351 -0.526345,0.783852 -0.6098157,0.365044 -0.472578,0.141489 -0.03679,0.9508101 v 2.648685 6.316093 1.629961 l 0.03679,0.594256 0.9819427,0.435788 0.546148,0.650851 0.192427,0.472577 0.789508,0.03679 m 4.43146,-14.6993471 c -0.37854,0.08763 -1.343723,0.847307 -0.981942,1.337077 0.08788,0.118989 0.548507,0.105325 0.663587,0.03113 0.319669,-0.206112 0.64443,-1.023317 1.107864,-0.319764 0.135052,0.205039 0.07641,0.529925 0.07641,0.7640431 v 1.731832 c 0,0.269923 0.04384,0.560179 -0.205166,0.738575 -0.513513,0.367888 -0.863419,-0.567409 -1.361127,-0.06366 -0.497161,0.50318 0.669211,1.048437 1.05693,1.048437 0.502722,0 0.99714,-0.303141 1.209736,-0.755555 0.211712,-0.450541 0.165535,-0.9928 0.165535,-1.477151 0,-1.182604 0.17345,-3.4759871 -1.731826,-3.0349511 m 5.501112,-0.0014 c -0.463438,0.09011 -0.826974,0.409173 -0.998915,0.846108 -0.164354,0.417654 -0.07074,0.9831711 -0.07074,1.4262141 0,1.187398 -0.227304,3.299712 1.629959,2.951474 0.394862,-0.07403 0.771956,-0.38556 0.915437,-0.761215 0.158964,-0.416159 0.103275,-0.887625 0.103275,-1.324343 0,-1.117024 0.28008,-3.4997261 -1.579024,-3.1382381 m 0.254679,0.868747 c 0.279532,0.0052 0.475534,0.220469 0.505116,0.486724 0.08736,0.7862511 0.08736,1.7605581 0,2.5468111 -0.02926,0.263706 -0.222636,0.500219 -0.505116,0.500873 -0.301355,7.17e-4 -0.501449,-0.219593 -0.548978,-0.500873 -0.121785,-0.720735 -0.126632,-1.826927 0,-2.5468111 0.04795,-0.272587 0.259753,-0.492081 0.548978,-0.486724 m 1.884663,1.2507561 c 0,0.196105 -0.100053,0.804588 0.0679,0.931003 0.392025,0.29504 1.628734,-0.327331 1.842196,0.240532 0.110932,0.295109 0.02545,0.756429 0.02545,1.06966 v 2.44494 8.251672 2.750557 c 0,0.295651 0.108148,0.857495 -0.0368,1.119179 -0.118228,0.213437 -0.421709,0.154224 -0.625388,0.154224 h -1.731833 -7.334815 -1.986521 c -0.241652,0 -0.577145,0.08211 -0.687639,-0.20516 -0.127058,-0.330359 -0.02544,-0.868724 -0.02544,-1.221055 v -2.852469 -8.047926 -2.394004 c 0,-0.312462 -0.08629,-0.774123 0.01698,-1.06966 0.192085,-0.549756 1.379035,0.03777 1.748811,-0.240531 0.167969,-0.126414 0.0679,-0.734899 0.0679,-0.931003 -0.675975,0 -2.042395,-0.266077 -2.525588,0.309862 -0.256625,0.305885 -0.224971,0.744632 -0.224971,1.116355 v 2.292129 9.219461 c 0,1.286917 -0.123165,2.642142 0.0043,3.922091 0.04879,0.49043 0.379632,0.981534 0.91261,1.017312 3.243847,0.217755 6.578572,0.0012 9.830699,0.0012 0.889973,0 2.759549,0.366741 3.337742,-0.45843 0.254802,-0.363648 0.176863,-0.854472 0.176863,-1.273403 v -2.699386 -9.219461 -2.495875 c 0,-0.391408 0.07252,-0.86589 -0.123087,-1.22247 -0.45055,-0.821263 -1.939931,-0.509363 -2.729333,-0.509363 m -5.297369,0 v 0.967788 h 1.426216 l 0.05094,-0.967788 h -1.477149 m 0.764042,3.432537 c -0.594234,0.09766 -1.132517,0.262026 -1.579022,0.694713 -1.794698,1.739142 -0.07555,4.558197 2.241195,4.214975 2.974275,-0.440637 2.270611,-5.391691 -0.662173,-4.909688 m 0.407487,0.642362 v 0.356554 c 0.372144,0.01877 0.999394,0.327377 0.798003,0.80932 -0.05597,0.133893 -0.310984,0.140324 -0.428713,0.09055 -0.128908,-0.0545 -0.156401,-0.227638 -0.271662,-0.307033 -0.208354,-0.143524 -0.758738,-0.134005 -0.831953,0.172617 -0.04683,0.196087 0.162821,0.328062 0.326838,0.350893 0.400846,0.0558 0.856074,-0.03393 1.158797,0.314109 0.524348,0.60284 -0.06606,1.438356 -0.75131,1.472904 v 0.407491 h -0.458423 v -0.407491 c -0.698002,-0.03519 -1.402884,-0.967789 -0.356553,-0.967789 0.148633,0.570604 1.273088,0.565335 1.103615,0 -0.15295,-0.510198 -1.005377,-0.190375 -1.3583,-0.432957 -0.728611,-0.500811 -0.100375,-1.466739 0.611238,-1.502619 v -0.40749 l 0.458422,0.05094 m -5.092223,3.387261 c -0.209424,0.08127 -0.285884,0.409647 -0.04808,0.509362 0.24133,0.1012 1.023589,0.1012 1.264917,0 0.239152,-0.100285 0.172972,-0.4411 -0.0467,-0.517852 -0.245092,-0.08564 -0.928049,-0.08545 -1.17012,0.0085 m 8.509191,0 c -0.203727,0.08544 -0.216336,0.438472 -0.003,0.517851 0.23363,0.08687 1.156783,0.111796 1.368202,-0.01981 0.172436,-0.107335 0.130235,-0.422658 -0.04952,-0.498042 -0.249011,-0.104423 -1.066847,-0.104423 -1.315851,0 m -7.847018,1.833704 c -0.259624,0.100749 -0.227168,0.413326 0,0.529171 0.305624,0.155855 0.834465,0.0566 1.170123,0.0566 h 5.399243 1.528083 c 0.174962,0 0.453932,0.02449 0.585771,-0.118847 0.184078,-0.200147 -0.0077,-0.457089 -0.229212,-0.488139 -0.505899,-0.07092 -1.067905,-0.0043 -1.579029,-0.0043 h -4.838941 c -0.571309,0 -1.504267,-0.18089 -2.036038,0.02546 m 0,1.22247 c -0.24065,0.09339 -0.24944,0.427878 0,0.517852 0.527411,0.190236 1.422399,0.01698 1.985103,0.01698 h 4.584263 1.477149 c 0.177288,0 0.459007,0.0533 0.605575,-0.0679 0.202371,-0.167376 0.0749,-0.426609 -0.147156,-0.479649 -0.475348,-0.113549 -1.089996,-0.01276 -1.579022,-0.01276 h -4.838948 c -0.58504,0 -1.542549,-0.185801 -2.086972,0.02546 m -0.04808,1.233789 c -0.210188,0.122044 -0.167692,0.414303 0.04808,0.498041 0.341825,0.132653 0.906819,0.02546 1.271997,0.02546 h 5.348303 1.52809 c 0.174317,0 0.417911,0.04461 0.543317,-0.107542 0.146344,-0.177557 0.01698,-0.406559 -0.186765,-0.447107 -0.48657,-0.09686 -1.082279,-0.0057 -1.579022,-0.0057 h -5.042691 c -0.472859,0 -1.523832,-0.199827 -1.931333,0.03679 m 0,1.22247 c -0.210187,0.122044 -0.167694,0.414303 0.04808,0.498043 0.341825,0.132653 0.906819,0.02546 1.271997,0.02546 h 5.348304 1.528089 c 0.174318,0 0.417911,0.04461 0.543318,-0.107542 0.146344,-0.177565 0.01698,-0.406559 -0.186763,-0.447108 -0.486573,-0.09686 -1.082281,-0.0057 -1.579024,-0.0057 H 17.10179 c -0.472856,0 -1.523832,-0.199828 -1.931331,0.03679 m 5.344065,1.338493 v 1.935574 h 0.662167 v -1.935574 h -0.662167 m 1.22247,0 c 0.140993,0.524292 0.140993,1.411288 0,1.935574 h 0.662168 v -1.935574 h -0.662168 m 1.22247,0 0.05094,1.935574 h 0.611231 V 24.724462 H 22.95947 m 1.273405,0 v 1.935574 h 0.611231 v -1.935574 h -0.611231 m -9.926913,0.342404 c -0.200213,0.124621 -0.11003,0.458089 0.09763,0.510779 0.32052,0.08132 0.737887,0.01276 1.068252,0.01276 h 2.190257 c 0.255854,0 0.902732,0.115985 1.095127,-0.07639 0.182068,-0.182067 0.04588,-0.448151 -0.178266,-0.479649 -0.993182,-0.139553 -2.103194,-0.0043 -3.107115,-0.0043 -0.290885,0 -0.916122,-0.118679 -1.165874,0.03679 m 0,1.069663 c -0.266349,0.165792 -0.02885,0.48767 0.198082,0.519266 0.993952,0.138372 2.10261,0.0043 3.107115,0.0043 0.287863,0 0.878577,0.111602 1.114939,-0.07641 0.175794,-0.13983 0.128205,-0.432268 -0.09621,-0.478233 -0.980135,-0.200753 -2.206237,-0.0054 -3.208989,-0.0054 -0.279788,0 -0.874309,-0.112994 -1.114935,0.03679 z"
       id="path1" /></g></svg>
