<?xml version="1.0" encoding="UTF-8" standalone="no"?>
<!-- Created with Inkscape (http://www.inkscape.org/) -->

<svg
   width="130"
   height="130"
   viewBox="0 0 34.395832 34.395834"
   version="1.1"
   id="svg1"
   xml:space="preserve"
   xmlns="http://www.w3.org/2000/svg"
   xmlns:svg="http://www.w3.org/2000/svg"><defs
     id="defs1" /><g
     id="layer1"><g
       id="g4"
       transform="matrix(1.2960613,0,0,1.2960613,-37.660652,5.8228079)"><path
         style="fill:#171617;stroke:none;stroke-width:0.251186"
         d="M 30.739407,0.27272536 C 29.843195,0.54449276 30.141269,1.9872006 30.141269,2.7003542 v 6.4466022 c 0,0.624021 -0.235337,1.8448756 0.271379,2.3094786 0.344543,0.315905 0.894434,0.215995 1.323657,0.215995 0.509356,0 1.169299,0.111852 1.661496,-0.02033 0.693434,-0.186198 1.255675,-0.623215 1.993795,-0.751364 1.264103,-0.219465 2.061487,0.448318 3.190072,0.751364 0.415998,0.111698 0.965605,0.02033 1.395656,0.02033 h 2.85777 c 0.582483,0 1.368989,0.138321 1.927337,-0.03139 0.886638,-0.269489 0.598138,-1.7272526 0.598138,-2.4276276 V 2.7668136 c 0,-0.6182175 0.231223,-1.84740944 -0.271377,-2.30947894 -0.293197,-0.2695522 -0.691268,-0.2159938 -1.05782,-0.2159938 h -2.459012 -7.4435 c -1.006992,0 -2.427548,-0.2603047 -3.389453,0.031386 m 15.28576,2.89284664 v 8.5068575 c 1.149883,-0.35753 0.930437,-1.179071 0.930437,-2.1931746 V 4.0960111 c 0.444139,0.1397015 0.879762,0.012497 1.329198,0 0.773999,-0.021502 1.551752,0 2.326091,0 0.340416,0 1.135731,-0.046022 1.379044,0.2067641 0.347348,0.3608686 0.458139,1.1842716 0.614754,1.6541112 0.49193,1.475797 1.252082,3.118925 0.948898,4.7167996 -0.04564,0.240437 -0.439228,0.241656 -0.6166,0.365531 -0.393328,0.274688 -0.629612,0.751087 -0.503987,1.231351 0.225577,0.862383 1.367081,0.664598 2.032563,0.664598 0,-1.446106 0.222693,-3.0944966 -0.01477,-4.5192666 -0.144396,-0.866373 -0.571322,-1.758267 -0.84921,-2.591933 C 53.325418,4.9954593 53.168927,3.8380151 52.33885,3.3815679 51.729238,3.0463523 50.949341,3.1655735 50.278595,3.1655735 h -4.25343 m 1.93472,1.908874 c -0.237071,0.1475736 -0.140304,0.6449229 -0.140304,0.8824389 v 1.927335 c 0,0.288584 -0.06193,0.627829 0.140304,0.862131 0.281212,0.325779 0.667842,0.267686 1.055972,0.267686 h 2.326096 c 0.277421,0 0.814534,0.102721 1.055973,-0.04798 0.203033,-0.126749 0.110033,-0.370102 0.05168,-0.55014 -0.172189,-0.531341 -0.332876,-1.065101 -0.509523,-1.595042 -0.159692,-0.479071 -0.241208,-1.2844416 -0.614754,-1.6448812 -0.43624,-0.4209317 -1.988409,-0.149535 -2.57532,-0.149535 -0.218593,0 -0.59755,-0.071875 -0.790134,0.048 m -0.339683,4.8035662 v 0.6645986 h 1.462117 V 9.8780174 h -1.46211 M 33.13196,15.460638 c 0.04008,-2.384767 2.823161,-3.869563 4.718646,-2.244863 0.674515,0.578153 0.908424,1.402589 0.996897,2.244863 h 6.97828 c 0.01199,-2.861978 4.001031,-4.123164 5.364787,-1.395656 0.221033,0.442069 0.284301,0.909707 0.284301,1.395656 0.798917,0 2.04136,0.238217 2.791311,-0.03323 0.639032,-0.231297 0.710319,-1.20169 0.131082,-1.534114 -0.625225,-0.358812 -1.576631,0.199612 -2.185789,-0.14215 -0.377938,-0.212038 -0.668314,-0.898878 -1.002439,-1.212891 -0.789543,-0.742023 -1.869327,-0.991488 -2.92423,-0.930439 -0.913302,0.05286 -1.923923,0.549919 -2.499629,1.260892 -0.2201,0.271813 -0.414063,0.911558 -0.697829,1.081818 -0.322381,0.19343 -1.083349,0.04799 -1.454731,0.04799 -1.25938,0 -2.529948,0.04963 -3.788209,0 -0.512062,-0.02019 -0.83613,-1.022757 -1.211055,-1.371645 -0.851208,-0.792102 -2.081908,-1.196418 -3.24176,-0.995052 -0.826422,0.143477 -1.680361,0.519342 -2.233788,1.170433 -0.241436,0.284041 -0.466866,0.969822 -0.764289,1.148277 -0.603566,0.36214 -1.628566,-0.244337 -2.246711,0.11076 -0.477615,0.274374 -0.297229,1.095534 0.127381,1.314427 0.688254,0.354803 2.087896,0.08492 2.857773,0.08492 m -2.658393,-3.057141 c 0,0.214602 -0.08583,0.664011 0.048,0.841822 0.114747,0.152463 0.450757,0.08861 0.616598,0.08861 0.833766,0 1.019282,-0.213467 1.462117,-0.930437 h -2.126715 m 8.905618,0 0.614754,0.882438 1.113201,0.04798 h 2.459013 l 1.046743,-0.02215 0.681212,-0.841824 -1.661496,-0.06645 h -4.253427 m -3.85467,0.88981 c -2.717783,0.522166 -1.739129,4.587902 0.930435,4.068819 2.721818,-0.529246 1.750747,-4.583953 -0.930435,-4.068819 m 12.627364,0.0018 c -2.676585,0.600978 -1.636888,4.656494 0.996897,4.065111 2.710093,-0.608512 1.684297,-4.667151 -0.996897,-4.065121 m -12.228605,0.9859 c 1.255293,-0.113374 1.48654,1.900998 0.199379,2.03806 -1.358581,0.144664 -1.559897,-1.915279 -0.199379,-2.038104 m 12.693822,0 c 1.253096,-0.113129 1.466515,1.90024 0.199381,2.038104 -1.389894,0.151218 -1.592316,-1.91235 -0.199381,-2.038104 z"
         id="path2" /><text
         xml:space="preserve"
         style="font-size:3.46805px;font-family:Arial;-inkscape-font-specification:'Arial, Normal';fill:#ffffff;fill-opacity:1;stroke:none;stroke-width:0.379183"
         x="33.425987"
         y="4.6818876"
         id="text3"><tspan
           id="tspan3"
           style="fill:#ffffff;fill-opacity:1;stroke:none;stroke-width:0.379184"
           x="33.425987"
           y="4.6818876">Free</tspan></text><text
         xml:space="preserve"
         style="font-size:3.46805px;font-family:Arial;-inkscape-font-specification:'Arial, Normal';opacity:1;fill:#ffffff;fill-opacity:1;stroke:none;stroke-width:0.379183"
         x="31.800375"
         y="9.0255928"
         id="text4"><tspan
           id="tspan4"
           style="fill:#ffffff;fill-opacity:1;stroke:none;stroke-width:0.379184"
           x="31.800375"
           y="9.0255928">Delivery</tspan></text></g></g></svg>
