<?xml version="1.0" encoding="UTF-8" standalone="no"?>
<!-- Created with Inkscape (http://www.inkscape.org/) -->

<svg
   width="130"
   height="130"
   viewBox="0 0 34.395832 34.395834"
   version="1.1"
   id="svg1"
   xml:space="preserve"
   xmlns="http://www.w3.org/2000/svg"
   xmlns:svg="http://www.w3.org/2000/svg"><defs
     id="defs1" /><g
     id="layer1"><path
       style="fill:#181717;stroke:none;stroke-width:0.303875"
       d="m 5.705109,11.027111 h 8.281221 l 0.562801,-4.9848113 h -3.618009 c -0.541162,0 -1.248794,-0.1200853 -1.768802,0.037976 C 8.651572,6.2355135 8.392486,6.8352548 8.117116,7.2483103 7.355176,8.3912216 6.117606,9.7181357 5.705109,11.027119 m 9.889225,-4.9848193 -0.1608,2.1708067 h 3.537607 c -0.0017,-0.3963127 0.03216,-1.8673409 -0.2814,-2.1127382 -0.18226,-0.1426398 -0.625612,-0.058064 -0.844202,-0.058064 h -2.251205 m 4.26121,0 0.562801,4.9848128 h 8.28122 C 28.296636,9.7484798 27.046892,8.3602769 26.287559,7.2483078 26.014175,6.8479617 25.733792,6.2478494 25.242355,6.0825056 24.757821,5.9194812 24.062412,6.0423006 23.553953,6.0423006 H 19.855544 M 5.62471,12.072316 v 11.577626 2.974808 c 0,0.433298 -0.08149,0.992418 0.187601,1.366804 0.340981,0.474406 0.906576,0.402001 1.420404,0.402001 h 3.537608 13.185629 3.216009 c 0.473302,0 0.998371,0.0674 1.346703,-0.328302 0.332905,-0.378163 0.185019,-0.834823 0.180901,-1.279703 -0.0092,-0.989335 -0.02747,-1.985859 0,-2.974806 0.07776,-2.798818 0.0027,-5.643393 0.0804,-8.442022 0.02991,-1.076884 -0.198087,-2.248745 0,-3.296406 h -8.281221 c 0,0.315723 0.144703,1.143677 -0.247901,1.281936 -0.494048,0.173978 -0.686162,-0.826337 -1.118902,-0.826337 -0.429305,0 -0.528129,0.795067 -0.964801,0.795067 -0.432483,0 -0.524273,-0.795067 -0.964802,-0.795067 -0.43161,0 -0.540144,0.73062 -0.946937,0.808469 -0.407254,0.07794 -0.593983,-0.808469 -0.984902,-0.808469 -0.384852,0 -0.572311,0.624164 -0.88217,0.783902 -0.626017,0.322719 -0.482401,-0.945161 -0.482401,-1.239501 H 5.62471 m 6.753616,6.753615 c -0.696517,1.841903 -0.11149,3.999294 2.010005,4.54931 0.896871,0.232523 1.85186,-0.07613 2.733607,0.134002 0.403564,0.09618 0.587579,0.563333 0.455601,0.944703 -0.177171,0.511963 -0.836675,0.401999 -1.259603,0.401999 -1.179987,0 -2.299408,0.07112 -3.376808,-0.5025 -2.447169,-1.302892 -2.680374,-3.819628 -1.929605,-6.170715 -0.204745,-0.04989 -0.373574,-0.130473 -0.562801,-0.223334 -1.765173,-0.866244 1.059688,-2.07037 1.929604,-2.644275 0.364699,-0.240598 0.909515,-0.726847 1.364571,-0.486869 0.545603,0.287732 0.323833,1.387375 0.323833,1.907273 0,0.530822 0.276769,2.289552 -0.2479,2.577274 -0.39823,0.218386 -1.109396,-0.28514 -1.440504,-0.486868 m 11.095226,4.422012 c 0.204738,0.0499 0.373579,0.130473 0.562803,0.223332 1.623013,0.796482 -1.130335,2.031028 -1.929606,2.563875 -0.356679,0.237786 -0.895473,0.801809 -1.366803,0.6432 -0.412274,-0.138739 -0.402002,-0.58181 -0.402002,-0.938001 v -2.572807 c 0,-0.31296 -0.08504,-0.787122 0.180901,-1.018401 0.403545,-0.35096 1.180178,0.243286 1.587904,0.375199 0.700988,-1.853727 0.372055,-4.091594 -1.929605,-4.629709 -0.906366,-0.211906 -1.832598,0.03085 -2.733606,-0.122843 -0.36899,-0.06292 -0.614638,-0.427266 -0.529302,-0.795068 0.156922,-0.67633 0.882925,-0.562802 1.413705,-0.562802 1.320973,0 2.553501,-0.0065 3.698407,0.759337 1.299011,0.86901 2.160731,2.483117 2.003305,4.064677 -0.07094,0.712606 -0.415267,1.325957 -0.556101,2.010004 z"
       id="path3" /></g></svg>
