<?xml version="1.0" encoding="UTF-8" standalone="no"?>
<!-- Created with Inkscape (http://www.inkscape.org/) -->

<svg
   width="130"
   height="130"
   viewBox="0 0 34.395832 34.395834"
   version="1.1"
   id="svg1"
   xml:space="preserve"
   xmlns="http://www.w3.org/2000/svg"
   xmlns:svg="http://www.w3.org/2000/svg"><defs
     id="defs1" /><g
     id="layer1"><path
       style="fill:#13171a;stroke:none;stroke-width:0.2529"
       d="m 16.266521,6.0039754 c -0.440853,0.0071 -1.373819,0.07717 -1.737877,0.32713 -0.383471,0.263279 -0.284735,0.843888 0.19888,0.897748 0.422756,0.04708 1.524205,-0.115632 1.871703,-0.362444 0.423509,-0.300801 0.132343,-0.869968 -0.332706,-0.862434 m 1.674681,0.07435 c -0.28831,0.158063 -0.317963,0.587936 -0.06133,0.78809 0.293654,0.229035 1.553928,0.495145 1.860549,0.267652 0.293631,-0.217859 0.240558,-0.644871 -0.06692,-0.817825 -0.321203,-0.180681 -1.394133,-0.423306 -1.732301,-0.237915 m -8.5667107,2.561277 c -0.833985,0.83398 -1.708953,1.7803236 -2.191398,2.8772536 -0.225085,0.511772 0.06653,1.212704 0.719314,0.970239 0.391309,-0.145344 0.621218,-0.784919 0.860575,-1.104063 0.51343,-0.684575 1.15058,-1.4212776 1.8828557,-1.8735616 -0.181059,0.5669976 -0.04613,1.8412656 0.869865,1.2378886 0.439532,-0.289524 0.509362,-1.0985396 0.648685,-1.5724546 0.15817,-0.53803 0.66938,-1.546257 0.321553,-2.074299 -0.496085,-0.753115 -2.308575,-0.01826 -3.0445367,0.06692 -0.344471,0.03986 -0.814432,0.05271 -1.053879,0.336421 -0.655393,0.776544 0.39909,1.135661 0.986966,1.135661 M 21.151163,6.8087984 c -0.37169,0.02432 -0.595429,0.444827 -0.36802,0.754628 0.226975,0.309212 1.11762,0.778345 1.505539,0.736043 0.397043,-0.04329 0.567531,-0.485428 0.314121,-0.791802 -0.231387,-0.27976 -1.083632,-0.722957 -1.45164,-0.698881 m 2.34381,1.596616 c -0.862433,0.332531 0.630079,1.8097186 1.200716,1.581748 0.926187,-0.370016 -0.592655,-1.8162 -1.200716,-1.581748 M 20.950425,23.49427 v -0.06691 c -0.682591,-0.49904 -1.338632,-1.144861 -1.940474,-1.739739 -0.279592,-0.276354 -0.695655,-0.788624 -1.070607,-0.914477 -0.304848,-0.102318 -0.750555,-0.02231 -1.070606,-0.02231 -1.349798,0 -3.770281,0.482136 -4.735947,-0.66913 -0.807752,-0.963004 -0.416348,-2.962574 -0.416348,-4.148599 0,-0.469314 -0.07519,-1.013042 0.02789,-1.472085 0.114265,-0.508887 0.438126,-0.950459 0.908898,-1.185845 0.544085,-0.272043 1.284136,-0.152412 1.873561,-0.152412 h 3.88095 c 1.25385,0 3.323557,-0.430645 4.198783,0.66913 0.38333,0.481678 0.351293,1.092635 0.351293,1.672822 0,1.24813 0.219429,2.735861 -0.09479,3.947862 -0.100694,0.388372 -0.497992,0.636162 -0.566902,1.003693 -0.10942,0.583587 0.250222,1.278777 0.260215,1.873561 0.496546,-0.181512 0.873838,-0.776939 1.159827,-1.204433 0.824624,-1.232653 1.24904,-2.600447 1.24904,-4.081686 0,-4.043594 -3.169703,-7.5135186 -7.293506,-7.6280726 -0.712544,-0.0198 -1.666459,-0.107255 -2.340093,0.217468 -0.263327,0.126934 -0.289544,0.6018266 -0.407054,0.8531396 -0.22349,0.47796 -0.583368,0.920401 -0.999976,1.243465 -0.496191,0.384777 -1.113841,0.629131 -1.739735,0.691432 -0.307136,0.03057 -0.873121,-0.150152 -1.131944,-0.013 -0.287935,0.152562 -0.482958,0.677239 -0.622665,0.955365 -0.4449357,0.885768 -0.7507297,1.818838 -0.8494227,2.810341 -0.579179,5.818676 6.2202147,10.497679 11.3696177,7.360417 M 14.259138,9.9778634 c -0.637019,0.3961306 -1.874179,1.0123126 -2.141214,1.7397356 0.740216,-0.202162 1.344724,-0.38521 1.858694,-1.003694 0.159933,-0.192454 0.380084,-0.494529 0.28252,-0.7360416 m 11.176313,0.4498036 c -0.670785,0.367739 0.386478,1.889418 0.999977,1.561301 0.710221,-0.379845 -0.378815,-1.901837 -0.999977,-1.561301 m 1.403313,2.327082 c -0.631854,0.236946 -0.227857,1.22772 0.401477,1.003694 0.696462,-0.247922 0.293477,-1.264303 -0.401477,-1.003694 M 6.8318053,13.423878 c -0.581385,0.210908 -0.687317,1.829329 0.200738,1.524127 0.574111,-0.197307 0.671102,-1.840404 -0.200738,-1.524127 m 6.1559887,0.39962 c -0.53038,0.141515 -0.602217,0.713571 -0.602217,1.172834 v 3.345645 c 0,0.489533 -0.0699,1.083227 0.340141,1.444203 0.513878,0.452378 1.560324,0.22862 2.202549,0.22862 h 4.550078 c 0.625594,0 1.474827,0.150186 2.074299,-0.0316 0.604062,-0.183178 0.66913,-0.70324 0.66913,-1.239748 v -3.41256 c 0,-0.500379 0.09899,-1.121166 -0.401477,-1.429332 -0.463084,-0.285136 -0.9458,0.332093 -1.271347,0.600364 -0.755705,0.622759 -1.510374,1.248025 -2.275037,1.858692 -0.287769,0.229817 -0.596853,0.611115 -1.003694,0.570619 -0.387341,-0.03855 -0.716158,-0.405904 -1.003694,-0.637532 -0.698666,-0.562814 -1.385247,-1.139501 -2.074299,-1.713714 -0.292397,-0.243663 -0.778598,-0.870109 -1.204432,-0.756486 m 1.271344,-0.0316 c 0.704236,0.993397 2.097316,1.724902 3.011081,2.54269 h 0.06691 l 3.077995,-2.475774 -1.739736,-0.06691 h -4.416255 m -1.070606,0.869868 2.275038,1.873561 c -0.445304,0.628149 -1.618019,1.809667 -2.341952,2.074302 l 0.06691,-2.877254 v -1.070607 m 8.2972,0 v 3.947861 l -2.275038,-2.007387 v -0.06693 c 0.628438,-0.596751 1.489719,-1.523789 2.275038,-1.873554 m 5.888335,0.03346 c -0.604606,0.220916 -0.318978,2.092284 0.46839,1.806649 0.625951,-0.227074 0.314663,-2.092764 -0.46839,-1.806647 m -6.155987,4.717359 h -7.82881 l 1.739734,-1.605912 0.86987,-0.737899 1.204432,0.598497 1.405171,-0.607791 0.669128,0.540877 1.940475,1.812228 M 6.6979803,18.050158 c -0.90962,0.05909 -0.270671,1.811598 -0.11152,2.299202 0.597364,1.830224 1.555812,3.45168 2.921863,4.817729 0.338019,0.338019 1.0671947,1.232033 1.6059097,1.120791 0.417381,-0.08618 0.503996,-0.549641 0.260217,-0.853139 -0.413175,-0.514388 -0.992151,-0.898045 -1.4367677,-1.3903 -1.033663,-1.144415 -1.772285,-2.43774 -2.258311,-3.89582 -0.173859,-0.521569 -0.243502,-2.146399 -0.981391,-2.098463 m 20.6779477,1.009269 c -0.336195,0.180643 -0.595961,1.332235 -0.520433,1.691412 0.06673,0.317336 0.427977,0.493102 0.717455,0.338279 0.351168,-0.187813 0.605574,-1.302099 0.520434,-1.676537 -0.07084,-0.311554 -0.416908,-0.514641 -0.717456,-0.353154 m -8.299059,1.691412 1.271344,1.210006 1.605909,1.399597 -0.468388,-2.676517 -2.408865,0.06693 m 3.814036,4.750814 v 0.06692 c -1.465968,0.646748 -2.558541,1.467442 -4.215514,1.678398 -0.425363,0.05416 -1.263357,-0.0216 -1.375429,0.529727 -0.177515,0.873268 1.254876,0.575028 1.709994,0.529728 1.743896,-0.173588 3.443317,-0.819999 4.884642,-1.801076 -0.174146,0.538276 -0.361643,1.732549 0.669129,1.356843 0.50004,-0.182259 0.668799,-0.989867 0.884738,-1.423755 0.266864,-0.536208 0.974828,-1.599761 0.75463,-2.208126 -0.09814,-0.27115 -0.357654,-0.434497 -0.635673,-0.462816 -0.727994,-0.07416 -1.685608,0.182425 -2.408867,0.302967 -0.261725,0.04361 -0.526071,0.03167 -0.728604,0.234196 -0.477201,0.477198 -0.0085,0.99583 0.460954,1.196997 m -10.103847,0.8364 c -0.490145,0.07505 -0.553385,0.664214 -0.198883,0.938642 0.650156,0.503292 1.684152,0.725747 2.473921,0.888453 0.257625,0.05306 0.610224,0.188977 0.869866,0.115232 0.448752,-0.127437 0.499754,-0.685212 0.131967,-0.938638 -0.589987,-0.406533 -1.715572,-0.440301 -2.407005,-0.715592 -0.254534,-0.101338 -0.586536,-0.331483 -0.869866,-0.288097 z"
       id="path4" /></g></svg>
