<?xml version="1.0" encoding="UTF-8" standalone="no"?>
<!-- Created with Inkscape (http://www.inkscape.org/) -->

<svg
   width="120"
   height="120"
   viewBox="0 0 31.749999 31.75"
   version="1.1"
   id="svg1"
   xml:space="preserve"
   inkscape:version="1.3 (0e150ed6c4, 2023-07-21)"
   sodipodi:docname="Message.svg"
   inkscape:dataloss="true"
   inkscape:export-filename="R parcel.png"
   inkscape:export-xdpi="96"
   inkscape:export-ydpi="96"
   xmlns:inkscape="http://www.inkscape.org/namespaces/inkscape"
   xmlns:sodipodi="http://sodipodi.sourceforge.net/DTD/sodipodi-0.dtd"
   xmlns="http://www.w3.org/2000/svg"
   xmlns:svg="http://www.w3.org/2000/svg"><sodipodi:namedview
     id="namedview1"
     pagecolor="#ffffff"
     bordercolor="#666666"
     borderopacity="1.0"
     inkscape:showpageshadow="2"
     inkscape:pageopacity="0.0"
     inkscape:pagecheckerboard="0"
     inkscape:deskcolor="#d1d1d1"
     inkscape:document-units="mm"
     inkscape:zoom="2.8044052"
     inkscape:cx="110.36208"
     inkscape:cy="107.50943"
     inkscape:window-width="1920"
     inkscape:window-height="1001"
     inkscape:window-x="-9"
     inkscape:window-y="-9"
     inkscape:window-maximized="1"
     inkscape:current-layer="layer1" /><defs
     id="defs1" /><g
     inkscape:label="Layer 1"
     inkscape:groupmode="layer"
     id="layer1"><g
       style="clip-rule:evenodd;fill-rule:evenodd;image-rendering:optimizeQuality;shape-rendering:geometricPrecision;text-rendering:geometricPrecision"
       id="g1"
       transform="matrix(0.0601656,0,0,0.0601656,0.683186,0.48772929)"><path
         d="m 336.11,39.84 -115.38,68.94 135.38,18.4 111.32,-69.44 z m 25.45,204.61 c 73.74,0 133.53,59.78 133.53,133.53 0,73.74 -59.79,133.52 -133.53,133.52 -73.75,0 -133.53,-59.78 -133.53,-133.52 0,-73.75 59.78,-133.53 133.53,-133.53 z m -50.44,179.72 15.51,-78.82 15.73,23.69 c 33.86,-13.59 52.88,-36 55.7,-70.5 27.82,48.63 10.93,92.22 -24.33,117.77 l 16.05,24.16 -78.65,-16.3 z m -106.29,-298.04 -0.09,141.71 -51.45,-35.04 -51.46,29.07 6.1,-148.91 -88.54,-12.03 v 312.98 l 178.95,23.13 c 2.52,7.1 5.47,13.99 8.85,20.63 L 9.3,432.07 C 4.13,431.87 0,427.6 0,422.39 V 89.86 C 0.27,85.81 1.89,82.97 5.72,81.05 L 182.48,0.85 c 1.58,-0.72 3.52,-1.01 5.25,-0.77 l 308.18,42.04 c 5.09,0.59 8.58,4.77 8.58,9.99 v 0.02 L 505,280.9 c -5.72,-8.46 -15.57,-20.29 -19.93,-27.77 V 69.56 l -115.81,74.93 v 59.81 a 174.846,174.846 0 0 0 -19.39,0.36 V 145.84 Z M 123.31,95.55 235.48,26.11 187.9,19.62 44.24,84.8 Z"
         id="path1-3" /></g></g></svg>
