<?xml version="1.0" encoding="UTF-8" standalone="no"?>
<!-- Created with Inkscape (http://www.inkscape.org/) -->

<svg
   width="191.31879"
   height="191.31879"
   viewBox="0 0 50.619763 50.619761"
   version="1.1"
   id="svg1"
   xml:space="preserve"
   xmlns:xlink="http://www.w3.org/1999/xlink"
   xmlns="http://www.w3.org/2000/svg"
   xmlns:svg="http://www.w3.org/2000/svg"><defs
     id="defs1"><linearGradient
       id="linearGradient105"><stop
         style="stop-color:#ffffff;stop-opacity:1;"
         offset="0"
         id="stop105" /><stop
         style="stop-color:#f5db5d;stop-opacity:1;"
         offset="1"
         id="stop106" /></linearGradient><linearGradient
       id="linearGradient100"><stop
         style="stop-color:#f5db5d;stop-opacity:1;"
         offset="0.44664481"
         id="stop99" /><stop
         style="stop-color:#d8ad2c;stop-opacity:1;"
         offset="1"
         id="stop100" /></linearGradient><radialGradient
       xlink:href="#linearGradient100"
       id="radialGradient2"
       cx="163.18401"
       cy="-17.560017"
       fx="163.18401"
       fy="-17.560017"
       r="18.369604"
       gradientTransform="matrix(0.99982803,0.01854487,-0.01158164,0.6244126,-0.1753109,-9.6215467)"
       gradientUnits="userSpaceOnUse" /><radialGradient
       xlink:href="#linearGradient105"
       id="radialGradient106"
       cx="170.94922"
       cy="27.357489"
       fx="170.94922"
       fy="27.357489"
       r="6.0127978"
       gradientUnits="userSpaceOnUse"
       gradientTransform="matrix(0.5954765,-0.80337273,1.0325316,0.7653338,40.905505,143.75582)" /></defs><g
     id="layer12"
     transform="translate(-145.52908,-1.9223501)"><circle
       style="fill:#ffffff;fill-opacity:1;stroke:#ffffff;stroke-width:0.190109;stroke-linecap:round;stroke-linejoin:bevel"
       id="path94"
       cx="170.83897"
       cy="27.232231"
       r="25.214827" /><path
       id="path112"
       style="fill:#000000;fill-opacity:1;stroke:none;stroke-width:0.15104;stroke-linecap:round;stroke-linejoin:bevel"
       d="m 168.50573,2.6783344 c -0.26832,0.014577 -0.47485,0.2341639 -0.47748,0.4989597 l 0.96703,2.2250963 a 23.043985,23.043985 0 0 1 0.18658,-0.023592 23.043985,23.043985 0 0 1 1.53825,-0.025604 l 0.71016,-2.3602061 c -0.031,-0.263214 -0.25974,-0.4594247 -0.52823,-0.4448382 z" /><path
       id="path120"
       style="fill:#000000;fill-opacity:1;stroke:none;stroke-width:0.15104;stroke-linecap:round;stroke-linejoin:bevel"
       d="m 172.37634,2.5717713 c -0.26606,-0.037578 -0.51116,0.1379285 -0.56494,0.3972188 l 0.51854,2.3700891 a 23.043985,23.043985 0 0 1 0.18762,0.01293 23.043985,23.043985 0 0 1 1.51417,0.2723108 l 1.15314,-2.1783464 c 0.0204,-0.2642454 -0.16602,-0.5009804 -0.43226,-0.5385833 z" /><path
       id="path121"
       style="fill:#000000;fill-opacity:1;stroke:none;stroke-width:0.15104;stroke-linecap:round;stroke-linejoin:bevel"
       d="m 176.17152,3.0001969 c -0.2526,-0.091619 -0.52861,0.02959 -0.63469,0.2722242 l 0.0188,2.4260776 a 23.043985,23.043985 0 0 1 0.18092,0.05133 23.043985,23.043985 0 0 1 1.42551,0.578608 l 1.57744,-1.8938363 c 0.0744,-0.254364 -0.0592,-0.5244446 -0.31195,-0.6161252 z" /><path
       id="path122"
       style="fill:#000000;fill-opacity:1;stroke:none;stroke-width:0.15104;stroke-linecap:round;stroke-linejoin:bevel"
       d="m 179.59503,4.1638582 c -0.24621,-0.1076161 -0.52942,-0.00434 -0.65083,0.2309971 l -0.13669,2.4222968 a 23.043985,23.043985 0 0 1 0.17726,0.062817 23.043985,23.043985 0 0 1 1.3855,0.6687584 l 1.69555,-1.7888703 c 0.0906,-0.2490741 -0.0255,-0.5271601 -0.27183,-0.6348473 z" /><path
       id="path123"
       style="fill:#000000;fill-opacity:1;stroke:none;stroke-width:0.15104;stroke-linecap:round;stroke-linejoin:bevel"
       d="m 183.06732,5.8369629 c -0.23363,-0.1327428 -0.52607,-0.059611 -0.6714,0.1617579 l -0.38894,2.3947719 a 23.043985,23.043985 0 0 1 0.16973,0.080987 23.043985,23.043985 0 0 1 1.30808,0.8098091 l 1.87311,-1.6019949 c 0.11612,-0.2382491 0.0297,-0.5269402 -0.20404,-0.6597664 z" /><path
       id="path124"
       style="fill:#000000;fill-opacity:1;stroke:none;stroke-width:0.15104;stroke-linecap:round;stroke-linejoin:bevel"
       d="m 186.3137,7.9607987 c -0.19655,-0.1832167 -0.49798,-0.179763 -0.6906,0.00195 l -0.93271,2.2397043 a 23.043985,23.043985 0 0 1 0.14638,0.118078 23.043985,23.043985 0 0 1 1.0851,1.090601 l 2.19306,-1.124912 c 0.16812,-0.2049 0.15087,-0.505755 -0.0458,-0.6890783 z" /><path
       id="path125"
       style="fill:#000000;fill-opacity:1;stroke:none;stroke-width:0.15104;stroke-linecap:round;stroke-linejoin:bevel"
       d="m 189.0423,10.464423 c -0.17063,-0.207569 -0.46988,-0.243956 -0.6848,-0.08932 l -1.22034,2.096903 a 23.043985,23.043985 0 0 1 0.1295,0.136376 23.043985,23.043985 0 0 1 0.93156,1.224356 l 2.32242,-0.825422 c 0.19371,-0.180902 0.21634,-0.481399 0.0456,-0.689091 z" /><path
       id="path126"
       style="fill:#000000;fill-opacity:1;stroke:none;stroke-width:0.15104;stroke-linecap:round;stroke-linejoin:bevel"
       d="m 191.35169,13.519319 c -0.15212,-0.221489 -0.44713,-0.283506 -0.67456,-0.147948 l -1.39635,1.984047 a 23.043985,23.043985 0 0 1 0.11728,0.147019 23.043985,23.043985 0 0 1 0.82268,1.300016 l 2.38487,-0.622401 c 0.20856,-0.163552 0.25698,-0.460985 0.10476,-0.682606 z" /><path
       id="path127"
       style="fill:#000000;fill-opacity:1;stroke:none;stroke-width:0.15104;stroke-linecap:round;stroke-linejoin:bevel"
       d="m 193.42392,16.923375 c -0.0853,-0.254788 -0.3519,-0.395559 -0.60785,-0.327787 l -1.88822,1.52343 a 23.043985,23.043985 0 0 1 0.0723,0.173608 23.043985,23.043985 0 0 1 0.43336,1.476158 l 2.46407,0.0576 c 0.2455,-0.09988 0.37387,-0.372517 0.28848,-0.62746 z" /><path
       id="path128"
       style="fill:#000000;fill-opacity:1;stroke:none;stroke-width:0.15104;stroke-linecap:round;stroke-linejoin:bevel"
       d="m 194.59359,20.29804 c -0.056,-0.262777 -0.30509,-0.432688 -0.56705,-0.394184 l -2.04784,1.300993 a 23.043985,23.043985 0 0 1 0.0523,0.180648 23.043985,23.043985 0 0 1 0.26429,1.515584 l 2.44189,0.334849 c 0.25519,-0.07158 0.41346,-0.328023 0.35734,-0.590963 z" /><path
       id="path129"
       style="fill:#000000;fill-opacity:1;stroke:none;stroke-width:0.15104;stroke-linecap:round;stroke-linejoin:bevel"
       d="m 195.36818,24.033713 c -0.0271,-0.267304 -0.2563,-0.463261 -0.52089,-0.453433 l -2.17701,1.070906 a 23.043985,23.043985 0 0 1 0.0324,0.185259 23.043985,23.043985 0 0 1 0.0981,1.535322 l 2.39108,0.598054 c 0.26145,-0.04344 0.44664,-0.281182 0.4194,-0.548661 z" /><path
       id="path130"
       style="fill:#000000;fill-opacity:1;stroke:none;stroke-width:0.15104;stroke-linecap:round;stroke-linejoin:bevel"
       d="m 195.59309,27.606114 c 0.0201,-0.26792 -0.17126,-0.500968 -0.43348,-0.537601 l -2.33084,0.673357 a 23.043985,23.043985 0 0 1 -9e-4,0.188055 23.043985,23.043985 0 0 1 -0.17212,1.528794 l 2.2495,1.00731 c 0.26502,0.003 0.48896,-0.198671 0.50895,-0.466789 z" /><path
       id="path131"
       style="fill:#000000;fill-opacity:1;stroke:none;stroke-width:0.15104;stroke-linecap:round;stroke-linejoin:bevel"
       d="m 195.08986,31.24587 c 0.0322,-0.266735 -0.1484,-0.508208 -0.40869,-0.556674 l -2.35894,0.567145 a 23.043985,23.043985 0 0 1 -0.009,0.187822 23.043985,23.043985 0 0 1 -0.24116,1.519434 l 2.2016,1.108116 c 0.26461,0.01499 0.49745,-0.176331 0.52956,-0.443269 z" /><path
       id="path132"
       style="fill:#000000;fill-opacity:1;stroke:none;stroke-width:0.15104;stroke-linecap:round;stroke-linejoin:bevel"
       d="m 194.20989,35.153296 c 0.0942,-0.251599 -0.0243,-0.528876 -0.26576,-0.637407 l -2.42615,-0.0056 a 23.043985,23.043985 0 0 1 -0.0531,0.180392 23.043985,23.043985 0 0 1 -0.59297,1.419586 l 1.87786,1.596438 c 0.2536,0.07702 0.52502,-0.05394 0.61922,-0.305756 z" /><path
       id="path135"
       style="fill:#000000;fill-opacity:1;stroke:none;stroke-width:0.15104;stroke-linecap:round;stroke-linejoin:bevel"
       d="m 192.86352,38.460866 c 0.13524,-0.232136 0.0651,-0.525412 -0.15459,-0.673065 l -2.39054,-0.41419 a 23.043985,23.043985 0 0 1 -0.0827,0.16887 23.043985,23.043985 0 0 1 -0.82362,1.29942 l 1.58212,1.889941 c 0.237,0.118637 0.5266,0.03527 0.66187,-0.197083 z" /><path
       id="path136"
       style="fill:#000000;fill-opacity:1;stroke:none;stroke-width:0.15104;stroke-linecap:round;stroke-linejoin:bevel"
       d="m 190.79426,41.699758 c 0.15023,-0.22273 0.0995,-0.519987 -0.10995,-0.681782 l -2.35809,-0.570659 a 23.043985,23.043985 0 0 1 -0.0936,0.163059 23.043985,23.043985 0 0 1 -0.90738,1.242383 l 1.45428,1.989992 c 0.22867,0.133981 0.52313,0.06986 0.67341,-0.153085 z" /><path
       id="path137"
       style="fill:#000000;fill-opacity:1;stroke:none;stroke-width:0.15104;stroke-linecap:round;stroke-linejoin:bevel"
       d="m 188.28726,44.714503 c 0.19708,-0.182585 0.2155,-0.483576 0.0485,-0.688887 l -2.16572,-1.093565 a 23.043985,23.043985 0 0 1 -0.12833,0.137406 23.043985,23.043985 0 0 1 -1.16688,1.002619 l 0.96195,2.269284 c 0.19208,0.182615 0.4934,0.18736 0.69058,0.0046 z" /><path
       id="path138"
       style="fill:#000000;fill-opacity:1;stroke:none;stroke-width:0.15104;stroke-linecap:round;stroke-linejoin:bevel"
       d="m 185.5373,47.136712 c 0.22364,-0.148876 0.28975,-0.443094 0.15757,-0.672376 l -1.96397,-1.424449 a 23.043985,23.043985 0 0 1 -0.14857,0.11522 23.043985,23.043985 0 0 1 -1.31163,0.804033 l 0.58835,2.393499 c 0.16055,0.210869 0.45727,0.263531 0.68104,0.114498 z" /><path
       id="path139"
       style="fill:#000000;fill-opacity:1;stroke:none;stroke-width:0.15104;stroke-linecap:round;stroke-linejoin:bevel"
       d="m 182.29473,49.124606 c 0.239,-0.122713 0.33786,-0.407602 0.23237,-0.650325 l -1.79086,-1.636787 a 23.043985,23.043985 0 0 1 -0.16061,0.09774 23.043985,23.043985 0 0 1 -1.39391,0.651032 l 0.31475,2.444571 c 0.13575,0.227625 0.42464,0.313403 0.66379,0.190549 z" /><path
       id="path140"
       style="fill:#000000;fill-opacity:1;stroke:none;stroke-width:0.15104;stroke-linecap:round;stroke-linejoin:bevel"
       d="m 178.76459,50.563919 c 0.25109,-0.09555 0.38083,-0.367775 0.3028,-0.620668 l -1.59904,-1.824643 a 23.043985,23.043985 0 0 1 -0.17043,0.0794 23.043985,23.043985 0 0 1 -1.45731,0.493027 l 0.0427,2.464381 c 0.10977,0.241231 0.38741,0.358404 0.63867,0.262726 z" /><path
       id="path141"
       style="fill:#000000;fill-opacity:1;stroke:none;stroke-width:0.15104;stroke-linecap:round;stroke-linejoin:bevel"
       d="m 175.14405,51.633762 c 0.26719,-0.0281 0.46229,-0.258051 0.45158,-0.522491 l -1.07876,-2.173141 a 23.043985,23.043985 0 0 1 -0.18507,0.03313 23.043985,23.043985 0 0 1 -1.53495,0.103602 l -0.58949,2.393221 c 0.0444,0.261291 0.28277,0.445624 0.55015,0.417443 z" /><path
       id="path142"
       style="fill:#000000;fill-opacity:1;stroke:none;stroke-width:0.15104;stroke-linecap:round;stroke-linejoin:bevel"
       d="m 171.27129,51.996991 c 0.26831,0.01383 0.49683,-0.182956 0.5274,-0.44584 l -0.72738,-2.314557 a 23.043985,23.043985 0 0 1 -0.18798,0.0039 23.043985,23.043985 0 0 1 -1.53236,-0.136561 l -0.9548,2.27231 c 0.003,0.265026 0.20997,0.484204 0.47848,0.49798 z" /><path
       id="path143"
       style="fill:#000000;fill-opacity:1;stroke:none;stroke-width:0.15104;stroke-linecap:round;stroke-linejoin:bevel"
       d="m 167.52895,51.749797 c 0.26364,0.05175 0.51776,-0.110627 0.58532,-0.366515 l -0.39169,-2.394335 a 23.043985,23.043985 0 0 1 -0.18663,-0.02281 23.043985,23.043985 0 0 1 -1.49749,-0.352558 l -1.26749,2.113883 c -0.0346,0.262771 0.13916,0.509093 0.403,0.56082 z" /><path
       id="path144"
       style="fill:#000000;fill-opacity:1;stroke:none;stroke-width:0.15104;stroke-linecap:round;stroke-linejoin:bevel"
       d="m 163.90505,50.940726 c 0.25535,0.08352 0.52738,-0.04665 0.62565,-0.292377 l -0.0967,-2.424235 a 23.043985,23.043985 0 0 1 -0.18245,-0.04541 23.043985,23.043985 0 0 1 -1.4433,-0.532595 l -1.51589,1.943483 c -0.0664,0.256588 0.0761,0.522267 0.33158,0.605792 z" /><path
       id="path145"
       style="fill:#000000;fill-opacity:1;stroke:none;stroke-width:0.15104;stroke-linecap:round;stroke-linejoin:bevel"
       d="m 160.4927,49.533951 c 0.2487,0.101623 0.52937,-0.0087 0.64501,-0.24674 l 0.0775,-2.424926 a 23.043985,23.043985 0 0 1 -0.17872,-0.05838 23.043985,23.043985 0 0 1 -1.40137,-0.634764 l -1.65141,1.829727 c -0.0846,0.251164 0.0384,0.526381 0.28727,0.628019 z" /><path
       id="path146"
       style="fill:#000000;fill-opacity:1;stroke:none;stroke-width:0.15104;stroke-linecap:round;stroke-linejoin:bevel"
       d="m 157.12221,47.643695 c 0.22839,0.141484 0.52347,0.07927 0.67701,-0.136282 l 0.47883,-2.378443 a 23.043985,23.043985 0 0 1 -0.16655,-0.08723 23.043985,23.043985 0 0 1 -1.2766,-0.858515 l -1.93215,1.530312 c -0.12511,0.233643 -0.0495,0.525455 0.17907,0.666983 z" /><path
       id="path147"
       style="fill:#000000;fill-opacity:1;stroke:none;stroke-width:0.15104;stroke-linecap:round;stroke-linejoin:bevel"
       d="m 154.09436,45.395261 c 0.19076,0.18918 0.49228,0.194852 0.69032,0.0193 l 1.00095,-2.210059 a 23.043985,23.043985 0 0 1 -0.14269,-0.122418 23.043985,23.043985 0 0 1 -1.05108,-1.123383 l -2.22657,1.057092 c -0.17441,0.199561 -0.16628,0.500901 0.0246,0.690162 z" /><path
       id="path148"
       style="fill:#000000;fill-opacity:1;stroke:none;stroke-width:0.15104;stroke-linecap:round;stroke-linejoin:bevel"
       d="m 151.5572,42.52663 c 0.17224,0.206185 0.4719,0.240021 0.68549,0.08375 l 1.20318,-2.106803 a 23.043985,23.043985 0 0 1 -0.13062,-0.135222 23.043985,23.043985 0 0 1 -0.94145,-1.216726 l -2.31565,0.844304 c -0.1923,0.182382 -0.21238,0.483162 -0.04,0.689439 z" /><path
       id="path149"
       style="fill:#000000;fill-opacity:1;stroke:none;stroke-width:0.15104;stroke-linecap:round;stroke-linejoin:bevel"
       d="m 149.28579,39.313647 c 0.10775,0.246106 0.38602,0.362341 0.63477,0.271991 l 1.74405,-1.68659 a 23.043985,23.043985 0 0 1 -0.0876,-0.166338 23.043985,23.043985 0 0 1 -0.56388,-1.431357 l -2.45935,0.163489 c -0.23561,0.121371 -0.33895,0.404554 -0.23109,0.650787 z" /><path
       id="path150"
       style="fill:#000000;fill-opacity:1;stroke:none;stroke-width:0.15104;stroke-linecap:round;stroke-linejoin:bevel"
       d="m 147.80341,36.030992 c 0.0856,0.254635 0.35262,0.39491 0.60837,0.326803 l 1.88572,-1.526547 a 23.043985,23.043985 0 0 1 -0.0727,-0.173401 23.043985,23.043985 0 0 1 -0.43571,-1.475431 l -2.4642,-0.0536 c -0.24536,0.100169 -0.37324,0.373153 -0.28746,0.627923 z" /><path
       id="path151"
       style="fill:#000000;fill-opacity:1;stroke:none;stroke-width:0.15104;stroke-linecap:round;stroke-linejoin:bevel"
       d="m 146.77103,32.506549 c 0.0598,0.26189 0.31158,0.42804 0.57283,0.385722 l 2.02827,-1.331317 a 23.043985,23.043985 0 0 1 -0.0551,-0.179775 23.043985,23.043985 0 0 1 -0.28672,-1.511466 l -2.44664,-0.298553 c -0.25411,0.07525 -0.40852,0.334159 -0.34852,0.5962 z" /><path
       id="path152"
       style="fill:#000000;fill-opacity:1;stroke:none;stroke-width:0.15104;stroke-linecap:round;stroke-linejoin:bevel"
       d="m 146.17148,28.533954 c 7e-4,0.268629 0.20975,0.486109 0.47391,0.502314 l 2.27151,-0.852385 a 23.043985,23.043985 0 0 1 -0.0142,-0.187493 23.043985,23.043985 0 0 1 0.0529,-1.537511 l -2.32099,-0.829597 c -0.26444,0.01749 -0.47203,0.236078 -0.47116,0.504899 z" /><path
       id="path153"
       style="fill:#000000;fill-opacity:1;stroke:none;stroke-width:0.15104;stroke-linecap:round;stroke-linejoin:bevel"
       d="m 146.25156,24.945462 c -0.0391,0.265772 0.13548,0.511804 0.39433,0.566936 l 2.37267,-0.506722 a 23.043985,23.043985 0 0 1 0.0137,-0.187529 23.043985,23.043985 0 0 1 0.27993,-1.512739 l -2.17261,-1.164052 c -0.26411,-0.02185 -0.50177,0.163598 -0.54071,0.429586 z" /><path
       id="path154"
       style="fill:#000000;fill-opacity:1;stroke:none;stroke-width:0.15104;stroke-linecap:round;stroke-linejoin:bevel"
       d="m 146.95066,21.088253 c -0.0701,0.259314 0.0742,0.524202 0.32478,0.609449 l 2.41585,-0.223631 a 23.043985,23.043985 0 0 1 0.0357,-0.184608 23.043985,23.043985 0 0 1 0.45622,-1.469219 l -2.02032,-1.411933 c -0.2597,-0.05282 -0.51755,0.103337 -0.58756,0.362884 z" /><path
       id="path155"
       style="fill:#000000;fill-opacity:1;stroke:none;stroke-width:0.15104;stroke-linecap:round;stroke-linejoin:bevel"
       d="m 148.12242,17.556962 c -0.11852,0.241065 -0.0277,0.528704 0.20191,0.660411 l 2.41391,0.243683 a 23.043985,23.043985 0 0 1 0.0704,-0.174339 23.043985,23.043985 0 0 1 0.72944,-1.354498 l -1.71215,-1.773077 c -0.24476,-0.101629 -0.52776,0.0022 -0.64623,0.243506 z" /><path
       id="path156"
       style="fill:#000000;fill-opacity:1;stroke:none;stroke-width:0.15104;stroke-linecap:round;stroke-linejoin:bevel"
       d="m 149.78658,14.301831 c -0.14928,0.223326 -0.0972,0.520431 0.11304,0.681274 l 2.36067,0.559955 a 23.043985,23.043985 0 0 1 0.0928,-0.16353 23.043985,23.043985 0 0 1 0.90172,-1.246448 L 151.7915,12.14966 c -0.22922,-0.133026 -0.52344,-0.06743 -0.67271,0.156138 z" /><path
       id="path157"
       style="fill:#000000;fill-opacity:1;stroke:none;stroke-width:0.15104;stroke-linecap:round;stroke-linejoin:bevel"
       d="m 152.07025,11.06461 c -0.19518,0.184565 -0.21043,0.485814 -0.0412,0.689358 l 2.17719,1.070589 a 23.043985,23.043985 0 0 1 0.12682,-0.138817 23.043985,23.043985 0 0 1 1.15618,-1.014878 l -0.98592,-2.2590273 c -0.19392,-0.1806413 -0.49536,-0.1820734 -0.69058,0.00273 z" /><path
       id="path158"
       style="fill:#000000;fill-opacity:1;stroke:none;stroke-width:0.15104;stroke-linecap:round;stroke-linejoin:bevel"
       d="m 154.76057,8.4541773 c -0.21351,0.163016 -0.26035,0.4609909 -0.11346,0.6812029 l 2.05253,1.2936108 a 23.043985,23.043985 0 0 1 0.14071,-0.124711 23.043985,23.043985 0 0 1 1.2565,-0.8876644 L 157.35396,7.066433 c -0.17385,-0.2000327 -0.47347,-0.2331569 -0.68704,-0.069908 z" /><path
       id="path159"
       style="fill:#000000;fill-opacity:1;stroke:none;stroke-width:0.15104;stroke-linecap:round;stroke-linejoin:bevel"
       d="m 157.82283,6.2691093 c -0.23363,0.132578 -0.32041,0.4214564 -0.20472,0.6595431 l 1.85829,1.5598298 a 23.043985,23.043985 0 0 1 0.1563,-0.1044918 23.043985,23.043985 0 0 1 1.3652,-0.7091987 l -0.41754,-2.4291765 c -0.14515,-0.2217469 -0.4375,-0.2951692 -0.67122,-0.1623687 z" /><path
       id="path160"
       style="fill:#000000;fill-opacity:1;stroke:none;stroke-width:0.15104;stroke-linecap:round;stroke-linejoin:bevel"
       d="m 161.32375,4.494645 c -0.24975,0.098929 -0.37571,0.3729976 -0.29413,0.6248171 l 1.62425,1.8022575 a 23.043985,23.043985 0 0 1 0.16927,-0.081828 23.043985,23.043985 0 0 1 1.45029,-0.5132055 l -0.0769,-2.4635986 C 164.08347,3.6233683 163.80411,3.5101481 163.55424,3.609285 Z" /><path
       id="path161"
       style="fill:#000000;fill-opacity:1;stroke:none;stroke-width:0.15104;stroke-linecap:round;stroke-linejoin:bevel"
       d="m 164.86818,3.3112638 c -0.26394,0.049982 -0.43939,0.2953301 -0.40683,0.5580249 l 1.25465,2.0765755 a 23.043985,23.043985 0 0 1 0.18168,-0.048388 23.043985,23.043985 0 0 1 1.52111,-0.2300736 l 0.38975,-2.4337884 c -0.0658,-0.2567575 -0.3187,-0.4206992 -0.5828,-0.3705359 z" /><circle
       style="fill:none;stroke:none;stroke-width:0.119546"
       id="path1"
       cx="171.76265"
       cy="28.155905"
       r="21.487066" /><text
       xml:space="preserve"
       style="font-style:normal;font-variant:normal;font-weight:normal;font-stretch:normal;font-size:3.33313px;font-family:'Arial Rounded MT Bold';-inkscape-font-specification:'Arial Rounded MT Bold, Normal';font-variant-ligatures:normal;font-variant-caps:normal;font-variant-numeric:normal;font-variant-east-asian:normal;fill:#3c3c3c;fill-opacity:1;stroke:none;stroke-width:0.677344;stroke-opacity:1"
       id="text1"
       transform="matrix(1.0272754,0,0,1.0272754,-5.6145081,-1.6934446)"><textPath
         xlink:href="#path1"
         id="textPath1"><tspan
           id="tspan1"
           style="font-style:normal;font-variant:normal;font-weight:normal;font-stretch:normal;font-size:3.33313px;font-family:'Arial Rounded MT Bold';-inkscape-font-specification:'Arial Rounded MT Bold, Normal';font-variant-ligatures:normal;font-variant-caps:normal;font-variant-numeric:normal;font-variant-east-asian:normal;fill:#3c3c3c;fill-opacity:1;stroke:none;stroke-width:0.677344;stroke-opacity:1">N G S H O P N G S H O P N G S H O P N G S H O P N G S H O P N G S H O P N G S H O P N G S H O P N G S H O P N G S H O P N G S H O P N G S H O P N G S H O P</tspan></textPath></text><path
       id="circle7"
       style="fill:#d8ad2c;fill-opacity:1;stroke:#3b300a;stroke-width:0.0918226;stroke-opacity:1"
       d="M 170.94923,10.853516 A 16.504072,16.504072 0 0 0 154.44525,27.357489 16.504072,16.504072 0 0 0 170.94923,43.861463 16.504072,16.504072 0 0 0 187.4532,27.357489 16.504072,16.504072 0 0 0 170.94923,10.853516 Z m 0,0.471127 a 16.0328,16.0328 0 0 1 16.03284,16.032846 16.0328,16.0328 0 0 1 -16.03284,16.032846 16.0328,16.0328 0 0 1 -16.03285,-16.032846 16.0328,16.0328 0 0 1 16.03285,-16.032846 z" /><path
       style="fill:url(#radialGradient2);fill-opacity:1;stroke:#d8ad2c;stroke-width:0.565423;stroke-linecap:round;stroke-linejoin:bevel;stroke-dasharray:none;stroke-opacity:1"
       id="path93"
       transform="matrix(0.88429301,0,0,0.88429301,26.646748,42.885688)" /><path
       id="circle100"
       style="fill:#000000;fill-opacity:1;stroke:#000000;stroke-width:0.130107;stroke-opacity:0.788235"
       d="M 170.94922,3.9723528 A 23.385178,23.385178 0 0 0 147.56408,27.35749 23.385178,23.385178 0 0 0 170.94922,50.742626 23.385178,23.385178 0 0 0 194.33436,27.35749 23.385178,23.385178 0 0 0 170.94922,3.9723528 Z m 0,4.6679323 A 18.717321,18.717321 0 0 1 189.66643,27.35749 18.717321,18.717321 0 0 1 170.94922,46.075211 18.717321,18.717321 0 0 1 152.23201,27.35749 18.717321,18.717321 0 0 1 170.94922,8.6402851 Z" /><path
       id="circle101"
       style="fill:#bbbbbb;fill-opacity:1;stroke:#000000;stroke-width:0.104136;stroke-opacity:0.788235"
       d="M 170.94922,8.6402851 A 18.717321,18.717321 0 0 0 152.23202,27.35749 18.717321,18.717321 0 0 0 170.94922,46.074694 18.717321,18.717321 0 0 0 189.66643,27.35749 18.717321,18.717321 0 0 0 170.94922,8.6402851 Z m 0,1.6825859 A 17.034721,17.034721 0 0 1 187.98384,27.35749 17.034721,17.034721 0 0 1 170.94922,44.39211 17.034721,17.034721 0 0 1 153.9146,27.35749 17.034721,17.034721 0 0 1 170.94922,10.322871 Z" /><path
       id="circle102"
       style="fill:#848484;fill-opacity:1;stroke:#000000;stroke-width:0.0947749;stroke-opacity:0.788235"
       d="M 170.94923,10.322612 A 17.034721,17.034721 0 0 0 153.9146,27.357748 17.034721,17.034721 0 0 0 170.94923,44.392367 17.034721,17.034721 0 0 0 187.98385,27.357748 17.034721,17.034721 0 0 0 170.94923,10.322612 Z m 0,0.543119 a 16.491949,16.491949 0 0 1 16.49202,16.492017 16.491949,16.491949 0 0 1 -16.49202,16.492017 16.491949,16.491949 0 0 1 -16.49202,-16.492017 16.491949,16.491949 0 0 1 16.49202,-16.492017 z" /><circle
       style="fill:#ffffff;fill-opacity:1;stroke:#848484;stroke-width:1.09436;stroke-linecap:round;stroke-linejoin:bevel;stroke-dasharray:none;stroke-opacity:1"
       id="circle104"
       cx="170.94922"
       cy="27.357489"
       r="5.9706521" /><circle
       style="fill:url(#radialGradient106);fill-opacity:1;stroke:#d8ad2c;stroke-width:0.6;stroke-linecap:round;stroke-linejoin:bevel;stroke-dasharray:none;stroke-opacity:1"
       id="path100"
       cx="170.94922"
       cy="27.357489"
       r="5.508018" /><path
       id="circle103"
       style="fill:#f5db5d;fill-opacity:1;stroke:#ffffff;stroke-width:0.338657;stroke-linecap:round;stroke-linejoin:bevel;stroke-dasharray:none;stroke-opacity:1"
       d="m 174.42245,26.160263 a 3.5297404,3.5297404 0 0 0 -1.18245,-0.83066 3.5297404,3.5297404 0 0 1 -0.92675,3.745328 3.5297404,3.5297404 0 0 1 -3.80275,0.65441 3.5297404,3.5297404 0 0 0 0.74515,1.241676 3.5297404,3.5297404 0 0 0 4.98878,0.178028 3.5297404,3.5297404 0 0 0 0.17802,-4.988782 z" /><path
       style="fill:none;stroke:#000000;stroke-width:0.598945;stroke-linecap:round;stroke-linejoin:round;stroke-dasharray:none;stroke-opacity:1"
       d="m 166.06702,57.244649 c 0.17981,0.236919 0.36258,0.477734 0.52346,0.61257 0.16088,0.134836 0.30135,0.165639 0.43737,0.177057 0.13602,0.01142 0.27219,0.0032 0.43247,-0.0479 0.16028,-0.05107 0.34697,-0.145102 0.5961,-0.382623 0.24913,-0.237521 0.56068,-0.618512 1.27475,-2.26846 0.71408,-1.649948 1.83062,-4.568723 2.4228,-6.022467 0.59218,-1.453743 0.66005,-1.442387 0.68016,-1.376184 0.0201,0.0662 -0.007,0.187256 -0.0846,0.630142 -0.0771,0.442887 -0.2038,1.207572 -0.27223,1.888242 -0.0684,0.680671 -0.0786,1.277288 -0.0621,2.179268 0.0165,0.90198 0.0597,2.109265 0.13358,2.954764 0.0738,0.845499 0.17829,1.329173 0.27973,1.63396 0.10144,0.304788 0.19991,0.430729 0.30376,0.512332 0.10385,0.0816 0.21311,0.118895 0.26623,0.139984 0.0531,0.02109 0.0501,0.02591 0.0786,0.02564 0.0285,-2.65e-4 0.0886,-0.0057 0.1687,-0.02378 0.0801,-0.0181 0.18039,-0.04891 0.47514,-0.261568 0.29475,-0.212659 0.78399,-0.607162 1.34618,-1.274867 0.56219,-0.667705 1.1973,-1.608566 1.69345,-2.470282 0.49616,-0.861716 0.85333,-1.644233 1.09495,-2.236274 0.24163,-0.59204 0.36769,-0.993566 0.44484,-1.35349 0.0771,-0.359924 0.10538,-0.678225 0.11709,-0.924125 0.0117,-0.245901 0.007,-0.41938 -0.0309,-0.548528 -0.0378,-0.129149 -0.10866,-0.214009 -0.21161,-0.290481 -0.10296,-0.07647 -0.23802,-0.144562 -0.41211,-0.175905 -0.17409,-0.03134 -0.38719,-0.02594 -0.64472,0.06908 -0.25754,0.09502 -0.56189,0.281119 -0.86414,0.584842 -0.30226,0.303722 -0.60361,0.725786 -0.82812,1.192719 -0.22452,0.466932 -0.37219,0.978703 -0.44636,1.398616 -0.0742,0.419913 -0.0748,0.747942 -0.0466,1.118676 0.0282,0.370734 0.0852,0.784156 0.19116,1.147055 0.10595,0.3629 0.26083,0.675256 0.40641,0.867918 0.14557,0.192663 0.28183,0.265617 0.43341,0.321553 0.15158,0.05593 0.31846,0.09484 0.53247,0.07674 0.21401,-0.0181 0.47514,-0.09322 0.93378,-0.293997 0.45864,-0.200772 1.11475,-0.52718 1.62981,-0.842521 0.51507,-0.31534 0.88905,-0.619593 1.22732,-0.929259 0.33828,-0.309666 0.64083,-0.62473 0.84553,-0.924668 0.20471,-0.299938 0.31156,-0.584736 0.29565,-0.734703 -0.0159,-0.149967 -0.15458,-0.165101 -0.30706,-0.155643 -0.15248,0.0095 -0.31876,0.0435 -0.49255,0.108626 -0.17379,0.06512 -0.35507,0.161313 -0.56548,0.264536 -0.21041,0.103223 -0.44993,0.213469 -0.65583,0.306153 -0.20591,0.09268 -0.37819,0.167799 -0.42383,0.174565 -0.0456,0.0068 0.0354,-0.05486 0.21883,-0.159435 0.1834,-0.104575 0.46913,-0.252105 0.69305,-0.383971 0.22391,-0.131865 0.38599,-0.248056 1.06002,-0.589423 0.67402,-0.341367 1.85925,-0.907554 3.04485,-1.473918"
       id="path98"
       transform="matrix(0.45875088,-0.17651136,0.17651136,0.45875088,80.833008,33.358579)" /><text
       xml:space="preserve"
       style="font-style:normal;font-variant:normal;font-weight:bold;font-stretch:normal;font-size:1.40158px;line-height:1.45;font-family:Arial;-inkscape-font-specification:'Arial Bold';letter-spacing:0.1343px;fill:#000000;fill-opacity:1;stroke-width:0.0350396"
       x="101.95517"
       y="141.85573"
       id="text100"
       transform="rotate(-43.871352)"><tspan
         id="tspan100"
         style="font-style:normal;font-variant:normal;font-weight:bold;font-stretch:normal;line-height:1.45;font-family:Arial;-inkscape-font-specification:'Arial Bold';letter-spacing:0.1343px;fill:#000000;fill-opacity:1;stroke-width:0.0350396"
         x="101.95517"
         y="141.85573">SHOP</tspan></text></g><g
     id="layer5"
     transform="translate(-145.52908,-1.9223501)"><text
       xml:space="preserve"
       style="font-style:normal;font-variant:normal;font-weight:normal;font-stretch:normal;font-size:3.33313px;font-family:'Arial Rounded MT Bold';-inkscape-font-specification:'Arial Rounded MT Bold, Normal';font-variant-ligatures:normal;font-variant-caps:normal;font-variant-numeric:normal;font-variant-east-asian:normal;fill:#8c8c8c;fill-opacity:1;stroke:none;stroke-width:0.677344;stroke-opacity:1"
       id="text30"
       transform="matrix(0.97741097,0,0,0.97741097,-170.9446,-24.660376)"><textPath
         xlink:href="#path1"
         id="textPath30"><tspan
           id="tspan30"
           style="font-style:normal;font-variant:normal;font-weight:normal;font-stretch:normal;font-size:3.33313px;font-family:'Arial Rounded MT Bold';-inkscape-font-specification:'Arial Rounded MT Bold, Normal';font-variant-ligatures:normal;font-variant-caps:normal;font-variant-numeric:normal;font-variant-east-asian:normal;fill:#8c8c8c;fill-opacity:1;stroke:none;stroke-width:0.677344;stroke-opacity:1">N G S H O P N G S H O P N G S H O P N G S H O P N G S H O P N G S H O P N G S H O P N G S H O P N G S H O P N G S H O P N G S H O P N G S H O P N G S H O P</tspan></textPath></text></g><g
     id="layer6"
     transform="translate(-145.52908,-1.9223501)"><text
       xml:space="preserve"
       style="font-style:normal;font-variant:normal;font-weight:normal;font-stretch:normal;font-size:3.33313px;font-family:'Arial Rounded MT Bold';-inkscape-font-specification:'Arial Rounded MT Bold, Normal';font-variant-ligatures:normal;font-variant-caps:normal;font-variant-numeric:normal;font-variant-east-asian:normal;fill:#8c8c8c;fill-opacity:1;stroke:none;stroke-width:0.677344;stroke-opacity:1"
       id="text60"
       transform="matrix(0.97741097,0,0,0.97741097,151.56422,24.559806)"><textPath
         xlink:href="#path1"
         id="textPath60"><tspan
           id="tspan60"
           style="font-style:normal;font-variant:normal;font-weight:normal;font-stretch:normal;font-size:3.33313px;font-family:'Arial Rounded MT Bold';-inkscape-font-specification:'Arial Rounded MT Bold, Normal';font-variant-ligatures:normal;font-variant-caps:normal;font-variant-numeric:normal;font-variant-east-asian:normal;fill:#8c8c8c;fill-opacity:1;stroke:none;stroke-width:0.677344;stroke-opacity:1">N G S H O P N G S H O P N G S H O P N G S H O P N G S H O P N G S H O P N G S H O P N G S H O P N G S H O P N G S H O P N G S H O P N G S H O P N G S H O P</tspan></textPath></text></g><g
     id="layer7"
     transform="translate(-145.52908,-1.9223501)"><text
       xml:space="preserve"
       style="font-style:normal;font-variant:normal;font-weight:normal;font-stretch:normal;font-size:3.33313px;font-family:'Arial Rounded MT Bold';-inkscape-font-specification:'Arial Rounded MT Bold, Normal';font-variant-ligatures:normal;font-variant-caps:normal;font-variant-numeric:normal;font-variant-east-asian:normal;fill:#8c8c8c;fill-opacity:1;stroke:none;stroke-width:0.677344;stroke-opacity:1"
       id="text1-0"
       transform="matrix(0.97741097,0,0,0.97741097,-105.62181,79.271628)"><textPath
         xlink:href="#path1"
         id="textPath1-5"><tspan
           id="tspan1-1"
           style="font-style:normal;font-variant:normal;font-weight:normal;font-stretch:normal;font-size:3.33313px;font-family:'Arial Rounded MT Bold';-inkscape-font-specification:'Arial Rounded MT Bold, Normal';font-variant-ligatures:normal;font-variant-caps:normal;font-variant-numeric:normal;font-variant-east-asian:normal;fill:#8c8c8c;fill-opacity:1;stroke:none;stroke-width:0.677344;stroke-opacity:1">N G S H O P N G S H O P N G S H O P N G S H O P N G S H O P N G S H O P N G S H O P N G S H O P N G S H O P N G S H O P N G S H O P N G S H O P N G S H O P</tspan></textPath></text></g><script
     id="mesh_polyfill"
     type="text/javascript">
!function(){const t=&quot;http://www.w3.org/2000/svg&quot;,e=&quot;http://www.w3.org/1999/xlink&quot;,s=&quot;http://www.w3.org/1999/xhtml&quot;,r=2;if(document.createElementNS(t,&quot;meshgradient&quot;).x)return;const n=(t,e,s,r)=&gt;{let n=new x(.5*(e.x+s.x),.5*(e.y+s.y)),o=new x(.5*(t.x+e.x),.5*(t.y+e.y)),i=new x(.5*(s.x+r.x),.5*(s.y+r.y)),a=new x(.5*(n.x+o.x),.5*(n.y+o.y)),h=new x(.5*(n.x+i.x),.5*(n.y+i.y)),l=new x(.5*(a.x+h.x),.5*(a.y+h.y));return[[t,o,a,l],[l,h,i,r]]},o=t=&gt;{let e=t[0].distSquared(t[1]),s=t[2].distSquared(t[3]),r=.25*t[0].distSquared(t[2]),n=.25*t[1].distSquared(t[3]),o=e&gt;s?e:s,i=r&gt;n?r:n;return 18*(o&gt;i?o:i)},i=(t,e)=&gt;Math.sqrt(t.distSquared(e)),a=(t,e)=&gt;t.scale(2/3).add(e.scale(1/3)),h=t=&gt;{let e,s,r,n,o,i,a,h=new g;return t.match(/(\w+\(\s*[^)]+\))+/g).forEach(t=&gt;{let l=t.match(/[\w.-]+/g),d=l.shift();switch(d){case&quot;translate&quot;:2===l.length?e=new g(1,0,0,1,l[0],l[1]):(console.error(&quot;mesh.js: translate does not have 2 arguments!&quot;),e=new g(1,0,0,1,0,0)),h=h.append(e);break;case&quot;scale&quot;:1===l.length?s=new g(l[0],0,0,l[0],0,0):2===l.length?s=new g(l[0],0,0,l[1],0,0):(console.error(&quot;mesh.js: scale does not have 1 or 2 arguments!&quot;),s=new g(1,0,0,1,0,0)),h=h.append(s);break;case&quot;rotate&quot;:if(3===l.length&amp;&amp;(e=new g(1,0,0,1,l[1],l[2]),h=h.append(e)),l[0]){r=l[0]*Math.PI/180;let t=Math.cos(r),e=Math.sin(r);Math.abs(t)&lt;1e-16&amp;&amp;(t=0),Math.abs(e)&lt;1e-16&amp;&amp;(e=0),a=new g(t,e,-e,t,0,0),h=h.append(a)}else console.error(&quot;math.js: No argument to rotate transform!&quot;);3===l.length&amp;&amp;(e=new g(1,0,0,1,-l[1],-l[2]),h=h.append(e));break;case&quot;skewX&quot;:l[0]?(r=l[0]*Math.PI/180,n=Math.tan(r),o=new g(1,0,n,1,0,0),h=h.append(o)):console.error(&quot;math.js: No argument to skewX transform!&quot;);break;case&quot;skewY&quot;:l[0]?(r=l[0]*Math.PI/180,n=Math.tan(r),i=new g(1,n,0,1,0,0),h=h.append(i)):console.error(&quot;math.js: No argument to skewY transform!&quot;);break;case&quot;matrix&quot;:6===l.length?h=h.append(new g(...l)):console.error(&quot;math.js: Incorrect number of arguments for matrix!&quot;);break;default:console.error(&quot;mesh.js: Unhandled transform type: &quot;+d)}}),h},l=t=&gt;{let e=[],s=t.split(/[ ,]+/);for(let t=0,r=s.length-1;t&lt;r;t+=2)e.push(new x(parseFloat(s[t]),parseFloat(s[t+1])));return e},d=(t,e)=&gt;{for(let s in e)t.setAttribute(s,e[s])},c=(t,e,s,r,n)=&gt;{let o,i,a=[0,0,0,0];for(let h=0;h&lt;3;++h)e[h]&lt;t[h]&amp;&amp;e[h]&lt;s[h]||t[h]&lt;e[h]&amp;&amp;s[h]&lt;e[h]?a[h]=0:(a[h]=.5*((e[h]-t[h])/r+(s[h]-e[h])/n),o=Math.abs(3*(e[h]-t[h])/r),i=Math.abs(3*(s[h]-e[h])/n),a[h]&gt;o?a[h]=o:a[h]&gt;i&amp;&amp;(a[h]=i));return a},u=[[1,0,0,0,0,0,0,0,0,0,0,0,0,0,0,0],[0,0,0,0,1,0,0,0,0,0,0,0,0,0,0,0],[-3,3,0,0,-2,-1,0,0,0,0,0,0,0,0,0,0],[2,-2,0,0,1,1,0,0,0,0,0,0,0,0,0,0],[0,0,0,0,0,0,0,0,1,0,0,0,0,0,0,0],[0,0,0,0,0,0,0,0,0,0,0,0,1,0,0,0],[0,0,0,0,0,0,0,0,-3,3,0,0,-2,-1,0,0],[0,0,0,0,0,0,0,0,2,-2,0,0,1,1,0,0],[-3,0,3,0,0,0,0,0,-2,0,-1,0,0,0,0,0],[0,0,0,0,-3,0,3,0,0,0,0,0,-2,0,-1,0],[9,-9,-9,9,6,3,-6,-3,6,-6,3,-3,4,2,2,1],[-6,6,6,-6,-3,-3,3,3,-4,4,-2,2,-2,-2,-1,-1],[2,0,-2,0,0,0,0,0,1,0,1,0,0,0,0,0],[0,0,0,0,2,0,-2,0,0,0,0,0,1,0,1,0],[-6,6,6,-6,-4,-2,4,2,-3,3,-3,3,-2,-1,-2,-1],[4,-4,-4,4,2,2,-2,-2,2,-2,2,-2,1,1,1,1]],f=t=&gt;{let e=[];for(let s=0;s&lt;16;++s){e[s]=0;for(let r=0;r&lt;16;++r)e[s]+=u[s][r]*t[r]}return e},p=(t,e,s)=&gt;{const r=e*e,n=s*s,o=e*e*e,i=s*s*s;return t[0]+t[1]*e+t[2]*r+t[3]*o+t[4]*s+t[5]*s*e+t[6]*s*r+t[7]*s*o+t[8]*n+t[9]*n*e+t[10]*n*r+t[11]*n*o+t[12]*i+t[13]*i*e+t[14]*i*r+t[15]*i*o},y=t=&gt;{let e=[],s=[],r=[];for(let s=0;s&lt;4;++s)e[s]=[],e[s][0]=n(t[0][s],t[1][s],t[2][s],t[3][s]),e[s][1]=[],e[s][1].push(...n(...e[s][0][0])),e[s][1].push(...n(...e[s][0][1])),e[s][2]=[],e[s][2].push(...n(...e[s][1][0])),e[s][2].push(...n(...e[s][1][1])),e[s][2].push(...n(...e[s][1][2])),e[s][2].push(...n(...e[s][1][3]));for(let t=0;t&lt;8;++t){s[t]=[];for(let r=0;r&lt;4;++r)s[t][r]=[],s[t][r][0]=n(e[0][2][t][r],e[1][2][t][r],e[2][2][t][r],e[3][2][t][r]),s[t][r][1]=[],s[t][r][1].push(...n(...s[t][r][0][0])),s[t][r][1].push(...n(...s[t][r][0][1])),s[t][r][2]=[],s[t][r][2].push(...n(...s[t][r][1][0])),s[t][r][2].push(...n(...s[t][r][1][1])),s[t][r][2].push(...n(...s[t][r][1][2])),s[t][r][2].push(...n(...s[t][r][1][3]))}for(let t=0;t&lt;8;++t){r[t]=[];for(let e=0;e&lt;8;++e)r[t][e]=[],r[t][e][0]=s[t][0][2][e],r[t][e][1]=s[t][1][2][e],r[t][e][2]=s[t][2][2][e],r[t][e][3]=s[t][3][2][e]}return r};class x{constructor(t,e){this.x=t||0,this.y=e||0}toString(){return`(x=${this.x}, y=${this.y})`}clone(){return new x(this.x,this.y)}add(t){return new x(this.x+t.x,this.y+t.y)}scale(t){return void 0===t.x?new x(this.x*t,this.y*t):new x(this.x*t.x,this.y*t.y)}distSquared(t){let e=this.x-t.x,s=this.y-t.y;return e*e+s*s}transform(t){let e=this.x*t.a+this.y*t.c+t.e,s=this.x*t.b+this.y*t.d+t.f;return new x(e,s)}}class g{constructor(t,e,s,r,n,o){void 0===t?(this.a=1,this.b=0,this.c=0,this.d=1,this.e=0,this.f=0):(this.a=t,this.b=e,this.c=s,this.d=r,this.e=n,this.f=o)}toString(){return`affine: ${this.a} ${this.c} ${this.e} \n       ${this.b} ${this.d} ${this.f}`}append(t){t instanceof g||console.error(&quot;mesh.js: argument to Affine.append is not affine!&quot;);let e=this.a*t.a+this.c*t.b,s=this.b*t.a+this.d*t.b,r=this.a*t.c+this.c*t.d,n=this.b*t.c+this.d*t.d,o=this.a*t.e+this.c*t.f+this.e,i=this.b*t.e+this.d*t.f+this.f;return new g(e,s,r,n,o,i)}}class w{constructor(t,e){this.nodes=t,this.colors=e}paintCurve(t,e){if(o(this.nodes)&gt;r){const s=n(...this.nodes);let r=[[],[]],o=[[],[]];for(let t=0;t&lt;4;++t)r[0][t]=this.colors[0][t],r[1][t]=(this.colors[0][t]+this.colors[1][t])/2,o[0][t]=r[1][t],o[1][t]=this.colors[1][t];let i=new w(s[0],r),a=new w(s[1],o);i.paintCurve(t,e),a.paintCurve(t,e)}else{let s=Math.round(this.nodes[0].x);if(s&gt;=0&amp;&amp;s&lt;e){let r=4*(~~this.nodes[0].y*e+s);t[r]=Math.round(this.colors[0][0]),t[r+1]=Math.round(this.colors[0][1]),t[r+2]=Math.round(this.colors[0][2]),t[r+3]=Math.round(this.colors[0][3])}}}}class m{constructor(t,e){this.nodes=t,this.colors=e}split(){let t=[[],[],[],[]],e=[[],[],[],[]],s=[[[],[]],[[],[]]],r=[[[],[]],[[],[]]];for(let s=0;s&lt;4;++s){const r=n(this.nodes[0][s],this.nodes[1][s],this.nodes[2][s],this.nodes[3][s]);t[0][s]=r[0][0],t[1][s]=r[0][1],t[2][s]=r[0][2],t[3][s]=r[0][3],e[0][s]=r[1][0],e[1][s]=r[1][1],e[2][s]=r[1][2],e[3][s]=r[1][3]}for(let t=0;t&lt;4;++t)s[0][0][t]=this.colors[0][0][t],s[0][1][t]=this.colors[0][1][t],s[1][0][t]=(this.colors[0][0][t]+this.colors[1][0][t])/2,s[1][1][t]=(this.colors[0][1][t]+this.colors[1][1][t])/2,r[0][0][t]=s[1][0][t],r[0][1][t]=s[1][1][t],r[1][0][t]=this.colors[1][0][t],r[1][1][t]=this.colors[1][1][t];return[new m(t,s),new m(e,r)]}paint(t,e){let s,n=!1;for(let t=0;t&lt;4;++t)if((s=o([this.nodes[0][t],this.nodes[1][t],this.nodes[2][t],this.nodes[3][t]]))&gt;r){n=!0;break}if(n){let s=this.split();s[0].paint(t,e),s[1].paint(t,e)}else{new w([...this.nodes[0]],[...this.colors[0]]).paintCurve(t,e)}}}class b{constructor(t){this.readMesh(t),this.type=t.getAttribute(&quot;type&quot;)||&quot;bilinear&quot;}readMesh(t){let e=[[]],s=[[]],r=Number(t.getAttribute(&quot;x&quot;)),n=Number(t.getAttribute(&quot;y&quot;));e[0][0]=new x(r,n);let o=t.children;for(let t=0,r=o.length;t&lt;r;++t){e[3*t+1]=[],e[3*t+2]=[],e[3*t+3]=[],s[t+1]=[];let r=o[t].children;for(let n=0,o=r.length;n&lt;o;++n){let o=r[n].children;for(let r=0,i=o.length;r&lt;i;++r){let i=r;0!==t&amp;&amp;++i;let h,d=o[r].getAttribute(&quot;path&quot;),c=&quot;l&quot;;null!=d&amp;&amp;(c=(h=d.match(/\s*([lLcC])\s*(.*)/))[1]);let u=l(h[2]);switch(c){case&quot;l&quot;:0===i?(e[3*t][3*n+3]=u[0].add(e[3*t][3*n]),e[3*t][3*n+1]=a(e[3*t][3*n],e[3*t][3*n+3]),e[3*t][3*n+2]=a(e[3*t][3*n+3],e[3*t][3*n])):1===i?(e[3*t+3][3*n+3]=u[0].add(e[3*t][3*n+3]),e[3*t+1][3*n+3]=a(e[3*t][3*n+3],e[3*t+3][3*n+3]),e[3*t+2][3*n+3]=a(e[3*t+3][3*n+3],e[3*t][3*n+3])):2===i?(0===n&amp;&amp;(e[3*t+3][3*n+0]=u[0].add(e[3*t+3][3*n+3])),e[3*t+3][3*n+1]=a(e[3*t+3][3*n],e[3*t+3][3*n+3]),e[3*t+3][3*n+2]=a(e[3*t+3][3*n+3],e[3*t+3][3*n])):(e[3*t+1][3*n]=a(e[3*t][3*n],e[3*t+3][3*n]),e[3*t+2][3*n]=a(e[3*t+3][3*n],e[3*t][3*n]));break;case&quot;L&quot;:0===i?(e[3*t][3*n+3]=u[0],e[3*t][3*n+1]=a(e[3*t][3*n],e[3*t][3*n+3]),e[3*t][3*n+2]=a(e[3*t][3*n+3],e[3*t][3*n])):1===i?(e[3*t+3][3*n+3]=u[0],e[3*t+1][3*n+3]=a(e[3*t][3*n+3],e[3*t+3][3*n+3]),e[3*t+2][3*n+3]=a(e[3*t+3][3*n+3],e[3*t][3*n+3])):2===i?(0===n&amp;&amp;(e[3*t+3][3*n+0]=u[0]),e[3*t+3][3*n+1]=a(e[3*t+3][3*n],e[3*t+3][3*n+3]),e[3*t+3][3*n+2]=a(e[3*t+3][3*n+3],e[3*t+3][3*n])):(e[3*t+1][3*n]=a(e[3*t][3*n],e[3*t+3][3*n]),e[3*t+2][3*n]=a(e[3*t+3][3*n],e[3*t][3*n]));break;case&quot;c&quot;:0===i?(e[3*t][3*n+1]=u[0].add(e[3*t][3*n]),e[3*t][3*n+2]=u[1].add(e[3*t][3*n]),e[3*t][3*n+3]=u[2].add(e[3*t][3*n])):1===i?(e[3*t+1][3*n+3]=u[0].add(e[3*t][3*n+3]),e[3*t+2][3*n+3]=u[1].add(e[3*t][3*n+3]),e[3*t+3][3*n+3]=u[2].add(e[3*t][3*n+3])):2===i?(e[3*t+3][3*n+2]=u[0].add(e[3*t+3][3*n+3]),e[3*t+3][3*n+1]=u[1].add(e[3*t+3][3*n+3]),0===n&amp;&amp;(e[3*t+3][3*n+0]=u[2].add(e[3*t+3][3*n+3]))):(e[3*t+2][3*n]=u[0].add(e[3*t+3][3*n]),e[3*t+1][3*n]=u[1].add(e[3*t+3][3*n]));break;case&quot;C&quot;:0===i?(e[3*t][3*n+1]=u[0],e[3*t][3*n+2]=u[1],e[3*t][3*n+3]=u[2]):1===i?(e[3*t+1][3*n+3]=u[0],e[3*t+2][3*n+3]=u[1],e[3*t+3][3*n+3]=u[2]):2===i?(e[3*t+3][3*n+2]=u[0],e[3*t+3][3*n+1]=u[1],0===n&amp;&amp;(e[3*t+3][3*n+0]=u[2])):(e[3*t+2][3*n]=u[0],e[3*t+1][3*n]=u[1]);break;default:console.error(&quot;mesh.js: &quot;+c+&quot; invalid path type.&quot;)}if(0===t&amp;&amp;0===n||r&gt;0){let e=window.getComputedStyle(o[r]).stopColor.match(/^rgb\s*\(\s*(\d+)\s*,\s*(\d+)\s*,\s*(\d+)\s*\)$/i),a=window.getComputedStyle(o[r]).stopOpacity,h=255;a&amp;&amp;(h=Math.floor(255*a)),e&amp;&amp;(0===i?(s[t][n]=[],s[t][n][0]=Math.floor(e[1]),s[t][n][1]=Math.floor(e[2]),s[t][n][2]=Math.floor(e[3]),s[t][n][3]=h):1===i?(s[t][n+1]=[],s[t][n+1][0]=Math.floor(e[1]),s[t][n+1][1]=Math.floor(e[2]),s[t][n+1][2]=Math.floor(e[3]),s[t][n+1][3]=h):2===i?(s[t+1][n+1]=[],s[t+1][n+1][0]=Math.floor(e[1]),s[t+1][n+1][1]=Math.floor(e[2]),s[t+1][n+1][2]=Math.floor(e[3]),s[t+1][n+1][3]=h):3===i&amp;&amp;(s[t+1][n]=[],s[t+1][n][0]=Math.floor(e[1]),s[t+1][n][1]=Math.floor(e[2]),s[t+1][n][2]=Math.floor(e[3]),s[t+1][n][3]=h))}}e[3*t+1][3*n+1]=new x,e[3*t+1][3*n+2]=new x,e[3*t+2][3*n+1]=new x,e[3*t+2][3*n+2]=new x,e[3*t+1][3*n+1].x=(-4*e[3*t][3*n].x+6*(e[3*t][3*n+1].x+e[3*t+1][3*n].x)+-2*(e[3*t][3*n+3].x+e[3*t+3][3*n].x)+3*(e[3*t+3][3*n+1].x+e[3*t+1][3*n+3].x)+-1*e[3*t+3][3*n+3].x)/9,e[3*t+1][3*n+2].x=(-4*e[3*t][3*n+3].x+6*(e[3*t][3*n+2].x+e[3*t+1][3*n+3].x)+-2*(e[3*t][3*n].x+e[3*t+3][3*n+3].x)+3*(e[3*t+3][3*n+2].x+e[3*t+1][3*n].x)+-1*e[3*t+3][3*n].x)/9,e[3*t+2][3*n+1].x=(-4*e[3*t+3][3*n].x+6*(e[3*t+3][3*n+1].x+e[3*t+2][3*n].x)+-2*(e[3*t+3][3*n+3].x+e[3*t][3*n].x)+3*(e[3*t][3*n+1].x+e[3*t+2][3*n+3].x)+-1*e[3*t][3*n+3].x)/9,e[3*t+2][3*n+2].x=(-4*e[3*t+3][3*n+3].x+6*(e[3*t+3][3*n+2].x+e[3*t+2][3*n+3].x)+-2*(e[3*t+3][3*n].x+e[3*t][3*n+3].x)+3*(e[3*t][3*n+2].x+e[3*t+2][3*n].x)+-1*e[3*t][3*n].x)/9,e[3*t+1][3*n+1].y=(-4*e[3*t][3*n].y+6*(e[3*t][3*n+1].y+e[3*t+1][3*n].y)+-2*(e[3*t][3*n+3].y+e[3*t+3][3*n].y)+3*(e[3*t+3][3*n+1].y+e[3*t+1][3*n+3].y)+-1*e[3*t+3][3*n+3].y)/9,e[3*t+1][3*n+2].y=(-4*e[3*t][3*n+3].y+6*(e[3*t][3*n+2].y+e[3*t+1][3*n+3].y)+-2*(e[3*t][3*n].y+e[3*t+3][3*n+3].y)+3*(e[3*t+3][3*n+2].y+e[3*t+1][3*n].y)+-1*e[3*t+3][3*n].y)/9,e[3*t+2][3*n+1].y=(-4*e[3*t+3][3*n].y+6*(e[3*t+3][3*n+1].y+e[3*t+2][3*n].y)+-2*(e[3*t+3][3*n+3].y+e[3*t][3*n].y)+3*(e[3*t][3*n+1].y+e[3*t+2][3*n+3].y)+-1*e[3*t][3*n+3].y)/9,e[3*t+2][3*n+2].y=(-4*e[3*t+3][3*n+3].y+6*(e[3*t+3][3*n+2].y+e[3*t+2][3*n+3].y)+-2*(e[3*t+3][3*n].y+e[3*t][3*n+3].y)+3*(e[3*t][3*n+2].y+e[3*t+2][3*n].y)+-1*e[3*t][3*n].y)/9}}this.nodes=e,this.colors=s}paintMesh(t,e){let s=(this.nodes.length-1)/3,r=(this.nodes[0].length-1)/3;if(&quot;bilinear&quot;===this.type||s&lt;2||r&lt;2){let n;for(let o=0;o&lt;s;++o)for(let s=0;s&lt;r;++s){let r=[];for(let t=3*o,e=3*o+4;t&lt;e;++t)r.push(this.nodes[t].slice(3*s,3*s+4));let i=[];i.push(this.colors[o].slice(s,s+2)),i.push(this.colors[o+1].slice(s,s+2)),(n=new m(r,i)).paint(t,e)}}else{let n,o,a,h,l,d,u;const x=s,g=r;s++,r++;let w=new Array(s);for(let t=0;t&lt;s;++t){w[t]=new Array(r);for(let e=0;e&lt;r;++e)w[t][e]=[],w[t][e][0]=this.nodes[3*t][3*e],w[t][e][1]=this.colors[t][e]}for(let t=0;t&lt;s;++t)for(let e=0;e&lt;r;++e)0!==t&amp;&amp;t!==x&amp;&amp;(n=i(w[t-1][e][0],w[t][e][0]),o=i(w[t+1][e][0],w[t][e][0]),w[t][e][2]=c(w[t-1][e][1],w[t][e][1],w[t+1][e][1],n,o)),0!==e&amp;&amp;e!==g&amp;&amp;(n=i(w[t][e-1][0],w[t][e][0]),o=i(w[t][e+1][0],w[t][e][0]),w[t][e][3]=c(w[t][e-1][1],w[t][e][1],w[t][e+1][1],n,o));for(let t=0;t&lt;r;++t){w[0][t][2]=[],w[x][t][2]=[];for(let e=0;e&lt;4;++e)n=i(w[1][t][0],w[0][t][0]),o=i(w[x][t][0],w[x-1][t][0]),w[0][t][2][e]=n&gt;0?2*(w[1][t][1][e]-w[0][t][1][e])/n-w[1][t][2][e]:0,w[x][t][2][e]=o&gt;0?2*(w[x][t][1][e]-w[x-1][t][1][e])/o-w[x-1][t][2][e]:0}for(let t=0;t&lt;s;++t){w[t][0][3]=[],w[t][g][3]=[];for(let e=0;e&lt;4;++e)n=i(w[t][1][0],w[t][0][0]),o=i(w[t][g][0],w[t][g-1][0]),w[t][0][3][e]=n&gt;0?2*(w[t][1][1][e]-w[t][0][1][e])/n-w[t][1][3][e]:0,w[t][g][3][e]=o&gt;0?2*(w[t][g][1][e]-w[t][g-1][1][e])/o-w[t][g-1][3][e]:0}for(let s=0;s&lt;x;++s)for(let r=0;r&lt;g;++r){let n=i(w[s][r][0],w[s+1][r][0]),o=i(w[s][r+1][0],w[s+1][r+1][0]),c=i(w[s][r][0],w[s][r+1][0]),x=i(w[s+1][r][0],w[s+1][r+1][0]),g=[[],[],[],[]];for(let t=0;t&lt;4;++t){(d=[])[0]=w[s][r][1][t],d[1]=w[s+1][r][1][t],d[2]=w[s][r+1][1][t],d[3]=w[s+1][r+1][1][t],d[4]=w[s][r][2][t]*n,d[5]=w[s+1][r][2][t]*n,d[6]=w[s][r+1][2][t]*o,d[7]=w[s+1][r+1][2][t]*o,d[8]=w[s][r][3][t]*c,d[9]=w[s+1][r][3][t]*x,d[10]=w[s][r+1][3][t]*c,d[11]=w[s+1][r+1][3][t]*x,d[12]=0,d[13]=0,d[14]=0,d[15]=0,u=f(d);for(let e=0;e&lt;9;++e){g[t][e]=[];for(let s=0;s&lt;9;++s)g[t][e][s]=p(u,e/8,s/8),g[t][e][s]&gt;255?g[t][e][s]=255:g[t][e][s]&lt;0&amp;&amp;(g[t][e][s]=0)}}h=[];for(let t=3*s,e=3*s+4;t&lt;e;++t)h.push(this.nodes[t].slice(3*r,3*r+4));l=y(h);for(let s=0;s&lt;8;++s)for(let r=0;r&lt;8;++r)(a=new m(l[s][r],[[[g[0][s][r],g[1][s][r],g[2][s][r],g[3][s][r]],[g[0][s][r+1],g[1][s][r+1],g[2][s][r+1],g[3][s][r+1]]],[[g[0][s+1][r],g[1][s+1][r],g[2][s+1][r],g[3][s+1][r]],[g[0][s+1][r+1],g[1][s+1][r+1],g[2][s+1][r+1],g[3][s+1][r+1]]]])).paint(t,e)}}}transform(t){if(t instanceof x)for(let e=0,s=this.nodes.length;e&lt;s;++e)for(let s=0,r=this.nodes[0].length;s&lt;r;++s)this.nodes[e][s]=this.nodes[e][s].add(t);else if(t instanceof g)for(let e=0,s=this.nodes.length;e&lt;s;++e)for(let s=0,r=this.nodes[0].length;s&lt;r;++s)this.nodes[e][s]=this.nodes[e][s].transform(t)}scale(t){for(let e=0,s=this.nodes.length;e&lt;s;++e)for(let s=0,r=this.nodes[0].length;s&lt;r;++s)this.nodes[e][s]=this.nodes[e][s].scale(t)}}document.querySelectorAll(&quot;rect,circle,ellipse,path,text&quot;).forEach((r,n)=&gt;{let o=r.getAttribute(&quot;id&quot;);o||(o=&quot;patchjs_shape&quot;+n,r.setAttribute(&quot;id&quot;,o));const i=r.style.fill.match(/^url\(\s*&quot;?\s*#([^\s&quot;]+)&quot;?\s*\)/),a=r.style.stroke.match(/^url\(\s*&quot;?\s*#([^\s&quot;]+)&quot;?\s*\)/);if(i&amp;&amp;i[1]){const a=document.getElementById(i[1]);if(a&amp;&amp;&quot;meshgradient&quot;===a.nodeName){const i=r.getBBox();let l=document.createElementNS(s,&quot;canvas&quot;);d(l,{width:i.width,height:i.height});const c=l.getContext(&quot;2d&quot;);let u=c.createImageData(i.width,i.height);const f=new b(a);&quot;objectBoundingBox&quot;===a.getAttribute(&quot;gradientUnits&quot;)&amp;&amp;f.scale(new x(i.width,i.height));const p=a.getAttribute(&quot;gradientTransform&quot;);null!=p&amp;&amp;f.transform(h(p)),&quot;userSpaceOnUse&quot;===a.getAttribute(&quot;gradientUnits&quot;)&amp;&amp;f.transform(new x(-i.x,-i.y)),f.paintMesh(u.data,l.width),c.putImageData(u,0,0);const y=document.createElementNS(t,&quot;image&quot;);d(y,{width:i.width,height:i.height,x:i.x,y:i.y});let g=l.toDataURL();y.setAttributeNS(e,&quot;xlink:href&quot;,g),r.parentNode.insertBefore(y,r),r.style.fill=&quot;none&quot;;const w=document.createElementNS(t,&quot;use&quot;);w.setAttributeNS(e,&quot;xlink:href&quot;,&quot;#&quot;+o);const m=&quot;patchjs_clip&quot;+n,M=document.createElementNS(t,&quot;clipPath&quot;);M.setAttribute(&quot;id&quot;,m),M.appendChild(w),r.parentElement.insertBefore(M,r),y.setAttribute(&quot;clip-path&quot;,&quot;url(#&quot;+m+&quot;)&quot;),u=null,l=null,g=null}}if(a&amp;&amp;a[1]){const o=document.getElementById(a[1]);if(o&amp;&amp;&quot;meshgradient&quot;===o.nodeName){const i=parseFloat(r.style.strokeWidth.slice(0,-2))*(parseFloat(r.style.strokeMiterlimit)||parseFloat(r.getAttribute(&quot;stroke-miterlimit&quot;))||1),a=r.getBBox(),l=Math.trunc(a.width+i),c=Math.trunc(a.height+i),u=Math.trunc(a.x-i/2),f=Math.trunc(a.y-i/2);let p=document.createElementNS(s,&quot;canvas&quot;);d(p,{width:l,height:c});const y=p.getContext(&quot;2d&quot;);let g=y.createImageData(l,c);const w=new b(o);&quot;objectBoundingBox&quot;===o.getAttribute(&quot;gradientUnits&quot;)&amp;&amp;w.scale(new x(l,c));const m=o.getAttribute(&quot;gradientTransform&quot;);null!=m&amp;&amp;w.transform(h(m)),&quot;userSpaceOnUse&quot;===o.getAttribute(&quot;gradientUnits&quot;)&amp;&amp;w.transform(new x(-u,-f)),w.paintMesh(g.data,p.width),y.putImageData(g,0,0);const M=document.createElementNS(t,&quot;image&quot;);d(M,{width:l,height:c,x:0,y:0});let S=p.toDataURL();M.setAttributeNS(e,&quot;xlink:href&quot;,S);const k=&quot;pattern_clip&quot;+n,A=document.createElementNS(t,&quot;pattern&quot;);d(A,{id:k,patternUnits:&quot;userSpaceOnUse&quot;,width:l,height:c,x:u,y:f}),A.appendChild(M),o.parentNode.appendChild(A),r.style.stroke=&quot;url(#&quot;+k+&quot;)&quot;,g=null,p=null,S=null}}})}();
</script></svg>
