<?xml version="1.0" encoding="UTF-8" standalone="no"?>
<!-- Created with Inkscape (http://www.inkscape.org/) -->

<svg
   width="131.17627"
   height="135.38185"
   viewBox="0 0 34.707054 35.819781"
   version="1.1"
   id="svg1"
   xml:space="preserve"
   xmlns="http://www.w3.org/2000/svg"
   xmlns:svg="http://www.w3.org/2000/svg"><defs
     id="defs1" /><g
     id="layer5"
     transform="translate(-146.96526,-34.82502)"><rect
       style="fill:#f4e3d7;fill-opacity:1;stroke:#000000;stroke-width:0.6;stroke-linecap:round;stroke-linejoin:round;stroke-miterlimit:15.3;stroke-dasharray:none;stroke-opacity:1"
       id="rect8"
       width="25.3083"
       height="25.3083"
       x="149.29832"
       y="37.377464"
       ry="0"
       rx="0" /><rect
       style="fill:#f4e3d7;fill-opacity:1;stroke:#000000;stroke-width:0.6;stroke-linecap:round;stroke-linejoin:round;stroke-miterlimit:15.3;stroke-dasharray:none;stroke-opacity:1"
       id="rect9"
       width="25.3083"
       height="25.3083"
       x="148.24702"
       y="36.18285"
       ry="0"
       rx="0" /><rect
       style="fill:#f4e3d7;fill-opacity:1;stroke:#000000;stroke-width:0.6;stroke-linecap:round;stroke-linejoin:round;stroke-miterlimit:15.3;stroke-dasharray:none;stroke-opacity:1"
       id="rect10"
       width="25.3083"
       height="25.3083"
       x="147.26526"
       y="35.125019"
       ry="0"
       rx="0" /><path
       style="fill:none;stroke:#000000;stroke-width:0.484488;stroke-linecap:round;stroke-linejoin:round;stroke-dasharray:none;stroke-opacity:1"
       d="m 166.06702,57.244649 c 0.17981,0.236919 0.36258,0.477734 0.52346,0.61257 0.16088,0.134836 0.30135,0.165639 0.43737,0.177057 0.13602,0.01142 0.27219,0.0032 0.43247,-0.0479 0.16028,-0.05107 0.34697,-0.145102 0.5961,-0.382623 0.24913,-0.237521 0.56068,-0.618512 1.27475,-2.26846 0.71408,-1.649948 1.83062,-4.568723 2.4228,-6.022467 0.59218,-1.453743 0.66005,-1.442387 0.68016,-1.376184 0.0201,0.0662 -0.007,0.187256 -0.0846,0.630142 -0.0771,0.442887 -0.2038,1.207572 -0.27223,1.888242 -0.0684,0.680671 -0.0786,1.277288 -0.0621,2.179268 0.0165,0.90198 0.0597,2.109265 0.13358,2.954764 0.0738,0.845499 0.17829,1.329173 0.27973,1.63396 0.10144,0.304788 0.19991,0.430729 0.30376,0.512332 0.10385,0.0816 0.21311,0.118895 0.26623,0.139984 0.0531,0.02109 0.0501,0.02591 0.0786,0.02564 0.0285,-2.65e-4 0.0886,-0.0057 0.1687,-0.02378 0.0801,-0.0181 0.18039,-0.04891 0.47514,-0.261568 0.29475,-0.212659 0.78399,-0.607162 1.34618,-1.274867 0.56219,-0.667705 1.1973,-1.608566 1.69345,-2.470282 0.49616,-0.861716 0.85333,-1.644233 1.09495,-2.236274 0.24163,-0.59204 0.36769,-0.993566 0.44484,-1.35349 0.0771,-0.359924 0.10538,-0.678225 0.11709,-0.924125 0.0117,-0.245901 0.007,-0.41938 -0.0309,-0.548528 -0.0378,-0.129149 -0.10866,-0.214009 -0.21161,-0.290481 -0.10296,-0.07647 -0.23802,-0.144562 -0.41211,-0.175905 -0.17409,-0.03134 -0.38719,-0.02594 -0.64472,0.06908 -0.25754,0.09502 -0.56189,0.281119 -0.86414,0.584842 -0.30226,0.303722 -0.60361,0.725786 -0.82812,1.192719 -0.22452,0.466932 -0.37219,0.978703 -0.44636,1.398616 -0.0742,0.419913 -0.0748,0.747942 -0.0466,1.118676 0.0282,0.370734 0.0852,0.784156 0.19116,1.147055 0.10595,0.3629 0.26083,0.675256 0.40641,0.867918 0.14557,0.192663 0.28183,0.265617 0.43341,0.321553 0.15158,0.05593 0.31846,0.09484 0.53247,0.07674 0.21401,-0.0181 0.47514,-0.09322 0.93378,-0.293997 0.45864,-0.200772 1.11475,-0.52718 1.62981,-0.842521 0.51507,-0.31534 0.88905,-0.619593 1.22732,-0.929259 0.33828,-0.309666 0.64083,-0.62473 0.84553,-0.924668 0.20471,-0.299938 0.31156,-0.584736 0.29565,-0.734703 -0.0159,-0.149967 -0.15458,-0.165101 -0.30706,-0.155643 -0.15248,0.0095 -0.31876,0.0435 -0.49255,0.108626 -0.17379,0.06512 -0.35507,0.161313 -0.56548,0.264536 -0.21041,0.103223 -0.44993,0.213469 -0.65583,0.306153 -0.20591,0.09268 -0.37819,0.167799 -0.42383,0.174565 -0.0456,0.0068 0.0354,-0.05486 0.21883,-0.159435 0.1834,-0.104575 0.46913,-0.252105 0.69305,-0.383971 0.22391,-0.131865 0.38599,-0.248056 1.06002,-0.589423 0.67402,-0.341367 1.85925,-0.907554 3.04485,-1.473918"
       id="path14"
       transform="matrix(1.1340222,-0.36408607,0.36689001,1.0934174,-59.111492,51.374615)" /><text
       xml:space="preserve"
       style="font-style:normal;font-variant:normal;font-weight:bold;font-stretch:normal;font-size:4.23333px;line-height:1.45;font-family:Arial;-inkscape-font-specification:'Arial Bold';letter-spacing:0.357316px;fill:#000000;fill-opacity:1;stroke-width:0.58083;stroke-dasharray:none"
       x="79.469658"
       y="149.71628"
       id="text14"
       transform="matrix(0.73852977,-0.67382924,0.67006271,0.74268117,0,0)"><tspan
         id="tspan14"
         style="font-style:normal;font-variant:normal;font-weight:bold;font-stretch:normal;font-size:4.23333px;line-height:1.45;font-family:Arial;-inkscape-font-specification:'Arial Bold';letter-spacing:0.357316px;fill:#000000;fill-opacity:1;stroke-width:0.58083;stroke-dasharray:none"
         x="79.469658"
         y="149.71628">SHOP</tspan></text></g><g
     id="layer7"
     transform="translate(-146.96526,-34.82502)"><path
       style="fill:none;stroke:#000000;stroke-width:0.264583px;stroke-linecap:butt;stroke-linejoin:miter;stroke-opacity:1"
       d="m 198.17366,66.341287 c -0.0756,-2.148323 -0.22667,-6.444883 -0.49325,-12.350288 -0.26657,-5.905405 -0.64859,-13.419332 -0.93724,-19.032872 -0.28865,-5.613541 -0.48391,-9.326319 -0.59597,-11.289783 -0.11207,-1.963464 -0.14093,-2.177449 -0.2063,-2.364701 -0.0654,-0.187253 -0.17078,-0.353313 -0.28533,-0.992523 -0.11454,-0.63921 -0.24527,-1.762673 -0.39893,-2.706566 -0.15366,-0.943892 -0.33024,-1.708153 -0.51362,-2.279075 -0.18338,-0.570921 -0.37354,-0.948465 -0.56541,-0.920956 -0.19186,0.02751 -0.3877,0.46517 -0.51815,1.085515 -0.13045,0.620345 -0.20007,1.433521 -0.25695,2.323909 -0.0569,0.890388 -0.10102,1.85794 -0.15621,2.434977 -0.0552,0.577037 -0.1214,0.763529 -0.18422,1.015736 -0.0628,0.252207 -0.12225,0.570149 -0.0459,3.13489 0.0764,2.56474 0.28865,7.376186 0.69784,15.146457 0.4092,7.770271 1.01536,18.499178 1.34572,23.908211 0.33037,5.409033 0.38494,5.498174 0.48397,5.574849 0.099,0.07668 0.24249,0.140874 0.35878,0.18749 0.11629,0.04662 0.20547,0.07567 0.30564,0.100893 0.10018,0.02522 0.2114,0.04662 0.31326,0.06382 0.10185,0.01719 0.19442,0.03019 0.29375,0.03554 0.0993,0.0053 0.20545,0.003 0.31454,-0.0038 0.10909,-0.0069 0.22115,-0.01834 0.34892,-0.05159 0.12777,-0.03325 0.27124,-0.08827 0.40155,-0.167376 0.13032,-0.0791 0.24748,-0.182281 0.30672,-0.303693 0.0592,-0.121412 0.0606,-0.261066 0.0612,-0.33089 6.7e-4,-0.06982 0.001,-0.06981 -0.0745,-2.218132 z"
       id="path32"
       transform="matrix(0.59937732,-0.20726076,0.20726076,0.59937732,48.519031,69.674736)" /><path
       style="fill:none;stroke:#000000;stroke-width:0.264583px;stroke-linecap:butt;stroke-linejoin:miter;stroke-opacity:1"
       d="m 193.80818,15.12553 c 0.25554,-0.01834 0.51108,-0.03669 0.76661,-0.05503"
       id="path33"
       transform="matrix(0.59937732,-0.20726076,0.20726076,0.59937732,48.519031,69.674736)" /><path
       style="fill:none;stroke:#000000;stroke-width:0.264583px;stroke-linecap:butt;stroke-linejoin:miter;stroke-opacity:1"
       d="m 193.35756,18.0027 c 0.11792,-0.08547 0.23589,-0.170977 0.37085,-0.229008 0.13496,-0.05803 0.28692,-0.0886 0.48897,-0.107707 0.20206,-0.01911 0.45419,-0.02675 0.63374,-10e-7 0.17956,0.02675 0.28653,0.08789 0.3935,0.149034"
       id="path34"
       transform="matrix(0.59937732,-0.20726076,0.20726076,0.59937732,48.519031,69.674736)" /><path
       style="fill:none;stroke:#000000;stroke-width:0.264583px;stroke-linecap:butt;stroke-linejoin:miter;stroke-opacity:1"
       d="m 193.81316,41.502358 c 0.0858,0.16552 0.17157,0.331039 0.28025,0.449719 0.10869,0.118679 0.24028,0.190521 0.40541,0.238289 0.16512,0.04777 0.36377,0.07146 0.57091,0.08828 0.20715,0.01682 0.42278,0.02675 0.62017,0.0149 0.19738,-0.01184 0.37651,-0.04547 0.52211,-0.09095 0.14559,-0.04547 0.25765,-0.102795 0.36038,-0.154004 0.10273,-0.05121 0.19611,-0.0963 0.27714,-0.174432 0.081,-0.07813 0.1497,-0.189263 0.21837,-0.300414"
       id="path35"
       transform="matrix(0.59937732,-0.20726076,0.20726076,0.59937732,48.519031,69.674736)" /><path
       style="fill:none;stroke:#000000;stroke-width:0.264583px;stroke-linecap:butt;stroke-linejoin:miter;stroke-opacity:1"
       d="m 193.0645,21.098261 c 0.12394,-0.150559 0.24789,-0.301123 0.37184,-0.451687"
       id="path36"
       transform="matrix(0.59937732,-0.20726076,0.20726076,0.59937732,48.519031,69.674736)" /><path
       style="fill:none;stroke:#000000;stroke-width:0.264583px;stroke-linecap:butt;stroke-linejoin:miter;stroke-opacity:1"
       d="m 195.31593,20.623646 c 0.13499,0.08484 0.26997,0.169671 0.40495,0.254504"
       id="path37"
       transform="matrix(0.59937732,-0.20726076,0.20726076,0.59937732,48.519031,69.674736)" /><path
       style="fill:none;stroke:#000000;stroke-width:0.264583px;stroke-linecap:butt;stroke-linejoin:miter;stroke-opacity:1"
       d="m 195.28184,66.453898 c 0.25605,0.162264 0.51209,0.324523 0.72076,0.414058 0.20868,0.08954 0.36998,0.106349 0.57458,0.09794 0.2046,-0.0084 0.45249,-0.04203 0.66812,-0.08713 0.21564,-0.04509 0.39901,-0.101647 0.54996,-0.213335 0.15095,-0.111689 0.26946,-0.278497 0.38797,-0.445309"
       id="path38"
       transform="matrix(0.59937732,-0.20726076,0.20726076,0.59937732,48.519031,69.674736)" /><path
       style="opacity:0.231579;fill:#665f59;fill-opacity:1;stroke:none;stroke-width:0.0594564;stroke-linecap:round;stroke-miterlimit:15.3"
       d="m 167.87142,38.438699 c -0.009,-0.02644 0.0222,-0.224016 0.0415,-0.261263 l 0.0203,-0.0393 0.0477,0.02583 c 0.0263,0.0142 0.0782,0.05571 0.11549,0.09221 l 0.0678,0.06638 -0.0451,0.02223 c -0.12121,0.05983 -0.24353,0.106187 -0.24778,0.09391 z"
       id="path39" /><path
       style="fill:#222224;fill-opacity:1;stroke:#000000;stroke-width:0.168168;stroke-linecap:round;stroke-miterlimit:15.3;stroke-opacity:1"
       d="m 168.16831,40.007773 c -0.0866,-0.250602 -0.27025,-1.115682 -0.27679,-1.304237 -9.4e-4,-0.0365 0.0469,-0.0719 0.1799,-0.132279 0.0999,-0.04534 0.19632,-0.07533 0.21428,-0.06656 0.0483,0.02346 0.37926,0.520366 0.60082,0.901951 0.10646,0.183395 0.19462,0.33652 0.19601,0.340244 9.4e-4,0.0038 -0.13733,0.05036 -0.30813,0.103572 -0.21575,0.06726 -0.34928,0.124349 -0.43752,0.187089 l -0.12701,0.09031 z"
       id="path44" /><path
       style="fill:#42413b;fill-opacity:1;stroke:#000000;stroke-width:0.118913;stroke-linecap:round;stroke-miterlimit:15.3"
       d="m 174.09592,54.513894 c -0.30985,0.06804 -0.44955,0.04737 -0.61435,-0.09092 -0.10325,-0.08661 -0.11362,-0.103113 -0.20365,-0.324766 -2.82475,-6.952296 -4.38265,-10.930024 -4.5014,-11.493208 -0.0554,-0.262708 -0.055,-0.320211 0.004,-0.477699 l 0.0517,-0.139284 -0.0784,-0.04014 -0.0784,-0.04014 -0.0799,-0.316387 c -0.0439,-0.174017 -0.13563,-0.511824 -0.20384,-0.750673 -0.12356,-0.432769 -0.12386,-0.434501 -0.0866,-0.496905 0.0641,-0.107384 0.17893,-0.183209 0.42336,-0.27964 0.24395,-0.09624 0.39029,-0.121424 0.46097,-0.0793 0.0236,0.01413 0.17347,0.28394 0.38894,0.700737 0.19269,0.372801 0.36589,0.705978 0.38479,0.740427 l 0.0344,0.06264 -0.0615,-0.01549 c -0.0597,-0.01506 -0.062,-0.0135 -0.0829,0.05743 -0.0117,0.04009 -0.0171,0.0849 -0.0119,0.0995 0.006,0.01461 0.0784,0.04079 0.16251,0.05819 0.0841,0.01742 0.16427,0.04461 0.17813,0.06046 0.16347,0.186764 0.22539,0.304357 0.48163,0.91409 0.29746,0.707922 2.21044,5.420421 3.66565,9.030213 0.38434,0.953465 0.72905,1.804192 0.76597,1.890517 0.0664,0.155133 0.0667,0.158212 0.0313,0.265457 -0.0437,0.132437 -0.22972,0.331233 -0.41345,0.441797 -0.13167,0.07924 -0.39438,0.174279 -0.61677,0.223094 z"
       id="path2" /><path
       style="fill:#c3c0bb;fill-opacity:1;stroke:#000000;stroke-width:0.118913;stroke-linecap:round;stroke-miterlimit:15.3"
       d="m 180.01524,69.032633 c -0.10091,0.0086 -0.18986,-7.18e-4 -0.4046,-0.04267 l -0.2277,-0.04448 -0.28415,-0.679779 c -1.04023,-2.488938 -3.83651,-9.289801 -5.10958,-12.427132 -0.20636,-0.508446 -0.39639,-0.973675 -0.42235,-1.033821 l -0.0468,-0.109498 0.11233,0.02657 c 0.15365,0.03636 0.28614,0.02701 0.56483,-0.03984 0.48798,-0.117054 0.82675,-0.315405 1.03625,-0.606739 l 0.0384,-0.0535 0.18911,0.471442 c 0.10404,0.259282 0.47457,1.181683 0.82343,2.049767 1.65539,4.119052 2.9248,7.327755 4.0471,10.229919 0.22897,0.592174 0.45723,1.177965 0.50718,1.301771 l 0.0908,0.2251 -0.0459,0.129947 c -0.0557,0.157791 -0.16159,0.270475 -0.36289,0.386256 -0.15899,0.09145 -0.43725,0.210738 -0.50515,0.216565 z"
       id="path3-4" /><path
       style="fill:#3f3a33;fill-opacity:1;stroke:#000000;stroke-width:0.118913;stroke-linecap:round;stroke-miterlimit:15.3"
       d="m 180.63588,70.442357 c -0.23847,0.03354 -0.49412,0.02373 -0.56927,-0.02183 -0.038,-0.02305 -0.2102,-0.376673 -0.39522,-0.811646 -0.0702,-0.164917 -0.14355,-0.331938 -0.16313,-0.371093 l -0.0355,-0.07121 0.19442,0.03184 c 0.21271,0.03484 0.4037,0.02821 0.53939,-0.01871 0.13755,-0.04756 0.4769,-0.230458 0.59087,-0.318457 0.057,-0.04401 0.1324,-0.119041 0.16755,-0.166717 l 0.0639,-0.08671 0.0257,0.04054 c 0.0146,0.02214 0.12093,0.29724 0.23726,0.611 0.23648,0.637678 0.23367,0.619804 0.12448,0.778605 -0.12907,0.187763 -0.46024,0.359351 -0.78052,0.404398 z"
       id="path4-5" /><path
       style="fill:#000000;fill-opacity:1;stroke:#000000;stroke-width:0.177637;stroke-linecap:round;stroke-miterlimit:15.3;stroke-opacity:1"
       id="path6-1"
       transform="rotate(-19.075052)" /><path
       style="fill:#2c2d2a;fill-opacity:1;stroke:#000000;stroke-width:0.168168;stroke-linecap:round;stroke-miterlimit:15.3;stroke-opacity:1"
       d="m 173.97431,54.462291 c -0.0706,0.0089 -0.14102,0.01327 -0.15656,0.0098 -0.0156,-0.0035 -0.0926,-0.164663 -0.17127,-0.358199 -0.0787,-0.193536 -0.50059,-1.223946 -0.93765,-2.289819 -1.23516,-3.01236 -2.0353,-4.995259 -2.40623,-5.963076 -0.18692,-0.487765 -0.51147,-1.314771 -0.7211,-1.837835 -0.20965,-0.523066 -0.45635,-1.167965 -0.54824,-1.433113 -0.14901,-0.430407 -0.16355,-0.490203 -0.13478,-0.557579 0.0303,-0.07112 0.0283,-0.07749 -0.0336,-0.111689 -0.0548,-0.03019 -0.0867,-0.09638 -0.1903,-0.397147 -0.16237,-0.471099 -0.32364,-1.085091 -0.30079,-1.145789 0.01,-0.02632 0.0688,-0.08118 0.13095,-0.12184 0.13199,-0.0864 0.53052,-0.229273 0.59622,-0.213709 0.0583,0.0138 0.10746,0.09621 0.464,0.777898 l 0.29562,0.565257 -0.0533,0.08298 c -0.0874,0.135917 -0.0316,0.231937 0.16951,0.291975 0.12255,0.03658 0.18702,0.07667 0.23866,0.148382 0.1704,0.236655 0.27701,0.494931 3.83843,9.29843 1.16938,2.890605 1.08273,2.590287 0.82316,2.852446 -0.14252,0.143954 -0.17794,0.164642 -0.46417,0.271146 -0.17044,0.0634 -0.36761,0.122554 -0.43819,0.131427 z"
       id="path10-5" /><path
       style="fill:#0e0d0d;fill-opacity:1;stroke:#000000;stroke-width:0.168168;stroke-linecap:round;stroke-miterlimit:15.3;stroke-opacity:1"
       d="m 173.52708,54.362642 c -0.10244,-0.08483 -0.0908,-0.05778 -1.04179,-2.414199 -2.27991,-5.64925 -3.54101,-8.893677 -3.62419,-9.323966 l -0.0397,-0.205949 0.0908,0.251081 c 0.0498,0.138157 0.2319,0.597758 0.40395,1.021611 0.17205,0.423854 0.47397,1.195132 0.67092,1.71395 0.19696,0.518815 0.4604,1.197471 0.58547,1.508103 0.8527,2.117991 2.83573,6.976142 2.98352,7.30923 0.0482,0.108507 0.08,0.199878 0.0708,0.203079 -0.009,0.0032 -0.0542,-0.02508 -0.0998,-0.0629 z"
       id="path11-7" /><path
       style="fill:#0e0d0d;fill-opacity:1;stroke:#000000;stroke-width:0.168168;stroke-linecap:round;stroke-miterlimit:15.3;stroke-opacity:1"
       d="m 168.22593,39.856729 c -0.0531,-0.15386 -0.2304,-1.039568 -0.22045,-1.10187 0.007,-0.04291 0.0431,-0.07088 0.13142,-0.101412 l 0.12195,-0.04217 0.13476,0.196648 c 0.17322,0.252871 0.53328,0.855213 0.52297,0.875055 -0.004,0.0082 -0.15455,0.07105 -0.33379,0.139277 l -0.32589,0.124054 z"
       id="path12-1" /><path
       style="fill:#0e0d0d;fill-opacity:1;stroke:#000000;stroke-width:0.168168;stroke-linecap:round;stroke-miterlimit:15.3;stroke-opacity:1"
       d="m 180.67361,70.362839 c -0.0334,0.0032 -0.11732,0.01052 -0.1865,0.01612 l -0.12579,0.01019 -0.10585,-0.250782 c -0.36649,-0.868242 -0.36007,-0.849958 -0.29402,-0.847382 0.20585,0.0086 0.73115,-0.231173 0.94741,-0.432405 l 0.0999,-0.09293 0.0614,0.120957 c 0.0337,0.06653 0.12751,0.312565 0.20848,0.546716 0.16594,0.479891 0.16475,0.496514 -0.0336,0.67381 -0.0936,0.08355 -0.45189,0.243926 -0.57088,0.255545 z"
       id="path13-6" /><path
       style="fill:#0e0d0d;fill-opacity:1;stroke:#000000;stroke-width:0.168168;stroke-linecap:round;stroke-miterlimit:15.3;stroke-opacity:1"
       d="m 180.14836,70.366343 c -0.0416,-0.01366 -0.0947,-0.09817 -0.19009,-0.302736 -0.2232,-0.478252 -0.35447,-0.787629 -0.33676,-0.793756 0.009,-0.0032 0.0467,0.0034 0.0833,0.0146 0.0585,0.01803 0.0925,0.08375 0.2862,0.5523 0.12089,0.292516 0.21873,0.5356 0.21744,0.540184 -9.4e-4,0.0047 -0.0283,-1.81e-4 -0.06,-0.01063 z"
       id="path14-9" /><path
       style="fill:none;stroke:#000000;stroke-width:0.565;stroke-linecap:butt;stroke-linejoin:miter;stroke-dasharray:none;stroke-opacity:1"
       d="m 194.15126,42.188495 c 0.4989,8.200718 0.99781,16.401438 1.49671,24.602156"
       id="path16"
       transform="matrix(0.59937732,-0.20726076,0.20726076,0.59937732,48.508289,69.552906)" /></g></svg>
