<?xml version="1.0" encoding="UTF-8" standalone="no"?>
<!-- Created with Inkscape (http://www.inkscape.org/) -->

<svg
   width="184.75053"
   height="89.219055"
   viewBox="0 0 48.881911 23.605875"
   version="1.1"
   id="svg1"
   xml:space="preserve"
   xmlns:xlink="http://www.w3.org/1999/xlink"
   xmlns="http://www.w3.org/2000/svg"
   xmlns:svg="http://www.w3.org/2000/svg"><defs
     id="defs1" /><g
     id="layer8"
     transform="translate(-61.663118,-21.640608)"><g
       id="g3"
       style="fill:none;stroke:#000000;stroke-width:1.2;stroke-dasharray:none;stroke-opacity:1"
       transform="matrix(0.20330181,-0.06715428,0.06715428,0.20330181,49.205216,37.816161)"><path
         style="opacity:1;fill:none;stroke:#000000;stroke-width:1.20057;stroke-linecap:round;stroke-miterlimit:15.3;stroke-dasharray:none;stroke-opacity:1"
         id="path1-90"
         transform="matrix(0.61362489,-0.78959768,0.81554826,0.57868906,0,0)" /><path
         style="opacity:1;fill:none;stroke:#000000;stroke-width:1.20057;stroke-linecap:round;stroke-miterlimit:15.3;stroke-dasharray:none;stroke-opacity:1"
         id="path1-9"
         transform="matrix(0.97165388,0.23640798,-0.19390825,0.98101967,0,0)" /><path
         style="opacity:1;fill:none;stroke:#000000;stroke-width:1.20057;stroke-linecap:round;stroke-miterlimit:15.3;stroke-dasharray:none;stroke-opacity:1"
         id="path1-6"
         transform="matrix(0.97165388,0.23640798,-0.19390825,0.98101968,0,0)" /><path
         style="opacity:1;fill:none;stroke:#000000;stroke-width:1.20057;stroke-linecap:round;stroke-miterlimit:15.3;stroke-dasharray:none;stroke-opacity:1"
         id="path1-0"
         transform="matrix(-0.02345565,0.99972488,-0.9997987,0.02006377,0,0)" /></g><path
       style="fill:none;stroke:#000000;stroke-width:1.03601;stroke-linecap:butt;stroke-linejoin:miter;stroke-dasharray:none;stroke-opacity:1"
       d="m 288.83205,37.924361 c 0.2999,-1.245339 0.59979,-2.49068 0.89969,-3.736014"
       id="path91"
       transform="matrix(0.18868001,-0.06583904,0.07673324,0.22110948,53.033807,36.827527)" /><path
       style="fill:none;stroke:#000000;stroke-width:0.257049;stroke-linecap:round;stroke-miterlimit:15.3;stroke-dasharray:none;stroke-opacity:1"
       id="path1"
       transform="matrix(0.9967723,-0.08028063,0.12357336,0.99233544,0,0)" /><path
       style="fill:none;stroke:#000000;stroke-width:0.259065;stroke-linecap:round;stroke-miterlimit:15.3;stroke-dasharray:none;stroke-opacity:1"
       id="path1-1"
       transform="matrix(0.98399714,-0.17818425,0.35290082,0.93566074,0,0)" /><path
       style="fill:none;stroke:#000000;stroke-width:1.2;stroke-linecap:butt;stroke-linejoin:miter;stroke-dasharray:none;stroke-opacity:1"
       d="m 219.10445,18.977551 c -1.69648,-0.920124 -3.39292,-1.840226 -5.26194,-2.702852 -1.86902,-0.862626 -3.9105,-1.667718 -6.12457,-2.444081 -2.21407,-0.776363 -4.60059,-1.523948 -6.90093,-2.127787 -2.30033,-0.60384 -4.51433,-1.063892 -6.77153,-1.365812 -2.2572,-0.30192 -4.55747,-0.4456871 -6.74278,-0.4456883 -2.18532,-1.3e-6 -4.25556,0.1437653 -6.81468,0.4600593 -2.55911,0.316294 -5.60696,0.8051 -8.15171,1.437689 -2.54474,0.632589 -4.58622,1.408927 -6.42649,2.142159 -1.84027,0.733233 -3.47921,1.423313 -5.27634,2.329065 -1.79713,0.905753 -3.75236,2.027133 -5.85141,3.40733 -2.09905,1.380196 -4.34181,3.019135 -6.23958,4.514352 -1.89778,1.495216 -3.45046,2.846621 -5.29072,4.442474 -1.84027,1.595854 -3.96801,3.436063 -6.23959,5.348212 -2.27157,1.91215 -4.68685,3.89613 -6.94405,5.563872 -2.2572,1.667743 -4.35619,3.019147 -6.69965,4.399346 -2.34346,1.380198 -4.93126,2.789112 -7.54789,4.025543 -2.61663,1.236431 -5.26193,2.300302 -7.77792,3.148551 -2.51599,0.84825 -4.90251,1.480822 -7.11658,2.041529 -2.214073,0.560706 -4.255557,1.049513 -6.21084,1.380187 -1.955283,0.330674 -3.824247,0.503194 -5.607005,0.646965 -1.782758,0.143771 -3.479203,0.258784 -5.348221,0.230032 -1.869018,-0.02875 -3.910501,-0.201273 -5.592623,-0.445682 -1.682121,-0.24441 -3.004773,-0.560696 -4.341841,-0.833861 -1.337068,-0.273165 -2.688472,-0.503191 -3.870843,-0.844915 -1.182371,-0.341724 -2.195634,-0.795126 -3.399986,-1.322043 -1.204353,-0.526916 -2.599754,-1.127328 -3.753333,-1.688829 -1.153578,-0.561502 -2.065294,-1.08407 -2.754662,-1.514925 -0.689367,-0.430855 -1.156345,-0.76997 -1.717847,-1.239743 -0.561503,-0.469773 -1.217495,-1.070173 -1.837371,-1.706728 -0.619875,-0.636554 -1.203595,-1.309223 -1.753978,-1.956896 -0.550383,-0.647673 -1.067394,-1.27031 -1.973584,-2.340503 -0.90619,-1.070194 -2.201498,-2.587871 -2.804689,-3.360623 -0.603191,-0.772752 -0.514242,-0.800548 -0.150096,-0.658781 0.364145,0.141767 1.00346,0.453085 2.201521,0.970114 1.198062,0.517028 2.954787,1.239732 3.885982,1.642786 0.931195,0.403055 1.036822,0.486444 1.295336,0.772756 0.258515,0.286312 0.6699,0.775527 1.292557,1.737312 0.622658,0.961785 1.456547,2.396074 1.993028,3.346731 0.536482,0.950656 0.77553,1.417634 0.992348,1.817912 0.216817,0.400278 0.411391,0.733833 0.647667,1.042381 0.236276,0.308548 0.514239,0.59207 0.836686,0.922856 0.322447,0.330786 0.689358,0.708816 1.389652,1.554722 0.700294,0.845905 1.733923,2.159627 2.567046,3.1328 0.833124,0.973173 1.465696,1.605745 2.08391,2.152073 0.618214,0.546328 1.222033,1.006381 1.869002,1.466447 0.646969,0.460067 1.337048,0.920119 2.17092,1.40894 0.833872,0.488821 1.811483,1.00638 2.789124,1.423314 0.977642,0.416935 1.955254,0.733221 2.889764,1.006385 0.934509,0.273164 1.825861,0.50319 2.961652,0.733223 1.135791,0.230034 2.515949,0.46006 3.666113,0.618207 1.150164,0.158147 2.070269,0.244407 3.292323,0.244406 1.222055,-10e-7 2.745979,-0.08626 4.054291,-0.158146 1.308312,-0.07188 2.400937,-0.129392 3.378577,-0.201278 0.97764,-0.07189 1.840239,-0.158145 2.731618,-0.273161 0.891379,-0.115017 1.811482,-0.258783 2.745992,-0.460062 0.93451,-0.20128 1.88337,-0.46006 2.84664,-0.690094 0.96326,-0.230033 1.94087,-0.431306 2.91851,-0.661339 0.97764,-0.230033 1.95526,-0.488814 3.09105,-0.862619 1.13579,-0.373805 2.42969,-0.862611 4.18369,-1.624599 1.75401,-0.761987 3.96801,-1.797104 6.00955,-2.875387 2.04155,-1.078282 3.91051,-2.199659 6.22522,-3.723634 2.31472,-1.523974 5.07504,-3.450445 7.33223,-5.218823 2.2572,-1.768379 4.01115,-3.378564 5.65013,-4.830647 1.63899,-1.452083 3.16291,-2.745978 4.97443,-4.284327 1.81151,-1.538349 3.9105,-3.321052 5.53511,-4.715625 1.6246,-1.394573 2.77474,-2.400942 4.12618,-3.407337 1.35145,-1.006394 2.90413,-2.01276 4.45685,-2.976024 1.55273,-0.963264 3.1054,-1.883367 4.57186,-2.64535 1.46646,-0.761983 2.84662,-1.365803 4.35622,-1.940886 1.50959,-0.575083 3.14853,-1.121396 4.83065,-1.610217 1.68212,-0.488821 3.40731,-0.920118 5.33384,-1.265167 1.92653,-0.345049 4.05428,-0.60383 6.08144,-0.761976 2.02717,-0.158147 3.95364,-0.215653 5.69327,-0.143767 1.73962,0.07189 3.2923,0.27316 4.90253,0.503193 1.61023,0.230033 3.27792,0.488813 4.48559,0.718846 1.20767,0.230033 1.95526,0.431307 3.03354,0.805113 1.07829,0.373806 2.4872,0.920118 3.80989,1.480824 1.32269,0.560705 2.55908,1.13577 3.85302,1.840248 1.29393,0.704477 2.64534,1.538325 3.80988,2.372196 1.16454,0.83387 2.14215,1.667715 3.11978,2.501577"
       id="path10"
       transform="matrix(0.20330181,-0.06715428,0.06715428,0.20330181,49.205216,37.816161)" /><g
       id="g83"
       style="stroke:#000000;stroke-opacity:1"
       transform="matrix(0.20330181,-0.06715428,0.06715428,0.20330181,49.205216,37.816161)"><path
         style="fill:none;stroke:#000000;stroke-width:0.5;stroke-linecap:butt;stroke-linejoin:miter;stroke-dasharray:none;stroke-opacity:1"
         d="m 203.36538,12.534941 c -0.43654,2.743967 -0.87308,5.487934 -1.30962,8.231901"
         id="path11" /><path
         style="fill:none;stroke:#000000;stroke-width:0.5;stroke-linecap:butt;stroke-linejoin:miter;stroke-dasharray:none;stroke-opacity:1"
         d="m 166.50891,14.218739 c 0.24945,3.055781 0.49891,6.111563 0.74836,9.167344"
         id="path12"
         transform="matrix(1.0046767,0,0,0.92444791,-0.78046449,1.0755151)" /><path
         style="fill:none;stroke:#000000;stroke-width:0.5;stroke-linecap:butt;stroke-linejoin:miter;stroke-dasharray:none;stroke-opacity:1"
         d="m 139.94232,31.805073 c 0.37418,2.993419 0.74835,5.986839 1.12253,8.980257"
         id="path13" /><path
         style="fill:none;stroke:#000000;stroke-width:0.5;stroke-linecap:butt;stroke-linejoin:miter;stroke-dasharray:none;stroke-opacity:1"
         d="m 104.76965,52.197738 c 0.87308,3.055781 1.74616,6.111562 2.61924,9.167344"
         id="path14" /></g><path
       style="fill:none;stroke:#000000;stroke-width:0.264583px;stroke-linecap:butt;stroke-linejoin:miter;stroke-opacity:1"
       d="m 82.131926,55.191157 c 0.623629,1.621435 1.247258,3.242869 1.870887,4.864306"
       id="path15"
       transform="matrix(0.20330181,-0.06715428,0.06715428,0.20330181,49.205216,37.816161)" /><path
       style="fill:none;stroke:#000000;stroke-width:0.264583px;stroke-linecap:butt;stroke-linejoin:miter;stroke-opacity:1"
       d="m 93.544333,54.255714 c 0.561266,1.559071 1.122532,3.118144 1.683798,4.677217"
       id="path16"
       transform="matrix(0.20330181,-0.06715428,0.06715428,0.20330181,49.205216,37.816161)" /><path
       style="fill:none;stroke:#000000;stroke-width:0.264583px;stroke-linecap:butt;stroke-linejoin:miter;stroke-opacity:1"
       d="m 76.519264,54.81698 c 0.561266,1.184894 1.122531,2.369788 1.683798,3.554685"
       id="path17"
       transform="matrix(0.20330181,-0.06715428,0.06715428,0.20330181,49.205216,37.816161)" /><path
       style="fill:none;stroke:#000000;stroke-width:0.264583px;stroke-linecap:butt;stroke-linejoin:miter;stroke-opacity:1"
       d="m 72.403313,54.068625 c 0.62363,1.24726 1.247258,2.494516 1.870887,3.741774"
       id="path18"
       transform="matrix(0.20330181,-0.06715428,0.06715428,0.20330181,49.205216,37.816161)" /><path
       style="fill:none;stroke:#000000;stroke-width:0.264583px;stroke-linecap:butt;stroke-linejoin:miter;stroke-opacity:1"
       d="m 110.85004,50.420396 c 0.15591,1.060169 0.31181,2.120337 0.46772,3.180506"
       id="path19"
       transform="matrix(0.20330181,-0.06715428,0.06715428,0.20330181,49.205216,37.816161)" /><path
       style="fill:none;stroke:#000000;stroke-width:0.264583px;stroke-linecap:butt;stroke-linejoin:miter;stroke-opacity:1"
       d="m 115.90143,47.8947 c 0.24945,1.465527 0.4989,2.931054 0.74835,4.396584"
       id="path20"
       transform="matrix(0.20330181,-0.06715428,0.06715428,0.20330181,49.205216,37.816161)" /><path
       style="fill:none;stroke:#000000;stroke-width:0.264583px;stroke-linecap:butt;stroke-linejoin:miter;stroke-opacity:1"
       d="m 120.85928,45.930269 c 0.18709,1.028987 0.37417,2.057973 0.56126,3.086963"
       id="path21"
       transform="matrix(0.20330181,-0.06715428,0.06715428,0.20330181,49.205216,37.816161)" /><path
       style="fill:none;stroke:#000000;stroke-width:0.264583px;stroke-linecap:butt;stroke-linejoin:miter;stroke-opacity:1"
       d="m 125.25586,43.40457 c 0.28063,1.559074 0.56127,3.118147 0.8419,4.677217"
       id="path22"
       transform="matrix(0.20330181,-0.06715428,0.06715428,0.20330181,49.205216,37.816161)" /><path
       style="fill:none;stroke:#000000;stroke-width:0.264583px;stroke-linecap:butt;stroke-linejoin:miter;stroke-opacity:1"
       d="m 129.09118,40.691786 c 0.28063,0.997804 0.56127,1.995613 0.8419,2.993417"
       id="path23"
       transform="matrix(0.20330181,-0.06715428,0.06715428,0.20330181,49.205216,37.816161)" /><path
       style="fill:none;stroke:#000000;stroke-width:0.264583px;stroke-linecap:butt;stroke-linejoin:miter;stroke-opacity:1"
       d="m 132.83295,37.885454 c 0.24945,1.247258 0.49891,2.494517 0.74836,3.741775"
       id="path24"
       transform="matrix(0.20330181,-0.06715428,0.06715428,0.20330181,49.205216,37.816161)" /><path
       style="fill:none;stroke:#000000;stroke-width:0.264583px;stroke-linecap:butt;stroke-linejoin:miter;stroke-opacity:1"
       d="m 143.02928,29.840642 c 0.15591,0.997807 0.31182,1.995612 0.46773,2.993419"
       id="path26"
       transform="matrix(0.20330181,-0.06715428,0.06715428,0.20330181,49.205216,37.816161)" /><path
       style="fill:none;stroke:#000000;stroke-width:0.264583px;stroke-linecap:butt;stroke-linejoin:miter;stroke-opacity:1"
       d="m 146.0227,26.660136 c 0.0936,1.340806 0.18709,2.681602 0.28064,4.022405"
       id="path27"
       transform="matrix(0.20330181,-0.06715428,0.06715428,0.20330181,49.205216,37.816161)" /><path
       style="fill:none;stroke:#000000;stroke-width:0.264583px;stroke-linecap:butt;stroke-linejoin:miter;stroke-opacity:1"
       d="m 148.92258,24.321527 c 0.0935,1.060165 0.18709,2.120338 0.28063,3.180508"
       id="path28"
       transform="matrix(0.20330181,-0.06715428,0.06715428,0.20330181,49.205216,37.816161)" /><path
       style="fill:none;stroke:#000000;stroke-width:0.264583px;stroke-linecap:butt;stroke-linejoin:miter;stroke-opacity:1"
       d="m 152.10309,21.702285 c 0.15591,1.621435 0.31181,3.242871 0.46772,4.864305"
       id="path29"
       transform="matrix(0.20330181,-0.06715428,0.06715428,0.20330181,49.205216,37.816161)" /><path
       style="fill:none;stroke:#000000;stroke-width:0.264583px;stroke-linecap:butt;stroke-linejoin:miter;stroke-opacity:1"
       d="m 155.0965,19.831399 c 0.18709,0.935443 0.37418,1.870886 0.56127,2.80633"
       id="path30"
       transform="matrix(0.20330181,-0.06715428,0.06715428,0.20330181,49.205216,37.816161)" /><path
       style="fill:none;stroke:#000000;stroke-width:0.264583px;stroke-linecap:butt;stroke-linejoin:miter;stroke-opacity:1"
       d="m 158.83828,17.586335 c 0.12473,1.278438 0.24945,2.556878 0.37418,3.835317"
       id="path31"
       transform="matrix(0.20330181,-0.06715428,0.06715428,0.20330181,49.205216,37.816161)" /><path
       style="fill:none;stroke:#000000;stroke-width:0.264583px;stroke-linecap:butt;stroke-linejoin:miter;stroke-opacity:1"
       d="m 162.39296,15.996081 c 0.18709,1.060169 0.37418,2.120338 0.56127,3.180507"
       id="path32"
       transform="matrix(0.20330181,-0.06715428,0.06715428,0.20330181,49.205216,37.816161)" /><path
       style="fill:none;stroke:#000000;stroke-width:0.264583px;stroke-linecap:butt;stroke-linejoin:miter;stroke-opacity:1"
       d="m 170.81195,12.441396 c 0,1.122532 0,2.245064 0,3.367596"
       id="path33"
       transform="matrix(0.20330181,-0.06715428,0.06715428,0.20330181,49.205216,37.816161)" /><path
       style="fill:none;stroke:#000000;stroke-width:0.264583px;stroke-linecap:butt;stroke-linejoin:miter;stroke-opacity:1"
       d="m 175.20854,10.944687 c 0.0935,1.434344 0.18709,2.868693 0.28063,4.303039"
       id="path34"
       transform="matrix(0.20330181,-0.06715428,0.06715428,0.20330181,49.205216,37.816161)" /><path
       style="fill:none;stroke:#000000;stroke-width:0.264583px;stroke-linecap:butt;stroke-linejoin:miter;stroke-opacity:1"
       d="m 179.51158,10.009244 c 0,1.184895 0,2.36979 0,3.554684"
       id="path35"
       transform="matrix(0.20330181,-0.06715428,0.06715428,0.20330181,49.205216,37.816161)" /><path
       style="fill:none;stroke:#000000;stroke-width:0.264583px;stroke-linecap:butt;stroke-linejoin:miter;stroke-opacity:1"
       d="m 184.37588,10.383421 c -0.0624,1.496711 -0.12473,2.993419 -0.18709,4.490128"
       id="path36"
       transform="matrix(0.20330181,-0.06715428,0.06715428,0.20330181,49.205216,37.816161)" /><path
       style="fill:none;stroke:#000000;stroke-width:0.264583px;stroke-linecap:butt;stroke-linejoin:miter;stroke-opacity:1"
       d="m 188.95955,10.383421 c -0.15591,0.997805 -0.31181,1.995612 -0.46772,2.993419"
       id="path37"
       transform="matrix(0.20330181,-0.06715428,0.06715428,0.20330181,49.205216,37.816161)" /><path
       style="fill:none;stroke:#000000;stroke-width:0.264583px;stroke-linecap:butt;stroke-linejoin:miter;stroke-opacity:1"
       d="m 193.82386,10.57051 c -0.12473,1.434346 -0.24945,2.868693 -0.37418,4.303039"
       id="path38"
       transform="matrix(0.20330181,-0.06715428,0.06715428,0.20330181,49.205216,37.816161)" /><path
       style="fill:none;stroke:#000000;stroke-width:0.264583px;stroke-linecap:butt;stroke-linejoin:miter;stroke-opacity:1"
       d="m 198.40753,11.318864 c -0.24945,1.091351 -0.4989,2.182701 -0.74835,3.274052"
       id="path39"
       transform="matrix(0.20330181,-0.06715428,0.06715428,0.20330181,49.205216,37.816161)" /><path
       style="fill:none;stroke:#000000;stroke-width:0.264583px;stroke-linecap:butt;stroke-linejoin:miter;stroke-opacity:1"
       d="m 207.29424,14.03165 c -0.21827,0.966625 -0.43654,1.93325 -0.65481,2.899874"
       id="path40"
       transform="matrix(0.20330181,-0.06715428,0.06715428,0.20330181,49.205216,37.816161)" /><path
       style="fill:none;stroke:#000000;stroke-width:0.264583px;stroke-linecap:butt;stroke-linejoin:miter;stroke-opacity:1"
       d="m 211.31665,15.621904 c -0.12473,1.340802 -0.24945,2.681604 -0.37418,4.022406"
       id="path41"
       transform="matrix(0.20330181,-0.06715428,0.06715428,0.20330181,49.205216,37.816161)" /><path
       style="fill:none;stroke:#000000;stroke-width:0.264583px;stroke-linecap:butt;stroke-linejoin:miter;stroke-opacity:1"
       d="m 215.52614,17.118613 c -0.28063,1.184894 -0.56127,2.369789 -0.8419,3.554685"
       id="path42"
       transform="matrix(0.20330181,-0.06715428,0.06715428,0.20330181,49.205216,37.816161)" /><path
       style="fill:none;stroke:#000000;stroke-width:0.264583px;stroke-linecap:butt;stroke-linejoin:miter;stroke-opacity:1"
       d="m 217.58412,17.679879 c -0.24945,0.966625 -0.4989,1.93325 -0.74835,2.899874"
       id="path43"
       transform="matrix(0.20330181,-0.06715428,0.06715428,0.20330181,49.205216,37.816161)" /><path
       style="fill:none;stroke:#000000;stroke-width:0.264583px;stroke-linecap:butt;stroke-linejoin:miter;stroke-opacity:1"
       d="m 213.65526,15.434815 c -0.28063,0.935442 -0.56127,1.870888 -0.8419,2.80633"
       id="path44"
       transform="matrix(0.20330181,-0.06715428,0.06715428,0.20330181,49.205216,37.816161)" /><path
       style="fill:none;stroke:#000000;stroke-width:0.264583px;stroke-linecap:butt;stroke-linejoin:miter;stroke-opacity:1"
       d="m 209.53931,14.218739 c -0.15591,0.717174 -0.31181,1.434347 -0.46772,2.151519"
       id="path45"
       transform="matrix(0.20330181,-0.06715428,0.06715428,0.20330181,49.205216,37.816161)" /><path
       style="fill:none;stroke:#000000;stroke-width:0.264583px;stroke-linecap:butt;stroke-linejoin:miter;stroke-opacity:1"
       d="m 205.23627,12.909118 c -0.12473,0.685993 -0.24945,1.371983 -0.37418,2.057975"
       id="path46"
       transform="matrix(0.20330181,-0.06715428,0.06715428,0.20330181,49.205216,37.816161)" /><path
       style="fill:none;stroke:#000000;stroke-width:0.264583px;stroke-linecap:butt;stroke-linejoin:miter;stroke-opacity:1"
       d="m 200.65259,11.786586 c -0.0935,0.685986 -0.18709,1.371983 -0.28063,2.057975"
       id="path47"
       transform="matrix(0.20330181,-0.06715428,0.06715428,0.20330181,49.205216,37.816161)" /><path
       style="fill:none;stroke:#000000;stroke-width:0.264583px;stroke-linecap:butt;stroke-linejoin:miter;stroke-opacity:1"
       d="m 195.88183,10.944687 c -0.0935,0.498895 -0.18709,0.997807 -0.28063,1.496709"
       id="path48"
       transform="matrix(0.20330181,-0.06715428,0.06715428,0.20330181,49.205216,37.816161)" /><path
       style="fill:none;stroke:#000000;stroke-width:0.264583px;stroke-linecap:butt;stroke-linejoin:miter;stroke-opacity:1"
       d="m 191.29816,10.289877 c -0.0935,0.717167 -0.18709,1.434346 -0.28063,2.151519"
       id="path49"
       transform="matrix(0.20330181,-0.06715428,0.06715428,0.20330181,49.205216,37.816161)" /><path
       style="fill:none;stroke:#000000;stroke-width:0.264583px;stroke-linecap:butt;stroke-linejoin:miter;stroke-opacity:1"
       d="m 186.62095,10.383421 c 0,0.623629 0,1.247258 0,1.870887"
       id="path50"
       transform="matrix(0.20330181,-0.06715428,0.06715428,0.20330181,49.205216,37.816161)" /><path
       style="fill:none;stroke:#000000;stroke-width:0.264583px;stroke-linecap:butt;stroke-linejoin:miter;stroke-opacity:1"
       d="m 181.94373,9.822155 c 0,0.841899 0,1.683798 0,2.525697"
       id="path51"
       transform="matrix(0.20330181,-0.06715428,0.06715428,0.20330181,49.205216,37.816161)" /><path
       style="fill:none;stroke:#000000;stroke-width:0.264583px;stroke-linecap:butt;stroke-linejoin:miter;stroke-opacity:1"
       d="m 177.07942,10.289877 c 0.0624,1.028989 0.12473,2.057975 0.18709,3.086963"
       id="path52"
       transform="matrix(0.20330181,-0.06715428,0.06715428,0.20330181,49.205216,37.816161)" /><path
       style="fill:none;stroke:#000000;stroke-width:0.264583px;stroke-linecap:butt;stroke-linejoin:miter;stroke-opacity:1"
       d="m 172.86993,11.412409 c 0.0312,0.779537 0.0623,1.559075 0.0935,2.338608"
       id="path53"
       transform="matrix(0.20330181,-0.06715428,0.06715428,0.20330181,49.205216,37.816161)" /><path
       style="fill:none;stroke:#000000;stroke-width:0.264583px;stroke-linecap:butt;stroke-linejoin:miter;stroke-opacity:1"
       d="m 168.47335,13.470384 c 0.0312,0.530087 0.0623,1.060173 0.0935,1.590254"
       id="path54"
       transform="matrix(0.20330181,-0.06715428,0.06715428,0.20330181,49.205216,37.816161)" /><path
       style="fill:none;stroke:#000000;stroke-width:0.264583px;stroke-linecap:butt;stroke-linejoin:miter;stroke-opacity:1"
       d="m 164.35739,14.873549 c 0.0624,0.530088 0.12473,1.060169 0.18709,1.590254"
       id="path55"
       transform="matrix(0.20330181,-0.06715428,0.06715428,0.20330181,49.205216,37.816161)" /><path
       style="fill:none;stroke:#000000;stroke-width:0.264583px;stroke-linecap:butt;stroke-linejoin:miter;stroke-opacity:1"
       d="m 160.24144,16.744436 c 0.0935,0.59244 0.18709,1.184894 0.28064,1.777342"
       id="path56"
       transform="matrix(0.20330181,-0.06715428,0.06715428,0.20330181,49.205216,37.816161)" /><path
       style="fill:none;stroke:#000000;stroke-width:0.264583px;stroke-linecap:butt;stroke-linejoin:miter;stroke-opacity:1"
       d="m 156.96739,18.56855 c 0.0468,0.59245 0.0935,1.184891 0.14032,1.777343"
       id="path57"
       transform="matrix(0.20330181,-0.06715428,0.06715428,0.20330181,49.205216,37.816161)" /><path
       style="fill:none;stroke:#000000;stroke-width:0.264583px;stroke-linecap:butt;stroke-linejoin:miter;stroke-opacity:1"
       d="m 153.5998,20.626526 c 0.0468,0.60804 0.0935,1.216073 0.14031,1.824114"
       id="path58"
       transform="matrix(0.20330181,-0.06715428,0.06715428,0.20330181,49.205216,37.816161)" /><path
       style="fill:none;stroke:#000000;stroke-width:0.264583px;stroke-linecap:butt;stroke-linejoin:miter;stroke-opacity:1"
       d="m 150.41929,23.152222 c 0.0468,0.498907 0.0935,0.997803 0.14031,1.49671"
       id="path59"
       transform="matrix(0.20330181,-0.06715428,0.06715428,0.20330181,49.205216,37.816161)" /><path
       style="fill:none;stroke:#000000;stroke-width:0.264583px;stroke-linecap:butt;stroke-linejoin:miter;stroke-opacity:1"
       d="m 147.14524,25.350514 c 0.14031,0.701582 0.28063,1.403166 0.42094,2.104748"
       id="path60"
       transform="matrix(0.20330181,-0.06715428,0.06715428,0.20330181,49.205216,37.816161)" /><path
       style="fill:none;stroke:#000000;stroke-width:0.264583px;stroke-linecap:butt;stroke-linejoin:miter;stroke-opacity:1"
       d="m 144.15182,27.969755 c 0.0935,0.685987 0.18709,1.371983 0.28063,2.057976"
       id="path61"
       transform="matrix(0.20330181,-0.06715428,0.06715428,0.20330181,49.205216,37.816161)" /><path
       style="fill:none;stroke:#000000;stroke-width:0.264583px;stroke-linecap:butt;stroke-linejoin:miter;stroke-opacity:1"
       d="m 141.20517,30.963174 c 0.10914,0.592448 0.21827,1.184896 0.32741,1.777344"
       id="path62"
       transform="matrix(0.20330181,-0.06715428,0.06715428,0.20330181,49.205216,37.816161)" /><path
       style="fill:none;stroke:#000000;stroke-width:0.264583px;stroke-linecap:butt;stroke-linejoin:miter;stroke-opacity:1"
       d="m 138.11821,33.48887 c 0.0779,0.639214 0.15591,1.278441 0.23386,1.917661"
       id="path63"
       transform="matrix(0.20330181,-0.06715428,0.06715428,0.20330181,49.205216,37.816161)" /><path
       style="fill:none;stroke:#000000;stroke-width:0.264583px;stroke-linecap:butt;stroke-linejoin:miter;stroke-opacity:1"
       d="m 136.43441,35.172671 c 0.18709,1.013396 0.37418,2.026793 0.56127,3.040189"
       id="path64"
       transform="matrix(0.20330181,-0.06715428,0.06715428,0.20330181,49.205216,37.816161)" /><path
       style="fill:none;stroke:#000000;stroke-width:0.264583px;stroke-linecap:butt;stroke-linejoin:miter;stroke-opacity:1"
       d="m 134.65707,36.388746 c 0.0935,0.623622 0.18709,1.247257 0.28063,1.870887"
       id="path65"
       transform="matrix(0.20330181,-0.06715428,0.06715428,0.20330181,49.205216,37.816161)" /><path
       style="fill:none;stroke:#000000;stroke-width:0.264583px;stroke-linecap:butt;stroke-linejoin:miter;stroke-opacity:1"
       d="m 131.10238,38.914443 c 0.18709,0.670401 0.37418,1.340802 0.56127,2.011203"
       id="path66"
       transform="matrix(0.20330181,-0.06715428,0.06715428,0.20330181,49.205216,37.816161)" /><path
       style="fill:none;stroke:#000000;stroke-width:0.264583px;stroke-linecap:butt;stroke-linejoin:miter;stroke-opacity:1"
       d="m 127.12675,41.861089 c 0.12473,0.639219 0.24945,1.278439 0.37418,1.91766"
       id="path67"
       transform="matrix(0.20330181,-0.06715428,0.06715428,0.20330181,49.205216,37.816161)" /><path
       style="fill:none;stroke:#000000;stroke-width:0.264583px;stroke-linecap:butt;stroke-linejoin:miter;stroke-opacity:1"
       d="m 122.87048,44.573875 c 0.12473,0.623629 0.24945,1.247258 0.37418,1.870887"
       id="path68"
       transform="matrix(0.20330181,-0.06715428,0.06715428,0.20330181,49.205216,37.816161)" /><path
       style="fill:none;stroke:#000000;stroke-width:0.264583px;stroke-linecap:butt;stroke-linejoin:miter;stroke-opacity:1"
       d="m 118.09972,47.146344 c 0.14032,0.60804 0.28063,1.216077 0.42095,1.824115"
       id="path69"
       transform="matrix(0.20330181,-0.06715428,0.06715428,0.20330181,49.205216,37.816161)" /><path
       style="fill:none;stroke:#000000;stroke-width:0.264583px;stroke-linecap:butt;stroke-linejoin:miter;stroke-opacity:1"
       d="m 113.04833,49.484951 c 0.15591,0.608037 0.31181,1.216077 0.46772,1.824117"
       id="path70"
       transform="matrix(0.20330181,-0.06715428,0.06715428,0.20330181,49.205216,37.816161)" /><path
       style="fill:none;stroke:#000000;stroke-width:0.264583px;stroke-linecap:butt;stroke-linejoin:miter;stroke-opacity:1"
       d="m 107.90339,51.589701 c 0.10913,0.514492 0.21827,1.028987 0.3274,1.543481"
       id="path71"
       transform="matrix(0.20330181,-0.06715428,0.06715428,0.20330181,49.205216,37.816161)" /><path
       style="fill:none;stroke:#000000;stroke-width:0.264583px;stroke-linecap:butt;stroke-linejoin:miter;stroke-opacity:1"
       d="m 102.29073,53.273499 c 0.14032,0.561264 0.28063,1.122531 0.42095,1.683798"
       id="path72"
       transform="matrix(0.20330181,-0.06715428,0.06715428,0.20330181,49.205216,37.816161)" /><path
       style="fill:none;stroke:#000000;stroke-width:0.264583px;stroke-linecap:butt;stroke-linejoin:miter;stroke-opacity:1"
       d="m 96.490979,54.583118 c 0.20268,0.545677 0.405359,1.09135 0.608039,1.637027"
       id="path73"
       transform="matrix(0.20330181,-0.06715428,0.06715428,0.20330181,49.205216,37.816161)" /><path
       style="fill:none;stroke:#000000;stroke-width:0.264583px;stroke-linecap:butt;stroke-linejoin:miter;stroke-opacity:1"
       d="m 99.437625,53.975081 c 0.296225,1.044578 0.592455,2.089157 0.888675,3.133736"
       id="path74"
       transform="matrix(0.20330181,-0.06715428,0.06715428,0.20330181,49.205216,37.816161)" /><path
       style="fill:none;stroke:#000000;stroke-width:0.264583px;stroke-linecap:butt;stroke-linejoin:miter;stroke-opacity:1"
       d="m 90.64446,55.518563 c 0.155907,0.561266 0.311813,1.122531 0.46772,1.683797"
       id="path75"
       transform="matrix(0.20330181,-0.06715428,0.06715428,0.20330181,49.205216,37.816161)" /><path
       style="fill:none;stroke:#000000;stroke-width:0.264583px;stroke-linecap:butt;stroke-linejoin:miter;stroke-opacity:1"
       d="m 87.978445,55.705649 c 0.311816,0.982218 0.62363,1.964434 0.935445,2.946649"
       id="path76"
       transform="matrix(0.20330181,-0.06715428,0.06715428,0.20330181,49.205216,37.816161)" /><path
       style="fill:none;stroke:#000000;stroke-width:0.264583px;stroke-linecap:butt;stroke-linejoin:miter;stroke-opacity:1"
       d="m 84.844712,55.518563 c 0.23386,0.608036 0.467721,1.216074 0.701582,1.824114"
       id="path77"
       transform="matrix(0.20330181,-0.06715428,0.06715428,0.20330181,49.205216,37.816161)" /><path
       style="fill:none;stroke:#000000;stroke-width:0.264583px;stroke-linecap:butt;stroke-linejoin:miter;stroke-opacity:1"
       d="m 79.465912,55.2847 c 0.280633,0.654812 0.561266,1.309621 0.841899,1.964433"
       id="path78"
       transform="matrix(0.20330181,-0.06715428,0.06715428,0.20330181,49.205216,37.816161)" /><path
       style="fill:none;stroke:#000000;stroke-width:0.264583px;stroke-linecap:butt;stroke-linejoin:miter;stroke-opacity:1"
       d="m 74.180657,54.115398 c 0.327405,0.717172 0.65481,1.434345 0.982215,2.151517"
       id="path79"
       transform="matrix(0.20330181,-0.06715428,0.06715428,0.20330181,49.205216,37.816161)" /><path
       style="fill:none;stroke:#000000;stroke-width:0.264583px;stroke-linecap:butt;stroke-linejoin:miter;stroke-opacity:1"
       d="m 69.830846,53.367042 c 0.265042,0.498903 0.530085,0.997808 0.795126,1.496709"
       id="path80"
       transform="matrix(0.20330181,-0.06715428,0.06715428,0.20330181,49.205216,37.816161)" /><path
       style="fill:none;stroke:#000000;stroke-width:0.264583px;stroke-linecap:butt;stroke-linejoin:miter;stroke-opacity:1"
       d="m 67.632553,52.805776 c 0.420949,0.732764 0.841899,1.465528 1.262848,2.198291"
       id="path81"
       transform="matrix(0.20330181,-0.06715428,0.06715428,0.20330181,49.205216,37.816161)" /><path
       style="fill:none;stroke:#000000;stroke-width:0.264583px;stroke-linecap:butt;stroke-linejoin:miter;stroke-opacity:1"
       d="m 65.901982,52.010651 c 0.171498,0.358585 0.342997,0.717172 0.514495,1.075758"
       id="path82"
       transform="matrix(0.20330181,-0.06715428,0.06715428,0.20330181,49.205216,37.816161)" /><path
       style="fill:#a7d301;fill-opacity:1;stroke:#000000;stroke-width:0.3;stroke-linecap:round;stroke-miterlimit:15.3;stroke-dasharray:none;stroke-opacity:1"
       d="m 103.9275,27.604262 c -1.23563,0.288743 -2.40484,0.349589 -3.45846,0.179972 -1.036822,-0.166909 -1.822137,-0.512172 -2.303638,-1.012795 -0.188137,-0.195597 -0.278112,-0.355794 -0.35655,-0.634698 -0.05666,-0.200982 -0.06066,-0.255122 -0.03463,-0.457768 0.02356,-0.183137 0.05739,-0.283725 0.166888,-0.495245 0.259363,-0.501039 0.751698,-0.942815 1.486599,-1.333945 0.407785,-0.217022 1.276631,-0.522828 1.811431,-0.637559 2.39708,-0.514219 4.81044,-0.04368 5.63284,1.098274 0.26987,0.374731 0.30705,0.846931 0.1024,1.303075 -0.24041,0.536057 -0.83157,1.065514 -1.64878,1.476698 -0.26007,0.130859 -1.13496,0.452479 -1.39814,0.51398 z"
       id="path83" /><path
       style="fill:#a7d301;fill-opacity:1;stroke:#000000;stroke-width:0.3;stroke-linecap:round;stroke-miterlimit:15.3;stroke-dasharray:none;stroke-opacity:1"
       d="m 105.59446,29.69447 c -1.3708,0.357451 -2.89746,0.510306 -4.28692,0.429215 -1.565264,-0.09134 -3.166195,-0.522406 -4.215203,-1.134963 -1.172538,-0.684694 -1.830551,-1.547022 -1.889002,-2.475544 -0.07858,-1.248799 0.915246,-2.523166 2.654683,-3.403976 0.932804,-0.472348 2.137939,-0.850037 3.269702,-1.024719 2.48914,-0.384194 4.98185,-0.09901 6.75696,0.773076 1.00001,0.491291 1.6524,1.055766 2.02567,1.752764 0.83882,1.566296 -0.23364,3.3493 -2.70698,4.500421 -0.31057,0.144549 -1.29667,0.502298 -1.60891,0.58373 z m -0.10375,-2.354621 c 1.04191,-0.521103 1.74664,-1.244099 1.88569,-1.934497 0.0597,-0.296707 0.0467,-0.487504 -0.054,-0.78976 -0.0788,-0.237038 -0.111,-0.300032 -0.24566,-0.482749 -0.50905,-0.690306 -1.50524,-1.151912 -2.87994,-1.334453 -0.9884,-0.13125 -2.00665,-0.08142 -3.07768,0.150608 -0.53697,0.116329 -1.453433,0.438845 -1.855718,0.653052 -0.828346,0.441077 -1.340585,0.906132 -1.619056,1.469944 -0.204438,0.413894 -0.235696,0.784544 -0.100609,1.193385 0.166252,0.503313 0.555672,0.913453 1.179273,1.242045 0.553286,0.291544 1.112583,0.46 1.87994,0.56621 1.10987,0.153615 2.16814,0.09064 3.43957,-0.204713 0.24184,-0.05616 1.20947,-0.409652 1.44815,-0.529087 z"
       id="path84" /><path
       style="fill:#a7d301;fill-opacity:1;stroke:#000000;stroke-width:0.3;stroke-linecap:round;stroke-miterlimit:15.3;stroke-dasharray:none;stroke-opacity:1"
       d="m 105.0077,32.664856 c -1.05677,0.208881 -1.86483,0.288875 -2.89004,0.286092 -1.79638,-0.005 -3.403458,-0.345864 -4.689038,-0.994912 -0.76857,-0.388026 -1.378646,-0.888553 -1.733177,-1.421953 -0.113307,-0.170549 -0.152063,-0.311391 -0.276926,-1.008194 -0.134848,-0.752509 -0.308273,-2.026994 -0.23553,-1.967388 0.01701,0.01388 0.103329,0.1191 0.111355,0.142739 0.03156,0.09297 0.339,0.487046 0.531063,0.680855 0.944135,0.952726 2.472129,1.622015 4.354333,1.907285 1.63428,0.2477 3.35971,0.172645 5.09787,-0.221754 0.42624,-0.09672 1.5406,-0.465124 1.89713,-0.627203 1.26715,-0.576006 2.32976,-1.508344 2.85325,-2.269225 0.0509,-0.07393 0.0849,-0.127895 0.0909,-0.124911 0.007,0.0029 -0.14195,0.358131 -0.1865,0.50695 -0.18799,0.627895 -0.4412,1.28405 -0.73692,1.909598 -0.0908,0.191986 -0.16176,0.358918 -0.15779,0.370948 0.003,0.01203 -0.0531,0.12114 -0.12692,0.242491 -0.57213,0.940957 -1.62649,1.726022 -3.11232,2.317408 -0.40581,0.16151 -0.6369,0.24077 -0.79066,0.271199 z"
       id="path85" /><text
       xml:space="preserve"
       style="font-style:normal;font-variant:normal;font-weight:normal;font-stretch:normal;font-size:8.22146px;line-height:1.25;font-family:Arial;-inkscape-font-specification:'Arial, Normal';font-variant-ligatures:normal;font-variant-caps:normal;font-variant-numeric:normal;font-variant-east-asian:normal;fill:#000000;fill-opacity:1;stroke:none;stroke-width:0.205536"
       id="text91"
       transform="matrix(1.2910783,0,0,1.5382315,-56.00163,86.977534)"><textPath
         xlink:href="#path93"
         id="textPath94"><tspan
           id="tspan91"
           style="font-style:normal;font-variant:normal;font-weight:normal;font-stretch:normal;font-size:8.22146px;font-family:Arial;-inkscape-font-specification:'Arial, Normal';font-variant-ligatures:normal;font-variant-caps:normal;font-variant-numeric:normal;font-variant-east-asian:normal;stroke-width:0.205536">SHOP</tspan></textPath></text><path
       style="fill:none;stroke:none;stroke-width:0.264583px;stroke-linecap:butt;stroke-linejoin:miter;stroke-opacity:1"
       d="m 148.03767,41.172407 c 1.34192,-1.016605 2.68384,-2.033209 3.69028,-2.775332 1.00644,-0.742123 1.67739,-1.209754 2.633,-1.789223 0.95562,-0.579468 2.19585,-1.270744 3.27346,-1.799381 1.07761,-0.528638 1.99253,-0.894606 2.81599,-1.199589 0.82345,-0.304983 1.55539,-0.548963 2.62284,-0.853949 1.06745,-0.304986 2.47033,-0.670955 3.87324,-1.036932"
       id="path93"
       transform="matrix(0.32778345,-0.10827286,0.10827286,0.32778345,34.751929,32.500234)" /><path
       style="fill:#ffffff;stroke:#000000;stroke-width:0.190997;stroke-linecap:round;stroke-linejoin:bevel;stroke-opacity:1"
       d="m 71.038671,44.743741 c -0.830244,0.164478 -1.735668,0.245881 -2.278488,0.204853 -0.676767,-0.05115 -1.943505,-0.426634 -1.843074,-0.546309 0.03606,-0.04295 0.02374,-0.06935 -0.07097,-0.152116 -0.06303,-0.05507 -0.108692,-0.11186 -0.101512,-0.126176 0.02807,-0.05573 0.335659,0.0026 0.386877,0.0734 0.02979,0.04118 0.08116,0.06593 0.114156,0.05505 0.04165,-0.01376 0.04425,-0.04153 0.0085,-0.09096 -0.04622,-0.0639 -0.03712,-0.07305 0.08932,-0.08979 0.228745,-0.03028 0.268479,-0.01018 0.545886,0.274247 0.145652,0.149406 0.27921,0.266893 0.296801,0.261083 0.0575,-0.01898 0.0085,-0.08899 -0.227682,-0.325051 -0.229177,-0.229108 -0.231258,-0.232945 -0.141912,-0.261789 0.122038,-0.03934 0.179068,-0.01939 0.308406,0.108118 0.107395,0.105868 0.238549,0.129558 0.151912,0.02745 -0.149187,-0.175857 -0.149139,-0.166007 -9.36e-4,-0.184124 0.07721,-0.0095 0.152511,-0.02117 0.167352,-0.02608 0.01483,-0.005 0.144719,0.11186 0.288619,0.259464 0.243559,0.249835 0.348658,0.316921 0.309053,0.197275 -0.009,-0.02749 -0.10883,-0.1469 -0.221639,-0.265367 l -0.205096,-0.215394 0.159023,-0.02489 c 0.08747,-0.01369 0.196851,-0.03715 0.243073,-0.05216 0.0607,-0.01966 0.116202,0.01136 0.199715,0.111929 0.06361,0.07655 0.137209,0.132078 0.163531,0.123381 0.04618,-0.01526 0.01975,-0.07453 -0.09053,-0.202934 -0.04566,-0.05318 -0.02594,-0.06906 0.16304,-0.131477 l 0.214967,-0.07101 0.219257,0.27129 c 0.381317,0.471809 0.417119,0.508419 0.444345,0.454339 0.0164,-0.03257 -0.06894,-0.166255 -0.236029,-0.369702 -0.143943,-0.175268 -0.264914,-0.328344 -0.26882,-0.340169 -0.0039,-0.01178 0.08262,-0.05114 0.192297,-0.08737 0.190853,-0.06304 0.20398,-0.06059 0.306259,0.05725 0.123227,0.141976 0.212894,0.102104 0.09545,-0.04243 -0.04068,-0.05006 -0.06907,-0.100764 -0.06308,-0.112663 0.0059,-0.0119 0.114546,-0.05995 0.241235,-0.106798 l 0.230345,-0.08515 0.170775,0.24268 c 0.09392,0.133471 0.193651,0.235246 0.221605,0.226163 0.05495,-0.01786 0.0088,-0.108635 -0.181427,-0.356954 -0.05825,-0.07603 -0.10254,-0.144923 -0.09846,-0.153077 0.004,-0.0083 0.09423,-0.05683 0.200265,-0.108186 l 0.192797,-0.09336 0.103371,0.147853 c 0.05685,0.08131 0.120646,0.14215 0.141751,0.135177 0.04901,-0.01619 0.02029,-0.103049 -0.07133,-0.215793 -0.06631,-0.0816 -0.06248,-0.09319 0.04977,-0.1514 0.06688,-0.03466 0.189797,-0.09101 0.273179,-0.125189 l 0.151606,-0.06213 0.247786,0.315372 c 0.136277,0.173456 0.270369,0.315435 0.297973,0.315509 0.07527,2.04e-4 0.04518,-0.05364 -0.20686,-0.370281 -0.230572,-0.289673 -0.247285,-0.354536 -0.104089,-0.404006 0.02463,-0.0085 0.09544,-0.04423 0.157326,-0.07936 0.103371,-0.05868 0.120304,-0.05344 0.207674,0.06445 0.05233,0.07061 0.119923,0.120164 0.150235,0.11015 0.04664,-0.0154 0.03902,-0.03902 -0.04956,-0.153625 l -0.104709,-0.13541 0.230935,-0.142823 0.230935,-0.142824 0.169886,0.269124 c 0.10759,0.170451 0.189925,0.262503 0.224555,0.251066 0.03314,-0.0109 0.03757,-0.04297 0.01125,-0.08132 -0.02389,-0.03481 -0.08912,-0.134243 -0.144966,-0.22099 -0.05584,-0.08674 -0.119228,-0.179347 -0.140848,-0.205781 -0.02722,-0.03328 0.0095,-0.07943 0.119191,-0.150109 0.08717,-0.05613 0.186113,-0.120987 0.219884,-0.144117 0.04701,-0.03221 0.08487,-0.0064 0.161573,0.110138 0.06726,0.102218 0.109037,0.134605 0.127149,0.09862 0.01785,-0.03545 -0.002,-0.09693 -0.05863,-0.181768 l -0.08554,-0.128201 0.158994,-0.10094 c 0.08744,-0.05552 0.175455,-0.106385 0.195577,-0.11302 0.04299,-0.0142 0.95601,1.315002 0.933694,1.359332 -0.03416,0.06789 -1.254774,0.779963 -1.628452,0.950018 -0.797781,0.363046 -1.922337,0.78807 -2.264547,0.855866 z"
       id="path6" /><path
       style="fill:#ffffff;stroke:#000000;stroke-width:0.190997;stroke-linecap:round;stroke-linejoin:bevel;stroke-opacity:1"
       d="m 75.007228,42.719791 c -0.04968,-0.07506 -0.26251,-0.388524 -0.472959,-0.696584 -0.210448,-0.308063 -0.379689,-0.562533 -0.376092,-0.565492 0.04248,-0.03497 0.414057,-0.290627 0.43004,-0.295905 0.01178,-0.0039 0.05011,0.04334 0.0851,0.104938 0.0903,0.159021 0.161825,0.114018 0.08971,-0.05644 -0.05874,-0.138837 -0.05715,-0.141971 0.152051,-0.305896 l 0.211387,-0.165629 0.13264,0.267295 c 0.07665,0.154483 0.146731,0.253283 0.166028,0.234092 0.03765,-0.03745 0.02903,-0.06469 -0.116049,-0.366682 -0.101668,-0.211676 -0.101772,-0.216989 -0.0047,-0.293267 0.05436,-0.04273 0.125316,-0.100183 0.157659,-0.127706 0.04568,-0.03884 0.07601,-0.02339 0.135879,0.06953 0.10837,0.168124 0.218595,0.163177 0.120226,-0.0054 -0.0402,-0.06888 -0.08044,-0.139054 -0.08945,-0.155926 -0.0089,-0.01685 0.07704,-0.117745 0.191242,-0.224171 l 0.207601,-0.193503 0.168832,0.339563 c 0.152652,0.307041 0.233587,0.407385 0.270079,0.334892 0.0073,-0.01416 -0.07071,-0.182365 -0.173017,-0.373752 -0.10229,-0.191394 -0.182121,-0.354479 -0.177405,-0.362412 0.0047,-0.0078 0.07074,-0.07665 0.146723,-0.152728 l 0.138146,-0.138305 0.0718,0.13003 c 0.103059,0.186659 0.178597,0.140528 0.08043,-0.04912 -0.07739,-0.149529 -0.07677,-0.151847 0.09066,-0.337854 0.09272,-0.103007 0.184649,-0.183452 0.204297,-0.178758 0.01965,0.0047 0.07941,0.100495 0.132764,0.212897 0.05338,0.112388 0.120507,0.224044 0.149166,0.248106 0.102851,0.08631 0.08726,-0.03432 -0.03138,-0.242887 -0.175572,-0.308612 -0.17717,-0.330373 -0.03586,-0.485218 l 0.128564,-0.140883 0.07321,0.132587 c 0.04027,0.07292 0.09628,0.124975 0.124493,0.115659 0.03943,-0.01303 0.03008,-0.05228 -0.04042,-0.169906 -0.05043,-0.08414 -0.08791,-0.158646 -0.08324,-0.165587 0.0047,-0.007 0.07586,-0.08818 0.158243,-0.180504 l 0.149785,-0.167877 0.197024,0.368367 c 0.254206,0.475266 0.281607,0.5147 0.313539,0.451267 0.01658,-0.03293 -0.05774,-0.20222 -0.20756,-0.472908 -0.128353,-0.231885 -0.22911,-0.427319 -0.223895,-0.434299 0.233785,-0.312881 0.241125,-0.318417 0.277237,-0.20909 0.03576,0.108313 0.108578,0.189509 0.155913,0.173874 0.02495,-0.0083 0.0078,-0.07729 -0.04482,-0.181644 -0.08238,-0.163022 -0.08134,-0.173217 0.03266,-0.322258 l 0.117721,-0.153911 0.161886,0.235824 c 0.08904,0.129705 0.177295,0.230734 0.196124,0.224515 0.05014,-0.01656 0.0036,-0.127555 -0.137248,-0.327601 -0.06841,-0.09714 -0.129172,-0.19111 -0.135021,-0.208813 -0.01102,-0.03318 0.200764,-0.326968 0.246554,-0.342092 0.01414,-0.0047 0.05433,0.04192 0.08933,0.103536 0.103412,0.182124 0.163241,0.108567 0.06685,-0.08217 -0.07609,-0.150587 -0.07608,-0.176939 2e-4,-0.292038 l 0.08384,-0.12652 0.172005,0.30298 c 0.09459,0.166642 0.187264,0.310661 0.205913,0.320049 0.0855,0.04303 0.04918,-0.06753 -0.124619,-0.379293 l -0.1881,-0.337528 0.08299,-0.141407 c 0.100006,-0.170401 0.134086,-0.188115 0.167467,-0.08706 0.03803,0.115089 0.111458,0.191391 0.145358,0.151002 0.01652,-0.01968 -0.0056,-0.107063 -0.04902,-0.194218 -0.07327,-0.146829 -0.07161,-0.169623 0.02216,-0.310888 l 0.101221,-0.152444 0.129913,0.247511 c 0.07145,0.136134 0.143085,0.25417 0.159224,0.262295 0.08079,0.04067 0.05032,-0.08225 -0.08022,-0.323506 -0.143415,-0.26506 -0.144227,-0.269386 -0.07783,-0.401333 0.0759,-0.150761 0.157969,-0.154899 0.205705,-0.01028 0.01774,0.0537 0.05158,0.09121 0.07526,0.08339 0.02614,-0.0086 0.01454,-0.08535 -0.02949,-0.195486 -0.06395,-0.159934 -0.06222,-0.196836 0.01352,-0.312948 0.0473,-0.07242 0.09535,-0.126966 0.106775,-0.121216 0.01136,0.0057 0.172389,0.325899 0.35769,0.711449 l 0.336927,0.700994 -0.130989,0.238156 c -0.54716,0.994831 -1.183182,1.944251 -1.967192,2.936524 -0.718829,0.909777 -1.240142,1.465672 -2.066254,2.20333 -0.317898,0.283861 -1.133323,0.917819 -1.215418,0.944937 -0.01056,0.0035 -0.05984,-0.05507 -0.109518,-0.13014 z"
       id="path7" /><path
       style="fill:#ffffff;stroke:#000000;stroke-width:0.190997;stroke-linecap:round;stroke-linejoin:bevel;stroke-opacity:1"
       d="m 80.569499,36.344323 c -0.01139,-0.03098 -0.166977,-0.362455 -0.346078,-0.736504 -0.305667,-0.638443 -0.322705,-0.685221 -0.278103,-0.76379 0.04275,-0.07534 0.05212,-0.07802 0.0939,-0.02691 0.02551,0.03121 0.05815,0.09231 0.07251,0.135809 0.01589,0.04807 0.04008,0.06244 0.06168,0.03669 0.02148,-0.02561 0.0061,-0.104938 -0.0391,-0.200366 -0.06748,-0.142737 -0.06542,-0.172922 0.02103,-0.312908 l 0.09571,-0.15494 0.148072,0.285077 c 0.187323,0.36072 0.271906,0.359788 0.108439,-0.0012 -0.06486,-0.143226 -0.141082,-0.282697 -0.169422,-0.309925 -0.03512,-0.0338 -0.02846,-0.08255 0.02096,-0.153588 0.07225,-0.103766 0.07264,-0.103745 0.137275,0.01 0.09745,0.171587 0.154063,0.112985 0.07177,-0.07427 -0.06242,-0.141961 -0.06049,-0.181469 0.01429,-0.311861 0.07506,-0.130716 0.09188,-0.142091 0.135039,-0.0913 0.02711,0.0319 0.0907,0.179051 0.141308,0.326988 0.06929,0.203233 0.105719,0.264437 0.14817,0.250418 0.04587,-0.01515 0.02868,-0.08886 -0.09372,-0.40145 -0.136367,-0.348255 -0.144832,-0.391781 -0.09356,-0.481182 0.05515,-0.09618 0.05796,-0.09543 0.129831,0.03475 0.109552,0.198429 0.177547,0.14176 0.07453,-0.06212 -0.07665,-0.151735 -0.07683,-0.178263 -0.002,-0.291476 l 0.08253,-0.124556 0.05708,0.08474 c 0.03142,0.04658 0.08416,0.160604 0.117254,0.253341 0.03857,0.10828 0.07838,0.162596 0.11116,0.151769 0.03919,-0.01294 0.0215,-0.08662 -0.07597,-0.31676 -0.115912,-0.273608 -0.121684,-0.308496 -0.06613,-0.398008 0.07972,-0.128437 0.114236,-0.138016 0.146418,-0.04058 0.01453,0.04399 0.04439,0.07403 0.0664,0.06677 0.02202,-0.0073 0.02123,-0.07186 -0.0016,-0.143585 -0.0291,-0.09168 -0.01928,-0.161544 0.03359,-0.235213 0.04138,-0.05766 0.09412,-0.100338 0.117177,-0.09482 0.02305,0.0056 0.11132,0.177004 0.196144,0.381084 0.119822,0.288353 0.167328,0.366725 0.213147,0.351591 0.03717,-0.01229 0.04296,-0.04289 0.01572,-0.08281 -0.02379,-0.03484 -0.112502,-0.23238 -0.197186,-0.438992 -0.149386,-0.364477 -0.151806,-0.378565 -0.08157,-0.473303 0.07017,-0.09467 0.07376,-0.09469 0.11843,-6.74e-4 0.02529,0.05334 0.07072,0.08882 0.100868,0.07887 0.03983,-0.01316 0.03675,-0.05273 -0.01125,-0.145087 -0.05688,-0.109266 -0.05339,-0.144315 0.02509,-0.251258 l 0.09119,-0.124266 0.126012,0.22352 c 0.06932,0.122936 0.145382,0.217126 0.169081,0.209296 0.04135,-0.01366 -8.01e-4,-0.116555 -0.168817,-0.41216 -0.06615,-0.116392 -0.06624,-0.116279 0.149707,-0.326663 0.0138,-0.01352 0.0405,0.02197 0.05926,0.07879 0.02195,0.0665 0.05613,0.09603 0.09592,0.08289 0.0485,-0.01602 0.04678,-0.04759 -0.0078,-0.146646 -0.06311,-0.114316 -0.0593,-0.138601 0.04022,-0.257213 0.143044,-0.170452 0.152594,-0.171289 0.203739,-0.01783 0.08106,0.243719 0.232318,0.533074 0.271564,0.520111 0.02478,-0.0083 -0.01685,-0.147715 -0.113468,-0.380216 -0.142775,-0.343615 -0.148337,-0.371788 -0.08609,-0.437237 0.09157,-0.0963 0.09367,-0.0959 0.165413,0.03044 0.09626,0.16953 0.168796,0.113226 0.07722,-0.05994 -0.07379,-0.139496 -0.07211,-0.145782 0.07737,-0.291078 0.134622,-0.130874 0.155344,-0.140641 0.174612,-0.08231 0.05443,0.164804 0.281444,0.542077 0.318764,0.529749 0.03989,-0.01318 -0.02761,-0.181708 -0.204265,-0.509972 -0.06672,-0.124051 -0.06347,-0.140084 0.05088,-0.249641 0.157015,-0.150431 0.152602,-0.150226 0.199109,-0.0094 0.02179,0.06597 0.05759,0.11403 0.07961,0.106763 0.02202,-0.0073 0.01888,-0.07712 -0.007,-0.155203 -0.04139,-0.125291 -0.03228,-0.154691 0.07746,-0.249933 0.0684,-0.05937 0.13154,-0.104147 0.140315,-0.09952 0.0088,0.0046 0.116392,0.244666 0.239175,0.533407 0.122797,0.288735 0.254339,0.586764 0.292358,0.662269 l 0.06915,0.137274 -0.446867,0.434795 c -0.505083,0.491439 -1.236201,1.339772 -1.606215,1.863727 -0.196906,0.278829 -1.579673,2.514489 -1.863745,3.013303 -0.04711,0.08274 -0.06835,0.09657 -0.08362,0.05448 z"
       id="path8" /><path
       style="fill:#ffffff;stroke:#000000;stroke-width:0.0954977;stroke-linecap:round;stroke-linejoin:bevel;stroke-opacity:1"
       d="m 84.663057,30.867422 c -0.01376,-0.024 -0.140373,-0.314885 -0.281352,-0.646401 -0.140961,-0.331522 -0.268101,-0.625319 -0.282555,-0.652875 -0.02452,-0.04678 -0.01814,-0.0566 0.09678,-0.148383 0.06767,-0.05405 0.131516,-0.101086 0.141884,-0.104502 0.01028,-0.0034 0.03965,0.05676 0.06507,0.133731 0.04275,0.129456 0.04925,0.138958 0.08879,0.125898 0.04099,-0.01354 0.04013,-0.01973 -0.02335,-0.167417 l -0.0659,-0.15336 0.165701,-0.123532 c 0.09114,-0.06793 0.172415,-0.125747 0.18064,-0.128465 0.0083,-0.0026 0.05804,0.125519 0.110712,0.284965 0.09136,0.276577 0.09771,0.289263 0.135747,0.276698 0.03824,-0.01266 0.03558,-0.02652 -0.06157,-0.320633 L 84.8321,28.93572 84.982443,28.84039 c 0.08269,-0.05243 0.159014,-0.09326 0.169608,-0.09071 0.01068,0.0025 0.03842,0.06255 0.06182,0.133378 0.03804,0.115177 0.04663,0.127427 0.08228,0.115645 0.03723,-0.01228 0.03583,-0.0223 -0.02183,-0.157407 l -0.06157,-0.144283 0.07118,-0.04568 c 0.147361,-0.09459 0.289523,-0.168907 0.306702,-0.16036 0.0098,0.005 0.07638,0.153412 0.147966,0.330094 0.07159,0.176679 0.138352,0.325324 0.148278,0.330349 0.01,0.0051 0.02506,-0.0046 0.03353,-0.02144 0.01153,-0.02298 -0.01769,-0.112227 -0.117214,-0.358434 -0.09631,-0.237617 -0.128085,-0.333475 -0.115418,-0.348549 0.0096,-0.01152 0.06492,-0.04332 0.122925,-0.07087 0.05801,-0.02758 0.116037,-0.05873 0.12894,-0.06927 0.01811,-0.01483 0.03306,0.0099 0.06568,0.107831 0.0559,0.168362 0.112504,0.273798 0.137012,0.255311 0.0127,-0.0097 -0.0034,-0.0858 -0.04506,-0.212836 l -0.06482,-0.197925 0.131474,-0.0702 c 0.0723,-0.0386 0.160525,-0.08041 0.196042,-0.09288 l 0.06458,-0.02264 0.07925,0.239921 c 0.06604,0.199935 0.0843,0.238252 0.109231,0.230022 0.02503,-0.0084 0.01648,-0.05073 -0.05176,-0.25732 l -0.08174,-0.247418 0.05317,-0.03019 c 0.02923,-0.01667 0.119962,-0.05917 0.201595,-0.09459 l 0.148425,-0.06441 0.05044,0.152707 c 0.04604,0.13938 0.05366,0.15165 0.09046,0.139489 0.0366,-0.01215 0.03561,-0.02656 -0.01229,-0.171577 l -0.05231,-0.158356 0.130934,-0.05674 c 0.07201,-0.03123 0.164008,-0.07264 0.204418,-0.09204 l 0.07349,-0.03531 0.06899,0.249435 c 0.03827,0.137083 0.09286,0.33884 0.122076,0.448106 0.05111,0.191323 0.05467,0.19815 0.09471,0.184922 0.03755,-0.01241 0.03772,-0.02604 0.0021,-0.139254 -0.07673,-0.243109 -0.213077,-0.741238 -0.206233,-0.753375 0.0039,-0.0066 0.08803,-0.04608 0.187205,-0.08738 l 0.180301,-0.07512 0.05994,0.181443 c 0.05554,0.168114 0.06314,0.180382 0.09994,0.168223 0.03699,-0.01229 0.03562,-0.02655 -0.01942,-0.193162 l -0.05947,-0.180035 0.189942,-0.06274 c 0.156426,-0.05166 0.191702,-0.05739 0.199952,-0.03241 0.0056,0.01668 0.02919,0.149282 0.05269,0.294654 0.04274,0.26458 0.05588,0.301111 0.103143,0.285493 0.0171,-0.0057 0.01028,-0.09154 -0.02036,-0.264919 -0.06946,-0.390596 -0.0828,-0.344141 0.118342,-0.410182 0.09509,-0.03121 0.186261,-0.05343 0.202646,-0.04925 0.02254,0.0057 0.0346,0.03797 0.04924,0.133075 0.02798,0.177123 0.05049,0.237289 0.08458,0.22603 0.03524,-0.01165 0.03436,-0.04745 -0.0053,-0.225843 -0.01737,-0.07675 -0.02486,-0.147141 -0.01728,-0.156205 0.01153,-0.01373 0.428727,-0.111918 0.443627,-0.104434 0.0053,0.0029 0.15172,0.616922 0.178201,0.748666 0.01529,0.076 0.0233,0.08654 0.0548,0.07614 0.04282,-0.01414 0.03927,-0.03795 -0.07922,-0.52497 l -0.07666,-0.315152 0.105444,-0.02068 c 0.05801,-0.01136 0.137291,-0.02526 0.176223,-0.03088 l 0.07075,-0.01018 0.01747,0.09669 c 0.0097,0.05319 0.01807,0.113961 0.01885,0.135051 0.001,0.02737 0.01241,0.03474 0.04116,0.02521 0.02824,-0.0094 0.03739,-0.03158 0.03151,-0.07694 -0.0046,-0.03508 -0.01203,-0.09333 -0.01664,-0.129416 -0.007,-0.05394 -1.92e-4,-0.0663 0.03798,-0.0696 0.02557,-0.0022 0.128749,-0.01445 0.229381,-0.02721 l 0.182989,-0.0232 0.02943,0.313796 c 0.01615,0.172597 0.03033,0.316531 0.03144,0.319875 0.0011,0.0033 0.01997,9.3e-5 0.04202,-0.0073 0.02204,-0.0073 0.03835,-0.01828 0.03627,-0.02454 -0.0043,-0.01294 -0.06039,-0.597413 -0.05801,-0.604189 9.14e-4,-0.0024 0.09356,-0.01266 0.205997,-0.02259 0.156874,-0.01393 0.206334,-0.01056 0.212592,0.01486 0.0044,0.0182 0.02154,0.09525 0.03796,0.171304 0.02749,0.127284 0.03257,0.136778 0.06426,0.119189 0.02772,-0.01541 0.02861,-0.04857 0.0045,-0.169788 -0.01652,-0.08286 -0.02459,-0.1524 -0.01778,-0.154566 0.02397,-0.0076 0.462388,-0.02478 0.474742,-0.01857 0.01253,0.0063 0.234565,1.33929 0.225907,1.356489 -0.002,0.0047 -0.09625,0.01425 -0.208301,0.0205 -0.406591,0.02274 -1.554738,0.214333 -2.130164,0.355483 -0.376395,0.09233 -1.214348,0.386955 -1.639066,0.576308 -0.948315,0.422793 -1.635084,0.824079 -2.444254,1.428203 -0.215235,0.160696 -0.404679,0.303392 -0.420983,0.317106 -0.02194,0.01847 -0.0361,0.01366 -0.05472,-0.0187 z"
       id="path9" /><path
       style="fill:#ffffff;stroke:#000000;stroke-width:0.0954977;stroke-linecap:round;stroke-linejoin:bevel;stroke-opacity:1"
       d="m 94.751819,28.710352 c -0.514907,-0.191694 -1.074455,-0.324954 -1.713564,-0.408091 -0.336293,-0.04374 -1.038258,-0.09771 -1.245717,-0.09578 -0.04557,4.21e-4 -0.0869,-0.01136 -0.09183,-0.02637 -0.01241,-0.03771 -0.222456,-1.34025 -0.21762,-1.349844 0.0037,-0.0073 0.279234,-0.01635 0.292432,-0.0098 0.0033,0.0016 0.01456,0.06824 0.0254,0.147951 0.01648,0.122847 0.02431,0.145205 0.05109,0.146475 0.04581,0.0022 0.04799,-0.01203 0.02524,-0.16322 l -0.02056,-0.136491 0.195866,8.93e-4 c 0.107728,4.88e-4 0.198749,0.0097 0.202275,0.02029 0.0035,0.01068 0.01681,0.126469 0.02958,0.257328 0.0268,0.275631 0.03707,0.316078 0.07701,0.302886 0.03112,-0.01018 0.03094,-0.06181 -0.0011,-0.347764 -0.01079,-0.09644 -0.01671,-0.187602 -0.01309,-0.202623 0.0046,-0.01933 0.0548,-0.02619 0.171981,-0.02366 0.24555,0.0054 0.221225,-0.01981 0.247812,0.257102 0.0035,0.0375 0.0133,0.04549 0.04405,0.03534 0.03214,-0.01068 0.03643,-0.03638 0.0233,-0.140749 -0.0088,-0.07025 -0.0094,-0.129988 -10e-4,-0.132719 0.02422,-0.0079 0.321993,0.0063 0.341261,0.01639 0.01551,0.0081 0.120266,0.431394 0.174736,0.705711 0.01735,0.08749 0.02455,0.09721 0.05744,0.08635 0.04261,-0.01407 0.04076,-0.02689 -0.07344,-0.511116 l -0.06627,-0.280651 0.184025,0.01576 c 0.101263,0.0086 0.186805,0.01714 0.190183,0.01885 0.0028,0.002 0.0077,0.08203 0.0097,0.178464 0.002,0.09644 0.0042,0.177632 0.0051,0.18038 9.33e-4,0.0029 0.01937,-7.89e-4 0.04077,-0.0078 0.03131,-0.01028 0.03818,-0.04477 0.03423,-0.172077 -0.0026,-0.08753 -0.0032,-0.16284 -0.0012,-0.167314 0.004,-0.0075 0.37842,0.04207 0.402897,0.05301 0.0051,0.0024 0.02305,0.142647 0.03905,0.311603 0.03556,0.375202 0.02963,0.347088 0.07241,0.342706 0.02943,-0.003 0.03098,-0.05516 0.0088,-0.300949 -0.01475,-0.163517 -0.0226,-0.306918 -0.01734,-0.318727 0.0097,-0.02156 0.323704,0.01517 0.355047,0.04149 0.01018,0.0075 0.0211,0.100557 0.02652,0.206279 0.01018,0.19469 0.01976,0.225603 0.06722,0.209953 0.01679,-0.0056 0.0211,-0.08008 0.01153,-0.203399 -0.0083,-0.107039 -0.01056,-0.196138 -0.0051,-0.197937 0.02652,-0.0088 0.241269,0.04077 0.246596,0.0569 0.003,0.01007 0.004,0.100484 0.0021,0.200755 -0.0062,0.289065 0.01976,0.858652 0.05348,1.196068 l 0.03094,0.3099 z"
       id="path25" /><path
       style="fill:#ffffff;stroke:#000000;stroke-width:0.0954977;stroke-linecap:round;stroke-linejoin:bevel;stroke-opacity:1"
       d="m 64.677832,43.545631 c -0.262703,-0.06726 -0.521868,-0.172542 -0.858501,-0.348769 -0.306581,-0.160491 -1.499682,-0.884269 -1.489852,-0.903795 0.0075,-0.0149 1.032435,0.07039 1.116792,0.09291 0.122328,0.03267 0.471605,0.303623 0.967645,0.750646 0.361344,0.325643 0.489001,0.448289 0.472323,0.453797 -0.0081,0.0026 -0.101824,-0.0175 -0.208407,-0.0448 z"
       id="path86" /><path
       style="fill:#ffffff;stroke:#000000;stroke-width:0.135055;stroke-linecap:round;stroke-linejoin:bevel;stroke-opacity:1"
       d="m 84.685304,30.769157 c -0.0066,-0.01936 -0.127244,-0.300315 -0.267972,-0.624342 -0.14072,-0.32403 -0.249647,-0.601045 -0.242104,-0.615575 0.0076,-0.01455 0.04594,-0.04665 0.08523,-0.07133 0.06905,-0.04339 0.07268,-0.04108 0.109151,0.06937 0.02984,0.09033 0.05115,0.114098 0.101719,0.113512 0.111447,-0.0013 0.135875,-0.08588 0.06632,-0.229533 l -0.06146,-0.12685 0.117923,-0.08915 c 0.06484,-0.04905 0.121533,-0.09035 0.12595,-0.09181 0.0046,-0.0015 0.05013,0.112492 0.101564,0.253212 0.07399,0.20243 0.105432,0.258798 0.15043,0.269933 0.04125,0.01007 0.06587,-2.52e-4 0.08939,-0.03794 0.02577,-0.04122 0.01272,-0.111837 -0.06324,-0.341851 l -0.09575,-0.289892 0.08253,-0.04685 c 0.142536,-0.08093 0.154198,-0.07833 0.205414,0.04583 0.04303,0.104467 0.05611,0.114741 0.119076,0.09395 0.06506,-0.02149 0.06775,-0.03601 0.0337,-0.182782 l -0.03696,-0.159438 0.114742,-0.06466 c 0.06311,-0.03556 0.122923,-0.06052 0.132922,-0.0555 0.01,0.0051 0.07642,0.14293 0.147591,0.306455 0.07117,0.163525 0.143575,0.304614 0.160848,0.313558 0.01726,0.0088 0.05684,-0.0022 0.08792,-0.02461 0.05533,-0.04003 0.05384,-0.04794 -0.07275,-0.38677 -0.08973,-0.240279 -0.11986,-0.349128 -0.09832,-0.356537 0.01701,-0.0058 0.05696,-0.02777 0.08885,-0.04868 0.05316,-0.03488 0.06115,-0.02851 0.09583,0.0765 0.05166,0.156404 0.129018,0.245324 0.194624,0.223653 0.05888,-0.01946 0.05737,-0.125368 -0.0046,-0.312679 -0.03901,-0.118076 -0.01642,-0.150812 0.139564,-0.202337 l 0.09666,-0.03192 0.06348,0.190712 c 0.07094,0.21307 0.113581,0.264036 0.186796,0.22328 0.04316,-0.02407 0.04064,-0.05916 -0.01936,-0.264736 -0.07475,-0.256345 -0.07749,-0.248294 0.107899,-0.334011 l 0.115621,-0.05347 0.03571,0.108095 c 0.04711,0.142633 0.08872,0.189794 0.149637,0.169675 0.07447,-0.0246 0.08976,-0.09297 0.0531,-0.237678 l -0.0329,-0.12964 0.141482,-0.06307 0.141479,-0.06308 0.031,0.131531 c 0.07586,0.321555 0.176381,0.664866 0.205043,0.699833 0.03225,0.03937 0.158223,0.01534 0.169623,-0.03237 0.0039,-0.01491 -0.04631,-0.217082 -0.110724,-0.44951 l -0.117176,-0.422583 0.135866,-0.04487 0.135875,-0.04488 0.06217,0.159786 c 0.05652,0.144333 0.06898,0.158557 0.132833,0.147028 0.09343,-0.01688 0.103558,-0.07376 0.045,-0.25281 l -0.04859,-0.148589 0.09204,-0.02991 c 0.151294,-0.04918 0.172615,-0.03158 0.204262,0.168726 0.04204,0.265639 0.08694,0.383114 0.147534,0.38602 0.08614,0.0041 0.105846,-0.07137 0.07331,-0.281489 -0.06088,-0.392909 -0.0673,-0.360567 0.08242,-0.410028 l 0.1334,-0.04406 0.04785,0.183387 c 0.04072,0.155898 0.05631,0.183821 0.10479,0.186063 0.08383,0.004 0.112744,-0.08143 0.0837,-0.246711 l -0.0256,-0.145316 0.172144,-0.04588 c 0.09468,-0.02525 0.176261,-0.044 0.181294,-0.04166 0.0052,0.0023 0.01938,0.07733 0.03202,0.166622 0.01253,0.08932 0.05523,0.271659 0.09476,0.405211 0.0682,0.230574 0.07477,0.242359 0.136467,0.231226 0.09436,-0.01696 0.09506,-0.08945 0.0047,-0.478313 -0.04431,-0.190488 -0.07802,-0.350546 -0.07495,-0.355687 0.0028,-0.0051 0.04943,-0.01679 0.103059,-0.02584 0.09242,-0.01567 0.09906,-0.01079 0.127323,0.09548 0.05498,0.206532 0.20237,0.180475 0.196784,-0.0348 -0.0025,-0.09903 -1.17e-4,-0.101325 0.131394,-0.124405 0.07371,-0.01295 0.147213,-0.01721 0.163355,-0.0096 0.01614,0.0077 0.04227,0.141324 0.05769,0.297035 0.03003,0.299807 0.05283,0.340224 0.161579,0.286406 0.05675,-0.02803 0.06123,-0.06547 0.04104,-0.337656 -0.0209,-0.281752 -0.01742,-0.307054 0.04389,-0.31808 0.03669,-0.0064 0.07025,-0.001 0.07468,0.01241 0.0045,0.0134 0.03795,0.01898 0.07443,0.01241 0.05954,-0.01079 0.07174,0.004 0.117796,0.142905 0.04327,0.130443 0.06048,0.153698 0.109542,0.147549 0.07304,-0.009 0.107188,-0.109036 0.07281,-0.213092 -0.03049,-0.09227 0.0016,-0.109553 0.213027,-0.114593 0.107005,-0.0025 0.142398,0.0097 0.150097,0.05187 0.04536,0.248727 0.183336,1.155859 0.177511,1.167426 -0.0043,0.0081 -0.172068,0.033 -0.373356,0.05544 -0.201283,0.02243 -0.650083,0.08888 -0.997312,0.147643 -0.613872,0.103905 -0.65676,0.115265 -1.550317,0.410286 -0.726451,0.239864 -0.998345,0.341608 -1.297798,0.485742 -0.810811,0.390258 -1.402888,0.746258 -2.108024,1.267503 -0.229713,0.169804 -0.426312,0.311598 -0.436883,0.315091 -0.01068,0.0035 -0.02464,-0.0096 -0.03131,-0.02886 z"
       id="path87" /><path
       style="fill:#ffffff;stroke:#000000;stroke-width:0.135055;stroke-linecap:round;stroke-linejoin:bevel;stroke-opacity:1"
       d="m 94.701166,28.62202 c -0.632879,-0.228504 -1.636296,-0.412751 -2.519992,-0.462727 -0.210918,-0.0119 -0.394337,-0.02694 -0.407599,-0.03335 -0.01331,-0.0063 -0.06747,-0.279575 -0.12047,-0.60703 -0.08564,-0.529372 -0.09049,-0.598201 -0.04368,-0.6208 0.102021,-0.04923 0.146375,-0.0138 0.142799,0.114087 -0.0029,0.10147 0.0045,0.118835 0.06164,0.147618 0.08858,0.04457 0.144609,-0.02732 0.13223,-0.169532 -0.0091,-0.106292 -0.0073,-0.108807 0.09002,-0.108554 0.05474,1.38e-4 0.113319,0.0063 0.130224,0.0137 0.01691,0.0074 0.04363,0.121304 0.05913,0.253243 0.03089,0.261061 0.06603,0.331839 0.150588,0.303903 0.0642,-0.0212 0.07973,-0.144956 0.04996,-0.398506 l -0.02013,-0.171516 0.139006,0.0051 c 0.123304,0.0045 0.140075,0.0137 0.148502,0.08206 0.01867,0.151625 0.0351,0.185878 0.09611,0.200929 0.05091,0.01254 0.06775,1.64e-4 0.09462,-0.06958 0.01803,-0.04668 0.02478,-0.108888 0.01507,-0.138263 -0.0212,-0.06419 -0.01839,-0.06549 0.124898,-0.05471 l 0.112446,0.0086 0.05555,0.241627 c 0.0306,0.132871 0.07865,0.31161 0.106809,0.397173 0.04562,0.138357 0.05851,0.154233 0.11595,0.143923 0.0929,-0.01667 0.09602,-0.09533 0.01629,-0.413212 -0.08598,-0.342906 -0.08269,-0.364683 0.05175,-0.34322 l 0.102072,0.0163 0.0035,0.147748 c 0.0052,0.214121 0.01407,0.228162 0.115583,0.183306 0.07474,-0.03311 0.08856,-0.0579 0.09195,-0.165643 0.0023,-0.06972 0.0053,-0.131388 0.0069,-0.136984 0.0014,-0.0056 0.06983,-0.0014 0.151556,0.0097 0.129412,0.01734 0.147894,0.02863 0.143087,0.08746 -0.0073,0.08736 0.03053,0.465434 0.05319,0.534056 0.02372,0.07178 0.147604,0.06888 0.171138,-0.004 0.0099,-0.03041 0.0074,-0.165409 -0.0053,-0.300004 -0.01273,-0.134595 -0.0119,-0.248427 0.002,-0.252991 0.01381,-0.0046 0.06976,-0.0011 0.124406,0.0076 0.068,0.0109 0.09976,0.03252 0.100691,0.06865 0.004,0.146454 0.03195,0.321765 0.05656,0.352013 0.01486,0.01884 0.05676,0.02444 0.0921,0.01277 0.06608,-0.02182 0.08186,-0.09186 0.06669,-0.294134 -0.0062,-0.08487 3.07e-4,-0.09474 0.05256,-0.0777 0.05563,0.01817 0.06014,0.03996 0.06362,0.313813 0.0021,0.161853 0.01762,0.507997 0.03443,0.769212 0.01679,0.261231 0.02879,0.478623 0.02644,0.483123 -0.0021,0.0043 -0.107992,-0.02932 -0.234918,-0.07517 z"
       id="path88" /><path
       style="fill:none;stroke:#000000;stroke-width:0.480387;stroke-linecap:round;stroke-linejoin:round;stroke-dasharray:none;stroke-opacity:1"
       d="m 64.612588,41.753102 c 0.341284,0.14831 0.688182,0.299053 0.944413,0.373524 0.256244,0.07443 0.424611,0.07387 0.575918,0.05944 0.151294,-0.01447 0.290276,-0.04375 0.427469,-0.10953 0.137188,-0.06574 0.275022,-0.16839 0.387586,-0.389931 0.11256,-0.221544 0.199429,-0.562076 -0.09466,-1.928429 -0.294511,-1.366466 -0.970839,-3.758883 -1.269508,-4.956587 -0.298657,-1.197699 -0.219558,-1.200646 -0.156099,-1.15409 0.06345,0.04656 0.111849,0.142524 0.311695,0.48996 0.200387,0.347354 0.553175,0.946003 0.914172,1.471357 0.361032,0.525348 0.730151,0.977378 1.322027,1.655358 0.591862,0.677977 1.406415,1.581856 2.023081,2.207469 0.616582,0.625628 1.03524,0.972955 1.336756,1.185783 0.301514,0.212831 0.485983,0.291178 0.64793,0.335149 0.161934,0.04397 0.301388,0.05362 0.371074,0.06048 0.06973,0.007 0.06951,0.01102 0.09949,0.0061 0.02998,-0.0051 0.09021,-0.01933 0.16356,-0.04656 0.07335,-0.02724 0.159876,-0.06752 0.336579,-0.278039 0.176675,-0.210526 0.443581,-0.591281 0.613711,-1.190626 0.17021,-0.599325 0.243551,-1.417228 0.220209,-2.151798 -0.02332,-0.734572 -0.143416,-1.385783 -0.264573,-1.873629 -0.121138,-0.487844 -0.243335,-0.812286 -0.390837,-1.097031 -0.147554,-0.284735 -0.320314,-0.529779 -0.464508,-0.717362 -0.144196,-0.187578 -0.259644,-0.317714 -0.382023,-0.408759 -0.122202,-0.09105 -0.251355,-0.143094 -0.409072,-0.183338 -0.157746,-0.04021 -0.344118,-0.06873 -0.548424,-0.06285 -0.20432,0.0058 -0.426543,0.04611 -0.638761,0.161526 -0.212218,0.115418 -0.415996,0.307517 -0.542661,0.588036 -0.126701,0.280511 -0.177087,0.650189 -0.117404,1.040725 0.0596,0.390514 0.229109,0.801834 0.417959,1.131349 0.188831,0.32952 0.397101,0.577208 0.663053,0.852238 0.265951,0.275033 0.589573,0.577392 0.932879,0.833314 0.343303,0.255927 0.706231,0.465402 0.983075,0.586112 0.276849,0.12071 0.467598,0.152656 0.663753,0.169135 0.196135,0.01649 0.397632,0.01754 0.612737,-0.03243 0.215111,-0.04998 0.443798,-0.150978 0.801618,-0.380335 0.357839,-0.229351 0.844771,-0.587033 1.18939,-0.912431 0.344635,-0.325398 0.546912,-0.618489 0.707942,-0.909603 0.161003,-0.291129 0.280754,-0.580259 0.306585,-0.841355 0.02584,-0.261101 -0.04242,-0.494197 -0.154782,-0.604686 -0.112319,-0.110494 -0.268828,-0.0984 -0.424276,-0.06533 -0.155475,0.03301 -0.309864,0.08692 -0.452425,0.165557 -0.142606,0.07861 -0.27328,0.181999 -0.430362,0.295606 -0.157141,0.113594 -0.340524,0.237459 -0.499544,0.342347 -0.159007,0.104893 -0.293635,0.190817 -0.337668,0.203665 -0.04388,0.01289 0.0025,-0.0474 0.130266,-0.157448 0.12765,-0.110035 0.336246,-0.269877 0.489402,-0.407395 0.153127,-0.137521 0.250779,-0.252716 0.747177,-0.624727 0.496384,-0.37201 1.390938,-1.000448 2.285786,-1.629077"
       id="path21-1" /><text
       xml:space="preserve"
       style="font-style:normal;font-variant:normal;font-weight:normal;font-stretch:normal;font-size:3.88056px;line-height:1.45;font-family:Arial;-inkscape-font-specification:Arial;letter-spacing:0.421338px;fill:#000000;fill-opacity:1;stroke-width:0.2;stroke-dasharray:none"
       id="text20"
       transform="rotate(-5.3701605,125.93755,11.867779)"><textPath
         xlink:href="#path89"
         id="textPath89"><tspan
           id="tspan20"
           style="font-style:normal;font-variant:normal;font-weight:normal;font-stretch:normal;font-size:3.88056px;line-height:1.45;font-family:Arial;-inkscape-font-specification:Arial;letter-spacing:0.421338px;fill:#000000;fill-opacity:1;stroke-width:0.2;stroke-dasharray:none">SHOP</tspan></textPath></text><path
       style="fill:none;fill-opacity:1;stroke:none;stroke-width:0.632909;stroke-linecap:round;stroke-linejoin:bevel;stroke-dasharray:none;stroke-opacity:1"
       d="m 79.639805,38.229868 1.080942,-2.007463 0.849311,-1.389783 1.119547,-1.775837 0.88792,-1.080942 1.428385,-1.235364 1.235365,-0.926521 1.5056,-0.733498 1.660016,-0.540469 1.235365,-0.308842 0.926521,-0.07721 1.119547,0.193025 0.84931,0.11581"
       id="path89" /></g></svg>
