<?xml version="1.0" encoding="UTF-8" standalone="no"?>
<!-- Created with Inkscape (http://www.inkscape.org/) -->

<svg
   width="145.95322"
   height="70.483185"
   viewBox="0 0 38.616788 18.648676"
   version="1.1"
   id="svg1"
   xml:space="preserve"
   xmlns:xlink="http://www.w3.org/1999/xlink"
   xmlns="http://www.w3.org/2000/svg"
   xmlns:svg="http://www.w3.org/2000/svg"><defs
     id="defs1" /><g
     id="layer8"
     transform="translate(-67.960206,-24.681581)"><g
       id="g3"
       style="fill:none;stroke:#000000;stroke-width:1.2;stroke-dasharray:none;stroke-opacity:1"
       transform="matrix(0.16060873,-0.05305198,0.05305198,0.16060873,58.118452,37.46029)"><path
         style="opacity:1;fill:none;stroke:#000000;stroke-width:1.20057;stroke-linecap:round;stroke-miterlimit:15.3;stroke-dasharray:none;stroke-opacity:1"
         id="path1-90"
         transform="matrix(0.61362489,-0.78959768,0.81554826,0.57868906,0,0)" /><path
         style="opacity:1;fill:none;stroke:#000000;stroke-width:1.20057;stroke-linecap:round;stroke-miterlimit:15.3;stroke-dasharray:none;stroke-opacity:1"
         id="path1-9"
         transform="matrix(0.97165388,0.23640798,-0.19390825,0.98101967,0,0)" /><path
         style="opacity:1;fill:none;stroke:#000000;stroke-width:1.20057;stroke-linecap:round;stroke-miterlimit:15.3;stroke-dasharray:none;stroke-opacity:1"
         id="path1-6"
         transform="matrix(0.97165388,0.23640798,-0.19390825,0.98101968,0,0)" /><path
         style="opacity:1;fill:none;stroke:#000000;stroke-width:1.20057;stroke-linecap:round;stroke-miterlimit:15.3;stroke-dasharray:none;stroke-opacity:1"
         id="path1-0"
         transform="matrix(-0.02345565,0.99972488,-0.9997987,0.02006377,0,0)" /></g><path
       style="fill:none;stroke:#000000;stroke-width:1.03601;stroke-linecap:butt;stroke-linejoin:miter;stroke-dasharray:none;stroke-opacity:1"
       d="m 288.83205,37.924361 c 0.2999,-1.245339 0.59979,-2.49068 0.89969,-3.736014"
       id="path91"
       transform="matrix(0.14905749,-0.05201294,0.06061938,0.17467682,61.143045,36.679267)" /><path
       style="fill:none;stroke:#000000;stroke-width:0.203069;stroke-linecap:round;stroke-miterlimit:15.3;stroke-dasharray:none;stroke-opacity:1"
       id="path1"
       transform="matrix(0.9967723,-0.08028063,0.12357336,0.99233544,0,0)" /><path
       style="fill:none;stroke:#000000;stroke-width:0.204661;stroke-linecap:round;stroke-miterlimit:15.3;stroke-dasharray:none;stroke-opacity:1"
       id="path1-1"
       transform="matrix(0.98399714,-0.17818425,0.35290082,0.93566074,0,0)" /><path
       style="fill:none;stroke:#000000;stroke-width:1.2;stroke-linecap:butt;stroke-linejoin:miter;stroke-dasharray:none;stroke-opacity:1"
       d="m 219.10445,18.977551 c -1.69648,-0.920124 -3.39292,-1.840226 -5.26194,-2.702852 -1.86902,-0.862626 -3.9105,-1.667718 -6.12457,-2.444081 -2.21407,-0.776363 -4.60059,-1.523948 -6.90093,-2.127787 -2.30033,-0.60384 -4.51433,-1.063892 -6.77153,-1.365812 -2.2572,-0.30192 -4.55747,-0.4456871 -6.74278,-0.4456883 -2.18532,-1.3e-6 -4.25556,0.1437653 -6.81468,0.4600593 -2.55911,0.316294 -5.60696,0.8051 -8.15171,1.437689 -2.54474,0.632589 -4.58622,1.408927 -6.42649,2.142159 -1.84027,0.733233 -3.47921,1.423313 -5.27634,2.329065 -1.79713,0.905753 -3.75236,2.027133 -5.85141,3.40733 -2.09905,1.380196 -4.34181,3.019135 -6.23958,4.514352 -1.89778,1.495216 -3.45046,2.846621 -5.29072,4.442474 -1.84027,1.595854 -3.96801,3.436063 -6.23959,5.348212 -2.27157,1.91215 -4.68685,3.89613 -6.94405,5.563872 -2.2572,1.667743 -4.35619,3.019147 -6.69965,4.399346 -2.34346,1.380198 -4.93126,2.789112 -7.54789,4.025543 -2.61663,1.236431 -5.26193,2.300302 -7.77792,3.148551 -2.51599,0.84825 -4.90251,1.480822 -7.11658,2.041529 -2.214073,0.560706 -4.255557,1.049513 -6.21084,1.380187 -1.955283,0.330674 -3.824247,0.503194 -5.607005,0.646965 -1.782758,0.143771 -3.479203,0.258784 -5.348221,0.230032 -1.869018,-0.02875 -3.910501,-0.201273 -5.592623,-0.445682 -1.682121,-0.24441 -3.004773,-0.560696 -4.341841,-0.833861 -1.337068,-0.273165 -2.688472,-0.503191 -3.870843,-0.844915 -1.182371,-0.341724 -2.195634,-0.795126 -3.399986,-1.322043 -1.204353,-0.526916 -2.599754,-1.127328 -3.753333,-1.688829 -1.153578,-0.561502 -2.065294,-1.08407 -2.754662,-1.514925 -0.689367,-0.430855 -1.156345,-0.76997 -1.717847,-1.239743 -0.561503,-0.469773 -1.217495,-1.070173 -1.837371,-1.706728 -0.619875,-0.636554 -1.203595,-1.309223 -1.753978,-1.956896 -0.550383,-0.647673 -1.067394,-1.27031 -1.973584,-2.340503 -0.90619,-1.070194 -2.201498,-2.587871 -2.804689,-3.360623 -0.603191,-0.772752 -0.514242,-0.800548 -0.150096,-0.658781 0.364145,0.141767 1.00346,0.453085 2.201521,0.970114 1.198062,0.517028 2.954787,1.239732 3.885982,1.642786 0.931195,0.403055 1.036822,0.486444 1.295336,0.772756 0.258515,0.286312 0.6699,0.775527 1.292557,1.737312 0.622658,0.961785 1.456547,2.396074 1.993028,3.346731 0.536482,0.950656 0.77553,1.417634 0.992348,1.817912 0.216817,0.400278 0.411391,0.733833 0.647667,1.042381 0.236276,0.308548 0.514239,0.59207 0.836686,0.922856 0.322447,0.330786 0.689358,0.708816 1.389652,1.554722 0.700294,0.845905 1.733923,2.159627 2.567046,3.1328 0.833124,0.973173 1.465696,1.605745 2.08391,2.152073 0.618214,0.546328 1.222033,1.006381 1.869002,1.466447 0.646969,0.460067 1.337048,0.920119 2.17092,1.40894 0.833872,0.488821 1.811483,1.00638 2.789124,1.423314 0.977642,0.416935 1.955254,0.733221 2.889764,1.006385 0.934509,0.273164 1.825861,0.50319 2.961652,0.733223 1.135791,0.230034 2.515949,0.46006 3.666113,0.618207 1.150164,0.158147 2.070269,0.244407 3.292323,0.244406 1.222055,-10e-7 2.745979,-0.08626 4.054291,-0.158146 1.308312,-0.07188 2.400937,-0.129392 3.378577,-0.201278 0.97764,-0.07189 1.840239,-0.158145 2.731618,-0.273161 0.891379,-0.115017 1.811482,-0.258783 2.745992,-0.460062 0.93451,-0.20128 1.88337,-0.46006 2.84664,-0.690094 0.96326,-0.230033 1.94087,-0.431306 2.91851,-0.661339 0.97764,-0.230033 1.95526,-0.488814 3.09105,-0.862619 1.13579,-0.373805 2.42969,-0.862611 4.18369,-1.624599 1.75401,-0.761987 3.96801,-1.797104 6.00955,-2.875387 2.04155,-1.078282 3.91051,-2.199659 6.22522,-3.723634 2.31472,-1.523974 5.07504,-3.450445 7.33223,-5.218823 2.2572,-1.768379 4.01115,-3.378564 5.65013,-4.830647 1.63899,-1.452083 3.16291,-2.745978 4.97443,-4.284327 1.81151,-1.538349 3.9105,-3.321052 5.53511,-4.715625 1.6246,-1.394573 2.77474,-2.400942 4.12618,-3.407337 1.35145,-1.006394 2.90413,-2.01276 4.45685,-2.976024 1.55273,-0.963264 3.1054,-1.883367 4.57186,-2.64535 1.46646,-0.761983 2.84662,-1.365803 4.35622,-1.940886 1.50959,-0.575083 3.14853,-1.121396 4.83065,-1.610217 1.68212,-0.488821 3.40731,-0.920118 5.33384,-1.265167 1.92653,-0.345049 4.05428,-0.60383 6.08144,-0.761976 2.02717,-0.158147 3.95364,-0.215653 5.69327,-0.143767 1.73962,0.07189 3.2923,0.27316 4.90253,0.503193 1.61023,0.230033 3.27792,0.488813 4.48559,0.718846 1.20767,0.230033 1.95526,0.431307 3.03354,0.805113 1.07829,0.373806 2.4872,0.920118 3.80989,1.480824 1.32269,0.560705 2.55908,1.13577 3.85302,1.840248 1.29393,0.704477 2.64534,1.538325 3.80988,2.372196 1.16454,0.83387 2.14215,1.667715 3.11978,2.501577"
       id="path10"
       transform="matrix(0.16060873,-0.05305198,0.05305198,0.16060873,58.118452,37.46029)" /><g
       id="g83"
       style="stroke:#000000;stroke-opacity:1"
       transform="matrix(0.16060873,-0.05305198,0.05305198,0.16060873,58.118452,37.46029)"><path
         style="fill:none;stroke:#000000;stroke-width:0.5;stroke-linecap:butt;stroke-linejoin:miter;stroke-dasharray:none;stroke-opacity:1"
         d="m 203.36538,12.534941 c -0.43654,2.743967 -0.87308,5.487934 -1.30962,8.231901"
         id="path11" /><path
         style="fill:none;stroke:#000000;stroke-width:0.5;stroke-linecap:butt;stroke-linejoin:miter;stroke-dasharray:none;stroke-opacity:1"
         d="m 166.50891,14.218739 c 0.24945,3.055781 0.49891,6.111563 0.74836,9.167344"
         id="path12"
         transform="matrix(1.0046767,0,0,0.92444791,-0.78046449,1.0755151)" /><path
         style="fill:none;stroke:#000000;stroke-width:0.5;stroke-linecap:butt;stroke-linejoin:miter;stroke-dasharray:none;stroke-opacity:1"
         d="m 139.94232,31.805073 c 0.37418,2.993419 0.74835,5.986839 1.12253,8.980257"
         id="path13" /><path
         style="fill:none;stroke:#000000;stroke-width:0.5;stroke-linecap:butt;stroke-linejoin:miter;stroke-dasharray:none;stroke-opacity:1"
         d="m 104.76965,52.197738 c 0.87308,3.055781 1.74616,6.111562 2.61924,9.167344"
         id="path14" /></g><path
       style="fill:none;stroke:#000000;stroke-width:0.264583px;stroke-linecap:butt;stroke-linejoin:miter;stroke-opacity:1"
       d="m 82.131926,55.191157 c 0.623629,1.621435 1.247258,3.242869 1.870887,4.864306"
       id="path15"
       transform="matrix(0.16060873,-0.05305198,0.05305198,0.16060873,58.118452,37.46029)" /><path
       style="fill:none;stroke:#000000;stroke-width:0.264583px;stroke-linecap:butt;stroke-linejoin:miter;stroke-opacity:1"
       d="m 93.544333,54.255714 c 0.561266,1.559071 1.122532,3.118144 1.683798,4.677217"
       id="path16"
       transform="matrix(0.16060873,-0.05305198,0.05305198,0.16060873,58.118452,37.46029)" /><path
       style="fill:none;stroke:#000000;stroke-width:0.264583px;stroke-linecap:butt;stroke-linejoin:miter;stroke-opacity:1"
       d="m 76.519264,54.81698 c 0.561266,1.184894 1.122531,2.369788 1.683798,3.554685"
       id="path17"
       transform="matrix(0.16060873,-0.05305198,0.05305198,0.16060873,58.118452,37.46029)" /><path
       style="fill:none;stroke:#000000;stroke-width:0.264583px;stroke-linecap:butt;stroke-linejoin:miter;stroke-opacity:1"
       d="m 72.403313,54.068625 c 0.62363,1.24726 1.247258,2.494516 1.870887,3.741774"
       id="path18"
       transform="matrix(0.16060873,-0.05305198,0.05305198,0.16060873,58.118452,37.46029)" /><path
       style="fill:none;stroke:#000000;stroke-width:0.264583px;stroke-linecap:butt;stroke-linejoin:miter;stroke-opacity:1"
       d="m 110.85004,50.420396 c 0.15591,1.060169 0.31181,2.120337 0.46772,3.180506"
       id="path19"
       transform="matrix(0.16060873,-0.05305198,0.05305198,0.16060873,58.118452,37.46029)" /><path
       style="fill:none;stroke:#000000;stroke-width:0.264583px;stroke-linecap:butt;stroke-linejoin:miter;stroke-opacity:1"
       d="m 115.90143,47.8947 c 0.24945,1.465527 0.4989,2.931054 0.74835,4.396584"
       id="path20"
       transform="matrix(0.16060873,-0.05305198,0.05305198,0.16060873,58.118452,37.46029)" /><path
       style="fill:none;stroke:#000000;stroke-width:0.264583px;stroke-linecap:butt;stroke-linejoin:miter;stroke-opacity:1"
       d="m 120.85928,45.930269 c 0.18709,1.028987 0.37417,2.057973 0.56126,3.086963"
       id="path21"
       transform="matrix(0.16060873,-0.05305198,0.05305198,0.16060873,58.118452,37.46029)" /><path
       style="fill:none;stroke:#000000;stroke-width:0.264583px;stroke-linecap:butt;stroke-linejoin:miter;stroke-opacity:1"
       d="m 125.25586,43.40457 c 0.28063,1.559074 0.56127,3.118147 0.8419,4.677217"
       id="path22"
       transform="matrix(0.16060873,-0.05305198,0.05305198,0.16060873,58.118452,37.46029)" /><path
       style="fill:none;stroke:#000000;stroke-width:0.264583px;stroke-linecap:butt;stroke-linejoin:miter;stroke-opacity:1"
       d="m 129.09118,40.691786 c 0.28063,0.997804 0.56127,1.995613 0.8419,2.993417"
       id="path23"
       transform="matrix(0.16060873,-0.05305198,0.05305198,0.16060873,58.118452,37.46029)" /><path
       style="fill:none;stroke:#000000;stroke-width:0.264583px;stroke-linecap:butt;stroke-linejoin:miter;stroke-opacity:1"
       d="m 132.83295,37.885454 c 0.24945,1.247258 0.49891,2.494517 0.74836,3.741775"
       id="path24"
       transform="matrix(0.16060873,-0.05305198,0.05305198,0.16060873,58.118452,37.46029)" /><path
       style="fill:none;stroke:#000000;stroke-width:0.264583px;stroke-linecap:butt;stroke-linejoin:miter;stroke-opacity:1"
       d="m 143.02928,29.840642 c 0.15591,0.997807 0.31182,1.995612 0.46773,2.993419"
       id="path26"
       transform="matrix(0.16060873,-0.05305198,0.05305198,0.16060873,58.118452,37.46029)" /><path
       style="fill:none;stroke:#000000;stroke-width:0.264583px;stroke-linecap:butt;stroke-linejoin:miter;stroke-opacity:1"
       d="m 146.0227,26.660136 c 0.0936,1.340806 0.18709,2.681602 0.28064,4.022405"
       id="path27"
       transform="matrix(0.16060873,-0.05305198,0.05305198,0.16060873,58.118452,37.46029)" /><path
       style="fill:none;stroke:#000000;stroke-width:0.264583px;stroke-linecap:butt;stroke-linejoin:miter;stroke-opacity:1"
       d="m 148.92258,24.321527 c 0.0935,1.060165 0.18709,2.120338 0.28063,3.180508"
       id="path28"
       transform="matrix(0.16060873,-0.05305198,0.05305198,0.16060873,58.118452,37.46029)" /><path
       style="fill:none;stroke:#000000;stroke-width:0.264583px;stroke-linecap:butt;stroke-linejoin:miter;stroke-opacity:1"
       d="m 152.10309,21.702285 c 0.15591,1.621435 0.31181,3.242871 0.46772,4.864305"
       id="path29"
       transform="matrix(0.16060873,-0.05305198,0.05305198,0.16060873,58.118452,37.46029)" /><path
       style="fill:none;stroke:#000000;stroke-width:0.264583px;stroke-linecap:butt;stroke-linejoin:miter;stroke-opacity:1"
       d="m 155.0965,19.831399 c 0.18709,0.935443 0.37418,1.870886 0.56127,2.80633"
       id="path30"
       transform="matrix(0.16060873,-0.05305198,0.05305198,0.16060873,58.118452,37.46029)" /><path
       style="fill:none;stroke:#000000;stroke-width:0.264583px;stroke-linecap:butt;stroke-linejoin:miter;stroke-opacity:1"
       d="m 158.83828,17.586335 c 0.12473,1.278438 0.24945,2.556878 0.37418,3.835317"
       id="path31"
       transform="matrix(0.16060873,-0.05305198,0.05305198,0.16060873,58.118452,37.46029)" /><path
       style="fill:none;stroke:#000000;stroke-width:0.264583px;stroke-linecap:butt;stroke-linejoin:miter;stroke-opacity:1"
       d="m 162.39296,15.996081 c 0.18709,1.060169 0.37418,2.120338 0.56127,3.180507"
       id="path32"
       transform="matrix(0.16060873,-0.05305198,0.05305198,0.16060873,58.118452,37.46029)" /><path
       style="fill:none;stroke:#000000;stroke-width:0.264583px;stroke-linecap:butt;stroke-linejoin:miter;stroke-opacity:1"
       d="m 170.81195,12.441396 c 0,1.122532 0,2.245064 0,3.367596"
       id="path33"
       transform="matrix(0.16060873,-0.05305198,0.05305198,0.16060873,58.118452,37.46029)" /><path
       style="fill:none;stroke:#000000;stroke-width:0.264583px;stroke-linecap:butt;stroke-linejoin:miter;stroke-opacity:1"
       d="m 175.20854,10.944687 c 0.0935,1.434344 0.18709,2.868693 0.28063,4.303039"
       id="path34"
       transform="matrix(0.16060873,-0.05305198,0.05305198,0.16060873,58.118452,37.46029)" /><path
       style="fill:none;stroke:#000000;stroke-width:0.264583px;stroke-linecap:butt;stroke-linejoin:miter;stroke-opacity:1"
       d="m 179.51158,10.009244 c 0,1.184895 0,2.36979 0,3.554684"
       id="path35"
       transform="matrix(0.16060873,-0.05305198,0.05305198,0.16060873,58.118452,37.46029)" /><path
       style="fill:none;stroke:#000000;stroke-width:0.264583px;stroke-linecap:butt;stroke-linejoin:miter;stroke-opacity:1"
       d="m 184.37588,10.383421 c -0.0624,1.496711 -0.12473,2.993419 -0.18709,4.490128"
       id="path36"
       transform="matrix(0.16060873,-0.05305198,0.05305198,0.16060873,58.118452,37.46029)" /><path
       style="fill:none;stroke:#000000;stroke-width:0.264583px;stroke-linecap:butt;stroke-linejoin:miter;stroke-opacity:1"
       d="m 188.95955,10.383421 c -0.15591,0.997805 -0.31181,1.995612 -0.46772,2.993419"
       id="path37"
       transform="matrix(0.16060873,-0.05305198,0.05305198,0.16060873,58.118452,37.46029)" /><path
       style="fill:none;stroke:#000000;stroke-width:0.264583px;stroke-linecap:butt;stroke-linejoin:miter;stroke-opacity:1"
       d="m 193.82386,10.57051 c -0.12473,1.434346 -0.24945,2.868693 -0.37418,4.303039"
       id="path38"
       transform="matrix(0.16060873,-0.05305198,0.05305198,0.16060873,58.118452,37.46029)" /><path
       style="fill:none;stroke:#000000;stroke-width:0.264583px;stroke-linecap:butt;stroke-linejoin:miter;stroke-opacity:1"
       d="m 198.40753,11.318864 c -0.24945,1.091351 -0.4989,2.182701 -0.74835,3.274052"
       id="path39"
       transform="matrix(0.16060873,-0.05305198,0.05305198,0.16060873,58.118452,37.46029)" /><path
       style="fill:none;stroke:#000000;stroke-width:0.264583px;stroke-linecap:butt;stroke-linejoin:miter;stroke-opacity:1"
       d="m 207.29424,14.03165 c -0.21827,0.966625 -0.43654,1.93325 -0.65481,2.899874"
       id="path40"
       transform="matrix(0.16060873,-0.05305198,0.05305198,0.16060873,58.118452,37.46029)" /><path
       style="fill:none;stroke:#000000;stroke-width:0.264583px;stroke-linecap:butt;stroke-linejoin:miter;stroke-opacity:1"
       d="m 211.31665,15.621904 c -0.12473,1.340802 -0.24945,2.681604 -0.37418,4.022406"
       id="path41"
       transform="matrix(0.16060873,-0.05305198,0.05305198,0.16060873,58.118452,37.46029)" /><path
       style="fill:none;stroke:#000000;stroke-width:0.264583px;stroke-linecap:butt;stroke-linejoin:miter;stroke-opacity:1"
       d="m 215.52614,17.118613 c -0.28063,1.184894 -0.56127,2.369789 -0.8419,3.554685"
       id="path42"
       transform="matrix(0.16060873,-0.05305198,0.05305198,0.16060873,58.118452,37.46029)" /><path
       style="fill:none;stroke:#000000;stroke-width:0.264583px;stroke-linecap:butt;stroke-linejoin:miter;stroke-opacity:1"
       d="m 217.58412,17.679879 c -0.24945,0.966625 -0.4989,1.93325 -0.74835,2.899874"
       id="path43"
       transform="matrix(0.16060873,-0.05305198,0.05305198,0.16060873,58.118452,37.46029)" /><path
       style="fill:none;stroke:#000000;stroke-width:0.264583px;stroke-linecap:butt;stroke-linejoin:miter;stroke-opacity:1"
       d="m 213.65526,15.434815 c -0.28063,0.935442 -0.56127,1.870888 -0.8419,2.80633"
       id="path44"
       transform="matrix(0.16060873,-0.05305198,0.05305198,0.16060873,58.118452,37.46029)" /><path
       style="fill:none;stroke:#000000;stroke-width:0.264583px;stroke-linecap:butt;stroke-linejoin:miter;stroke-opacity:1"
       d="m 209.53931,14.218739 c -0.15591,0.717174 -0.31181,1.434347 -0.46772,2.151519"
       id="path45"
       transform="matrix(0.16060873,-0.05305198,0.05305198,0.16060873,58.118452,37.46029)" /><path
       style="fill:none;stroke:#000000;stroke-width:0.264583px;stroke-linecap:butt;stroke-linejoin:miter;stroke-opacity:1"
       d="m 205.23627,12.909118 c -0.12473,0.685993 -0.24945,1.371983 -0.37418,2.057975"
       id="path46"
       transform="matrix(0.16060873,-0.05305198,0.05305198,0.16060873,58.118452,37.46029)" /><path
       style="fill:none;stroke:#000000;stroke-width:0.264583px;stroke-linecap:butt;stroke-linejoin:miter;stroke-opacity:1"
       d="m 200.65259,11.786586 c -0.0935,0.685986 -0.18709,1.371983 -0.28063,2.057975"
       id="path47"
       transform="matrix(0.16060873,-0.05305198,0.05305198,0.16060873,58.118452,37.46029)" /><path
       style="fill:none;stroke:#000000;stroke-width:0.264583px;stroke-linecap:butt;stroke-linejoin:miter;stroke-opacity:1"
       d="m 195.88183,10.944687 c -0.0935,0.498895 -0.18709,0.997807 -0.28063,1.496709"
       id="path48"
       transform="matrix(0.16060873,-0.05305198,0.05305198,0.16060873,58.118452,37.46029)" /><path
       style="fill:none;stroke:#000000;stroke-width:0.264583px;stroke-linecap:butt;stroke-linejoin:miter;stroke-opacity:1"
       d="m 191.29816,10.289877 c -0.0935,0.717167 -0.18709,1.434346 -0.28063,2.151519"
       id="path49"
       transform="matrix(0.16060873,-0.05305198,0.05305198,0.16060873,58.118452,37.46029)" /><path
       style="fill:none;stroke:#000000;stroke-width:0.264583px;stroke-linecap:butt;stroke-linejoin:miter;stroke-opacity:1"
       d="m 186.62095,10.383421 c 0,0.623629 0,1.247258 0,1.870887"
       id="path50"
       transform="matrix(0.16060873,-0.05305198,0.05305198,0.16060873,58.118452,37.46029)" /><path
       style="fill:none;stroke:#000000;stroke-width:0.264583px;stroke-linecap:butt;stroke-linejoin:miter;stroke-opacity:1"
       d="m 181.94373,9.822155 c 0,0.841899 0,1.683798 0,2.525697"
       id="path51"
       transform="matrix(0.16060873,-0.05305198,0.05305198,0.16060873,58.118452,37.46029)" /><path
       style="fill:none;stroke:#000000;stroke-width:0.264583px;stroke-linecap:butt;stroke-linejoin:miter;stroke-opacity:1"
       d="m 177.07942,10.289877 c 0.0624,1.028989 0.12473,2.057975 0.18709,3.086963"
       id="path52"
       transform="matrix(0.16060873,-0.05305198,0.05305198,0.16060873,58.118452,37.46029)" /><path
       style="fill:none;stroke:#000000;stroke-width:0.264583px;stroke-linecap:butt;stroke-linejoin:miter;stroke-opacity:1"
       d="m 172.86993,11.412409 c 0.0312,0.779537 0.0623,1.559075 0.0935,2.338608"
       id="path53"
       transform="matrix(0.16060873,-0.05305198,0.05305198,0.16060873,58.118452,37.46029)" /><path
       style="fill:none;stroke:#000000;stroke-width:0.264583px;stroke-linecap:butt;stroke-linejoin:miter;stroke-opacity:1"
       d="m 168.47335,13.470384 c 0.0312,0.530087 0.0623,1.060173 0.0935,1.590254"
       id="path54"
       transform="matrix(0.16060873,-0.05305198,0.05305198,0.16060873,58.118452,37.46029)" /><path
       style="fill:none;stroke:#000000;stroke-width:0.264583px;stroke-linecap:butt;stroke-linejoin:miter;stroke-opacity:1"
       d="m 164.35739,14.873549 c 0.0624,0.530088 0.12473,1.060169 0.18709,1.590254"
       id="path55"
       transform="matrix(0.16060873,-0.05305198,0.05305198,0.16060873,58.118452,37.46029)" /><path
       style="fill:none;stroke:#000000;stroke-width:0.264583px;stroke-linecap:butt;stroke-linejoin:miter;stroke-opacity:1"
       d="m 160.24144,16.744436 c 0.0935,0.59244 0.18709,1.184894 0.28064,1.777342"
       id="path56"
       transform="matrix(0.16060873,-0.05305198,0.05305198,0.16060873,58.118452,37.46029)" /><path
       style="fill:none;stroke:#000000;stroke-width:0.264583px;stroke-linecap:butt;stroke-linejoin:miter;stroke-opacity:1"
       d="m 156.96739,18.56855 c 0.0468,0.59245 0.0935,1.184891 0.14032,1.777343"
       id="path57"
       transform="matrix(0.16060873,-0.05305198,0.05305198,0.16060873,58.118452,37.46029)" /><path
       style="fill:none;stroke:#000000;stroke-width:0.264583px;stroke-linecap:butt;stroke-linejoin:miter;stroke-opacity:1"
       d="m 153.5998,20.626526 c 0.0468,0.60804 0.0935,1.216073 0.14031,1.824114"
       id="path58"
       transform="matrix(0.16060873,-0.05305198,0.05305198,0.16060873,58.118452,37.46029)" /><path
       style="fill:none;stroke:#000000;stroke-width:0.264583px;stroke-linecap:butt;stroke-linejoin:miter;stroke-opacity:1"
       d="m 150.41929,23.152222 c 0.0468,0.498907 0.0935,0.997803 0.14031,1.49671"
       id="path59"
       transform="matrix(0.16060873,-0.05305198,0.05305198,0.16060873,58.118452,37.46029)" /><path
       style="fill:none;stroke:#000000;stroke-width:0.264583px;stroke-linecap:butt;stroke-linejoin:miter;stroke-opacity:1"
       d="m 147.14524,25.350514 c 0.14031,0.701582 0.28063,1.403166 0.42094,2.104748"
       id="path60"
       transform="matrix(0.16060873,-0.05305198,0.05305198,0.16060873,58.118452,37.46029)" /><path
       style="fill:none;stroke:#000000;stroke-width:0.264583px;stroke-linecap:butt;stroke-linejoin:miter;stroke-opacity:1"
       d="m 144.15182,27.969755 c 0.0935,0.685987 0.18709,1.371983 0.28063,2.057976"
       id="path61"
       transform="matrix(0.16060873,-0.05305198,0.05305198,0.16060873,58.118452,37.46029)" /><path
       style="fill:none;stroke:#000000;stroke-width:0.264583px;stroke-linecap:butt;stroke-linejoin:miter;stroke-opacity:1"
       d="m 141.20517,30.963174 c 0.10914,0.592448 0.21827,1.184896 0.32741,1.777344"
       id="path62"
       transform="matrix(0.16060873,-0.05305198,0.05305198,0.16060873,58.118452,37.46029)" /><path
       style="fill:none;stroke:#000000;stroke-width:0.264583px;stroke-linecap:butt;stroke-linejoin:miter;stroke-opacity:1"
       d="m 138.11821,33.48887 c 0.0779,0.639214 0.15591,1.278441 0.23386,1.917661"
       id="path63"
       transform="matrix(0.16060873,-0.05305198,0.05305198,0.16060873,58.118452,37.46029)" /><path
       style="fill:none;stroke:#000000;stroke-width:0.264583px;stroke-linecap:butt;stroke-linejoin:miter;stroke-opacity:1"
       d="m 136.43441,35.172671 c 0.18709,1.013396 0.37418,2.026793 0.56127,3.040189"
       id="path64"
       transform="matrix(0.16060873,-0.05305198,0.05305198,0.16060873,58.118452,37.46029)" /><path
       style="fill:none;stroke:#000000;stroke-width:0.264583px;stroke-linecap:butt;stroke-linejoin:miter;stroke-opacity:1"
       d="m 134.65707,36.388746 c 0.0935,0.623622 0.18709,1.247257 0.28063,1.870887"
       id="path65"
       transform="matrix(0.16060873,-0.05305198,0.05305198,0.16060873,58.118452,37.46029)" /><path
       style="fill:none;stroke:#000000;stroke-width:0.264583px;stroke-linecap:butt;stroke-linejoin:miter;stroke-opacity:1"
       d="m 131.10238,38.914443 c 0.18709,0.670401 0.37418,1.340802 0.56127,2.011203"
       id="path66"
       transform="matrix(0.16060873,-0.05305198,0.05305198,0.16060873,58.118452,37.46029)" /><path
       style="fill:none;stroke:#000000;stroke-width:0.264583px;stroke-linecap:butt;stroke-linejoin:miter;stroke-opacity:1"
       d="m 127.12675,41.861089 c 0.12473,0.639219 0.24945,1.278439 0.37418,1.91766"
       id="path67"
       transform="matrix(0.16060873,-0.05305198,0.05305198,0.16060873,58.118452,37.46029)" /><path
       style="fill:none;stroke:#000000;stroke-width:0.264583px;stroke-linecap:butt;stroke-linejoin:miter;stroke-opacity:1"
       d="m 122.87048,44.573875 c 0.12473,0.623629 0.24945,1.247258 0.37418,1.870887"
       id="path68"
       transform="matrix(0.16060873,-0.05305198,0.05305198,0.16060873,58.118452,37.46029)" /><path
       style="fill:none;stroke:#000000;stroke-width:0.264583px;stroke-linecap:butt;stroke-linejoin:miter;stroke-opacity:1"
       d="m 118.09972,47.146344 c 0.14032,0.60804 0.28063,1.216077 0.42095,1.824115"
       id="path69"
       transform="matrix(0.16060873,-0.05305198,0.05305198,0.16060873,58.118452,37.46029)" /><path
       style="fill:none;stroke:#000000;stroke-width:0.264583px;stroke-linecap:butt;stroke-linejoin:miter;stroke-opacity:1"
       d="m 113.04833,49.484951 c 0.15591,0.608037 0.31181,1.216077 0.46772,1.824117"
       id="path70"
       transform="matrix(0.16060873,-0.05305198,0.05305198,0.16060873,58.118452,37.46029)" /><path
       style="fill:none;stroke:#000000;stroke-width:0.264583px;stroke-linecap:butt;stroke-linejoin:miter;stroke-opacity:1"
       d="m 107.90339,51.589701 c 0.10913,0.514492 0.21827,1.028987 0.3274,1.543481"
       id="path71"
       transform="matrix(0.16060873,-0.05305198,0.05305198,0.16060873,58.118452,37.46029)" /><path
       style="fill:none;stroke:#000000;stroke-width:0.264583px;stroke-linecap:butt;stroke-linejoin:miter;stroke-opacity:1"
       d="m 102.29073,53.273499 c 0.14032,0.561264 0.28063,1.122531 0.42095,1.683798"
       id="path72"
       transform="matrix(0.16060873,-0.05305198,0.05305198,0.16060873,58.118452,37.46029)" /><path
       style="fill:none;stroke:#000000;stroke-width:0.264583px;stroke-linecap:butt;stroke-linejoin:miter;stroke-opacity:1"
       d="m 96.490979,54.583118 c 0.20268,0.545677 0.405359,1.09135 0.608039,1.637027"
       id="path73"
       transform="matrix(0.16060873,-0.05305198,0.05305198,0.16060873,58.118452,37.46029)" /><path
       style="fill:none;stroke:#000000;stroke-width:0.264583px;stroke-linecap:butt;stroke-linejoin:miter;stroke-opacity:1"
       d="m 99.437625,53.975081 c 0.296225,1.044578 0.592455,2.089157 0.888675,3.133736"
       id="path74"
       transform="matrix(0.16060873,-0.05305198,0.05305198,0.16060873,58.118452,37.46029)" /><path
       style="fill:none;stroke:#000000;stroke-width:0.264583px;stroke-linecap:butt;stroke-linejoin:miter;stroke-opacity:1"
       d="m 90.64446,55.518563 c 0.155907,0.561266 0.311813,1.122531 0.46772,1.683797"
       id="path75"
       transform="matrix(0.16060873,-0.05305198,0.05305198,0.16060873,58.118452,37.46029)" /><path
       style="fill:none;stroke:#000000;stroke-width:0.264583px;stroke-linecap:butt;stroke-linejoin:miter;stroke-opacity:1"
       d="m 87.978445,55.705649 c 0.311816,0.982218 0.62363,1.964434 0.935445,2.946649"
       id="path76"
       transform="matrix(0.16060873,-0.05305198,0.05305198,0.16060873,58.118452,37.46029)" /><path
       style="fill:none;stroke:#000000;stroke-width:0.264583px;stroke-linecap:butt;stroke-linejoin:miter;stroke-opacity:1"
       d="m 84.844712,55.518563 c 0.23386,0.608036 0.467721,1.216074 0.701582,1.824114"
       id="path77"
       transform="matrix(0.16060873,-0.05305198,0.05305198,0.16060873,58.118452,37.46029)" /><path
       style="fill:none;stroke:#000000;stroke-width:0.264583px;stroke-linecap:butt;stroke-linejoin:miter;stroke-opacity:1"
       d="m 79.465912,55.2847 c 0.280633,0.654812 0.561266,1.309621 0.841899,1.964433"
       id="path78"
       transform="matrix(0.16060873,-0.05305198,0.05305198,0.16060873,58.118452,37.46029)" /><path
       style="fill:none;stroke:#000000;stroke-width:0.264583px;stroke-linecap:butt;stroke-linejoin:miter;stroke-opacity:1"
       d="m 74.180657,54.115398 c 0.327405,0.717172 0.65481,1.434345 0.982215,2.151517"
       id="path79"
       transform="matrix(0.16060873,-0.05305198,0.05305198,0.16060873,58.118452,37.46029)" /><path
       style="fill:none;stroke:#000000;stroke-width:0.264583px;stroke-linecap:butt;stroke-linejoin:miter;stroke-opacity:1"
       d="m 69.830846,53.367042 c 0.265042,0.498903 0.530085,0.997808 0.795126,1.496709"
       id="path80"
       transform="matrix(0.16060873,-0.05305198,0.05305198,0.16060873,58.118452,37.46029)" /><path
       style="fill:none;stroke:#000000;stroke-width:0.264583px;stroke-linecap:butt;stroke-linejoin:miter;stroke-opacity:1"
       d="m 67.632553,52.805776 c 0.420949,0.732764 0.841899,1.465528 1.262848,2.198291"
       id="path81"
       transform="matrix(0.16060873,-0.05305198,0.05305198,0.16060873,58.118452,37.46029)" /><path
       style="fill:none;stroke:#000000;stroke-width:0.264583px;stroke-linecap:butt;stroke-linejoin:miter;stroke-opacity:1"
       d="m 65.901982,52.010651 c 0.171498,0.358585 0.342997,0.717172 0.514495,1.075758"
       id="path82"
       transform="matrix(0.16060873,-0.05305198,0.05305198,0.16060873,58.118452,37.46029)" /><path
       style="fill:#a7d301;fill-opacity:1;stroke:#000000;stroke-width:0.0389938;stroke-linecap:round;stroke-miterlimit:15.3;stroke-dasharray:none;stroke-opacity:1"
       d="m 101.34914,29.392874 c -0.97615,0.228108 -1.899826,0.276176 -2.732195,0.142179 -0.819086,-0.131859 -1.439484,-0.404617 -1.819873,-0.80011 -0.148629,-0.154522 -0.219709,-0.281078 -0.281676,-0.501412 -0.04476,-0.158776 -0.04792,-0.201547 -0.02736,-0.361638 0.01862,-0.144678 0.04533,-0.224143 0.131842,-0.391244 0.204897,-0.395822 0.593842,-0.744825 1.174417,-1.053819 0.322146,-0.171447 1.008541,-0.413035 1.431035,-0.503672 1.8937,-0.406234 3.80025,-0.0345 4.44995,0.867638 0.2132,0.296038 0.24257,0.669077 0.0809,1.029432 -0.18993,0.423485 -0.65694,0.841757 -1.30254,1.166593 -0.20546,0.103379 -0.89662,0.357459 -1.10453,0.406045 z"
       id="path83" /><path
       style="fill:#a7d301;fill-opacity:1;stroke:#000000;stroke-width:0.0389938;stroke-linecap:round;stroke-miterlimit:15.3;stroke-dasharray:none;stroke-opacity:1"
       d="m 102.66603,31.044142 c -1.08293,0.282387 -2.28898,0.403142 -3.386663,0.339081 -1.236571,-0.07217 -2.5013,-0.412702 -3.330018,-0.896624 -0.926307,-0.540908 -1.446138,-1.222149 -1.492314,-1.955683 -0.06208,-0.986553 0.723045,-1.993305 2.097203,-2.689145 0.736918,-0.373156 1.688979,-0.671531 2.583064,-0.80953 1.966438,-0.303514 3.935678,-0.07821 5.338008,0.610731 0.79002,0.388121 1.3054,0.834056 1.60029,1.384687 0.66267,1.237375 -0.18458,2.645951 -2.13852,3.555338 -0.24535,0.114195 -1.02437,0.396817 -1.27105,0.461148 z m -0.082,-1.860154 c 0.8231,-0.411672 1.37985,-0.98284 1.48969,-1.528255 0.0472,-0.2344 0.0369,-0.38513 -0.0426,-0.623912 -0.0623,-0.18726 -0.0877,-0.237026 -0.19408,-0.381372 -0.40215,-0.545343 -1.18914,-0.910013 -2.27515,-1.054221 -0.78084,-0.103688 -1.585262,-0.06432 -2.431375,0.118981 -0.424209,0.0919 -1.148217,0.346689 -1.466024,0.515912 -0.654392,0.348451 -1.059063,0.715846 -1.279055,1.161258 -0.161506,0.326977 -0.1862,0.619791 -0.07948,0.942776 0.131339,0.397617 0.438981,0.721629 0.931624,0.981217 0.437095,0.230321 0.878949,0.363401 1.48515,0.447307 0.876805,0.121356 1.71284,0.0716 2.71727,-0.161723 0.19105,-0.04437 0.95548,-0.323626 1.14405,-0.41798 z"
       id="path84" /><path
       style="fill:#a7d301;fill-opacity:1;stroke:#000000;stroke-width:0.0389938;stroke-linecap:round;stroke-miterlimit:15.3;stroke-dasharray:none;stroke-opacity:1"
       d="m 102.2025,33.390751 c -0.83485,0.165017 -1.47323,0.228212 -2.283132,0.226013 -1.419145,-0.0039 -2.688746,-0.273233 -3.704353,-0.785981 -0.607172,-0.306542 -1.089132,-0.701959 -1.369213,-1.123346 -0.08951,-0.134733 -0.12013,-0.245999 -0.218771,-0.796474 -0.106531,-0.594483 -0.243537,-1.601329 -0.18607,-1.55424 0.01344,0.01097 0.08163,0.09409 0.08797,0.112765 0.02493,0.07344 0.267811,0.384766 0.41954,0.537876 0.745869,0.752654 1.952986,1.281394 3.439925,1.506758 1.291091,0.195683 2.654184,0.13639 4.027324,-0.175186 0.33674,-0.07641 1.21708,-0.367449 1.49874,-0.495492 1.00105,-0.455045 1.84051,-1.191594 2.25408,-1.792691 0.0402,-0.05841 0.0671,-0.101037 0.0718,-0.09868 0.005,0.0023 -0.11214,0.282925 -0.14733,0.400491 -0.14851,0.496038 -0.34856,1.014402 -0.58217,1.508586 -0.0717,0.151669 -0.12779,0.283545 -0.12465,0.29305 0.003,0.0095 -0.0419,0.0957 -0.10027,0.191567 -0.45198,0.743358 -1.28493,1.36356 -2.45874,1.830756 -0.32059,0.127594 -0.50314,0.190209 -0.62462,0.214248 z"
       id="path85" /><text
       xml:space="preserve"
       style="font-style:normal;font-variant:normal;font-weight:normal;font-stretch:normal;font-size:8.22146px;line-height:1.25;font-family:Arial;-inkscape-font-specification:'Arial, Normal';font-variant-ligatures:normal;font-variant-caps:normal;font-variant-numeric:normal;font-variant-east-asian:normal;fill:#000000;fill-opacity:1;stroke:none;stroke-width:0.205536"
       id="text91"
       transform="matrix(1.2910783,0,0,1.5382315,-56.00163,86.977534)"><textPath
         xlink:href="#path93"
         id="textPath94"><tspan
           id="tspan91"
           style="font-style:normal;font-variant:normal;font-weight:normal;font-stretch:normal;font-size:8.22146px;font-family:Arial;-inkscape-font-specification:'Arial, Normal';font-variant-ligatures:normal;font-variant-caps:normal;font-variant-numeric:normal;font-variant-east-asian:normal;stroke-width:0.205536">SHOP</tspan></textPath></text><path
       style="fill:none;stroke:none;stroke-width:0.264583px;stroke-linecap:butt;stroke-linejoin:miter;stroke-opacity:1"
       d="m 148.03767,41.172407 c 1.34192,-1.016605 2.68384,-2.033209 3.69028,-2.775332 1.00644,-0.742123 1.67739,-1.209754 2.633,-1.789223 0.95562,-0.579468 2.19585,-1.270744 3.27346,-1.799381 1.07761,-0.528638 1.99253,-0.894606 2.81599,-1.199589 0.82345,-0.304983 1.55539,-0.548963 2.62284,-0.853949 1.06745,-0.304986 2.47033,-0.670955 3.87324,-1.036932"
       id="path93"
       transform="matrix(0.25894941,-0.08553571,0.08553571,0.25894941,46.700335,33.2607)" /><path
       style="fill:#ffffff;stroke:#000000;stroke-width:0.150888;stroke-linecap:round;stroke-linejoin:bevel;stroke-opacity:1"
       d="m 75.366915,42.933088 c -0.655894,0.129939 -1.371181,0.194247 -1.80001,0.161834 -0.534647,-0.04041 -1.535371,-0.337041 -1.456031,-0.431585 0.02848,-0.03393 0.01875,-0.05479 -0.05607,-0.120171 -0.04979,-0.04351 -0.08587,-0.08837 -0.08019,-0.09968 0.02217,-0.04404 0.26517,0.0021 0.305633,0.05798 0.02354,0.03253 0.06411,0.05209 0.09018,0.04349 0.03291,-0.01087 0.03496,-0.03281 0.0067,-0.07186 -0.03652,-0.05048 -0.02932,-0.05771 0.07056,-0.07093 0.180709,-0.02392 0.212099,-0.0081 0.431251,0.216656 0.115064,0.11803 0.220576,0.210845 0.234473,0.206255 0.04542,-0.015 0.0067,-0.0703 -0.179869,-0.256791 -0.18105,-0.180995 -0.182694,-0.184026 -0.112111,-0.206813 0.09641,-0.03108 0.141464,-0.01532 0.243642,0.08541 0.08484,0.08364 0.188453,0.102351 0.12001,0.02168 -0.117858,-0.138926 -0.11782,-0.131145 -7.39e-4,-0.145458 0.06099,-0.0074 0.120484,-0.01672 0.132208,-0.0206 0.01172,-0.0039 0.114328,0.08837 0.228009,0.204977 0.192412,0.197371 0.275441,0.250369 0.244153,0.155848 -0.0072,-0.02172 -0.08598,-0.116051 -0.175096,-0.20964 l -0.162026,-0.170162 0.125628,-0.01967 c 0.0691,-0.01081 0.155513,-0.02935 0.192029,-0.04121 0.04795,-0.01553 0.0918,0.009 0.157775,0.08842 0.05025,0.06048 0.108395,0.104341 0.12919,0.09747 0.03648,-0.01205 0.01561,-0.05888 -0.07152,-0.160318 -0.03607,-0.04201 -0.02049,-0.05455 0.128801,-0.103867 l 0.169824,-0.0561 0.173213,0.214319 c 0.301242,0.37273 0.329525,0.401651 0.351033,0.358928 0.01296,-0.02573 -0.05446,-0.131342 -0.186463,-0.292065 -0.113715,-0.138461 -0.209282,-0.259391 -0.212368,-0.268733 -0.0031,-0.0093 0.06527,-0.0404 0.151915,-0.06902 0.150774,-0.0498 0.161145,-0.04786 0.241945,0.04523 0.09735,0.11216 0.168187,0.08066 0.0754,-0.03353 -0.03214,-0.03955 -0.05456,-0.0796 -0.04983,-0.089 0.0047,-0.0094 0.09049,-0.04736 0.190576,-0.08437 l 0.181973,-0.06727 0.134912,0.191717 c 0.0742,0.105443 0.152985,0.185845 0.175069,0.178669 0.04341,-0.01411 0.007,-0.08582 -0.143328,-0.281994 -0.04601,-0.06006 -0.08101,-0.114489 -0.07778,-0.12093 0.0032,-0.0065 0.07444,-0.0449 0.158209,-0.08547 l 0.152311,-0.07375 0.08166,0.116804 c 0.04491,0.06424 0.09531,0.112299 0.111983,0.10679 0.03871,-0.01279 0.01603,-0.08141 -0.05635,-0.170477 -0.05238,-0.06447 -0.04936,-0.07362 0.03932,-0.119606 0.05283,-0.02739 0.14994,-0.0719 0.215811,-0.0989 l 0.11977,-0.04909 0.19575,0.249144 c 0.10766,0.137031 0.213593,0.249193 0.2354,0.249252 0.05946,1.62e-4 0.03569,-0.04238 -0.16342,-0.292523 -0.182152,-0.228841 -0.195355,-0.280083 -0.08223,-0.319165 0.01946,-0.0067 0.07539,-0.03494 0.124288,-0.0627 0.08166,-0.04636 0.09504,-0.04222 0.164062,0.05092 0.04134,0.05578 0.09474,0.09493 0.118686,0.08702 0.03684,-0.01217 0.03082,-0.03082 -0.03915,-0.121365 l -0.08272,-0.106974 0.182438,-0.11283 0.18244,-0.112831 0.134209,0.212608 c 0.085,0.134657 0.150042,0.207378 0.177399,0.198342 0.02618,-0.0086 0.02968,-0.03395 0.0089,-0.06425 -0.01887,-0.0275 -0.07041,-0.106052 -0.114523,-0.174582 -0.04412,-0.06853 -0.09419,-0.141684 -0.11127,-0.162567 -0.0215,-0.0263 0.0074,-0.06275 0.09416,-0.118587 0.06886,-0.04434 0.14703,-0.09558 0.17371,-0.113852 0.03714,-0.02545 0.06704,-0.0051 0.127642,0.08701 0.05314,0.08075 0.08614,0.106337 0.100448,0.07791 0.0141,-0.02801 -0.0015,-0.07658 -0.04632,-0.143596 l -0.06758,-0.10128 0.125606,-0.07975 c 0.06908,-0.04386 0.13861,-0.08404 0.154506,-0.08929 0.03397,-0.01122 0.75525,1.038854 0.73762,1.073874 -0.02699,0.05363 -0.991273,0.616173 -1.28648,0.750516 -0.630247,0.286807 -1.518648,0.622576 -1.788995,0.676135 z"
       id="path6" /><path
       style="fill:#ffffff;stroke:#000000;stroke-width:0.150888;stroke-linecap:round;stroke-linejoin:bevel;stroke-opacity:1"
       d="m 78.502081,41.334165 c -0.03925,-0.0593 -0.207384,-0.306935 -0.373638,-0.550303 -0.166255,-0.24337 -0.299956,-0.444402 -0.297115,-0.446739 0.03356,-0.02762 0.327107,-0.229596 0.339733,-0.233766 0.0093,-0.0031 0.03958,0.03423 0.06723,0.0829 0.07133,0.125626 0.127842,0.09007 0.07088,-0.04459 -0.0464,-0.109681 -0.04515,-0.112157 0.12012,-0.241658 l 0.166997,-0.130847 0.104785,0.211163 c 0.06056,0.122043 0.115918,0.200094 0.131163,0.184933 0.02974,-0.02958 0.02293,-0.0511 -0.09168,-0.289679 -0.08032,-0.167225 -0.0804,-0.171422 -0.0037,-0.231682 0.04295,-0.03376 0.099,-0.07915 0.124551,-0.100887 0.03609,-0.03069 0.06005,-0.01847 0.107344,0.05493 0.08561,0.132818 0.172691,0.12891 0.09498,-0.0043 -0.03176,-0.05442 -0.06355,-0.109853 -0.07067,-0.12318 -0.0071,-0.01331 0.06087,-0.09302 0.151082,-0.177097 l 0.164005,-0.152867 0.133378,0.268255 c 0.120595,0.242563 0.184533,0.321835 0.213362,0.264565 0.0057,-0.01119 -0.05586,-0.144068 -0.136683,-0.295265 -0.08081,-0.151201 -0.143876,-0.280038 -0.14015,-0.286305 0.0037,-0.0062 0.05589,-0.06056 0.115911,-0.120655 l 0.109135,-0.109262 0.05672,0.102724 c 0.08141,0.147461 0.141092,0.111018 0.06354,-0.0388 -0.06114,-0.118128 -0.06066,-0.11996 0.07162,-0.266906 0.07324,-0.08138 0.145873,-0.144927 0.161395,-0.141218 0.01552,0.0037 0.06273,0.07939 0.104884,0.168188 0.04217,0.08879 0.0952,0.176995 0.117841,0.196005 0.08125,0.06818 0.06894,-0.02711 -0.02479,-0.191882 -0.138702,-0.243804 -0.139964,-0.260994 -0.02833,-0.383323 l 0.101566,-0.111297 0.05784,0.104744 c 0.03181,0.05761 0.07606,0.09873 0.09835,0.09137 0.03115,-0.01029 0.02377,-0.0413 -0.03193,-0.134226 -0.03984,-0.06647 -0.06944,-0.12533 -0.06576,-0.130814 0.0037,-0.0055 0.05993,-0.06966 0.125011,-0.142598 l 0.118331,-0.132623 0.15565,0.291011 c 0.200823,0.37546 0.222469,0.406613 0.247696,0.356501 0.0131,-0.02602 -0.04561,-0.159754 -0.163972,-0.373598 -0.1014,-0.183189 -0.180998,-0.337583 -0.176878,-0.343097 0.18469,-0.247177 0.190489,-0.25155 0.219018,-0.165181 0.02826,0.08557 0.08578,0.149712 0.123171,0.137361 0.01971,-0.0065 0.0062,-0.06107 -0.03541,-0.143499 -0.06508,-0.128788 -0.06427,-0.136842 0.0258,-0.254585 l 0.093,-0.12159 0.12789,0.186301 c 0.07034,0.102468 0.140063,0.182281 0.154938,0.177368 0.03961,-0.01309 0.0029,-0.100769 -0.108426,-0.258805 -0.05405,-0.07674 -0.102046,-0.150977 -0.106666,-0.164963 -0.0087,-0.02622 0.158603,-0.258305 0.194777,-0.270254 0.01117,-0.0037 0.04292,0.03312 0.07057,0.0818 0.0817,0.143878 0.128961,0.08577 0.05281,-0.06492 -0.06011,-0.118965 -0.0601,-0.139783 1.58e-4,-0.230712 l 0.06623,-0.09995 0.135884,0.239355 c 0.07472,0.131647 0.147939,0.245422 0.162672,0.252839 0.06754,0.034 0.03886,-0.05335 -0.09845,-0.299643 l -0.148599,-0.266647 0.06556,-0.111712 c 0.079,-0.134616 0.105927,-0.148611 0.132299,-0.06877 0.03004,0.09092 0.08805,0.151199 0.114833,0.119291 0.01305,-0.01554 -0.0044,-0.08458 -0.03872,-0.153432 -0.05788,-0.115995 -0.05658,-0.134002 0.01751,-0.245602 l 0.07996,-0.120431 0.102631,0.195534 c 0.05644,0.107546 0.113038,0.200795 0.125788,0.207214 0.06383,0.03213 0.03976,-0.06497 -0.06338,-0.255571 -0.113297,-0.209397 -0.113939,-0.212815 -0.06148,-0.317053 0.05996,-0.119102 0.124795,-0.122371 0.162507,-0.0082 0.01401,0.04242 0.04075,0.07206 0.05945,0.06588 0.02065,-0.0068 0.01149,-0.06743 -0.0233,-0.154434 -0.05052,-0.126349 -0.04915,-0.155501 0.01068,-0.24723 0.03737,-0.05721 0.07533,-0.100303 0.08435,-0.09576 0.009,0.0045 0.136188,0.25746 0.282576,0.562045 l 0.266172,0.553787 -0.103481,0.188143 c -0.432257,0.785918 -0.934716,1.535962 -1.554085,2.319858 -0.567876,0.718725 -0.979714,1.157884 -1.632343,1.740634 -0.25114,0.224251 -0.895327,0.725078 -0.960182,0.746502 -0.0083,0.0028 -0.04727,-0.04351 -0.08652,-0.102811 z"
       id="path7" /><path
       style="fill:#ffffff;stroke:#000000;stroke-width:0.150888;stroke-linecap:round;stroke-linejoin:bevel;stroke-opacity:1"
       d="m 82.896282,36.297536 c -0.009,-0.02447 -0.131911,-0.286341 -0.273401,-0.58184 -0.241478,-0.504371 -0.254938,-0.541325 -0.219702,-0.603395 0.03378,-0.05952 0.04118,-0.06164 0.07418,-0.02126 0.02015,0.02466 0.04593,0.07293 0.05728,0.107289 0.01255,0.03798 0.03166,0.04933 0.04872,0.02898 0.01697,-0.02023 0.0048,-0.0829 -0.03089,-0.15829 -0.05331,-0.112762 -0.05169,-0.136609 0.01661,-0.247198 l 0.07561,-0.122402 0.116977,0.22521 c 0.147986,0.28497 0.214806,0.284233 0.08567,-9.72e-4 -0.05124,-0.113148 -0.111456,-0.223331 -0.133844,-0.24484 -0.02775,-0.02671 -0.02248,-0.06522 0.01656,-0.121336 0.05708,-0.08198 0.05738,-0.08196 0.108448,0.0079 0.07699,0.135554 0.12171,0.08926 0.05669,-0.05867 -0.04931,-0.112149 -0.04779,-0.14336 0.01129,-0.246369 0.0593,-0.103266 0.07259,-0.112253 0.106682,-0.07213 0.02142,0.0252 0.07166,0.141452 0.111633,0.258321 0.05474,0.160555 0.08352,0.208907 0.117054,0.197831 0.03624,-0.01197 0.02266,-0.07021 -0.07404,-0.317146 -0.10773,-0.275122 -0.114417,-0.309508 -0.07391,-0.380135 0.04357,-0.07598 0.04579,-0.07538 0.102566,0.02745 0.08655,0.156758 0.140264,0.111989 0.05888,-0.04908 -0.06056,-0.119871 -0.06069,-0.140828 -0.0015,-0.230266 l 0.0652,-0.0984 0.0451,0.06694 c 0.02482,0.0368 0.06649,0.126878 0.09263,0.200141 0.03047,0.08554 0.06193,0.12845 0.08782,0.119897 0.03096,-0.01022 0.01698,-0.06843 -0.06002,-0.250241 -0.09157,-0.216151 -0.09613,-0.243712 -0.05224,-0.314426 0.06298,-0.101466 0.09025,-0.109033 0.11567,-0.03207 0.01148,0.03475 0.03507,0.05849 0.05246,0.05275 0.01739,-0.0057 0.01677,-0.05678 -0.0013,-0.113432 -0.02299,-0.07243 -0.01523,-0.12762 0.02653,-0.185819 0.03269,-0.04555 0.07435,-0.07926 0.09257,-0.07491 0.01821,0.0044 0.08794,0.139832 0.154954,0.301056 0.09466,0.227799 0.132189,0.289714 0.168387,0.277757 0.02936,-0.0097 0.03394,-0.03388 0.01242,-0.06542 -0.0188,-0.02752 -0.08888,-0.183581 -0.155778,-0.346804 -0.118014,-0.287937 -0.119926,-0.299067 -0.06444,-0.37391 0.05543,-0.07479 0.05827,-0.0748 0.09356,-5.33e-4 0.01998,0.04214 0.05587,0.07017 0.07968,0.06231 0.03147,-0.01039 0.02904,-0.04166 -0.0089,-0.114619 -0.04493,-0.08632 -0.04218,-0.114009 0.01982,-0.198494 l 0.07204,-0.09817 0.09955,0.176581 c 0.05476,0.09712 0.114852,0.171529 0.133574,0.165345 0.03267,-0.01079 -6.32e-4,-0.09208 -0.133366,-0.325608 -0.05226,-0.09195 -0.05233,-0.09186 0.118269,-0.258065 0.0109,-0.01068 0.03199,0.01736 0.04681,0.06224 0.01735,0.05254 0.04434,0.07586 0.07578,0.06548 0.03831,-0.01266 0.03696,-0.0376 -0.0062,-0.115851 -0.04986,-0.09031 -0.04685,-0.109495 0.03178,-0.203199 0.113005,-0.134657 0.120549,-0.135318 0.160953,-0.01408 0.06404,0.192538 0.183533,0.421129 0.214537,0.410888 0.01958,-0.0065 -0.01331,-0.116695 -0.08964,-0.300371 -0.112793,-0.271457 -0.117187,-0.293714 -0.06801,-0.345418 0.07235,-0.07607 0.074,-0.07576 0.130676,0.02405 0.07605,0.133928 0.133349,0.08945 0.061,-0.04735 -0.05829,-0.110201 -0.05697,-0.115167 0.06112,-0.229951 0.106352,-0.103391 0.122722,-0.111108 0.137944,-0.06503 0.043,0.130196 0.222341,0.428242 0.251824,0.418503 0.03151,-0.01041 -0.02182,-0.14355 -0.16137,-0.402879 -0.05271,-0.098 -0.05015,-0.110666 0.04019,-0.197217 0.124042,-0.11884 0.120556,-0.118678 0.157296,-0.0074 0.01721,0.05212 0.0455,0.09008 0.06289,0.08434 0.01739,-0.0057 0.01492,-0.06092 -0.0055,-0.122611 -0.0327,-0.09898 -0.0255,-0.122206 0.06119,-0.197447 0.05404,-0.0469 0.103916,-0.08228 0.110849,-0.07862 0.007,0.0036 0.09195,0.193287 0.188949,0.421393 0.09701,0.228101 0.200928,0.463544 0.230962,0.523193 l 0.05463,0.108447 -0.353026,0.343489 c -0.399016,0.388237 -0.9766,1.058422 -1.268912,1.472347 -0.155556,0.220275 -1.247945,1.98645 -1.472361,2.380514 -0.03722,0.06536 -0.054,0.07629 -0.06606,0.04304 z"
       id="path8" /><path
       style="fill:#ffffff;stroke:#000000;stroke-width:0.0754433;stroke-linecap:round;stroke-linejoin:bevel;stroke-opacity:1"
       d="m 86.1302,31.970775 c -0.01087,-0.01896 -0.110895,-0.248759 -0.222269,-0.510657 -0.111359,-0.261903 -0.2118,-0.494003 -0.223219,-0.515772 -0.01937,-0.03696 -0.01433,-0.04472 0.07645,-0.117223 0.05346,-0.0427 0.103897,-0.07985 0.112089,-0.08256 0.0082,-0.0027 0.03132,0.04484 0.05141,0.105647 0.03378,0.102271 0.03891,0.109778 0.07014,0.09946 0.03238,-0.0107 0.0317,-0.01559 -0.01845,-0.13226 l -0.05206,-0.121155 0.130903,-0.09759 c 0.072,-0.05367 0.136209,-0.09934 0.142707,-0.101488 0.0065,-0.0021 0.04585,0.09916 0.08746,0.225124 0.07217,0.218496 0.07719,0.228518 0.107239,0.218592 0.03021,-0.01 0.02811,-0.02096 -0.04864,-0.253301 l -0.08023,-0.242867 0.118771,-0.07531 c 0.06533,-0.04142 0.125621,-0.07367 0.133991,-0.07167 0.0084,0.002 0.03035,0.04941 0.04884,0.105369 0.03005,0.09099 0.03684,0.100668 0.065,0.09136 0.02941,-0.0097 0.0283,-0.01761 -0.01725,-0.124352 l -0.04864,-0.113984 0.05623,-0.03609 c 0.116416,-0.07472 0.228723,-0.133438 0.242295,-0.126686 0.0077,0.0039 0.06034,0.121196 0.116893,0.260775 0.05656,0.139576 0.109298,0.257007 0.117139,0.260976 0.0079,0.004 0.0198,-0.0036 0.02649,-0.01693 0.0091,-0.01815 -0.01397,-0.08866 -0.0926,-0.283164 -0.07608,-0.187717 -0.101188,-0.263446 -0.09118,-0.275354 0.0075,-0.0091 0.05128,-0.03422 0.09711,-0.05599 0.04583,-0.02179 0.09167,-0.04639 0.101863,-0.05472 0.01431,-0.01172 0.02612,0.0078 0.05189,0.08519 0.04416,0.133006 0.08888,0.216301 0.108239,0.201696 0.01003,-0.0076 -0.0027,-0.06778 -0.0356,-0.16814 l -0.05121,-0.156362 0.103864,-0.05546 c 0.05712,-0.0305 0.126815,-0.06352 0.154873,-0.07338 l 0.05102,-0.01788 0.06261,0.189538 c 0.05217,0.157949 0.0666,0.18822 0.08629,0.181718 0.01977,-0.0066 0.01302,-0.04007 -0.04089,-0.203284 l -0.06457,-0.195461 0.042,-0.02385 c 0.0231,-0.01317 0.09477,-0.04675 0.159261,-0.07472 l 0.117255,-0.05088 0.03985,0.120639 c 0.03637,0.110111 0.04239,0.119804 0.07147,0.110197 0.02891,-0.0096 0.02813,-0.02098 -0.0097,-0.135546 l -0.04132,-0.125102 0.103438,-0.04482 c 0.05688,-0.02467 0.129567,-0.05738 0.161491,-0.07271 l 0.05806,-0.02789 0.0545,0.197054 c 0.03023,0.108296 0.07336,0.267684 0.09644,0.354004 0.04038,0.151146 0.04318,0.156539 0.07482,0.146089 0.02966,-0.0098 0.0298,-0.02058 0.0016,-0.110011 -0.06062,-0.192056 -0.168332,-0.585579 -0.162924,-0.595167 0.0031,-0.0053 0.06954,-0.0364 0.147891,-0.06903 l 0.142439,-0.05935 0.04735,0.14334 c 0.04387,0.13281 0.04988,0.142502 0.07896,0.132896 0.02923,-0.0097 0.02814,-0.02097 -0.01534,-0.152598 l -0.04698,-0.142228 0.150055,-0.04957 c 0.123576,-0.04082 0.151445,-0.04533 0.157962,-0.02561 0.0044,0.01318 0.02306,0.117933 0.04162,0.232777 0.03377,0.209019 0.04414,0.237878 0.08149,0.22554 0.01351,-0.0045 0.0082,-0.07232 -0.01608,-0.209287 -0.05488,-0.308571 -0.06541,-0.271871 0.09349,-0.324044 0.07512,-0.02466 0.147146,-0.04221 0.160091,-0.03891 0.0178,0.0045 0.02733,0.03 0.0389,0.10513 0.0221,0.139927 0.03989,0.187458 0.06682,0.178563 0.02784,-0.0092 0.02715,-0.03749 -0.0042,-0.178416 -0.01373,-0.06064 -0.01964,-0.116241 -0.01365,-0.123402 0.0091,-0.01085 0.338694,-0.08842 0.350466,-0.0825 0.0042,0.0023 0.119859,0.487369 0.140778,0.591447 0.01208,0.06004 0.01841,0.06837 0.04329,0.06015 0.03382,-0.01117 0.03102,-0.02998 -0.06258,-0.414727 l -0.06057,-0.24897 0.0833,-0.01633 c 0.04583,-0.009 0.10846,-0.01995 0.139217,-0.02439 l 0.0559,-0.0081 0.0138,0.07639 c 0.0076,0.04202 0.01427,0.09003 0.01489,0.106691 8.09e-4,0.02163 0.0098,0.02744 0.03251,0.01992 0.02231,-0.0074 0.02954,-0.02495 0.02489,-0.06078 -0.0036,-0.02771 -0.0095,-0.07373 -0.01314,-0.102239 -0.0055,-0.04261 -1.52e-4,-0.05238 0.03001,-0.05498 0.0202,-0.0017 0.101712,-0.01141 0.181212,-0.02149 l 0.144562,-0.01833 0.02325,0.2479 c 0.01276,0.136352 0.02397,0.25006 0.02484,0.252701 8.91e-4,0.0026 0.01578,7.4e-5 0.03319,-0.0057 0.01741,-0.0057 0.0303,-0.01444 0.02866,-0.01939 -0.0034,-0.01022 -0.04771,-0.471958 -0.04583,-0.477311 7.22e-4,-0.0019 0.07391,-0.01 0.162738,-0.01785 0.123931,-0.011 0.163005,-0.0083 0.167948,0.01174 0.0034,0.01438 0.01701,0.07525 0.02999,0.13533 0.02172,0.100555 0.02573,0.108055 0.05076,0.09416 0.0219,-0.01218 0.0226,-0.03837 0.0035,-0.134133 -0.01305,-0.06546 -0.01942,-0.120396 -0.01405,-0.122107 0.01893,-0.006 0.365288,-0.01958 0.375048,-0.01467 0.0099,0.005 0.185306,1.058041 0.178466,1.071629 -0.0015,0.0037 -0.07604,0.01125 -0.164558,0.0162 -0.321207,0.01796 -1.228245,0.169324 -1.682833,0.280832 -0.297352,0.07294 -0.959337,0.305695 -1.294864,0.455284 -0.749171,0.334008 -1.291719,0.651024 -1.930964,1.128283 -0.170036,0.12695 -0.319697,0.23968 -0.332578,0.250514 -0.01734,0.01459 -0.02852,0.01079 -0.04323,-0.01477 z"
       id="path9" /><path
       style="fill:#ffffff;stroke:#000000;stroke-width:0.0754433;stroke-linecap:round;stroke-linejoin:bevel;stroke-opacity:1"
       d="m 94.100337,30.266687 c -0.406778,-0.151439 -0.848822,-0.256713 -1.353718,-0.322392 -0.265673,-0.03456 -0.820227,-0.07719 -0.984119,-0.07566 -0.036,3.32e-4 -0.06866,-0.009 -0.07255,-0.02083 -0.0098,-0.02979 -0.175741,-1.058799 -0.171921,-1.066379 0.003,-0.0057 0.220595,-0.01291 0.231022,-0.0077 0.0026,0.0013 0.0115,0.05391 0.02007,0.116881 0.01302,0.09705 0.01921,0.114713 0.04036,0.115716 0.03619,0.0017 0.03791,-0.0095 0.01994,-0.128944 l -0.01624,-0.107828 0.154735,7.06e-4 c 0.0851,3.85e-4 0.157012,0.0076 0.159797,0.01603 0.0028,0.0084 0.01328,0.09991 0.02337,0.20329 0.02117,0.217748 0.02929,0.249702 0.06084,0.23928 0.02458,-0.0081 0.02444,-0.04883 -8.91e-4,-0.274734 -0.0085,-0.07619 -0.0132,-0.148207 -0.01035,-0.160072 0.0036,-0.01527 0.04329,-0.02069 0.135865,-0.01869 0.193986,0.0043 0.174768,-0.01565 0.195772,0.203112 0.0028,0.02963 0.01051,0.03594 0.0348,0.02792 0.02539,-0.0084 0.02878,-0.02874 0.01841,-0.111193 -0.007,-0.0555 -0.0074,-0.10269 -7.92e-4,-0.104848 0.01913,-0.0063 0.254374,0.005 0.269596,0.01295 0.01226,0.0064 0.09501,0.340802 0.138042,0.557512 0.01371,0.06912 0.0194,0.0768 0.04538,0.06822 0.03366,-0.01112 0.0322,-0.02124 -0.05802,-0.403782 l -0.05235,-0.221715 0.14538,0.01245 c 0.08,0.0068 0.147576,0.01355 0.150245,0.01489 0.0022,0.0015 0.0061,0.0648 0.0076,0.140987 0.0015,0.07619 0.0033,0.140329 0.004,0.1425 7.36e-4,0.0023 0.0153,-6.24e-4 0.03221,-0.0062 0.02474,-0.0082 0.03017,-0.03537 0.02704,-0.13594 -0.0021,-0.06915 -0.0025,-0.128645 -9.71e-4,-0.132179 0.0032,-0.0059 0.298954,0.03323 0.318291,0.04189 0.004,0.0019 0.01821,0.112691 0.03085,0.246167 0.02809,0.29641 0.0234,0.274199 0.05721,0.270738 0.02325,-0.0024 0.02448,-0.04358 0.007,-0.23775 -0.01165,-0.129179 -0.01786,-0.242467 -0.0137,-0.251795 0.0076,-0.01703 0.255727,0.01199 0.280487,0.03277 0.0081,0.0059 0.01667,0.07944 0.02096,0.16296 0.0081,0.153806 0.01562,0.178227 0.0531,0.165864 0.01327,-0.0044 0.01667,-0.06326 0.0091,-0.160686 -0.0065,-0.08456 -0.0083,-0.15495 -0.004,-0.156371 0.02096,-0.007 0.190603,0.03221 0.194812,0.04495 0.0024,0.008 0.0032,0.07938 0.0016,0.158596 -0.0049,0.228362 0.01562,0.678336 0.04225,0.944896 l 0.02444,0.244821 z"
       id="path25" /><path
       style="fill:#ffffff;stroke:#000000;stroke-width:0.0754433;stroke-linecap:round;stroke-linejoin:bevel;stroke-opacity:1"
       d="m 70.341842,41.986579 c -0.207535,-0.05314 -0.412276,-0.136309 -0.678217,-0.275527 -0.242199,-0.126788 -1.184751,-0.698574 -1.176985,-0.714 0.0059,-0.01177 0.815625,0.05561 0.882267,0.0734 0.09664,0.02581 0.372569,0.239862 0.764441,0.593012 0.285463,0.257257 0.386312,0.354148 0.373136,0.358499 -0.0064,0.0021 -0.08044,-0.01382 -0.164642,-0.03539 z"
       id="path86" /><path
       style="fill:#ffffff;stroke:#000000;stroke-width:0.106694;stroke-linecap:round;stroke-linejoin:bevel;stroke-opacity:1"
       d="m 86.147774,31.893146 c -0.0053,-0.01529 -0.100522,-0.237249 -0.211697,-0.493231 -0.111169,-0.255984 -0.197223,-0.474826 -0.191263,-0.486305 0.006,-0.01149 0.03629,-0.03685 0.06733,-0.05635 0.05454,-0.03428 0.05742,-0.03245 0.08623,0.0548 0.02357,0.07136 0.04041,0.09014 0.08036,0.08968 0.08804,-0.0011 0.107342,-0.06785 0.05239,-0.181332 l -0.04855,-0.100212 0.09316,-0.07043 c 0.05123,-0.03875 0.09601,-0.07138 0.0995,-0.07253 0.0036,-0.0012 0.0396,0.08887 0.08024,0.200037 0.05845,0.159921 0.08329,0.204452 0.11884,0.213248 0.03258,0.008 0.05204,-1.99e-4 0.07062,-0.02997 0.02036,-0.03256 0.01005,-0.08835 -0.04997,-0.270063 l -0.07564,-0.229015 0.0652,-0.03701 c 0.112603,-0.06393 0.121816,-0.06188 0.162277,0.0362 0.034,0.08253 0.04433,0.09065 0.09407,0.07422 0.0514,-0.01698 0.05352,-0.02846 0.02662,-0.144398 l -0.0292,-0.125956 0.09065,-0.05108 c 0.04986,-0.02809 0.09711,-0.04782 0.105009,-0.04385 0.0079,0.004 0.06038,0.112915 0.116597,0.2421 0.05622,0.129184 0.113424,0.240645 0.12707,0.247711 0.01364,0.007 0.0449,-0.0017 0.06945,-0.01944 0.04371,-0.03163 0.04253,-0.03787 -0.05747,-0.305549 -0.07089,-0.189821 -0.09469,-0.275812 -0.07768,-0.281665 0.01344,-0.0046 0.045,-0.02194 0.0702,-0.03846 0.04199,-0.02756 0.04831,-0.02252 0.07571,0.06043 0.04082,0.123559 0.101924,0.193806 0.153753,0.176686 0.04652,-0.01537 0.04532,-0.09904 -0.0036,-0.247017 -0.03081,-0.09328 -0.01297,-0.119142 0.110256,-0.159847 l 0.07636,-0.02522 0.05015,0.150663 c 0.05604,0.168326 0.08973,0.208589 0.147569,0.176391 0.0341,-0.01902 0.0321,-0.04674 -0.01529,-0.209142 -0.05905,-0.202512 -0.06122,-0.196151 0.08524,-0.263868 l 0.09134,-0.04224 0.02821,0.0854 c 0.03722,0.11268 0.07009,0.149937 0.118214,0.134043 0.05883,-0.01943 0.0709,-0.07345 0.04195,-0.187766 l -0.02599,-0.102416 0.111771,-0.04982 0.111768,-0.04983 0.02449,0.10391 c 0.05993,0.254029 0.139342,0.525245 0.161985,0.552869 0.02547,0.0311 0.124996,0.01211 0.134002,-0.02557 0.0031,-0.01178 -0.03658,-0.171495 -0.08747,-0.355114 l -0.09257,-0.333841 0.107335,-0.03545 0.107341,-0.03546 0.04911,0.126232 c 0.04465,0.114023 0.05449,0.12526 0.104939,0.116152 0.07382,-0.01333 0.08181,-0.05827 0.03555,-0.19972 l -0.03839,-0.117386 0.07271,-0.02363 c 0.119523,-0.03886 0.136366,-0.02495 0.161367,0.133294 0.03321,0.209855 0.06868,0.30266 0.116553,0.304956 0.06806,0.0032 0.08362,-0.05639 0.05791,-0.222377 -0.04809,-0.310398 -0.05317,-0.284848 0.06512,-0.323922 l 0.105386,-0.03481 0.03781,0.144876 c 0.03216,0.12316 0.04448,0.145219 0.08278,0.14699 0.06622,0.0032 0.08907,-0.06433 0.06613,-0.194902 l -0.02022,-0.1148 0.135994,-0.03625 c 0.07479,-0.01994 0.139247,-0.03476 0.143223,-0.03292 0.0041,0.0018 0.01531,0.06108 0.02529,0.131631 0.0099,0.07056 0.04363,0.214611 0.07486,0.320118 0.05387,0.182154 0.05907,0.191463 0.107809,0.182669 0.07454,-0.01339 0.0751,-0.07066 0.0037,-0.377869 -0.035,-0.150485 -0.06164,-0.276932 -0.05921,-0.280992 0.0022,-0.004 0.03905,-0.01327 0.08141,-0.02041 0.07302,-0.01238 0.07826,-0.0085 0.100584,0.07543 0.04344,0.16316 0.159874,0.142575 0.15546,-0.02749 -0.002,-0.07823 -9.2e-5,-0.08005 0.103802,-0.09828 0.05824,-0.01023 0.116298,-0.01359 0.129051,-0.0075 0.01275,0.0061 0.03339,0.111647 0.04558,0.234658 0.02372,0.236849 0.04173,0.268778 0.127648,0.226261 0.04483,-0.02214 0.04837,-0.05172 0.03242,-0.266749 -0.0165,-0.222583 -0.01376,-0.242572 0.03467,-0.251283 0.02898,-0.0051 0.0555,-8.09e-4 0.059,0.0098 0.0035,0.01058 0.02998,0.015 0.0588,0.0098 0.04704,-0.0085 0.05668,0.0032 0.09306,0.112895 0.03419,0.10305 0.04778,0.121422 0.08654,0.116564 0.0577,-0.0072 0.08468,-0.08614 0.05752,-0.168343 -0.02408,-0.07289 0.0013,-0.08655 0.168292,-0.09053 0.08453,-0.002 0.112494,0.0076 0.118576,0.04098 0.03584,0.196495 0.144836,0.91313 0.140235,0.922268 -0.0034,0.0064 -0.135934,0.02607 -0.294953,0.0438 -0.159013,0.01772 -0.513566,0.07021 -0.787877,0.116638 -0.48496,0.08209 -0.518841,0.09106 -1.224753,0.324126 -0.573897,0.189493 -0.788694,0.269871 -1.025263,0.383738 -0.64054,0.308303 -1.108283,0.589545 -1.665341,1.001328 -0.181474,0.134146 -0.336788,0.246164 -0.345139,0.248922 -0.0084,0.0028 -0.01947,-0.0075 -0.02474,-0.0228 z"
       id="path87" /><path
       style="fill:#ffffff;stroke:#000000;stroke-width:0.106694;stroke-linecap:round;stroke-linejoin:bevel;stroke-opacity:1"
       d="m 94.060321,30.196905 c -0.499976,-0.180518 -1.292677,-0.326074 -1.990798,-0.365555 -0.166625,-0.0094 -0.311526,-0.02128 -0.322004,-0.02634 -0.01052,-0.005 -0.0533,-0.220865 -0.09517,-0.479554 -0.06766,-0.418205 -0.07149,-0.47258 -0.0345,-0.490433 0.0806,-0.03889 0.115636,-0.0109 0.112812,0.09013 -0.0023,0.08016 0.0035,0.09388 0.0487,0.116619 0.06998,0.03521 0.114241,-0.02158 0.104462,-0.133931 -0.0073,-0.08397 -0.0057,-0.08596 0.07111,-0.08576 0.04325,1.09e-4 0.08952,0.005 0.102877,0.01082 0.01336,0.0058 0.03447,0.09583 0.04671,0.200062 0.02441,0.206239 0.05216,0.262153 0.118966,0.240084 0.05072,-0.01675 0.06299,-0.114516 0.03947,-0.31482 l -0.0159,-0.135498 0.109815,0.004 c 0.09741,0.0035 0.110659,0.01082 0.117317,0.06483 0.01475,0.119784 0.02773,0.146844 0.07593,0.158735 0.04022,0.0099 0.05352,1.29e-4 0.07475,-0.05497 0.01425,-0.03688 0.01958,-0.08602 0.01191,-0.109227 -0.01675,-0.05071 -0.01453,-0.05173 0.09867,-0.04322 l 0.08883,0.0068 0.04388,0.190886 c 0.02418,0.104969 0.06214,0.246172 0.08438,0.313767 0.03604,0.109302 0.04622,0.121845 0.0916,0.1137 0.07339,-0.01317 0.07586,-0.07531 0.01287,-0.326439 -0.06792,-0.270896 -0.06533,-0.2881 0.04088,-0.271144 l 0.08063,0.01288 0.0028,0.116721 c 0.0041,0.169155 0.01112,0.180248 0.09131,0.144812 0.05904,-0.02615 0.06996,-0.04574 0.07264,-0.130858 0.0018,-0.05508 0.0042,-0.103797 0.0054,-0.108218 0.0011,-0.0044 0.05516,-0.0011 0.11973,0.0076 0.102236,0.0137 0.116837,0.02262 0.113039,0.06909 -0.0057,0.06901 0.02412,0.367694 0.04202,0.421906 0.01873,0.0567 0.116607,0.05442 0.135198,-0.0032 0.0078,-0.02402 0.0058,-0.130674 -0.0042,-0.237004 -0.01006,-0.10633 -0.0094,-0.196258 0.0015,-0.199863 0.01091,-0.0036 0.05511,-8.9e-4 0.09828,0.006 0.05372,0.0086 0.07881,0.0257 0.07955,0.05424 0.0032,0.115699 0.02525,0.254195 0.04468,0.278091 0.01174,0.01488 0.04484,0.01931 0.07276,0.01009 0.05221,-0.01724 0.06467,-0.07257 0.05269,-0.232366 -0.0049,-0.06704 2.43e-4,-0.07485 0.04152,-0.06138 0.04395,0.01436 0.04751,0.03157 0.05026,0.247913 0.0016,0.127865 0.01392,0.401318 0.0272,0.607679 0.01327,0.206372 0.02274,0.378113 0.02088,0.381668 -0.0016,0.0034 -0.08531,-0.02316 -0.185585,-0.05938 z"
       id="path88" /><path
       style="fill:none;stroke:#000000;stroke-width:0.379507;stroke-linecap:round;stroke-linejoin:round;stroke-dasharray:none;stroke-opacity:1"
       d="m 70.290299,40.570479 c 0.269616,0.117165 0.543665,0.236252 0.746088,0.295084 0.202434,0.0588 0.335443,0.05835 0.454977,0.04696 0.119521,-0.01143 0.229318,-0.03457 0.337701,-0.08653 0.108378,-0.05193 0.217267,-0.133029 0.306193,-0.308047 0.08892,-0.17502 0.157549,-0.44404 -0.07478,-1.523461 -0.232665,-1.079511 -0.766964,-2.969523 -1.002914,-3.915711 -0.235939,-0.946184 -0.173451,-0.948512 -0.123318,-0.911733 0.05013,0.03678 0.08836,0.112594 0.24624,0.387069 0.158305,0.27441 0.437008,0.747344 0.722197,1.162374 0.285216,0.415026 0.57682,0.772131 1.044403,1.307736 0.467571,0.535603 1.11107,1.249668 1.598237,1.743903 0.487101,0.494247 0.817841,0.768636 1.056039,0.936771 0.238197,0.168137 0.383927,0.23003 0.511866,0.264768 0.127928,0.03474 0.238097,0.04236 0.293149,0.04778 0.05509,0.0055 0.05491,0.0087 0.07859,0.0048 0.02369,-0.004 0.07127,-0.01527 0.129213,-0.03678 0.05795,-0.02152 0.126302,-0.05334 0.265898,-0.219652 0.139573,-0.166315 0.350429,-0.467112 0.484833,-0.940596 0.134466,-0.473467 0.192405,-1.119611 0.173965,-1.699923 -0.01843,-0.580313 -0.113299,-1.09477 -0.209013,-1.480169 -0.0957,-0.385398 -0.192235,-0.641708 -0.308762,-0.866657 -0.116568,-0.224941 -0.253049,-0.418526 -0.366962,-0.566716 -0.113915,-0.148187 -0.205119,-0.250995 -0.301799,-0.322921 -0.09654,-0.07193 -0.198571,-0.113045 -0.323168,-0.144837 -0.124619,-0.03177 -0.271853,-0.05429 -0.433255,-0.04965 -0.161413,0.0046 -0.33697,0.03643 -0.504622,0.127606 -0.167653,0.09118 -0.328637,0.242939 -0.428703,0.464548 -0.100094,0.221605 -0.139899,0.513651 -0.09275,0.822175 0.04708,0.308507 0.180996,0.63345 0.330189,0.893767 0.149177,0.260322 0.31371,0.455996 0.523812,0.67327 0.210102,0.217276 0.465764,0.45614 0.736977,0.658319 0.27121,0.202183 0.557923,0.367668 0.776631,0.46303 0.21871,0.09536 0.369402,0.120597 0.524365,0.133616 0.154947,0.01303 0.31413,0.01386 0.484064,-0.02562 0.169937,-0.03948 0.3506,-0.119273 0.633279,-0.300466 0.282693,-0.181187 0.66737,-0.463757 0.93962,-0.720822 0.272262,-0.257065 0.432061,-0.488607 0.559275,-0.718588 0.127192,-0.229992 0.221796,-0.458405 0.242203,-0.664671 0.02041,-0.20627 -0.03352,-0.390416 -0.122279,-0.477703 -0.08873,-0.08729 -0.212374,-0.07773 -0.335179,-0.05162 -0.122825,0.02608 -0.244792,0.06866 -0.357416,0.13079 -0.112659,0.06211 -0.215891,0.14378 -0.339987,0.23353 -0.124142,0.08974 -0.269014,0.187593 -0.39464,0.270454 -0.125615,0.08287 -0.231972,0.150746 -0.266758,0.160896 -0.03466,0.01018 0.002,-0.03744 0.10291,-0.124384 0.100844,-0.08693 0.265634,-0.213204 0.386629,-0.321844 0.12097,-0.10864 0.198115,-0.199645 0.59027,-0.493534 0.392144,-0.293889 1.098843,-0.790356 1.805774,-1.286974"
       id="path21-1" /><text
       xml:space="preserve"
       style="font-style:normal;font-variant:normal;font-weight:normal;font-stretch:normal;font-size:3.88056px;line-height:1.45;font-family:Arial;-inkscape-font-specification:Arial;letter-spacing:0.421338px;fill:#000000;fill-opacity:1;stroke-width:0.2;stroke-dasharray:none"
       id="text20"
       transform="rotate(-5.3701605,125.93755,11.867779)"><textPath
         xlink:href="#path89"
         id="textPath89"><tspan
           id="tspan20"
           style="font-style:normal;font-variant:normal;font-weight:normal;font-stretch:normal;font-size:3.88056px;line-height:1.45;font-family:Arial;-inkscape-font-specification:Arial;letter-spacing:0.421338px;fill:#000000;fill-opacity:1;stroke-width:0.2;stroke-dasharray:none">SHOP</tspan></textPath></text><path
       style="fill:none;fill-opacity:1;stroke:none;stroke-width:0.499999;stroke-linecap:round;stroke-linejoin:bevel;stroke-dasharray:none;stroke-opacity:1"
       d="m 82.161823,37.787119 0.853946,-1.585899 0.670957,-1.097931 0.884444,-1.402913 0.701458,-0.853946 1.128426,-0.975939 0.97594,-0.731954 1.189426,-0.579464 1.311415,-0.426971 0.97594,-0.243986 0.731954,-0.06099 0.884444,0.15249 0.670956,0.09149"
       id="path89" /></g></svg>
