<?xml version="1.0" encoding="UTF-8" standalone="no"?>
<!-- Created with Inkscape (http://www.inkscape.org/) -->

<svg
   width="146.20233"
   height="100.44608"
   viewBox="0 0 38.682701 26.576359"
   version="1.1"
   id="svg1"
   xml:space="preserve"
   xmlns:xlink="http://www.w3.org/1999/xlink"
   xmlns="http://www.w3.org/2000/svg"
   xmlns:svg="http://www.w3.org/2000/svg"><defs
     id="defs1"><meshgradient
       id="meshgradient94"
       gradientUnits="userSpaceOnUse"
       x="0.04480489"
       y="0.044811249"><meshrow
         id="meshrow94"><meshpatch
           id="meshpatch94"><stop
             path="c 107.567,0  215.135,0  322.702,0"
             style="stop-color:#ffffff;stop-opacity:1"
             id="stop95" /><stop
             path="c 0,18.491  0,36.9819  0,55.4729"
             style="stop-color:#ed6767;stop-opacity:1"
             id="stop96" /><stop
             path="c -107.567,0  -215.135,0  -322.702,0"
             style="stop-color:#ffffff;stop-opacity:1"
             id="stop97" /><stop
             path="c 0,-18.491  0,-36.9819  0,-55.4729"
             style="stop-color:#ed6767;stop-opacity:1"
             id="stop98" /></meshpatch></meshrow></meshgradient></defs><g
     id="layer4"
     transform="translate(-74.983886,-1.9167556)"><rect
       style="fill:url(#meshgradient94);fill-opacity:1;stroke:#ffffff;stroke-width:0.0896207;stroke-opacity:1"
       id="rect28"
       width="322.70206"
       height="55.472878"
       x="0.04480489"
       y="0.044811249"
       ry="0.18162204" /></g><g
     id="layer12"
     transform="translate(-74.983886,-1.9167556)"><circle
       style="fill:none;stroke:none;stroke-width:0.128728"
       id="path1"
       cx="167.8828"
       cy="28.916674"
       r="23.137484" /><text
       xml:space="preserve"
       style="font-style:normal;font-variant:normal;font-weight:normal;font-stretch:normal;font-size:3.33313px;font-family:'Arial Rounded MT Bold';-inkscape-font-specification:'Arial Rounded MT Bold, Normal';font-variant-ligatures:normal;font-variant-caps:normal;font-variant-numeric:normal;font-variant-east-asian:normal;fill:#3c3c3c;fill-opacity:1;stroke:none;stroke-width:0.677344;stroke-opacity:1"
       id="text1"
       transform="matrix(1.0272754,0,0,1.0272754,-5.6145081,-1.6934446)"><textPath
         xlink:href="#path1"
         id="textPath1"><tspan
           id="tspan1"
           style="font-style:normal;font-variant:normal;font-weight:normal;font-stretch:normal;font-size:3.33313px;font-family:'Arial Rounded MT Bold';-inkscape-font-specification:'Arial Rounded MT Bold, Normal';font-variant-ligatures:normal;font-variant-caps:normal;font-variant-numeric:normal;font-variant-east-asian:normal;fill:#3c3c3c;fill-opacity:1;stroke:none;stroke-width:0.677344;stroke-opacity:1">N G S H O P N G S H O P N G S H O P N G S H O P N G S H O P N G S H O P N G S H O P N G S H O P N G S H O P N G S H O P N G S H O P N G S H O P N G S H O P</tspan></textPath></text></g><g
     id="layer5"
     transform="translate(-74.983886,-1.9167556)"><text
       xml:space="preserve"
       style="font-style:normal;font-variant:normal;font-weight:normal;font-stretch:normal;font-size:3.33313px;font-family:'Arial Rounded MT Bold';-inkscape-font-specification:'Arial Rounded MT Bold, Normal';font-variant-ligatures:normal;font-variant-caps:normal;font-variant-numeric:normal;font-variant-east-asian:normal;fill:#8c8c8c;fill-opacity:1;stroke:none;stroke-width:0.677344;stroke-opacity:1"
       id="text30"
       transform="matrix(0.97741097,0,0,0.97741097,-170.9446,-24.660376)"><textPath
         xlink:href="#path1"
         id="textPath30"><tspan
           id="tspan30"
           style="font-style:normal;font-variant:normal;font-weight:normal;font-stretch:normal;font-size:3.33313px;font-family:'Arial Rounded MT Bold';-inkscape-font-specification:'Arial Rounded MT Bold, Normal';font-variant-ligatures:normal;font-variant-caps:normal;font-variant-numeric:normal;font-variant-east-asian:normal;fill:#8c8c8c;fill-opacity:1;stroke:none;stroke-width:0.677344;stroke-opacity:1">N G S H O P N G S H O P N G S H O P N G S H O P N G S H O P N G S H O P N G S H O P N G S H O P N G S H O P N G S H O P N G S H O P N G S H O P N G S H O P</tspan></textPath></text></g><g
     id="layer6"
     transform="translate(-74.983886,-1.9167556)"><text
       xml:space="preserve"
       style="font-style:normal;font-variant:normal;font-weight:normal;font-stretch:normal;font-size:3.33313px;font-family:'Arial Rounded MT Bold';-inkscape-font-specification:'Arial Rounded MT Bold, Normal';font-variant-ligatures:normal;font-variant-caps:normal;font-variant-numeric:normal;font-variant-east-asian:normal;fill:#8c8c8c;fill-opacity:1;stroke:none;stroke-width:0.677344;stroke-opacity:1"
       id="text60"
       transform="matrix(0.97741097,0,0,0.97741097,151.56422,24.559806)"><textPath
         xlink:href="#path1"
         id="textPath60"><tspan
           id="tspan60"
           style="font-style:normal;font-variant:normal;font-weight:normal;font-stretch:normal;font-size:3.33313px;font-family:'Arial Rounded MT Bold';-inkscape-font-specification:'Arial Rounded MT Bold, Normal';font-variant-ligatures:normal;font-variant-caps:normal;font-variant-numeric:normal;font-variant-east-asian:normal;fill:#8c8c8c;fill-opacity:1;stroke:none;stroke-width:0.677344;stroke-opacity:1">N G S H O P N G S H O P N G S H O P N G S H O P N G S H O P N G S H O P N G S H O P N G S H O P N G S H O P N G S H O P N G S H O P N G S H O P N G S H O P</tspan></textPath></text></g><g
     id="layer7"
     transform="translate(-74.983886,-1.9167556)"><text
       xml:space="preserve"
       style="font-style:normal;font-variant:normal;font-weight:normal;font-stretch:normal;font-size:3.33313px;font-family:'Arial Rounded MT Bold';-inkscape-font-specification:'Arial Rounded MT Bold, Normal';font-variant-ligatures:normal;font-variant-caps:normal;font-variant-numeric:normal;font-variant-east-asian:normal;fill:#8c8c8c;fill-opacity:1;stroke:none;stroke-width:0.677344;stroke-opacity:1"
       id="text1-0"
       transform="matrix(0.97741097,0,0,0.97741097,-105.62181,79.271628)"><textPath
         xlink:href="#path1"
         id="textPath1-5"><tspan
           id="tspan1-1"
           style="font-style:normal;font-variant:normal;font-weight:normal;font-stretch:normal;font-size:3.33313px;font-family:'Arial Rounded MT Bold';-inkscape-font-specification:'Arial Rounded MT Bold, Normal';font-variant-ligatures:normal;font-variant-caps:normal;font-variant-numeric:normal;font-variant-east-asian:normal;fill:#8c8c8c;fill-opacity:1;stroke:none;stroke-width:0.677344;stroke-opacity:1">N G S H O P N G S H O P N G S H O P N G S H O P N G S H O P N G S H O P N G S H O P N G S H O P N G S H O P N G S H O P N G S H O P N G S H O P N G S H O P</tspan></textPath></text></g><g
     id="layer13"
     transform="translate(-74.983886,-1.9167556)"><rect
       style="fill:#e5e5e5;fill-opacity:1;stroke-width:0.414852;stroke-linecap:round;stroke-linejoin:bevel"
       id="rect1"
       width="38.682693"
       height="26.576359"
       x="74.983887"
       y="1.9167556"
       ry="0.17548057" /><path
       id="rect5"
       style="fill:#ffffff;fill-opacity:1;stroke:#000000;stroke-width:0.711301;stroke-linecap:round;stroke-linejoin:bevel;stroke-opacity:1"
       d="M 76.334587,3.6681766 V 17.503969 L 99.430095,10.093603 V 3.6681766 Z" /><path
       id="path101"
       style="fill:#ffffff;fill-opacity:1;stroke:#000000;stroke-width:0.711301;stroke-linecap:round;stroke-linejoin:bevel;stroke-opacity:1"
       d="M 99.430095,26.605951 V 12.770159 l -23.095508,7.410365 v 6.425427 z" /><rect
       style="fill:#ffffff;fill-opacity:1;stroke:#000000;stroke-width:0.619043;stroke-linecap:round;stroke-linejoin:bevel;stroke-opacity:1"
       id="rect4"
       width="10.627892"
       height="23.494492"
       x="101.73412"
       y="3.457689"
       ry="0.66738808" /><path
       style="fill:#ffe0cc;fill-opacity:1;stroke:#000000;stroke-width:0.497888;stroke-linecap:round;stroke-linejoin:bevel;stroke-opacity:1"
       d="m 85.316638,15.076705 c 1.465769,-0.732154 3.947609,-0.132309 3.766718,1.883889 -0.09106,1.014931 -0.816761,1.959329 -1.406558,2.742371 -0.353241,0.46898 -0.733528,0.916436 -1.1324,1.347339 -0.104941,0.113368 -0.216508,0.228492 -0.32184,0.333854 -0.03203,0.03205 -0.121138,0.132449 -0.08344,0.10731 0.04698,-0.03133 0.08741,-0.07154 0.13112,-0.10731 0.08344,-0.05564 0.165893,-0.112794 0.250319,-0.166927 1.017719,-0.652567 3.492148,-0.954216 4.481919,-0.119234 0.642264,0.541822 0.792523,1.351192 0.98936,2.122356 0.03839,0.150383 -0.02433,0.535364 0.107279,0.453088 1.836822,-1.148336 2.953172,-2.297792 5.244799,-2.682753 0.641358,-0.10774 1.436116,-0.05838 2.038319,-0.02385 0.342818,0.01965 1.334347,0.417547 1.656877,0.310007 0.0763,-0.02544 0.0347,-0.46937 0.0477,-0.524625 0.0847,-0.360098 0.22684,-0.744489 0.38144,-1.073102 0.50319,-1.0696 1.02754,-1.360391 2.19328,-2.289283 0.99579,-0.79348 2.46748,-1.217316 3.68328,-1.550035 0.30223,-0.08271 0.59495,-0.172571 0.89401,-0.262316 0.12466,-0.03741 0.5116,-0.08346 0.38144,-0.08346 -2.6201,0 -3.76079,-1.0597 -4.93489,-3.243153 -0.35705,-0.664013 -0.63565,-1.312073 -0.78672,-2.050815 -0.0638,-0.3119495 -0.0596,-0.6477315 -0.0596,-0.9657921 0,-0.107604 0.0674,-0.3789718 -0.0238,-0.3219298 -0.47369,0.2961288 -0.67017,0.7671074 -1.26353,0.9777144 C 100.2756,10.342997 98.783466,9.5758165 97.761185,8.8765601 97.279706,8.5472341 96.787244,8.1616005 96.438045,7.6842265 96.222172,7.3891175 96.090464,6.9826503 96.080446,6.992672 c -0.10159,0.1016189 -0.05873,0.4004515 -0.09536,0.5365505 -0.07662,0.284647 -0.253494,0.558696 -0.4172,0.7988646 -0.936304,1.3736314 -2.157598,1.3904774 -3.790557,1.4546474 -0.866462,0.03405 -1.808581,-0.08651 -2.67008,-0.202697 -0.258962,-0.03493 -0.51857,-0.06797 -0.774799,-0.119233 -0.08902,-0.01781 -0.324187,-0.1600876 -0.25032,-0.1073106 1.565967,1.1188641 -1.4265,3.7241461 -2.12176,4.5308731 -0.127851,0.148351 -0.426882,0.322948 -0.48872,0.500782 -0.07759,0.223129 -0.103307,0.461036 -0.15496,0.691553 z"
       id="path431" /><path
       style="fill:none;stroke:#000000;stroke-width:0.598945;stroke-linecap:round;stroke-linejoin:round;stroke-dasharray:none;stroke-opacity:1"
       d="m 166.06702,57.244649 c 0.17981,0.236919 0.36258,0.477734 0.52346,0.61257 0.16088,0.134836 0.30135,0.165639 0.43737,0.177057 0.13602,0.01142 0.27219,0.0032 0.43247,-0.0479 0.16028,-0.05107 0.34697,-0.145102 0.5961,-0.382623 0.24913,-0.237521 0.56068,-0.618512 1.27475,-2.26846 0.71408,-1.649948 1.83062,-4.568723 2.4228,-6.022467 0.59218,-1.453743 0.66005,-1.442387 0.68016,-1.376184 0.0201,0.0662 -0.007,0.187256 -0.0846,0.630142 -0.0771,0.442887 -0.2038,1.207572 -0.27223,1.888242 -0.0684,0.680671 -0.0786,1.277288 -0.0621,2.179268 0.0165,0.90198 0.0597,2.109265 0.13358,2.954764 0.0738,0.845499 0.17829,1.329173 0.27973,1.63396 0.10144,0.304788 0.19991,0.430729 0.30376,0.512332 0.10385,0.0816 0.21311,0.118895 0.26623,0.139984 0.0531,0.02109 0.0501,0.02591 0.0786,0.02564 0.0285,-2.65e-4 0.0886,-0.0057 0.1687,-0.02378 0.0801,-0.0181 0.18039,-0.04891 0.47514,-0.261568 0.29475,-0.212659 0.78399,-0.607162 1.34618,-1.274867 0.56219,-0.667705 1.1973,-1.608566 1.69345,-2.470282 0.49616,-0.861716 0.85333,-1.644233 1.09495,-2.236274 0.24163,-0.59204 0.36769,-0.993566 0.44484,-1.35349 0.0771,-0.359924 0.10538,-0.678225 0.11709,-0.924125 0.0117,-0.245901 0.007,-0.41938 -0.0309,-0.548528 -0.0378,-0.129149 -0.10866,-0.214009 -0.21161,-0.290481 -0.10296,-0.07647 -0.23802,-0.144562 -0.41211,-0.175905 -0.17409,-0.03134 -0.38719,-0.02594 -0.64472,0.06908 -0.25754,0.09502 -0.56189,0.281119 -0.86414,0.584842 -0.30226,0.303722 -0.60361,0.725786 -0.82812,1.192719 -0.22452,0.466932 -0.37219,0.978703 -0.44636,1.398616 -0.0742,0.419913 -0.0748,0.747942 -0.0466,1.118676 0.0282,0.370734 0.0852,0.784156 0.19116,1.147055 0.10595,0.3629 0.26083,0.675256 0.40641,0.867918 0.14557,0.192663 0.28183,0.265617 0.43341,0.321553 0.15158,0.05593 0.31846,0.09484 0.53247,0.07674 0.21401,-0.0181 0.47514,-0.09322 0.93378,-0.293997 0.45864,-0.200772 1.11475,-0.52718 1.62981,-0.842521 0.51507,-0.31534 0.88905,-0.619593 1.22732,-0.929259 0.33828,-0.309666 0.64083,-0.62473 0.84553,-0.924668 0.20471,-0.299938 0.31156,-0.584736 0.29565,-0.734703 -0.0159,-0.149967 -0.15458,-0.165101 -0.30706,-0.155643 -0.15248,0.0095 -0.31876,0.0435 -0.49255,0.108626 -0.17379,0.06512 -0.35507,0.161313 -0.56548,0.264536 -0.21041,0.103223 -0.44993,0.213469 -0.65583,0.306153 -0.20591,0.09268 -0.37819,0.167799 -0.42383,0.174565 -0.0456,0.0068 0.0354,-0.05486 0.21883,-0.159435 0.1834,-0.104575 0.46913,-0.252105 0.69305,-0.383971 0.22391,-0.131865 0.38599,-0.248056 1.06002,-0.589423 0.67402,-0.341367 1.85925,-0.907554 3.04485,-1.473918"
       id="path96"
       transform="matrix(0.5674961,-0.21835273,0.21835273,0.5674961,-15.425794,23.651184)" /><text
       xml:space="preserve"
       style="font-style:normal;font-variant:normal;font-weight:900;font-stretch:normal;font-size:1.61014px;line-height:1.45;font-family:Arial;-inkscape-font-specification:'Arial Heavy';letter-spacing:0.154285px;fill:#000000;fill-opacity:1;stroke-width:0.0402537"
       id="text99"
       transform="translate(-1.1288007,-2.0067568)"><textPath
         xlink:href="#path102"
         id="textPath102"><tspan
           id="tspan99"
           style="font-style:normal;font-variant:normal;font-weight:900;font-stretch:normal;line-height:1.45;font-family:Arial;-inkscape-font-specification:'Arial Heavy';letter-spacing:0.154285px;fill:#000000;fill-opacity:1;stroke-width:0.0402537">SHOP</tspan></textPath></text><path
       style="fill:#a05a2c;fill-opacity:1;stroke:#000000;stroke-width:0.4;stroke-linecap:round;stroke-linejoin:bevel;stroke-dasharray:none;stroke-opacity:1"
       d="m 70.637246,7.7269209 c 0.05255,-0.099143 0.07086,-0.2187045 0.145055,-0.303585 0.08962,-0.1025286 0.201563,-0.1830001 0.312429,-0.2608341 0.506816,-0.3558129 1.097936,-0.5565928 1.661334,-0.8017596 0.239599,-0.1042629 0.499969,-0.1733127 0.714602,-0.3223216 0.0291,-0.020201 0.125636,-0.09915 0.09311,-0.013401 -0.03933,0.1036795 -0.120997,0.1826193 -0.159943,0.288232 -0.0936,0.2538144 -0.130546,0.5260961 -0.132686,0.7950386 -0.004,0.5078842 0.10574,1.0103885 0.261249,1.4911994 0.178663,0.5523972 0.403063,1.095687 0.721641,1.5820642 0.287658,0.439171 0.583331,0.87872 0.951224,1.25492 0.09339,0.0955 0.423079,0.319475 0.301616,0.2634 -0.165089,-0.07622 -0.353274,-0.02385 -0.512504,0.04307 -0.146737,0.06167 -0.279385,0.150501 -0.420034,0.223864 -0.07006,0.03655 -0.106736,-0.05969 -0.138595,-0.104934 -0.10013,-0.142192 -0.175029,-0.302493 -0.28604,-0.436136 C 73.531028,10.680928 72.801909,10.037519 72.184268,9.2912162 71.716756,8.7263166 71.252112,8.1403293 70.637246,7.7269209 Z"
       id="path437"
       transform="translate(15.971834,-1.0749103)" /><path
       style="fill:#915228;fill-opacity:1;stroke:#000000;stroke-width:0.4;stroke-linecap:round;stroke-linejoin:bevel;stroke-dasharray:none;stroke-opacity:1"
       d="m 74.738364,12.827818 c 0.08606,-0.122132 0.191115,-0.231508 0.314786,-0.316241 0.03981,-0.02728 0.08134,-0.05181 0.125976,-0.07073 0.144175,-0.06111 0.283966,-0.139626 0.437286,-0.171692 0.02689,-0.0056 0.07678,-0.04379 0.08375,-0.01685 0.01169,0.04519 0.0092,0.09327 0.0039,0.13917 -0.0043,0.03718 0.0059,0.07336 0.0172,0.108368 0.03206,0.09904 0.0774,0.192894 0.115278,0.289764 0.02595,0.06636 0.05023,0.1338 0.08428,0.196428 0.0079,0.01461 -0.02035,0.0078 -0.02985,0.0084 -0.06883,0.0045 -0.132997,0.03764 -0.18222,0.0851 -0.05658,0.05456 -0.105819,0.116153 -0.153936,0.178091 -0.04797,0.06174 -0.09884,0.124764 -0.122469,0.200033 -0.01196,0.03811 0.01204,0.116185 -0.02869,0.116496 -0.02678,2.05e-4 -0.04564,-0.03134 -0.06169,-0.05099 -0.08705,-0.106616 -0.143785,-0.233434 -0.229253,-0.341584 -0.107069,-0.135483 -0.242989,-0.243202 -0.374327,-0.353754 z"
       id="path438"
       transform="translate(15.971834,-1.0749103)" /><path
       style="fill:#a05a2c;fill-opacity:1;stroke:#000000;stroke-width:0.610548;stroke-linecap:round;stroke-linejoin:bevel;stroke-dasharray:none;stroke-opacity:1"
       d="m 59.502934,14.188915 c 0.153953,-0.143084 0.617425,-0.57058 0.461696,-0.42943 -0.06919,0.06271 -0.09451,0.08959 -0.0067,0.01079 0.952679,-0.85467 1.846538,-1.786567 2.921788,-2.493818 0.273194,-0.179696 0.534586,-0.379145 0.819119,-0.539974 0.16269,-0.09196 -0.07239,0.151474 -0.112061,0.203683 -0.326819,0.430066 -0.395332,0.998403 -0.354392,1.5218 0.07132,0.911788 0.482234,1.758804 0.982211,2.509326 0.405896,0.609294 0.856415,1.19175 1.365478,1.717279 0.531497,0.548689 1.219639,0.898103 1.863642,1.299276 0.129198,0.08048 0.493513,0.135624 0.390716,0.245864 -0.164979,0.176924 -0.393722,0.267522 -0.574481,0.42998 -0.251093,0.22567 -0.41942,0.538831 -0.690265,0.738876 -0.149557,0.110463 -0.295685,-0.0866 -0.385769,-0.186974 -0.420508,-0.468539 -0.738666,-1.014379 -1.133288,-1.503957 -0.554718,-0.688199 -1.174355,-1.321911 -1.842049,-1.902335 -0.685155,-0.595602 -1.449061,-1.130292 -2.326657,-1.39767 -0.447838,-0.136443 -0.919477,-0.148882 -1.379012,-0.222719 z"
       id="path439"
       transform="matrix(0.65511213,-0.00693674,0.00693674,0.65511213,45.454311,1.5392833)" /><path
       style="fill:#915228;fill-opacity:1;stroke:#000000;stroke-width:0.610548;stroke-linecap:round;stroke-linejoin:bevel;stroke-dasharray:none;stroke-opacity:1"
       d="m 66.994116,20.432126 c -0.0285,-0.134117 -0.02866,-0.285839 0.05269,-0.402656 0.08914,-0.128 0.225129,-0.211248 0.333189,-0.321371 0.09033,-0.09205 0.172382,-0.191782 0.259813,-0.286613 0.224232,-0.243212 0.440366,-0.496996 0.695185,-0.70839 0.0579,-0.04803 0.108751,-0.126899 0.184986,-0.130626 0.05286,-0.0026 0.05609,0.07518 0.06853,0.11409 0.06624,0.207111 0.108366,0.42456 0.207254,0.618885 0.0472,0.09276 0.11876,0.170008 0.181713,0.25212 0.08954,0.116788 0.169693,0.240344 0.258575,0.358227 0.04167,0.05526 -0.02866,0.09584 -0.06588,0.124791 -0.190934,0.148506 -0.407154,0.266356 -0.579729,0.436551 -0.06783,0.06689 -0.115458,0.150698 -0.172109,0.226761 -0.06973,0.09362 -0.125002,0.205059 -0.221521,0.271781 -0.0503,0.03477 -0.114442,-0.01174 -0.162974,-0.03272 -0.143506,-0.06202 -0.244491,-0.184613 -0.358214,-0.286533 -0.152928,-0.137055 -0.356801,-0.196738 -0.556782,-0.22216 -0.04145,-0.0053 -0.08306,-0.0092 -0.124736,-0.01214 z"
       id="path440"
       transform="matrix(0.65511213,-0.00693674,0.00693674,0.65511213,45.454311,1.5392833)" /><path
       style="fill:none;fill-opacity:1;stroke:#000000;stroke-width:0.4;stroke-linecap:round;stroke-linejoin:bevel;stroke-dasharray:none;stroke-opacity:1"
       d="m 105.15477,11.147743 c 0.51839,-0.623163 1.10668,-1.5312905 1.94096,-1.7828685"
       id="path447" /><path
       style="fill:none;fill-opacity:1;stroke:#000000;stroke-width:0.4;stroke-linecap:round;stroke-linejoin:bevel;stroke-dasharray:none;stroke-opacity:1"
       d="m 105.90184,12.126361 c 0.44948,-0.919222 1.06819,-1.768938 1.82464,-2.4573525"
       id="path448" /><path
       style="fill:none;fill-opacity:1;stroke:#000000;stroke-width:0.4;stroke-linecap:round;stroke-linejoin:bevel;stroke-dasharray:none;stroke-opacity:1"
       d="m 88.483462,22.346948 c -0.83085,0.416771 -1.288876,1.324477 -1.680668,2.14094"
       id="path449" /><path
       style="fill:none;fill-opacity:1;stroke:#000000;stroke-width:0.4;stroke-linecap:round;stroke-linejoin:bevel;stroke-dasharray:none;stroke-opacity:1"
       d="m 88.885673,23.130044 c -1.206706,-0.02833 -1.493927,1.829372 -1.493927,2.830638"
       id="path450" /><path
       style="opacity:0;fill:none;stroke:#000000;stroke-width:0.4;stroke-linecap:round;stroke-linejoin:bevel"
       d="m 100.90224,21.25908 c 0.10068,-0.258767 -0.0877,-0.614734 0,-0.877956 0.0932,-0.279539 0.28363,-0.556333 0.43898,-0.815245 0.0304,-0.0507 0.099,-0.07254 0.12542,-0.125422 0.009,-0.0187 -0.0148,-0.04793 0,-0.06271 0.0836,-0.08362 0.0602,0.13303 0.12542,-0.06271 0.0132,-0.03966 -0.0232,-0.09064 0,-0.125422 0.0259,-0.03889 0.0836,-0.04181 0.12542,-0.06271 0.0209,-0.06271 0.026,-0.133132 0.0627,-0.188133 0.0116,-0.01739 0.044,0.0093 0.0627,0 0.12667,-0.06334 0.16376,-0.226474 0.25084,-0.313556 0.10055,-0.100553 0.27572,-0.213004 0.37627,-0.313556 0.0101,-0.01008 0.16619,-0.284304 0.18813,-0.313556 0.0418,-0.04181 0.0836,-0.08362 0.12542,-0.125422 0.0209,0 0.0479,0.01478 0.0627,0 0.0209,-0.0209 0.0418,-0.16723 0.0627,-0.188133 0.033,-0.03305 0.0924,-0.02966 0.12542,-0.06271 0.0331,-0.03305 0.0297,-0.09237 0.0627,-0.125422 0.0467,-0.04672 0.21541,-0.08999 0.25084,-0.125422 0.0148,-0.01478 -0.0148,-0.04793 0,-0.06271 0.0982,-0.09816 0.26572,-0.132857 0.37627,-0.188134 0.0793,-0.03966 0.11434,-0.138939 0.18814,-0.188133 0.13146,-0.08764 0.36898,-0.162379 0.50168,-0.250845 0.0738,-0.04919 0.10881,-0.148471 0.18814,-0.188133 0.0969,-0.04846 0.21663,-0.07696 0.31355,-0.125423 0.0445,-0.02225 0.0809,-0.103174 0.12542,-0.125422 0.20579,-0.102891 0.53422,-0.115359 0.75254,-0.188133 0.028,-0.0093 0.0347,-0.05336 0.0627,-0.06271 0.0752,-0.02509 0.17559,0.02509 0.25084,0 0.17149,-0.05716 0.33021,-0.130973 0.50169,-0.188134 0.0986,-0.03288 0.35194,-0.01919 0.43898,-0.06271 0.0529,-0.02644 0.0693,-0.106725 0.12542,-0.125423 0.0595,-0.01983 0.13205,0.02805 0.18814,0 0.0264,-0.01322 0.0363,-0.04949 0.0627,-0.06271 0.13167,-0.06583 0.51204,-0.01035 0.62711,-0.125422"
       id="path102" /></g><script
     id="mesh_polyfill"
     type="text/javascript">
!function(){const t=&quot;http://www.w3.org/2000/svg&quot;,e=&quot;http://www.w3.org/1999/xlink&quot;,s=&quot;http://www.w3.org/1999/xhtml&quot;,r=2;if(document.createElementNS(t,&quot;meshgradient&quot;).x)return;const n=(t,e,s,r)=&gt;{let n=new x(.5*(e.x+s.x),.5*(e.y+s.y)),o=new x(.5*(t.x+e.x),.5*(t.y+e.y)),i=new x(.5*(s.x+r.x),.5*(s.y+r.y)),a=new x(.5*(n.x+o.x),.5*(n.y+o.y)),h=new x(.5*(n.x+i.x),.5*(n.y+i.y)),l=new x(.5*(a.x+h.x),.5*(a.y+h.y));return[[t,o,a,l],[l,h,i,r]]},o=t=&gt;{let e=t[0].distSquared(t[1]),s=t[2].distSquared(t[3]),r=.25*t[0].distSquared(t[2]),n=.25*t[1].distSquared(t[3]),o=e&gt;s?e:s,i=r&gt;n?r:n;return 18*(o&gt;i?o:i)},i=(t,e)=&gt;Math.sqrt(t.distSquared(e)),a=(t,e)=&gt;t.scale(2/3).add(e.scale(1/3)),h=t=&gt;{let e,s,r,n,o,i,a,h=new g;return t.match(/(\w+\(\s*[^)]+\))+/g).forEach(t=&gt;{let l=t.match(/[\w.-]+/g),d=l.shift();switch(d){case&quot;translate&quot;:2===l.length?e=new g(1,0,0,1,l[0],l[1]):(console.error(&quot;mesh.js: translate does not have 2 arguments!&quot;),e=new g(1,0,0,1,0,0)),h=h.append(e);break;case&quot;scale&quot;:1===l.length?s=new g(l[0],0,0,l[0],0,0):2===l.length?s=new g(l[0],0,0,l[1],0,0):(console.error(&quot;mesh.js: scale does not have 1 or 2 arguments!&quot;),s=new g(1,0,0,1,0,0)),h=h.append(s);break;case&quot;rotate&quot;:if(3===l.length&amp;&amp;(e=new g(1,0,0,1,l[1],l[2]),h=h.append(e)),l[0]){r=l[0]*Math.PI/180;let t=Math.cos(r),e=Math.sin(r);Math.abs(t)&lt;1e-16&amp;&amp;(t=0),Math.abs(e)&lt;1e-16&amp;&amp;(e=0),a=new g(t,e,-e,t,0,0),h=h.append(a)}else console.error(&quot;math.js: No argument to rotate transform!&quot;);3===l.length&amp;&amp;(e=new g(1,0,0,1,-l[1],-l[2]),h=h.append(e));break;case&quot;skewX&quot;:l[0]?(r=l[0]*Math.PI/180,n=Math.tan(r),o=new g(1,0,n,1,0,0),h=h.append(o)):console.error(&quot;math.js: No argument to skewX transform!&quot;);break;case&quot;skewY&quot;:l[0]?(r=l[0]*Math.PI/180,n=Math.tan(r),i=new g(1,n,0,1,0,0),h=h.append(i)):console.error(&quot;math.js: No argument to skewY transform!&quot;);break;case&quot;matrix&quot;:6===l.length?h=h.append(new g(...l)):console.error(&quot;math.js: Incorrect number of arguments for matrix!&quot;);break;default:console.error(&quot;mesh.js: Unhandled transform type: &quot;+d)}}),h},l=t=&gt;{let e=[],s=t.split(/[ ,]+/);for(let t=0,r=s.length-1;t&lt;r;t+=2)e.push(new x(parseFloat(s[t]),parseFloat(s[t+1])));return e},d=(t,e)=&gt;{for(let s in e)t.setAttribute(s,e[s])},c=(t,e,s,r,n)=&gt;{let o,i,a=[0,0,0,0];for(let h=0;h&lt;3;++h)e[h]&lt;t[h]&amp;&amp;e[h]&lt;s[h]||t[h]&lt;e[h]&amp;&amp;s[h]&lt;e[h]?a[h]=0:(a[h]=.5*((e[h]-t[h])/r+(s[h]-e[h])/n),o=Math.abs(3*(e[h]-t[h])/r),i=Math.abs(3*(s[h]-e[h])/n),a[h]&gt;o?a[h]=o:a[h]&gt;i&amp;&amp;(a[h]=i));return a},u=[[1,0,0,0,0,0,0,0,0,0,0,0,0,0,0,0],[0,0,0,0,1,0,0,0,0,0,0,0,0,0,0,0],[-3,3,0,0,-2,-1,0,0,0,0,0,0,0,0,0,0],[2,-2,0,0,1,1,0,0,0,0,0,0,0,0,0,0],[0,0,0,0,0,0,0,0,1,0,0,0,0,0,0,0],[0,0,0,0,0,0,0,0,0,0,0,0,1,0,0,0],[0,0,0,0,0,0,0,0,-3,3,0,0,-2,-1,0,0],[0,0,0,0,0,0,0,0,2,-2,0,0,1,1,0,0],[-3,0,3,0,0,0,0,0,-2,0,-1,0,0,0,0,0],[0,0,0,0,-3,0,3,0,0,0,0,0,-2,0,-1,0],[9,-9,-9,9,6,3,-6,-3,6,-6,3,-3,4,2,2,1],[-6,6,6,-6,-3,-3,3,3,-4,4,-2,2,-2,-2,-1,-1],[2,0,-2,0,0,0,0,0,1,0,1,0,0,0,0,0],[0,0,0,0,2,0,-2,0,0,0,0,0,1,0,1,0],[-6,6,6,-6,-4,-2,4,2,-3,3,-3,3,-2,-1,-2,-1],[4,-4,-4,4,2,2,-2,-2,2,-2,2,-2,1,1,1,1]],f=t=&gt;{let e=[];for(let s=0;s&lt;16;++s){e[s]=0;for(let r=0;r&lt;16;++r)e[s]+=u[s][r]*t[r]}return e},p=(t,e,s)=&gt;{const r=e*e,n=s*s,o=e*e*e,i=s*s*s;return t[0]+t[1]*e+t[2]*r+t[3]*o+t[4]*s+t[5]*s*e+t[6]*s*r+t[7]*s*o+t[8]*n+t[9]*n*e+t[10]*n*r+t[11]*n*o+t[12]*i+t[13]*i*e+t[14]*i*r+t[15]*i*o},y=t=&gt;{let e=[],s=[],r=[];for(let s=0;s&lt;4;++s)e[s]=[],e[s][0]=n(t[0][s],t[1][s],t[2][s],t[3][s]),e[s][1]=[],e[s][1].push(...n(...e[s][0][0])),e[s][1].push(...n(...e[s][0][1])),e[s][2]=[],e[s][2].push(...n(...e[s][1][0])),e[s][2].push(...n(...e[s][1][1])),e[s][2].push(...n(...e[s][1][2])),e[s][2].push(...n(...e[s][1][3]));for(let t=0;t&lt;8;++t){s[t]=[];for(let r=0;r&lt;4;++r)s[t][r]=[],s[t][r][0]=n(e[0][2][t][r],e[1][2][t][r],e[2][2][t][r],e[3][2][t][r]),s[t][r][1]=[],s[t][r][1].push(...n(...s[t][r][0][0])),s[t][r][1].push(...n(...s[t][r][0][1])),s[t][r][2]=[],s[t][r][2].push(...n(...s[t][r][1][0])),s[t][r][2].push(...n(...s[t][r][1][1])),s[t][r][2].push(...n(...s[t][r][1][2])),s[t][r][2].push(...n(...s[t][r][1][3]))}for(let t=0;t&lt;8;++t){r[t]=[];for(let e=0;e&lt;8;++e)r[t][e]=[],r[t][e][0]=s[t][0][2][e],r[t][e][1]=s[t][1][2][e],r[t][e][2]=s[t][2][2][e],r[t][e][3]=s[t][3][2][e]}return r};class x{constructor(t,e){this.x=t||0,this.y=e||0}toString(){return`(x=${this.x}, y=${this.y})`}clone(){return new x(this.x,this.y)}add(t){return new x(this.x+t.x,this.y+t.y)}scale(t){return void 0===t.x?new x(this.x*t,this.y*t):new x(this.x*t.x,this.y*t.y)}distSquared(t){let e=this.x-t.x,s=this.y-t.y;return e*e+s*s}transform(t){let e=this.x*t.a+this.y*t.c+t.e,s=this.x*t.b+this.y*t.d+t.f;return new x(e,s)}}class g{constructor(t,e,s,r,n,o){void 0===t?(this.a=1,this.b=0,this.c=0,this.d=1,this.e=0,this.f=0):(this.a=t,this.b=e,this.c=s,this.d=r,this.e=n,this.f=o)}toString(){return`affine: ${this.a} ${this.c} ${this.e} \n       ${this.b} ${this.d} ${this.f}`}append(t){t instanceof g||console.error(&quot;mesh.js: argument to Affine.append is not affine!&quot;);let e=this.a*t.a+this.c*t.b,s=this.b*t.a+this.d*t.b,r=this.a*t.c+this.c*t.d,n=this.b*t.c+this.d*t.d,o=this.a*t.e+this.c*t.f+this.e,i=this.b*t.e+this.d*t.f+this.f;return new g(e,s,r,n,o,i)}}class w{constructor(t,e){this.nodes=t,this.colors=e}paintCurve(t,e){if(o(this.nodes)&gt;r){const s=n(...this.nodes);let r=[[],[]],o=[[],[]];for(let t=0;t&lt;4;++t)r[0][t]=this.colors[0][t],r[1][t]=(this.colors[0][t]+this.colors[1][t])/2,o[0][t]=r[1][t],o[1][t]=this.colors[1][t];let i=new w(s[0],r),a=new w(s[1],o);i.paintCurve(t,e),a.paintCurve(t,e)}else{let s=Math.round(this.nodes[0].x);if(s&gt;=0&amp;&amp;s&lt;e){let r=4*(~~this.nodes[0].y*e+s);t[r]=Math.round(this.colors[0][0]),t[r+1]=Math.round(this.colors[0][1]),t[r+2]=Math.round(this.colors[0][2]),t[r+3]=Math.round(this.colors[0][3])}}}}class m{constructor(t,e){this.nodes=t,this.colors=e}split(){let t=[[],[],[],[]],e=[[],[],[],[]],s=[[[],[]],[[],[]]],r=[[[],[]],[[],[]]];for(let s=0;s&lt;4;++s){const r=n(this.nodes[0][s],this.nodes[1][s],this.nodes[2][s],this.nodes[3][s]);t[0][s]=r[0][0],t[1][s]=r[0][1],t[2][s]=r[0][2],t[3][s]=r[0][3],e[0][s]=r[1][0],e[1][s]=r[1][1],e[2][s]=r[1][2],e[3][s]=r[1][3]}for(let t=0;t&lt;4;++t)s[0][0][t]=this.colors[0][0][t],s[0][1][t]=this.colors[0][1][t],s[1][0][t]=(this.colors[0][0][t]+this.colors[1][0][t])/2,s[1][1][t]=(this.colors[0][1][t]+this.colors[1][1][t])/2,r[0][0][t]=s[1][0][t],r[0][1][t]=s[1][1][t],r[1][0][t]=this.colors[1][0][t],r[1][1][t]=this.colors[1][1][t];return[new m(t,s),new m(e,r)]}paint(t,e){let s,n=!1;for(let t=0;t&lt;4;++t)if((s=o([this.nodes[0][t],this.nodes[1][t],this.nodes[2][t],this.nodes[3][t]]))&gt;r){n=!0;break}if(n){let s=this.split();s[0].paint(t,e),s[1].paint(t,e)}else{new w([...this.nodes[0]],[...this.colors[0]]).paintCurve(t,e)}}}class b{constructor(t){this.readMesh(t),this.type=t.getAttribute(&quot;type&quot;)||&quot;bilinear&quot;}readMesh(t){let e=[[]],s=[[]],r=Number(t.getAttribute(&quot;x&quot;)),n=Number(t.getAttribute(&quot;y&quot;));e[0][0]=new x(r,n);let o=t.children;for(let t=0,r=o.length;t&lt;r;++t){e[3*t+1]=[],e[3*t+2]=[],e[3*t+3]=[],s[t+1]=[];let r=o[t].children;for(let n=0,o=r.length;n&lt;o;++n){let o=r[n].children;for(let r=0,i=o.length;r&lt;i;++r){let i=r;0!==t&amp;&amp;++i;let h,d=o[r].getAttribute(&quot;path&quot;),c=&quot;l&quot;;null!=d&amp;&amp;(c=(h=d.match(/\s*([lLcC])\s*(.*)/))[1]);let u=l(h[2]);switch(c){case&quot;l&quot;:0===i?(e[3*t][3*n+3]=u[0].add(e[3*t][3*n]),e[3*t][3*n+1]=a(e[3*t][3*n],e[3*t][3*n+3]),e[3*t][3*n+2]=a(e[3*t][3*n+3],e[3*t][3*n])):1===i?(e[3*t+3][3*n+3]=u[0].add(e[3*t][3*n+3]),e[3*t+1][3*n+3]=a(e[3*t][3*n+3],e[3*t+3][3*n+3]),e[3*t+2][3*n+3]=a(e[3*t+3][3*n+3],e[3*t][3*n+3])):2===i?(0===n&amp;&amp;(e[3*t+3][3*n+0]=u[0].add(e[3*t+3][3*n+3])),e[3*t+3][3*n+1]=a(e[3*t+3][3*n],e[3*t+3][3*n+3]),e[3*t+3][3*n+2]=a(e[3*t+3][3*n+3],e[3*t+3][3*n])):(e[3*t+1][3*n]=a(e[3*t][3*n],e[3*t+3][3*n]),e[3*t+2][3*n]=a(e[3*t+3][3*n],e[3*t][3*n]));break;case&quot;L&quot;:0===i?(e[3*t][3*n+3]=u[0],e[3*t][3*n+1]=a(e[3*t][3*n],e[3*t][3*n+3]),e[3*t][3*n+2]=a(e[3*t][3*n+3],e[3*t][3*n])):1===i?(e[3*t+3][3*n+3]=u[0],e[3*t+1][3*n+3]=a(e[3*t][3*n+3],e[3*t+3][3*n+3]),e[3*t+2][3*n+3]=a(e[3*t+3][3*n+3],e[3*t][3*n+3])):2===i?(0===n&amp;&amp;(e[3*t+3][3*n+0]=u[0]),e[3*t+3][3*n+1]=a(e[3*t+3][3*n],e[3*t+3][3*n+3]),e[3*t+3][3*n+2]=a(e[3*t+3][3*n+3],e[3*t+3][3*n])):(e[3*t+1][3*n]=a(e[3*t][3*n],e[3*t+3][3*n]),e[3*t+2][3*n]=a(e[3*t+3][3*n],e[3*t][3*n]));break;case&quot;c&quot;:0===i?(e[3*t][3*n+1]=u[0].add(e[3*t][3*n]),e[3*t][3*n+2]=u[1].add(e[3*t][3*n]),e[3*t][3*n+3]=u[2].add(e[3*t][3*n])):1===i?(e[3*t+1][3*n+3]=u[0].add(e[3*t][3*n+3]),e[3*t+2][3*n+3]=u[1].add(e[3*t][3*n+3]),e[3*t+3][3*n+3]=u[2].add(e[3*t][3*n+3])):2===i?(e[3*t+3][3*n+2]=u[0].add(e[3*t+3][3*n+3]),e[3*t+3][3*n+1]=u[1].add(e[3*t+3][3*n+3]),0===n&amp;&amp;(e[3*t+3][3*n+0]=u[2].add(e[3*t+3][3*n+3]))):(e[3*t+2][3*n]=u[0].add(e[3*t+3][3*n]),e[3*t+1][3*n]=u[1].add(e[3*t+3][3*n]));break;case&quot;C&quot;:0===i?(e[3*t][3*n+1]=u[0],e[3*t][3*n+2]=u[1],e[3*t][3*n+3]=u[2]):1===i?(e[3*t+1][3*n+3]=u[0],e[3*t+2][3*n+3]=u[1],e[3*t+3][3*n+3]=u[2]):2===i?(e[3*t+3][3*n+2]=u[0],e[3*t+3][3*n+1]=u[1],0===n&amp;&amp;(e[3*t+3][3*n+0]=u[2])):(e[3*t+2][3*n]=u[0],e[3*t+1][3*n]=u[1]);break;default:console.error(&quot;mesh.js: &quot;+c+&quot; invalid path type.&quot;)}if(0===t&amp;&amp;0===n||r&gt;0){let e=window.getComputedStyle(o[r]).stopColor.match(/^rgb\s*\(\s*(\d+)\s*,\s*(\d+)\s*,\s*(\d+)\s*\)$/i),a=window.getComputedStyle(o[r]).stopOpacity,h=255;a&amp;&amp;(h=Math.floor(255*a)),e&amp;&amp;(0===i?(s[t][n]=[],s[t][n][0]=Math.floor(e[1]),s[t][n][1]=Math.floor(e[2]),s[t][n][2]=Math.floor(e[3]),s[t][n][3]=h):1===i?(s[t][n+1]=[],s[t][n+1][0]=Math.floor(e[1]),s[t][n+1][1]=Math.floor(e[2]),s[t][n+1][2]=Math.floor(e[3]),s[t][n+1][3]=h):2===i?(s[t+1][n+1]=[],s[t+1][n+1][0]=Math.floor(e[1]),s[t+1][n+1][1]=Math.floor(e[2]),s[t+1][n+1][2]=Math.floor(e[3]),s[t+1][n+1][3]=h):3===i&amp;&amp;(s[t+1][n]=[],s[t+1][n][0]=Math.floor(e[1]),s[t+1][n][1]=Math.floor(e[2]),s[t+1][n][2]=Math.floor(e[3]),s[t+1][n][3]=h))}}e[3*t+1][3*n+1]=new x,e[3*t+1][3*n+2]=new x,e[3*t+2][3*n+1]=new x,e[3*t+2][3*n+2]=new x,e[3*t+1][3*n+1].x=(-4*e[3*t][3*n].x+6*(e[3*t][3*n+1].x+e[3*t+1][3*n].x)+-2*(e[3*t][3*n+3].x+e[3*t+3][3*n].x)+3*(e[3*t+3][3*n+1].x+e[3*t+1][3*n+3].x)+-1*e[3*t+3][3*n+3].x)/9,e[3*t+1][3*n+2].x=(-4*e[3*t][3*n+3].x+6*(e[3*t][3*n+2].x+e[3*t+1][3*n+3].x)+-2*(e[3*t][3*n].x+e[3*t+3][3*n+3].x)+3*(e[3*t+3][3*n+2].x+e[3*t+1][3*n].x)+-1*e[3*t+3][3*n].x)/9,e[3*t+2][3*n+1].x=(-4*e[3*t+3][3*n].x+6*(e[3*t+3][3*n+1].x+e[3*t+2][3*n].x)+-2*(e[3*t+3][3*n+3].x+e[3*t][3*n].x)+3*(e[3*t][3*n+1].x+e[3*t+2][3*n+3].x)+-1*e[3*t][3*n+3].x)/9,e[3*t+2][3*n+2].x=(-4*e[3*t+3][3*n+3].x+6*(e[3*t+3][3*n+2].x+e[3*t+2][3*n+3].x)+-2*(e[3*t+3][3*n].x+e[3*t][3*n+3].x)+3*(e[3*t][3*n+2].x+e[3*t+2][3*n].x)+-1*e[3*t][3*n].x)/9,e[3*t+1][3*n+1].y=(-4*e[3*t][3*n].y+6*(e[3*t][3*n+1].y+e[3*t+1][3*n].y)+-2*(e[3*t][3*n+3].y+e[3*t+3][3*n].y)+3*(e[3*t+3][3*n+1].y+e[3*t+1][3*n+3].y)+-1*e[3*t+3][3*n+3].y)/9,e[3*t+1][3*n+2].y=(-4*e[3*t][3*n+3].y+6*(e[3*t][3*n+2].y+e[3*t+1][3*n+3].y)+-2*(e[3*t][3*n].y+e[3*t+3][3*n+3].y)+3*(e[3*t+3][3*n+2].y+e[3*t+1][3*n].y)+-1*e[3*t+3][3*n].y)/9,e[3*t+2][3*n+1].y=(-4*e[3*t+3][3*n].y+6*(e[3*t+3][3*n+1].y+e[3*t+2][3*n].y)+-2*(e[3*t+3][3*n+3].y+e[3*t][3*n].y)+3*(e[3*t][3*n+1].y+e[3*t+2][3*n+3].y)+-1*e[3*t][3*n+3].y)/9,e[3*t+2][3*n+2].y=(-4*e[3*t+3][3*n+3].y+6*(e[3*t+3][3*n+2].y+e[3*t+2][3*n+3].y)+-2*(e[3*t+3][3*n].y+e[3*t][3*n+3].y)+3*(e[3*t][3*n+2].y+e[3*t+2][3*n].y)+-1*e[3*t][3*n].y)/9}}this.nodes=e,this.colors=s}paintMesh(t,e){let s=(this.nodes.length-1)/3,r=(this.nodes[0].length-1)/3;if(&quot;bilinear&quot;===this.type||s&lt;2||r&lt;2){let n;for(let o=0;o&lt;s;++o)for(let s=0;s&lt;r;++s){let r=[];for(let t=3*o,e=3*o+4;t&lt;e;++t)r.push(this.nodes[t].slice(3*s,3*s+4));let i=[];i.push(this.colors[o].slice(s,s+2)),i.push(this.colors[o+1].slice(s,s+2)),(n=new m(r,i)).paint(t,e)}}else{let n,o,a,h,l,d,u;const x=s,g=r;s++,r++;let w=new Array(s);for(let t=0;t&lt;s;++t){w[t]=new Array(r);for(let e=0;e&lt;r;++e)w[t][e]=[],w[t][e][0]=this.nodes[3*t][3*e],w[t][e][1]=this.colors[t][e]}for(let t=0;t&lt;s;++t)for(let e=0;e&lt;r;++e)0!==t&amp;&amp;t!==x&amp;&amp;(n=i(w[t-1][e][0],w[t][e][0]),o=i(w[t+1][e][0],w[t][e][0]),w[t][e][2]=c(w[t-1][e][1],w[t][e][1],w[t+1][e][1],n,o)),0!==e&amp;&amp;e!==g&amp;&amp;(n=i(w[t][e-1][0],w[t][e][0]),o=i(w[t][e+1][0],w[t][e][0]),w[t][e][3]=c(w[t][e-1][1],w[t][e][1],w[t][e+1][1],n,o));for(let t=0;t&lt;r;++t){w[0][t][2]=[],w[x][t][2]=[];for(let e=0;e&lt;4;++e)n=i(w[1][t][0],w[0][t][0]),o=i(w[x][t][0],w[x-1][t][0]),w[0][t][2][e]=n&gt;0?2*(w[1][t][1][e]-w[0][t][1][e])/n-w[1][t][2][e]:0,w[x][t][2][e]=o&gt;0?2*(w[x][t][1][e]-w[x-1][t][1][e])/o-w[x-1][t][2][e]:0}for(let t=0;t&lt;s;++t){w[t][0][3]=[],w[t][g][3]=[];for(let e=0;e&lt;4;++e)n=i(w[t][1][0],w[t][0][0]),o=i(w[t][g][0],w[t][g-1][0]),w[t][0][3][e]=n&gt;0?2*(w[t][1][1][e]-w[t][0][1][e])/n-w[t][1][3][e]:0,w[t][g][3][e]=o&gt;0?2*(w[t][g][1][e]-w[t][g-1][1][e])/o-w[t][g-1][3][e]:0}for(let s=0;s&lt;x;++s)for(let r=0;r&lt;g;++r){let n=i(w[s][r][0],w[s+1][r][0]),o=i(w[s][r+1][0],w[s+1][r+1][0]),c=i(w[s][r][0],w[s][r+1][0]),x=i(w[s+1][r][0],w[s+1][r+1][0]),g=[[],[],[],[]];for(let t=0;t&lt;4;++t){(d=[])[0]=w[s][r][1][t],d[1]=w[s+1][r][1][t],d[2]=w[s][r+1][1][t],d[3]=w[s+1][r+1][1][t],d[4]=w[s][r][2][t]*n,d[5]=w[s+1][r][2][t]*n,d[6]=w[s][r+1][2][t]*o,d[7]=w[s+1][r+1][2][t]*o,d[8]=w[s][r][3][t]*c,d[9]=w[s+1][r][3][t]*x,d[10]=w[s][r+1][3][t]*c,d[11]=w[s+1][r+1][3][t]*x,d[12]=0,d[13]=0,d[14]=0,d[15]=0,u=f(d);for(let e=0;e&lt;9;++e){g[t][e]=[];for(let s=0;s&lt;9;++s)g[t][e][s]=p(u,e/8,s/8),g[t][e][s]&gt;255?g[t][e][s]=255:g[t][e][s]&lt;0&amp;&amp;(g[t][e][s]=0)}}h=[];for(let t=3*s,e=3*s+4;t&lt;e;++t)h.push(this.nodes[t].slice(3*r,3*r+4));l=y(h);for(let s=0;s&lt;8;++s)for(let r=0;r&lt;8;++r)(a=new m(l[s][r],[[[g[0][s][r],g[1][s][r],g[2][s][r],g[3][s][r]],[g[0][s][r+1],g[1][s][r+1],g[2][s][r+1],g[3][s][r+1]]],[[g[0][s+1][r],g[1][s+1][r],g[2][s+1][r],g[3][s+1][r]],[g[0][s+1][r+1],g[1][s+1][r+1],g[2][s+1][r+1],g[3][s+1][r+1]]]])).paint(t,e)}}}transform(t){if(t instanceof x)for(let e=0,s=this.nodes.length;e&lt;s;++e)for(let s=0,r=this.nodes[0].length;s&lt;r;++s)this.nodes[e][s]=this.nodes[e][s].add(t);else if(t instanceof g)for(let e=0,s=this.nodes.length;e&lt;s;++e)for(let s=0,r=this.nodes[0].length;s&lt;r;++s)this.nodes[e][s]=this.nodes[e][s].transform(t)}scale(t){for(let e=0,s=this.nodes.length;e&lt;s;++e)for(let s=0,r=this.nodes[0].length;s&lt;r;++s)this.nodes[e][s]=this.nodes[e][s].scale(t)}}document.querySelectorAll(&quot;rect,circle,ellipse,path,text&quot;).forEach((r,n)=&gt;{let o=r.getAttribute(&quot;id&quot;);o||(o=&quot;patchjs_shape&quot;+n,r.setAttribute(&quot;id&quot;,o));const i=r.style.fill.match(/^url\(\s*&quot;?\s*#([^\s&quot;]+)&quot;?\s*\)/),a=r.style.stroke.match(/^url\(\s*&quot;?\s*#([^\s&quot;]+)&quot;?\s*\)/);if(i&amp;&amp;i[1]){const a=document.getElementById(i[1]);if(a&amp;&amp;&quot;meshgradient&quot;===a.nodeName){const i=r.getBBox();let l=document.createElementNS(s,&quot;canvas&quot;);d(l,{width:i.width,height:i.height});const c=l.getContext(&quot;2d&quot;);let u=c.createImageData(i.width,i.height);const f=new b(a);&quot;objectBoundingBox&quot;===a.getAttribute(&quot;gradientUnits&quot;)&amp;&amp;f.scale(new x(i.width,i.height));const p=a.getAttribute(&quot;gradientTransform&quot;);null!=p&amp;&amp;f.transform(h(p)),&quot;userSpaceOnUse&quot;===a.getAttribute(&quot;gradientUnits&quot;)&amp;&amp;f.transform(new x(-i.x,-i.y)),f.paintMesh(u.data,l.width),c.putImageData(u,0,0);const y=document.createElementNS(t,&quot;image&quot;);d(y,{width:i.width,height:i.height,x:i.x,y:i.y});let g=l.toDataURL();y.setAttributeNS(e,&quot;xlink:href&quot;,g),r.parentNode.insertBefore(y,r),r.style.fill=&quot;none&quot;;const w=document.createElementNS(t,&quot;use&quot;);w.setAttributeNS(e,&quot;xlink:href&quot;,&quot;#&quot;+o);const m=&quot;patchjs_clip&quot;+n,M=document.createElementNS(t,&quot;clipPath&quot;);M.setAttribute(&quot;id&quot;,m),M.appendChild(w),r.parentElement.insertBefore(M,r),y.setAttribute(&quot;clip-path&quot;,&quot;url(#&quot;+m+&quot;)&quot;),u=null,l=null,g=null}}if(a&amp;&amp;a[1]){const o=document.getElementById(a[1]);if(o&amp;&amp;&quot;meshgradient&quot;===o.nodeName){const i=parseFloat(r.style.strokeWidth.slice(0,-2))*(parseFloat(r.style.strokeMiterlimit)||parseFloat(r.getAttribute(&quot;stroke-miterlimit&quot;))||1),a=r.getBBox(),l=Math.trunc(a.width+i),c=Math.trunc(a.height+i),u=Math.trunc(a.x-i/2),f=Math.trunc(a.y-i/2);let p=document.createElementNS(s,&quot;canvas&quot;);d(p,{width:l,height:c});const y=p.getContext(&quot;2d&quot;);let g=y.createImageData(l,c);const w=new b(o);&quot;objectBoundingBox&quot;===o.getAttribute(&quot;gradientUnits&quot;)&amp;&amp;w.scale(new x(l,c));const m=o.getAttribute(&quot;gradientTransform&quot;);null!=m&amp;&amp;w.transform(h(m)),&quot;userSpaceOnUse&quot;===o.getAttribute(&quot;gradientUnits&quot;)&amp;&amp;w.transform(new x(-u,-f)),w.paintMesh(g.data,p.width),y.putImageData(g,0,0);const M=document.createElementNS(t,&quot;image&quot;);d(M,{width:l,height:c,x:0,y:0});let S=p.toDataURL();M.setAttributeNS(e,&quot;xlink:href&quot;,S);const k=&quot;pattern_clip&quot;+n,A=document.createElementNS(t,&quot;pattern&quot;);d(A,{id:k,patternUnits:&quot;userSpaceOnUse&quot;,width:l,height:c,x:u,y:f}),A.appendChild(M),o.parentNode.appendChild(A),r.style.stroke=&quot;url(#&quot;+k+&quot;)&quot;,g=null,p=null,S=null}}})}();
</script></svg>
