<?xml version="1.0" encoding="UTF-8" standalone="no"?>
<!-- Created with Inkscape (http://www.inkscape.org/) -->

<svg
   width="169.66714"
   height="118.44595"
   viewBox="0 0 44.891099 31.338825"
   version="1.1"
   id="svg1"
   xml:space="preserve"
   xmlns:xlink="http://www.w3.org/1999/xlink"
   xmlns="http://www.w3.org/2000/svg"
   xmlns:svg="http://www.w3.org/2000/svg"><defs
     id="defs1"><meshgradient
       id="meshgradient94"
       gradientUnits="userSpaceOnUse"
       x="0.04480489"
       y="0.044811249"><meshrow
         id="meshrow94"><meshpatch
           id="meshpatch94"><stop
             path="c 107.567,0  215.135,0  322.702,0"
             style="stop-color:#ffffff;stop-opacity:1"
             id="stop95" /><stop
             path="c 0,18.491  0,36.9819  0,55.4729"
             style="stop-color:#ed6767;stop-opacity:1"
             id="stop96" /><stop
             path="c -107.567,0  -215.135,0  -322.702,0"
             style="stop-color:#ffffff;stop-opacity:1"
             id="stop97" /><stop
             path="c 0,-18.491  0,-36.9819  0,-55.4729"
             style="stop-color:#ed6767;stop-opacity:1"
             id="stop98" /></meshpatch></meshrow></meshgradient></defs><g
     id="layer4"
     transform="translate(-71.033088,-1.9167554)"><rect
       style="fill:url(#meshgradient94);fill-opacity:1;stroke:#ffffff;stroke-width:0.0896207;stroke-opacity:1"
       id="rect28"
       width="322.70206"
       height="55.472878"
       x="0.04480489"
       y="0.044811249"
       ry="0.18162204" /></g><g
     id="layer12"
     transform="translate(-71.033088,-1.9167554)"><circle
       style="fill:none;stroke:none;stroke-width:0.128728"
       id="path1"
       cx="167.8828"
       cy="28.916674"
       r="23.137484" /><text
       xml:space="preserve"
       style="font-style:normal;font-variant:normal;font-weight:normal;font-stretch:normal;font-size:3.33313px;font-family:'Arial Rounded MT Bold';-inkscape-font-specification:'Arial Rounded MT Bold, Normal';font-variant-ligatures:normal;font-variant-caps:normal;font-variant-numeric:normal;font-variant-east-asian:normal;fill:#3c3c3c;fill-opacity:1;stroke:none;stroke-width:0.677344;stroke-opacity:1"
       id="text1"
       transform="matrix(1.0272754,0,0,1.0272754,-5.6145081,-1.6934446)"><textPath
         xlink:href="#path1"
         id="textPath1"><tspan
           id="tspan1"
           style="font-style:normal;font-variant:normal;font-weight:normal;font-stretch:normal;font-size:3.33313px;font-family:'Arial Rounded MT Bold';-inkscape-font-specification:'Arial Rounded MT Bold, Normal';font-variant-ligatures:normal;font-variant-caps:normal;font-variant-numeric:normal;font-variant-east-asian:normal;fill:#3c3c3c;fill-opacity:1;stroke:none;stroke-width:0.677344;stroke-opacity:1">N G S H O P N G S H O P N G S H O P N G S H O P N G S H O P N G S H O P N G S H O P N G S H O P N G S H O P N G S H O P N G S H O P N G S H O P N G S H O P</tspan></textPath></text></g><g
     id="layer5"
     transform="translate(-71.033088,-1.9167554)"><text
       xml:space="preserve"
       style="font-style:normal;font-variant:normal;font-weight:normal;font-stretch:normal;font-size:3.33313px;font-family:'Arial Rounded MT Bold';-inkscape-font-specification:'Arial Rounded MT Bold, Normal';font-variant-ligatures:normal;font-variant-caps:normal;font-variant-numeric:normal;font-variant-east-asian:normal;fill:#8c8c8c;fill-opacity:1;stroke:none;stroke-width:0.677344;stroke-opacity:1"
       id="text30"
       transform="matrix(0.97741097,0,0,0.97741097,-170.9446,-24.660376)"><textPath
         xlink:href="#path1"
         id="textPath30"><tspan
           id="tspan30"
           style="font-style:normal;font-variant:normal;font-weight:normal;font-stretch:normal;font-size:3.33313px;font-family:'Arial Rounded MT Bold';-inkscape-font-specification:'Arial Rounded MT Bold, Normal';font-variant-ligatures:normal;font-variant-caps:normal;font-variant-numeric:normal;font-variant-east-asian:normal;fill:#8c8c8c;fill-opacity:1;stroke:none;stroke-width:0.677344;stroke-opacity:1">N G S H O P N G S H O P N G S H O P N G S H O P N G S H O P N G S H O P N G S H O P N G S H O P N G S H O P N G S H O P N G S H O P N G S H O P N G S H O P</tspan></textPath></text></g><g
     id="layer6"
     transform="translate(-71.033088,-1.9167554)"><text
       xml:space="preserve"
       style="font-style:normal;font-variant:normal;font-weight:normal;font-stretch:normal;font-size:3.33313px;font-family:'Arial Rounded MT Bold';-inkscape-font-specification:'Arial Rounded MT Bold, Normal';font-variant-ligatures:normal;font-variant-caps:normal;font-variant-numeric:normal;font-variant-east-asian:normal;fill:#8c8c8c;fill-opacity:1;stroke:none;stroke-width:0.677344;stroke-opacity:1"
       id="text60"
       transform="matrix(0.97741097,0,0,0.97741097,151.56422,24.559806)"><textPath
         xlink:href="#path1"
         id="textPath60"><tspan
           id="tspan60"
           style="font-style:normal;font-variant:normal;font-weight:normal;font-stretch:normal;font-size:3.33313px;font-family:'Arial Rounded MT Bold';-inkscape-font-specification:'Arial Rounded MT Bold, Normal';font-variant-ligatures:normal;font-variant-caps:normal;font-variant-numeric:normal;font-variant-east-asian:normal;fill:#8c8c8c;fill-opacity:1;stroke:none;stroke-width:0.677344;stroke-opacity:1">N G S H O P N G S H O P N G S H O P N G S H O P N G S H O P N G S H O P N G S H O P N G S H O P N G S H O P N G S H O P N G S H O P N G S H O P N G S H O P</tspan></textPath></text></g><g
     id="layer7"
     transform="translate(-71.033088,-1.9167554)"><text
       xml:space="preserve"
       style="font-style:normal;font-variant:normal;font-weight:normal;font-stretch:normal;font-size:3.33313px;font-family:'Arial Rounded MT Bold';-inkscape-font-specification:'Arial Rounded MT Bold, Normal';font-variant-ligatures:normal;font-variant-caps:normal;font-variant-numeric:normal;font-variant-east-asian:normal;fill:#8c8c8c;fill-opacity:1;stroke:none;stroke-width:0.677344;stroke-opacity:1"
       id="text1-0"
       transform="matrix(0.97741097,0,0,0.97741097,-105.62181,79.271628)"><textPath
         xlink:href="#path1"
         id="textPath1-5"><tspan
           id="tspan1-1"
           style="font-style:normal;font-variant:normal;font-weight:normal;font-stretch:normal;font-size:3.33313px;font-family:'Arial Rounded MT Bold';-inkscape-font-specification:'Arial Rounded MT Bold, Normal';font-variant-ligatures:normal;font-variant-caps:normal;font-variant-numeric:normal;font-variant-east-asian:normal;fill:#8c8c8c;fill-opacity:1;stroke:none;stroke-width:0.677344;stroke-opacity:1">N G S H O P N G S H O P N G S H O P N G S H O P N G S H O P N G S H O P N G S H O P N G S H O P N G S H O P N G S H O P N G S H O P N G S H O P N G S H O P</tspan></textPath></text></g><g
     id="layer13"
     transform="translate(-71.033088,-1.9167554)"><g
       id="g1"
       transform="matrix(1.1604957,0,0,1.1791994,-15.98539,-0.34348162)"><rect
         style="fill:#e5e5e5;fill-opacity:1;stroke-width:0.414852;stroke-linecap:round;stroke-linejoin:bevel"
         id="rect1"
         width="38.682693"
         height="26.576359"
         x="74.983887"
         y="1.9167556"
         ry="0.17548057" /><path
         id="rect5"
         style="fill:#ffffff;fill-opacity:1;stroke:#000000;stroke-width:0.711301;stroke-linecap:round;stroke-linejoin:bevel;stroke-opacity:1"
         d="M 76.334587,3.6681766 V 17.503969 L 99.430095,10.093603 V 3.6681766 Z" /><path
         id="path101"
         style="fill:#ffffff;fill-opacity:1;stroke:#000000;stroke-width:0.711301;stroke-linecap:round;stroke-linejoin:bevel;stroke-opacity:1"
         d="M 99.430095,26.605951 V 12.770159 l -23.095508,7.410365 v 6.425427 z" /><rect
         style="fill:#ffffff;fill-opacity:1;stroke:#000000;stroke-width:0.619043;stroke-linecap:round;stroke-linejoin:bevel;stroke-opacity:1"
         id="rect4"
         width="10.627892"
         height="23.494492"
         x="101.73412"
         y="3.457689"
         ry="0.66738808" /></g><path
       style="fill:#ffe0cc;fill-opacity:1;stroke:#000000;stroke-width:0.645867;stroke-linecap:round;stroke-linejoin:bevel;stroke-opacity:1"
       d="m 80.284538,16.771029 c 1.882868,-0.95911 5.070942,-0.173323 4.838576,2.467867 -0.116973,1.329547 -1.049178,2.566695 -1.806806,3.592468 -0.453761,0.614358 -0.942264,1.200518 -1.454638,1.764995 -0.134805,0.14851 -0.27812,0.299321 -0.413425,0.437344 -0.04113,0.04199 -0.155608,0.173507 -0.107181,0.140575 0.06033,-0.04104 0.11228,-0.09371 0.168433,-0.140575 0.107182,-0.07287 0.213098,-0.147758 0.321548,-0.21867 1.307321,-0.854856 4.485876,-1.25001 5.757299,-0.156198 0.825025,0.709781 1.018042,1.770044 1.270891,2.780259 0.04932,0.196999 -0.03124,0.701318 0.137808,0.593538 2.359509,-1.504305 3.793527,-3.010077 6.737261,-3.514368 0.823862,-0.141139 1.844779,-0.07649 2.618345,-0.03124 0.440372,0.02575 1.714051,0.546977 2.128351,0.406102 0.0981,-0.03331 0.0446,-0.614868 0.0614,-0.687252 0.10885,-0.471722 0.29139,-0.975269 0.48997,-1.405747 0.6464,-1.401162 1.31995,-1.782092 2.8174,-2.998929 1.27918,-1.039447 3.16964,-1.594667 4.7314,-2.030525 0.38824,-0.108345 0.76426,-0.226063 1.14841,-0.343627 0.16013,-0.04902 0.6572,-0.109338 0.49,-0.109338 -3.3657,0 -4.83098,-1.388193 -6.33918,-4.248484 -0.45864,-0.869847 -0.81654,-1.718797 -1.01059,-2.686538 -0.082,-0.4086483 -0.0766,-0.8485184 -0.0766,-1.2651738 0,-0.1409605 0.0867,-0.4964484 -0.0305,-0.4217242 -0.60849,0.3879246 -0.86088,1.0049004 -1.62308,1.2807911 C 99.500276,10.569946 97.583536,9.5649486 96.270357,8.6489322 95.651825,8.2175155 95.019228,7.712341 94.570659,7.0869882 94.293358,6.7003994 94.124171,6.1679333 94.111302,6.1810615 c -0.1305,0.1331193 -0.07544,0.5245859 -0.1225,0.7028734 -0.09842,0.3728835 -0.325629,0.731884 -0.535918,1.0465012 -1.20274,1.7994377 -2.771569,1.8215066 -4.869203,1.9055674 -1.11302,0.044588 -2.323231,-0.1133241 -3.429878,-0.2655299 -0.332653,-0.045751 -0.666135,-0.089021 -0.995276,-0.1561933 -0.11435,-0.023327 -0.416439,-0.2097127 -0.321553,-0.1405764 2.01158,1.4656971 -1.832426,4.8785801 -2.725529,5.9353821 -0.164233,0.194336 -0.548355,0.423055 -0.62779,0.656015 -0.09967,0.292294 -0.132706,0.60395 -0.199056,0.905925 z"
       id="path431" /><path
       style="fill:none;stroke:#000000;stroke-width:0.726952;stroke-linecap:round;stroke-linejoin:round;stroke-dasharray:none;stroke-opacity:1"
       d="m 166.06702,57.244649 c 0.17981,0.236919 0.36258,0.477734 0.52346,0.61257 0.16088,0.134836 0.30135,0.165639 0.43737,0.177057 0.13602,0.01142 0.27219,0.0032 0.43247,-0.0479 0.16028,-0.05107 0.34697,-0.145102 0.5961,-0.382623 0.24913,-0.237521 0.56068,-0.618512 1.27475,-2.26846 0.71408,-1.649948 1.83062,-4.568723 2.4228,-6.022467 0.59218,-1.453743 0.66005,-1.442387 0.68016,-1.376184 0.0201,0.0662 -0.007,0.187256 -0.0846,0.630142 -0.0771,0.442887 -0.2038,1.207572 -0.27223,1.888242 -0.0684,0.680671 -0.0786,1.277288 -0.0621,2.179268 0.0165,0.90198 0.0597,2.109265 0.13358,2.954764 0.0738,0.845499 0.17829,1.329173 0.27973,1.63396 0.10144,0.304788 0.19991,0.430729 0.30376,0.512332 0.10385,0.0816 0.21311,0.118895 0.26623,0.139984 0.0531,0.02109 0.0501,0.02591 0.0786,0.02564 0.0285,-2.65e-4 0.0886,-0.0057 0.1687,-0.02378 0.0801,-0.0181 0.18039,-0.04891 0.47514,-0.261568 0.29475,-0.212659 0.78399,-0.607162 1.34618,-1.274867 0.56219,-0.667705 1.1973,-1.608566 1.69345,-2.470282 0.49616,-0.861716 0.85333,-1.644233 1.09495,-2.236274 0.24163,-0.59204 0.36769,-0.993566 0.44484,-1.35349 0.0771,-0.359924 0.10538,-0.678225 0.11709,-0.924125 0.0117,-0.245901 0.007,-0.41938 -0.0309,-0.548528 -0.0378,-0.129149 -0.10866,-0.214009 -0.21161,-0.290481 -0.10296,-0.07647 -0.23802,-0.144562 -0.41211,-0.175905 -0.17409,-0.03134 -0.38719,-0.02594 -0.64472,0.06908 -0.25754,0.09502 -0.56189,0.281119 -0.86414,0.584842 -0.30226,0.303722 -0.60361,0.725786 -0.82812,1.192719 -0.22452,0.466932 -0.37219,0.978703 -0.44636,1.398616 -0.0742,0.419913 -0.0748,0.747942 -0.0466,1.118676 0.0282,0.370734 0.0852,0.784156 0.19116,1.147055 0.10595,0.3629 0.26083,0.675256 0.40641,0.867918 0.14557,0.192663 0.28183,0.265617 0.43341,0.321553 0.15158,0.05593 0.31846,0.09484 0.53247,0.07674 0.21401,-0.0181 0.47514,-0.09322 0.93378,-0.293997 0.45864,-0.200772 1.11475,-0.52718 1.62981,-0.842521 0.51507,-0.31534 0.88905,-0.619593 1.22732,-0.929259 0.33828,-0.309666 0.64083,-0.62473 0.84553,-0.924668 0.20471,-0.299938 0.31156,-0.584736 0.29565,-0.734703 -0.0159,-0.149967 -0.15458,-0.165101 -0.30706,-0.155643 -0.15248,0.0095 -0.31876,0.0435 -0.49255,0.108626 -0.17379,0.06512 -0.35507,0.161313 -0.56548,0.264536 -0.21041,0.103223 -0.44993,0.213469 -0.65583,0.306153 -0.20591,0.09268 -0.37819,0.167799 -0.42383,0.174565 -0.0456,0.0068 0.0354,-0.05486 0.21883,-0.159435 0.1834,-0.104575 0.46913,-0.252105 0.69305,-0.383971 0.22391,-0.131865 0.38599,-0.248056 1.06002,-0.589423 0.67402,-0.341367 1.85925,-0.907554 3.04485,-1.473918"
       id="path96"
       transform="matrix(0.64192604,-0.24699077,0.24699077,0.64192604,-32.519659,25.627237)" /><text
       xml:space="preserve"
       style="font-style:normal;font-variant:normal;font-weight:bold;font-stretch:normal;font-size:3.09348px;line-height:1.45;font-family:Arial;-inkscape-font-specification:'Arial Bold';letter-spacing:0.292547px;fill:#000000;fill-opacity:1;stroke:#000000;stroke-width:0.0789203;stroke-dasharray:none;stroke-opacity:1"
       id="text99"
       transform="matrix(1.1318714,-0.13914194,0.13914194,1.1318714,-15.039985,10.688375)"><textPath
         xlink:href="#path97"
         id="textPath97"><tspan
           id="tspan99"
           style="font-style:normal;font-variant:normal;font-weight:bold;font-stretch:normal;font-size:3.09348px;line-height:1.45;font-family:Arial;-inkscape-font-specification:'Arial Bold';letter-spacing:0.292547px;fill:#000000;fill-opacity:1;stroke:#000000;stroke-width:0.0789203;stroke-dasharray:none;stroke-opacity:1">SHOP</tspan></textPath></text><path
       style="fill:#a05a2c;fill-opacity:1;stroke:#000000;stroke-width:0.4;stroke-linecap:round;stroke-linejoin:bevel;stroke-dasharray:none;stroke-opacity:1"
       d="m 70.637246,7.7269209 c 0.04999,-0.096232 0.0707,-0.2090158 0.138133,-0.2942613 0.07236,-0.091479 0.168704,-0.16026 0.261886,-0.2288208 0.462854,-0.3405568 1.003805,-0.5474495 1.531106,-0.7642961 0.301968,-0.1241807 0.579476,-0.3141079 0.895127,-0.3973545 0.03409,-0.00899 0.11465,-0.089032 0.107736,-0.050291 -0.02056,0.1151958 -0.118115,0.1930556 -0.159587,0.3006501 -0.09853,0.2556417 -0.136734,0.5313501 -0.140281,0.8035306 -0.0064,0.4872919 0.09472,0.9701179 0.239039,1.433112 0.172979,0.5549526 0.391887,1.1012581 0.705442,1.5915011 0.248051,0.387825 0.510071,0.768487 0.810494,1.117862 0.14481,0.168405 0.682873,0.555144 0.480536,0.461321 -0.158464,-0.07348 -0.339744,-0.02707 -0.494148,0.03522 -0.153894,0.06209 -0.29362,0.152012 -0.43839,0.231712 -0.06592,0.03629 -0.101425,-0.05222 -0.131517,-0.09481 -0.102736,-0.145401 -0.179488,-0.309439 -0.293118,-0.446256 -0.616662,-0.7425 -1.343755,-1.383637 -1.959563,-2.1274271 -0.469568,-0.5671573 -0.935425,-1.1562192 -1.552895,-1.571388 z"
       id="path437"
       transform="matrix(1.131155,0,0,1.131155,1.8044119,-1.0875842)" /><path
       style="fill:#915228;fill-opacity:1;stroke:#000000;stroke-width:0.4;stroke-linecap:round;stroke-linejoin:bevel;stroke-dasharray:none;stroke-opacity:1"
       d="m 74.738364,12.827818 c 0.08451,-0.119797 0.186098,-0.228944 0.307858,-0.311476 0.03995,-0.02708 0.08071,-0.05319 0.125371,-0.07223 0.14354,-0.0612 0.283106,-0.137899 0.435454,-0.171809 0.03,-0.0067 0.08537,-0.04992 0.09311,-0.02 0.01169,0.04519 0.0092,0.09327 0.0039,0.13917 -0.0043,0.03718 0.0059,0.07335 0.0172,0.108368 0.03124,0.09693 0.07585,0.188644 0.112807,0.283432 0.02671,0.0685 0.04622,0.14138 0.08675,0.20276 0.0094,0.01416 -0.01579,0.0075 -0.02356,0.0079 -0.06519,0.0032 -0.127567,0.03108 -0.176091,0.07439 -0.05896,0.05262 -0.107883,0.115164 -0.156589,0.177011 -0.05158,0.06549 -0.107025,0.131999 -0.13224,0.212316 -0.01196,0.03811 0.01182,0.112283 -0.02869,0.116496 -0.02316,0.0024 -0.0396,-0.025 -0.05344,-0.04124 -0.09212,-0.108139 -0.149355,-0.239894 -0.237502,-0.351334 -0.09941,-0.125681 -0.22396,-0.227646 -0.346142,-0.330076 -0.0094,-0.0079 -0.01879,-0.01579 -0.02818,-0.02368 z"
       id="path438"
       transform="matrix(1.131155,0,0,1.131155,1.8044119,-1.0875842)" /><path
       style="fill:#a05a2c;fill-opacity:1;stroke:#000000;stroke-width:0.610548;stroke-linecap:round;stroke-linejoin:bevel;stroke-dasharray:none;stroke-opacity:1"
       d="m 59.502934,14.188915 c 0.153953,-0.143085 0.61795,-0.569999 0.461696,-0.42943 -0.05195,0.04673 -0.103069,0.09723 -0.02143,0.02413 0.951189,-0.851639 1.841899,-1.781878 2.912093,-2.490722 0.280811,-0.185996 0.561777,-0.372205 0.843564,-0.556406 0.15095,-0.09867 -0.03118,0.11265 -0.07068,0.157661 -0.282746,0.32221 -0.383091,0.763279 -0.401695,1.18168 -0.03755,0.844434 0.265629,1.664664 0.677409,2.388356 0.449102,0.789285 1.005964,1.515367 1.627853,2.174173 0.528047,0.559395 1.204929,0.94059 1.865947,1.32434 0.146954,0.08531 0.541704,0.131238 0.436599,0.265127 -0.123961,0.157907 -0.330893,0.225305 -0.482656,0.355824 -0.281692,0.242261 -0.526637,0.523733 -0.768001,0.805624 -0.109456,0.127834 -0.259196,-0.02606 -0.338831,-0.109548 -0.384124,-0.402725 -0.659551,-0.891972 -1.001803,-1.327692 -0.593687,-0.755824 -1.252701,-1.460035 -1.977406,-2.09357 -0.670073,-0.585776 -1.41403,-1.104843 -2.260669,-1.407204 -0.482863,-0.172446 -1.000404,-0.182569 -1.501992,-0.262342 z"
       id="path439"
       transform="matrix(0.74103335,-0.00784653,0.00784653,0.74103335,35.153662,1.8694738)" /><path
       style="fill:#915228;fill-opacity:1;stroke:#000000;stroke-width:0.610548;stroke-linecap:round;stroke-linejoin:bevel;stroke-dasharray:none;stroke-opacity:1"
       d="m 66.994116,20.432126 c -0.02778,-0.132201 -0.02908,-0.28091 0.04907,-0.397151 0.08505,-0.126491 0.216504,-0.20957 0.324212,-0.314633 0.08734,-0.0852 0.163962,-0.180417 0.246392,-0.270285 0.226436,-0.246868 0.446935,-0.501623 0.701628,-0.719593 0.06147,-0.05261 0.119068,-0.11575 0.195368,-0.145039 0.0547,-0.021 0.06089,0.05885 0.07231,0.0942 0.06805,0.210713 0.114,0.430365 0.210118,0.630474 0.04178,0.08698 0.107915,0.158865 0.166355,0.234719 0.09237,0.119893 0.16745,0.253368 0.268753,0.366305 0.03857,0.043 0.0081,0.08612 -0.03171,0.118083 -0.195952,0.157305 -0.41762,0.282145 -0.601754,0.453782 -0.06487,0.06047 -0.108938,0.138716 -0.161226,0.209563 -0.0732,0.09918 -0.151809,0.194136 -0.231573,0.28884 -0.02962,0.03517 -0.07283,0.008 -0.106852,-0.0033 -0.129277,-0.04318 -0.235996,-0.131818 -0.329836,-0.227938 -0.09699,-0.09935 -0.21052,-0.184545 -0.34145,-0.234079 -0.137272,-0.05193 -0.284102,-0.0733 -0.429808,-0.0839 z"
       id="path440"
       transform="matrix(0.74103335,-0.00784653,0.00784653,0.74103335,35.153662,1.8694738)" /><path
       style="fill:none;fill-opacity:1;stroke:#000000;stroke-width:0.452462;stroke-linecap:round;stroke-linejoin:bevel;stroke-dasharray:none;stroke-opacity:1"
       d="m 105.75697,12.549999 c 0.58639,-0.704895 1.25183,-1.732128 2.19553,-2.016702"
       id="path447" /><path
       style="fill:none;fill-opacity:1;stroke:#000000;stroke-width:0.452462;stroke-linecap:round;stroke-linejoin:bevel;stroke-dasharray:none;stroke-opacity:1"
       d="m 106.60203,13.656965 c 0.50843,-1.03978 1.2083,-2.000941 2.06395,-2.779645"
       id="path448" /><path
       style="fill:none;fill-opacity:1;stroke:#000000;stroke-width:0.452462;stroke-linecap:round;stroke-linejoin:bevel;stroke-dasharray:none;stroke-opacity:1"
       d="m 83.826299,25.406168 c -0.93982,0.471431 -1.457918,1.498188 -1.901095,2.421734"
       id="path449" /><path
       style="fill:none;fill-opacity:1;stroke:#000000;stroke-width:0.452462;stroke-linecap:round;stroke-linejoin:bevel;stroke-dasharray:none;stroke-opacity:1"
       d="M 84.281263,26.29197 C 82.916291,26.25992 82.5914,28.361273 82.5914,29.493861"
       id="path450" /><path
       style="opacity:0;fill:none;stroke:#000000;stroke-width:0.411497;stroke-linecap:round;stroke-linejoin:bevel"
       d="m 96.25171,23.291452 0.774163,-1.870894 0.451599,-0.70965 0.387072,-0.387082 0.58063,-0.451595 0.58063,-0.451595 0.77416,-0.451596 0.709636,-0.451595 0.9032,-0.322568 0.77416,-0.258055 1.6627,-0.440411 1.56778,-0.564401 1.00338,-0.125422 h 1.37965"
       id="path97" /></g><script
     id="mesh_polyfill"
     type="text/javascript">
!function(){const t=&quot;http://www.w3.org/2000/svg&quot;,e=&quot;http://www.w3.org/1999/xlink&quot;,s=&quot;http://www.w3.org/1999/xhtml&quot;,r=2;if(document.createElementNS(t,&quot;meshgradient&quot;).x)return;const n=(t,e,s,r)=&gt;{let n=new x(.5*(e.x+s.x),.5*(e.y+s.y)),o=new x(.5*(t.x+e.x),.5*(t.y+e.y)),i=new x(.5*(s.x+r.x),.5*(s.y+r.y)),a=new x(.5*(n.x+o.x),.5*(n.y+o.y)),h=new x(.5*(n.x+i.x),.5*(n.y+i.y)),l=new x(.5*(a.x+h.x),.5*(a.y+h.y));return[[t,o,a,l],[l,h,i,r]]},o=t=&gt;{let e=t[0].distSquared(t[1]),s=t[2].distSquared(t[3]),r=.25*t[0].distSquared(t[2]),n=.25*t[1].distSquared(t[3]),o=e&gt;s?e:s,i=r&gt;n?r:n;return 18*(o&gt;i?o:i)},i=(t,e)=&gt;Math.sqrt(t.distSquared(e)),a=(t,e)=&gt;t.scale(2/3).add(e.scale(1/3)),h=t=&gt;{let e,s,r,n,o,i,a,h=new g;return t.match(/(\w+\(\s*[^)]+\))+/g).forEach(t=&gt;{let l=t.match(/[\w.-]+/g),d=l.shift();switch(d){case&quot;translate&quot;:2===l.length?e=new g(1,0,0,1,l[0],l[1]):(console.error(&quot;mesh.js: translate does not have 2 arguments!&quot;),e=new g(1,0,0,1,0,0)),h=h.append(e);break;case&quot;scale&quot;:1===l.length?s=new g(l[0],0,0,l[0],0,0):2===l.length?s=new g(l[0],0,0,l[1],0,0):(console.error(&quot;mesh.js: scale does not have 1 or 2 arguments!&quot;),s=new g(1,0,0,1,0,0)),h=h.append(s);break;case&quot;rotate&quot;:if(3===l.length&amp;&amp;(e=new g(1,0,0,1,l[1],l[2]),h=h.append(e)),l[0]){r=l[0]*Math.PI/180;let t=Math.cos(r),e=Math.sin(r);Math.abs(t)&lt;1e-16&amp;&amp;(t=0),Math.abs(e)&lt;1e-16&amp;&amp;(e=0),a=new g(t,e,-e,t,0,0),h=h.append(a)}else console.error(&quot;math.js: No argument to rotate transform!&quot;);3===l.length&amp;&amp;(e=new g(1,0,0,1,-l[1],-l[2]),h=h.append(e));break;case&quot;skewX&quot;:l[0]?(r=l[0]*Math.PI/180,n=Math.tan(r),o=new g(1,0,n,1,0,0),h=h.append(o)):console.error(&quot;math.js: No argument to skewX transform!&quot;);break;case&quot;skewY&quot;:l[0]?(r=l[0]*Math.PI/180,n=Math.tan(r),i=new g(1,n,0,1,0,0),h=h.append(i)):console.error(&quot;math.js: No argument to skewY transform!&quot;);break;case&quot;matrix&quot;:6===l.length?h=h.append(new g(...l)):console.error(&quot;math.js: Incorrect number of arguments for matrix!&quot;);break;default:console.error(&quot;mesh.js: Unhandled transform type: &quot;+d)}}),h},l=t=&gt;{let e=[],s=t.split(/[ ,]+/);for(let t=0,r=s.length-1;t&lt;r;t+=2)e.push(new x(parseFloat(s[t]),parseFloat(s[t+1])));return e},d=(t,e)=&gt;{for(let s in e)t.setAttribute(s,e[s])},c=(t,e,s,r,n)=&gt;{let o,i,a=[0,0,0,0];for(let h=0;h&lt;3;++h)e[h]&lt;t[h]&amp;&amp;e[h]&lt;s[h]||t[h]&lt;e[h]&amp;&amp;s[h]&lt;e[h]?a[h]=0:(a[h]=.5*((e[h]-t[h])/r+(s[h]-e[h])/n),o=Math.abs(3*(e[h]-t[h])/r),i=Math.abs(3*(s[h]-e[h])/n),a[h]&gt;o?a[h]=o:a[h]&gt;i&amp;&amp;(a[h]=i));return a},u=[[1,0,0,0,0,0,0,0,0,0,0,0,0,0,0,0],[0,0,0,0,1,0,0,0,0,0,0,0,0,0,0,0],[-3,3,0,0,-2,-1,0,0,0,0,0,0,0,0,0,0],[2,-2,0,0,1,1,0,0,0,0,0,0,0,0,0,0],[0,0,0,0,0,0,0,0,1,0,0,0,0,0,0,0],[0,0,0,0,0,0,0,0,0,0,0,0,1,0,0,0],[0,0,0,0,0,0,0,0,-3,3,0,0,-2,-1,0,0],[0,0,0,0,0,0,0,0,2,-2,0,0,1,1,0,0],[-3,0,3,0,0,0,0,0,-2,0,-1,0,0,0,0,0],[0,0,0,0,-3,0,3,0,0,0,0,0,-2,0,-1,0],[9,-9,-9,9,6,3,-6,-3,6,-6,3,-3,4,2,2,1],[-6,6,6,-6,-3,-3,3,3,-4,4,-2,2,-2,-2,-1,-1],[2,0,-2,0,0,0,0,0,1,0,1,0,0,0,0,0],[0,0,0,0,2,0,-2,0,0,0,0,0,1,0,1,0],[-6,6,6,-6,-4,-2,4,2,-3,3,-3,3,-2,-1,-2,-1],[4,-4,-4,4,2,2,-2,-2,2,-2,2,-2,1,1,1,1]],f=t=&gt;{let e=[];for(let s=0;s&lt;16;++s){e[s]=0;for(let r=0;r&lt;16;++r)e[s]+=u[s][r]*t[r]}return e},p=(t,e,s)=&gt;{const r=e*e,n=s*s,o=e*e*e,i=s*s*s;return t[0]+t[1]*e+t[2]*r+t[3]*o+t[4]*s+t[5]*s*e+t[6]*s*r+t[7]*s*o+t[8]*n+t[9]*n*e+t[10]*n*r+t[11]*n*o+t[12]*i+t[13]*i*e+t[14]*i*r+t[15]*i*o},y=t=&gt;{let e=[],s=[],r=[];for(let s=0;s&lt;4;++s)e[s]=[],e[s][0]=n(t[0][s],t[1][s],t[2][s],t[3][s]),e[s][1]=[],e[s][1].push(...n(...e[s][0][0])),e[s][1].push(...n(...e[s][0][1])),e[s][2]=[],e[s][2].push(...n(...e[s][1][0])),e[s][2].push(...n(...e[s][1][1])),e[s][2].push(...n(...e[s][1][2])),e[s][2].push(...n(...e[s][1][3]));for(let t=0;t&lt;8;++t){s[t]=[];for(let r=0;r&lt;4;++r)s[t][r]=[],s[t][r][0]=n(e[0][2][t][r],e[1][2][t][r],e[2][2][t][r],e[3][2][t][r]),s[t][r][1]=[],s[t][r][1].push(...n(...s[t][r][0][0])),s[t][r][1].push(...n(...s[t][r][0][1])),s[t][r][2]=[],s[t][r][2].push(...n(...s[t][r][1][0])),s[t][r][2].push(...n(...s[t][r][1][1])),s[t][r][2].push(...n(...s[t][r][1][2])),s[t][r][2].push(...n(...s[t][r][1][3]))}for(let t=0;t&lt;8;++t){r[t]=[];for(let e=0;e&lt;8;++e)r[t][e]=[],r[t][e][0]=s[t][0][2][e],r[t][e][1]=s[t][1][2][e],r[t][e][2]=s[t][2][2][e],r[t][e][3]=s[t][3][2][e]}return r};class x{constructor(t,e){this.x=t||0,this.y=e||0}toString(){return`(x=${this.x}, y=${this.y})`}clone(){return new x(this.x,this.y)}add(t){return new x(this.x+t.x,this.y+t.y)}scale(t){return void 0===t.x?new x(this.x*t,this.y*t):new x(this.x*t.x,this.y*t.y)}distSquared(t){let e=this.x-t.x,s=this.y-t.y;return e*e+s*s}transform(t){let e=this.x*t.a+this.y*t.c+t.e,s=this.x*t.b+this.y*t.d+t.f;return new x(e,s)}}class g{constructor(t,e,s,r,n,o){void 0===t?(this.a=1,this.b=0,this.c=0,this.d=1,this.e=0,this.f=0):(this.a=t,this.b=e,this.c=s,this.d=r,this.e=n,this.f=o)}toString(){return`affine: ${this.a} ${this.c} ${this.e} \n       ${this.b} ${this.d} ${this.f}`}append(t){t instanceof g||console.error(&quot;mesh.js: argument to Affine.append is not affine!&quot;);let e=this.a*t.a+this.c*t.b,s=this.b*t.a+this.d*t.b,r=this.a*t.c+this.c*t.d,n=this.b*t.c+this.d*t.d,o=this.a*t.e+this.c*t.f+this.e,i=this.b*t.e+this.d*t.f+this.f;return new g(e,s,r,n,o,i)}}class w{constructor(t,e){this.nodes=t,this.colors=e}paintCurve(t,e){if(o(this.nodes)&gt;r){const s=n(...this.nodes);let r=[[],[]],o=[[],[]];for(let t=0;t&lt;4;++t)r[0][t]=this.colors[0][t],r[1][t]=(this.colors[0][t]+this.colors[1][t])/2,o[0][t]=r[1][t],o[1][t]=this.colors[1][t];let i=new w(s[0],r),a=new w(s[1],o);i.paintCurve(t,e),a.paintCurve(t,e)}else{let s=Math.round(this.nodes[0].x);if(s&gt;=0&amp;&amp;s&lt;e){let r=4*(~~this.nodes[0].y*e+s);t[r]=Math.round(this.colors[0][0]),t[r+1]=Math.round(this.colors[0][1]),t[r+2]=Math.round(this.colors[0][2]),t[r+3]=Math.round(this.colors[0][3])}}}}class m{constructor(t,e){this.nodes=t,this.colors=e}split(){let t=[[],[],[],[]],e=[[],[],[],[]],s=[[[],[]],[[],[]]],r=[[[],[]],[[],[]]];for(let s=0;s&lt;4;++s){const r=n(this.nodes[0][s],this.nodes[1][s],this.nodes[2][s],this.nodes[3][s]);t[0][s]=r[0][0],t[1][s]=r[0][1],t[2][s]=r[0][2],t[3][s]=r[0][3],e[0][s]=r[1][0],e[1][s]=r[1][1],e[2][s]=r[1][2],e[3][s]=r[1][3]}for(let t=0;t&lt;4;++t)s[0][0][t]=this.colors[0][0][t],s[0][1][t]=this.colors[0][1][t],s[1][0][t]=(this.colors[0][0][t]+this.colors[1][0][t])/2,s[1][1][t]=(this.colors[0][1][t]+this.colors[1][1][t])/2,r[0][0][t]=s[1][0][t],r[0][1][t]=s[1][1][t],r[1][0][t]=this.colors[1][0][t],r[1][1][t]=this.colors[1][1][t];return[new m(t,s),new m(e,r)]}paint(t,e){let s,n=!1;for(let t=0;t&lt;4;++t)if((s=o([this.nodes[0][t],this.nodes[1][t],this.nodes[2][t],this.nodes[3][t]]))&gt;r){n=!0;break}if(n){let s=this.split();s[0].paint(t,e),s[1].paint(t,e)}else{new w([...this.nodes[0]],[...this.colors[0]]).paintCurve(t,e)}}}class b{constructor(t){this.readMesh(t),this.type=t.getAttribute(&quot;type&quot;)||&quot;bilinear&quot;}readMesh(t){let e=[[]],s=[[]],r=Number(t.getAttribute(&quot;x&quot;)),n=Number(t.getAttribute(&quot;y&quot;));e[0][0]=new x(r,n);let o=t.children;for(let t=0,r=o.length;t&lt;r;++t){e[3*t+1]=[],e[3*t+2]=[],e[3*t+3]=[],s[t+1]=[];let r=o[t].children;for(let n=0,o=r.length;n&lt;o;++n){let o=r[n].children;for(let r=0,i=o.length;r&lt;i;++r){let i=r;0!==t&amp;&amp;++i;let h,d=o[r].getAttribute(&quot;path&quot;),c=&quot;l&quot;;null!=d&amp;&amp;(c=(h=d.match(/\s*([lLcC])\s*(.*)/))[1]);let u=l(h[2]);switch(c){case&quot;l&quot;:0===i?(e[3*t][3*n+3]=u[0].add(e[3*t][3*n]),e[3*t][3*n+1]=a(e[3*t][3*n],e[3*t][3*n+3]),e[3*t][3*n+2]=a(e[3*t][3*n+3],e[3*t][3*n])):1===i?(e[3*t+3][3*n+3]=u[0].add(e[3*t][3*n+3]),e[3*t+1][3*n+3]=a(e[3*t][3*n+3],e[3*t+3][3*n+3]),e[3*t+2][3*n+3]=a(e[3*t+3][3*n+3],e[3*t][3*n+3])):2===i?(0===n&amp;&amp;(e[3*t+3][3*n+0]=u[0].add(e[3*t+3][3*n+3])),e[3*t+3][3*n+1]=a(e[3*t+3][3*n],e[3*t+3][3*n+3]),e[3*t+3][3*n+2]=a(e[3*t+3][3*n+3],e[3*t+3][3*n])):(e[3*t+1][3*n]=a(e[3*t][3*n],e[3*t+3][3*n]),e[3*t+2][3*n]=a(e[3*t+3][3*n],e[3*t][3*n]));break;case&quot;L&quot;:0===i?(e[3*t][3*n+3]=u[0],e[3*t][3*n+1]=a(e[3*t][3*n],e[3*t][3*n+3]),e[3*t][3*n+2]=a(e[3*t][3*n+3],e[3*t][3*n])):1===i?(e[3*t+3][3*n+3]=u[0],e[3*t+1][3*n+3]=a(e[3*t][3*n+3],e[3*t+3][3*n+3]),e[3*t+2][3*n+3]=a(e[3*t+3][3*n+3],e[3*t][3*n+3])):2===i?(0===n&amp;&amp;(e[3*t+3][3*n+0]=u[0]),e[3*t+3][3*n+1]=a(e[3*t+3][3*n],e[3*t+3][3*n+3]),e[3*t+3][3*n+2]=a(e[3*t+3][3*n+3],e[3*t+3][3*n])):(e[3*t+1][3*n]=a(e[3*t][3*n],e[3*t+3][3*n]),e[3*t+2][3*n]=a(e[3*t+3][3*n],e[3*t][3*n]));break;case&quot;c&quot;:0===i?(e[3*t][3*n+1]=u[0].add(e[3*t][3*n]),e[3*t][3*n+2]=u[1].add(e[3*t][3*n]),e[3*t][3*n+3]=u[2].add(e[3*t][3*n])):1===i?(e[3*t+1][3*n+3]=u[0].add(e[3*t][3*n+3]),e[3*t+2][3*n+3]=u[1].add(e[3*t][3*n+3]),e[3*t+3][3*n+3]=u[2].add(e[3*t][3*n+3])):2===i?(e[3*t+3][3*n+2]=u[0].add(e[3*t+3][3*n+3]),e[3*t+3][3*n+1]=u[1].add(e[3*t+3][3*n+3]),0===n&amp;&amp;(e[3*t+3][3*n+0]=u[2].add(e[3*t+3][3*n+3]))):(e[3*t+2][3*n]=u[0].add(e[3*t+3][3*n]),e[3*t+1][3*n]=u[1].add(e[3*t+3][3*n]));break;case&quot;C&quot;:0===i?(e[3*t][3*n+1]=u[0],e[3*t][3*n+2]=u[1],e[3*t][3*n+3]=u[2]):1===i?(e[3*t+1][3*n+3]=u[0],e[3*t+2][3*n+3]=u[1],e[3*t+3][3*n+3]=u[2]):2===i?(e[3*t+3][3*n+2]=u[0],e[3*t+3][3*n+1]=u[1],0===n&amp;&amp;(e[3*t+3][3*n+0]=u[2])):(e[3*t+2][3*n]=u[0],e[3*t+1][3*n]=u[1]);break;default:console.error(&quot;mesh.js: &quot;+c+&quot; invalid path type.&quot;)}if(0===t&amp;&amp;0===n||r&gt;0){let e=window.getComputedStyle(o[r]).stopColor.match(/^rgb\s*\(\s*(\d+)\s*,\s*(\d+)\s*,\s*(\d+)\s*\)$/i),a=window.getComputedStyle(o[r]).stopOpacity,h=255;a&amp;&amp;(h=Math.floor(255*a)),e&amp;&amp;(0===i?(s[t][n]=[],s[t][n][0]=Math.floor(e[1]),s[t][n][1]=Math.floor(e[2]),s[t][n][2]=Math.floor(e[3]),s[t][n][3]=h):1===i?(s[t][n+1]=[],s[t][n+1][0]=Math.floor(e[1]),s[t][n+1][1]=Math.floor(e[2]),s[t][n+1][2]=Math.floor(e[3]),s[t][n+1][3]=h):2===i?(s[t+1][n+1]=[],s[t+1][n+1][0]=Math.floor(e[1]),s[t+1][n+1][1]=Math.floor(e[2]),s[t+1][n+1][2]=Math.floor(e[3]),s[t+1][n+1][3]=h):3===i&amp;&amp;(s[t+1][n]=[],s[t+1][n][0]=Math.floor(e[1]),s[t+1][n][1]=Math.floor(e[2]),s[t+1][n][2]=Math.floor(e[3]),s[t+1][n][3]=h))}}e[3*t+1][3*n+1]=new x,e[3*t+1][3*n+2]=new x,e[3*t+2][3*n+1]=new x,e[3*t+2][3*n+2]=new x,e[3*t+1][3*n+1].x=(-4*e[3*t][3*n].x+6*(e[3*t][3*n+1].x+e[3*t+1][3*n].x)+-2*(e[3*t][3*n+3].x+e[3*t+3][3*n].x)+3*(e[3*t+3][3*n+1].x+e[3*t+1][3*n+3].x)+-1*e[3*t+3][3*n+3].x)/9,e[3*t+1][3*n+2].x=(-4*e[3*t][3*n+3].x+6*(e[3*t][3*n+2].x+e[3*t+1][3*n+3].x)+-2*(e[3*t][3*n].x+e[3*t+3][3*n+3].x)+3*(e[3*t+3][3*n+2].x+e[3*t+1][3*n].x)+-1*e[3*t+3][3*n].x)/9,e[3*t+2][3*n+1].x=(-4*e[3*t+3][3*n].x+6*(e[3*t+3][3*n+1].x+e[3*t+2][3*n].x)+-2*(e[3*t+3][3*n+3].x+e[3*t][3*n].x)+3*(e[3*t][3*n+1].x+e[3*t+2][3*n+3].x)+-1*e[3*t][3*n+3].x)/9,e[3*t+2][3*n+2].x=(-4*e[3*t+3][3*n+3].x+6*(e[3*t+3][3*n+2].x+e[3*t+2][3*n+3].x)+-2*(e[3*t+3][3*n].x+e[3*t][3*n+3].x)+3*(e[3*t][3*n+2].x+e[3*t+2][3*n].x)+-1*e[3*t][3*n].x)/9,e[3*t+1][3*n+1].y=(-4*e[3*t][3*n].y+6*(e[3*t][3*n+1].y+e[3*t+1][3*n].y)+-2*(e[3*t][3*n+3].y+e[3*t+3][3*n].y)+3*(e[3*t+3][3*n+1].y+e[3*t+1][3*n+3].y)+-1*e[3*t+3][3*n+3].y)/9,e[3*t+1][3*n+2].y=(-4*e[3*t][3*n+3].y+6*(e[3*t][3*n+2].y+e[3*t+1][3*n+3].y)+-2*(e[3*t][3*n].y+e[3*t+3][3*n+3].y)+3*(e[3*t+3][3*n+2].y+e[3*t+1][3*n].y)+-1*e[3*t+3][3*n].y)/9,e[3*t+2][3*n+1].y=(-4*e[3*t+3][3*n].y+6*(e[3*t+3][3*n+1].y+e[3*t+2][3*n].y)+-2*(e[3*t+3][3*n+3].y+e[3*t][3*n].y)+3*(e[3*t][3*n+1].y+e[3*t+2][3*n+3].y)+-1*e[3*t][3*n+3].y)/9,e[3*t+2][3*n+2].y=(-4*e[3*t+3][3*n+3].y+6*(e[3*t+3][3*n+2].y+e[3*t+2][3*n+3].y)+-2*(e[3*t+3][3*n].y+e[3*t][3*n+3].y)+3*(e[3*t][3*n+2].y+e[3*t+2][3*n].y)+-1*e[3*t][3*n].y)/9}}this.nodes=e,this.colors=s}paintMesh(t,e){let s=(this.nodes.length-1)/3,r=(this.nodes[0].length-1)/3;if(&quot;bilinear&quot;===this.type||s&lt;2||r&lt;2){let n;for(let o=0;o&lt;s;++o)for(let s=0;s&lt;r;++s){let r=[];for(let t=3*o,e=3*o+4;t&lt;e;++t)r.push(this.nodes[t].slice(3*s,3*s+4));let i=[];i.push(this.colors[o].slice(s,s+2)),i.push(this.colors[o+1].slice(s,s+2)),(n=new m(r,i)).paint(t,e)}}else{let n,o,a,h,l,d,u;const x=s,g=r;s++,r++;let w=new Array(s);for(let t=0;t&lt;s;++t){w[t]=new Array(r);for(let e=0;e&lt;r;++e)w[t][e]=[],w[t][e][0]=this.nodes[3*t][3*e],w[t][e][1]=this.colors[t][e]}for(let t=0;t&lt;s;++t)for(let e=0;e&lt;r;++e)0!==t&amp;&amp;t!==x&amp;&amp;(n=i(w[t-1][e][0],w[t][e][0]),o=i(w[t+1][e][0],w[t][e][0]),w[t][e][2]=c(w[t-1][e][1],w[t][e][1],w[t+1][e][1],n,o)),0!==e&amp;&amp;e!==g&amp;&amp;(n=i(w[t][e-1][0],w[t][e][0]),o=i(w[t][e+1][0],w[t][e][0]),w[t][e][3]=c(w[t][e-1][1],w[t][e][1],w[t][e+1][1],n,o));for(let t=0;t&lt;r;++t){w[0][t][2]=[],w[x][t][2]=[];for(let e=0;e&lt;4;++e)n=i(w[1][t][0],w[0][t][0]),o=i(w[x][t][0],w[x-1][t][0]),w[0][t][2][e]=n&gt;0?2*(w[1][t][1][e]-w[0][t][1][e])/n-w[1][t][2][e]:0,w[x][t][2][e]=o&gt;0?2*(w[x][t][1][e]-w[x-1][t][1][e])/o-w[x-1][t][2][e]:0}for(let t=0;t&lt;s;++t){w[t][0][3]=[],w[t][g][3]=[];for(let e=0;e&lt;4;++e)n=i(w[t][1][0],w[t][0][0]),o=i(w[t][g][0],w[t][g-1][0]),w[t][0][3][e]=n&gt;0?2*(w[t][1][1][e]-w[t][0][1][e])/n-w[t][1][3][e]:0,w[t][g][3][e]=o&gt;0?2*(w[t][g][1][e]-w[t][g-1][1][e])/o-w[t][g-1][3][e]:0}for(let s=0;s&lt;x;++s)for(let r=0;r&lt;g;++r){let n=i(w[s][r][0],w[s+1][r][0]),o=i(w[s][r+1][0],w[s+1][r+1][0]),c=i(w[s][r][0],w[s][r+1][0]),x=i(w[s+1][r][0],w[s+1][r+1][0]),g=[[],[],[],[]];for(let t=0;t&lt;4;++t){(d=[])[0]=w[s][r][1][t],d[1]=w[s+1][r][1][t],d[2]=w[s][r+1][1][t],d[3]=w[s+1][r+1][1][t],d[4]=w[s][r][2][t]*n,d[5]=w[s+1][r][2][t]*n,d[6]=w[s][r+1][2][t]*o,d[7]=w[s+1][r+1][2][t]*o,d[8]=w[s][r][3][t]*c,d[9]=w[s+1][r][3][t]*x,d[10]=w[s][r+1][3][t]*c,d[11]=w[s+1][r+1][3][t]*x,d[12]=0,d[13]=0,d[14]=0,d[15]=0,u=f(d);for(let e=0;e&lt;9;++e){g[t][e]=[];for(let s=0;s&lt;9;++s)g[t][e][s]=p(u,e/8,s/8),g[t][e][s]&gt;255?g[t][e][s]=255:g[t][e][s]&lt;0&amp;&amp;(g[t][e][s]=0)}}h=[];for(let t=3*s,e=3*s+4;t&lt;e;++t)h.push(this.nodes[t].slice(3*r,3*r+4));l=y(h);for(let s=0;s&lt;8;++s)for(let r=0;r&lt;8;++r)(a=new m(l[s][r],[[[g[0][s][r],g[1][s][r],g[2][s][r],g[3][s][r]],[g[0][s][r+1],g[1][s][r+1],g[2][s][r+1],g[3][s][r+1]]],[[g[0][s+1][r],g[1][s+1][r],g[2][s+1][r],g[3][s+1][r]],[g[0][s+1][r+1],g[1][s+1][r+1],g[2][s+1][r+1],g[3][s+1][r+1]]]])).paint(t,e)}}}transform(t){if(t instanceof x)for(let e=0,s=this.nodes.length;e&lt;s;++e)for(let s=0,r=this.nodes[0].length;s&lt;r;++s)this.nodes[e][s]=this.nodes[e][s].add(t);else if(t instanceof g)for(let e=0,s=this.nodes.length;e&lt;s;++e)for(let s=0,r=this.nodes[0].length;s&lt;r;++s)this.nodes[e][s]=this.nodes[e][s].transform(t)}scale(t){for(let e=0,s=this.nodes.length;e&lt;s;++e)for(let s=0,r=this.nodes[0].length;s&lt;r;++s)this.nodes[e][s]=this.nodes[e][s].scale(t)}}document.querySelectorAll(&quot;rect,circle,ellipse,path,text&quot;).forEach((r,n)=&gt;{let o=r.getAttribute(&quot;id&quot;);o||(o=&quot;patchjs_shape&quot;+n,r.setAttribute(&quot;id&quot;,o));const i=r.style.fill.match(/^url\(\s*&quot;?\s*#([^\s&quot;]+)&quot;?\s*\)/),a=r.style.stroke.match(/^url\(\s*&quot;?\s*#([^\s&quot;]+)&quot;?\s*\)/);if(i&amp;&amp;i[1]){const a=document.getElementById(i[1]);if(a&amp;&amp;&quot;meshgradient&quot;===a.nodeName){const i=r.getBBox();let l=document.createElementNS(s,&quot;canvas&quot;);d(l,{width:i.width,height:i.height});const c=l.getContext(&quot;2d&quot;);let u=c.createImageData(i.width,i.height);const f=new b(a);&quot;objectBoundingBox&quot;===a.getAttribute(&quot;gradientUnits&quot;)&amp;&amp;f.scale(new x(i.width,i.height));const p=a.getAttribute(&quot;gradientTransform&quot;);null!=p&amp;&amp;f.transform(h(p)),&quot;userSpaceOnUse&quot;===a.getAttribute(&quot;gradientUnits&quot;)&amp;&amp;f.transform(new x(-i.x,-i.y)),f.paintMesh(u.data,l.width),c.putImageData(u,0,0);const y=document.createElementNS(t,&quot;image&quot;);d(y,{width:i.width,height:i.height,x:i.x,y:i.y});let g=l.toDataURL();y.setAttributeNS(e,&quot;xlink:href&quot;,g),r.parentNode.insertBefore(y,r),r.style.fill=&quot;none&quot;;const w=document.createElementNS(t,&quot;use&quot;);w.setAttributeNS(e,&quot;xlink:href&quot;,&quot;#&quot;+o);const m=&quot;patchjs_clip&quot;+n,M=document.createElementNS(t,&quot;clipPath&quot;);M.setAttribute(&quot;id&quot;,m),M.appendChild(w),r.parentElement.insertBefore(M,r),y.setAttribute(&quot;clip-path&quot;,&quot;url(#&quot;+m+&quot;)&quot;),u=null,l=null,g=null}}if(a&amp;&amp;a[1]){const o=document.getElementById(a[1]);if(o&amp;&amp;&quot;meshgradient&quot;===o.nodeName){const i=parseFloat(r.style.strokeWidth.slice(0,-2))*(parseFloat(r.style.strokeMiterlimit)||parseFloat(r.getAttribute(&quot;stroke-miterlimit&quot;))||1),a=r.getBBox(),l=Math.trunc(a.width+i),c=Math.trunc(a.height+i),u=Math.trunc(a.x-i/2),f=Math.trunc(a.y-i/2);let p=document.createElementNS(s,&quot;canvas&quot;);d(p,{width:l,height:c});const y=p.getContext(&quot;2d&quot;);let g=y.createImageData(l,c);const w=new b(o);&quot;objectBoundingBox&quot;===o.getAttribute(&quot;gradientUnits&quot;)&amp;&amp;w.scale(new x(l,c));const m=o.getAttribute(&quot;gradientTransform&quot;);null!=m&amp;&amp;w.transform(h(m)),&quot;userSpaceOnUse&quot;===o.getAttribute(&quot;gradientUnits&quot;)&amp;&amp;w.transform(new x(-u,-f)),w.paintMesh(g.data,p.width),y.putImageData(g,0,0);const M=document.createElementNS(t,&quot;image&quot;);d(M,{width:l,height:c,x:0,y:0});let S=p.toDataURL();M.setAttributeNS(e,&quot;xlink:href&quot;,S);const k=&quot;pattern_clip&quot;+n,A=document.createElementNS(t,&quot;pattern&quot;);d(A,{id:k,patternUnits:&quot;userSpaceOnUse&quot;,width:l,height:c,x:u,y:f}),A.appendChild(M),o.parentNode.appendChild(A),r.style.stroke=&quot;url(#&quot;+k+&quot;)&quot;,g=null,p=null,S=null}}})}();
</script></svg>
