<?xml version="1.0" encoding="UTF-8" standalone="no"?>
<!-- Created with Inkscape (http://www.inkscape.org/) -->

<svg
   width="164.92679"
   height="115.13667"
   viewBox="0 0 43.63688 30.463244"
   version="1.1"
   id="svg1"
   xml:space="preserve"
   xmlns:xlink="http://www.w3.org/1999/xlink"
   xmlns="http://www.w3.org/2000/svg"
   xmlns:svg="http://www.w3.org/2000/svg"><defs
     id="defs1"><meshgradient
       id="meshgradient94"
       gradientUnits="userSpaceOnUse"
       x="0.04480489"
       y="0.044811249"><meshrow
         id="meshrow94"><meshpatch
           id="meshpatch94"><stop
             path="c 107.567,0  215.135,0  322.702,0"
             style="stop-color:#ffffff;stop-opacity:1"
             id="stop95" /><stop
             path="c 0,18.491  0,36.9819  0,55.4729"
             style="stop-color:#ed6767;stop-opacity:1"
             id="stop96" /><stop
             path="c -107.567,0  -215.135,0  -322.702,0"
             style="stop-color:#ffffff;stop-opacity:1"
             id="stop97" /><stop
             path="c 0,-18.491  0,-36.9819  0,-55.4729"
             style="stop-color:#ed6767;stop-opacity:1"
             id="stop98" /></meshpatch></meshrow></meshgradient></defs><g
     id="layer4"
     transform="translate(-71.03308,-1.9167555)"><rect
       style="fill:url(#meshgradient94);fill-opacity:1;stroke:#ffffff;stroke-width:0.0896207;stroke-opacity:1"
       id="rect28"
       width="322.70206"
       height="55.472878"
       x="0.04480489"
       y="0.044811249"
       ry="0.18162204" /></g><g
     id="layer12"
     transform="translate(-71.03308,-1.9167555)"><circle
       style="fill:none;stroke:none;stroke-width:0.128728"
       id="path1"
       cx="167.8828"
       cy="28.916674"
       r="23.137484" /><text
       xml:space="preserve"
       style="font-style:normal;font-variant:normal;font-weight:normal;font-stretch:normal;font-size:3.33313px;font-family:'Arial Rounded MT Bold';-inkscape-font-specification:'Arial Rounded MT Bold, Normal';font-variant-ligatures:normal;font-variant-caps:normal;font-variant-numeric:normal;font-variant-east-asian:normal;fill:#3c3c3c;fill-opacity:1;stroke:none;stroke-width:0.677344;stroke-opacity:1"
       id="text1"
       transform="matrix(1.0272754,0,0,1.0272754,-5.6145081,-1.6934446)"><textPath
         xlink:href="#path1"
         id="textPath1"><tspan
           id="tspan1"
           style="font-style:normal;font-variant:normal;font-weight:normal;font-stretch:normal;font-size:3.33313px;font-family:'Arial Rounded MT Bold';-inkscape-font-specification:'Arial Rounded MT Bold, Normal';font-variant-ligatures:normal;font-variant-caps:normal;font-variant-numeric:normal;font-variant-east-asian:normal;fill:#3c3c3c;fill-opacity:1;stroke:none;stroke-width:0.677344;stroke-opacity:1">N G S H O P N G S H O P N G S H O P N G S H O P N G S H O P N G S H O P N G S H O P N G S H O P N G S H O P N G S H O P N G S H O P N G S H O P N G S H O P</tspan></textPath></text></g><g
     id="layer5"
     transform="translate(-71.03308,-1.9167555)"><text
       xml:space="preserve"
       style="font-style:normal;font-variant:normal;font-weight:normal;font-stretch:normal;font-size:3.33313px;font-family:'Arial Rounded MT Bold';-inkscape-font-specification:'Arial Rounded MT Bold, Normal';font-variant-ligatures:normal;font-variant-caps:normal;font-variant-numeric:normal;font-variant-east-asian:normal;fill:#8c8c8c;fill-opacity:1;stroke:none;stroke-width:0.677344;stroke-opacity:1"
       id="text30"
       transform="matrix(0.97741097,0,0,0.97741097,-170.9446,-24.660376)"><textPath
         xlink:href="#path1"
         id="textPath30"><tspan
           id="tspan30"
           style="font-style:normal;font-variant:normal;font-weight:normal;font-stretch:normal;font-size:3.33313px;font-family:'Arial Rounded MT Bold';-inkscape-font-specification:'Arial Rounded MT Bold, Normal';font-variant-ligatures:normal;font-variant-caps:normal;font-variant-numeric:normal;font-variant-east-asian:normal;fill:#8c8c8c;fill-opacity:1;stroke:none;stroke-width:0.677344;stroke-opacity:1">N G S H O P N G S H O P N G S H O P N G S H O P N G S H O P N G S H O P N G S H O P N G S H O P N G S H O P N G S H O P N G S H O P N G S H O P N G S H O P</tspan></textPath></text></g><g
     id="layer6"
     transform="translate(-71.03308,-1.9167555)"><text
       xml:space="preserve"
       style="font-style:normal;font-variant:normal;font-weight:normal;font-stretch:normal;font-size:3.33313px;font-family:'Arial Rounded MT Bold';-inkscape-font-specification:'Arial Rounded MT Bold, Normal';font-variant-ligatures:normal;font-variant-caps:normal;font-variant-numeric:normal;font-variant-east-asian:normal;fill:#8c8c8c;fill-opacity:1;stroke:none;stroke-width:0.677344;stroke-opacity:1"
       id="text60"
       transform="matrix(0.97741097,0,0,0.97741097,151.56422,24.559806)"><textPath
         xlink:href="#path1"
         id="textPath60"><tspan
           id="tspan60"
           style="font-style:normal;font-variant:normal;font-weight:normal;font-stretch:normal;font-size:3.33313px;font-family:'Arial Rounded MT Bold';-inkscape-font-specification:'Arial Rounded MT Bold, Normal';font-variant-ligatures:normal;font-variant-caps:normal;font-variant-numeric:normal;font-variant-east-asian:normal;fill:#8c8c8c;fill-opacity:1;stroke:none;stroke-width:0.677344;stroke-opacity:1">N G S H O P N G S H O P N G S H O P N G S H O P N G S H O P N G S H O P N G S H O P N G S H O P N G S H O P N G S H O P N G S H O P N G S H O P N G S H O P</tspan></textPath></text></g><g
     id="layer7"
     transform="translate(-71.03308,-1.9167555)"><text
       xml:space="preserve"
       style="font-style:normal;font-variant:normal;font-weight:normal;font-stretch:normal;font-size:3.33313px;font-family:'Arial Rounded MT Bold';-inkscape-font-specification:'Arial Rounded MT Bold, Normal';font-variant-ligatures:normal;font-variant-caps:normal;font-variant-numeric:normal;font-variant-east-asian:normal;fill:#8c8c8c;fill-opacity:1;stroke:none;stroke-width:0.677344;stroke-opacity:1"
       id="text1-0"
       transform="matrix(0.97741097,0,0,0.97741097,-105.62181,79.271628)"><textPath
         xlink:href="#path1"
         id="textPath1-5"><tspan
           id="tspan1-1"
           style="font-style:normal;font-variant:normal;font-weight:normal;font-stretch:normal;font-size:3.33313px;font-family:'Arial Rounded MT Bold';-inkscape-font-specification:'Arial Rounded MT Bold, Normal';font-variant-ligatures:normal;font-variant-caps:normal;font-variant-numeric:normal;font-variant-east-asian:normal;fill:#8c8c8c;fill-opacity:1;stroke:none;stroke-width:0.677344;stroke-opacity:1">N G S H O P N G S H O P N G S H O P N G S H O P N G S H O P N G S H O P N G S H O P N G S H O P N G S H O P N G S H O P N G S H O P N G S H O P N G S H O P</tspan></textPath></text></g><g
     id="layer13"
     transform="translate(-71.03308,-1.9167555)"><g
       id="g1"
       transform="matrix(1.1280723,0,0,1.1462535,-13.55416,-0.28033232)"><rect
         style="fill:#e5e5e5;fill-opacity:1;stroke-width:0.414852;stroke-linecap:round;stroke-linejoin:bevel"
         id="rect1"
         width="38.682693"
         height="26.576359"
         x="74.983887"
         y="1.9167556"
         ry="0.17548057" /><path
         id="rect5"
         style="fill:#ffffff;fill-opacity:1;stroke:#000000;stroke-width:0.711301;stroke-linecap:round;stroke-linejoin:bevel;stroke-opacity:1"
         d="M 76.334587,3.6681766 V 17.503969 L 99.430095,10.093603 V 3.6681766 Z" /><path
         id="path101"
         style="fill:#ffffff;fill-opacity:1;stroke:#000000;stroke-width:0.711301;stroke-linecap:round;stroke-linejoin:bevel;stroke-opacity:1"
         d="M 99.430095,26.605951 V 12.770159 l -23.095508,7.410365 v 6.425427 z" /><rect
         style="fill:#ffffff;fill-opacity:1;stroke:#000000;stroke-width:0.619043;stroke-linecap:round;stroke-linejoin:bevel;stroke-opacity:1"
         id="rect4"
         width="10.627892"
         height="23.494492"
         x="101.73412"
         y="3.457689"
         ry="0.66738808" /></g><path
       style="fill:#ffe0cc;fill-opacity:1;stroke:#000000;stroke-width:0.547454;stroke-linecap:round;stroke-linejoin:bevel;stroke-opacity:1"
       d="m 82.394475,16.386796 c 1.611688,-0.805041 4.340599,-0.145482 4.141699,2.071432 -0.100126,1.11597 -0.89807,2.154384 -1.546582,3.015378 -0.388406,0.515668 -0.806552,1.007668 -1.245132,1.481469 -0.115388,0.124653 -0.238062,0.251238 -0.35388,0.367089 -0.03521,0.03524 -0.133197,0.145635 -0.09174,0.117994 0.05165,-0.03445 0.09611,-0.07866 0.144174,-0.117994 0.09174,-0.06117 0.182407,-0.124022 0.275238,-0.183544 1.119034,-0.717532 3.839796,-1.049209 4.928101,-0.131104 0.706201,0.595761 0.871419,1.485705 1.087851,2.33364 0.04221,0.165353 -0.02675,0.588659 0.117959,0.498193 2.01968,-1.262655 3.247164,-2.526541 5.766925,-2.949825 0.705206,-0.118466 1.579084,-0.06419 2.241237,-0.02622 0.376946,0.02161 1.467182,0.459113 1.821812,0.340867 0.08385,-0.02796 0.03811,-0.516096 0.05246,-0.576852 0.09315,-0.395946 0.249426,-0.818604 0.419413,-1.17993 0.55329,-1.17608 1.12983,-1.49582 2.41162,-2.517185 1.09493,-0.872472 2.71312,-1.338501 4.04996,-1.704343 0.33232,-0.09094 0.65418,-0.189751 0.98301,-0.28843 0.13707,-0.04114 0.56253,-0.09177 0.41942,-0.09177 -2.88095,0 -4.13519,-1.165196 -5.42617,-3.566014 -0.39259,-0.730116 -0.69894,-1.442691 -0.86504,-2.254976 -0.0701,-0.343004 -0.0656,-0.712214 -0.0656,-1.0619381 0,-0.1183162 0.0741,-0.4166991 -0.0261,-0.3539784 -0.52085,0.3256088 -0.73689,0.8434745 -1.38932,1.0750465 C 98.842622,11.181842 97.201943,10.338286 96.077894,9.5694181 95.548483,9.2073072 95.006996,8.7832833 94.623033,8.2583862 94.38567,7.9338985 94.24085,7.486967 94.229835,7.4979864 c -0.111704,0.1117352 -0.06458,0.440317 -0.104857,0.5899648 -0.08425,0.3129841 -0.278731,0.614315 -0.458733,0.8783926 -1.029515,1.5103782 -2.372391,1.5289022 -4.167913,1.5994592 -0.952719,0.03743 -1.988627,-0.09512 -2.93589,-0.222875 -0.284742,-0.0384 -0.570194,-0.07473 -0.85193,-0.131103 -0.09788,-0.01958 -0.356461,-0.176025 -0.275242,-0.117994 1.721863,1.230249 -1.568509,4.094891 -2.332983,4.981929 -0.140579,0.163119 -0.469378,0.355097 -0.537372,0.550634 -0.08531,0.245342 -0.113592,0.506933 -0.170387,0.760399 z"
       id="path431" /><path
       style="fill:none;stroke:#000000;stroke-width:0.598945;stroke-linecap:round;stroke-linejoin:round;stroke-dasharray:none;stroke-opacity:1"
       d="m 166.06702,57.244649 c 0.17981,0.236919 0.36258,0.477734 0.52346,0.61257 0.16088,0.134836 0.30135,0.165639 0.43737,0.177057 0.13602,0.01142 0.27219,0.0032 0.43247,-0.0479 0.16028,-0.05107 0.34697,-0.145102 0.5961,-0.382623 0.24913,-0.237521 0.56068,-0.618512 1.27475,-2.26846 0.71408,-1.649948 1.83062,-4.568723 2.4228,-6.022467 0.59218,-1.453743 0.66005,-1.442387 0.68016,-1.376184 0.0201,0.0662 -0.007,0.187256 -0.0846,0.630142 -0.0771,0.442887 -0.2038,1.207572 -0.27223,1.888242 -0.0684,0.680671 -0.0786,1.277288 -0.0621,2.179268 0.0165,0.90198 0.0597,2.109265 0.13358,2.954764 0.0738,0.845499 0.17829,1.329173 0.27973,1.63396 0.10144,0.304788 0.19991,0.430729 0.30376,0.512332 0.10385,0.0816 0.21311,0.118895 0.26623,0.139984 0.0531,0.02109 0.0501,0.02591 0.0786,0.02564 0.0285,-2.65e-4 0.0886,-0.0057 0.1687,-0.02378 0.0801,-0.0181 0.18039,-0.04891 0.47514,-0.261568 0.29475,-0.212659 0.78399,-0.607162 1.34618,-1.274867 0.56219,-0.667705 1.1973,-1.608566 1.69345,-2.470282 0.49616,-0.861716 0.85333,-1.644233 1.09495,-2.236274 0.24163,-0.59204 0.36769,-0.993566 0.44484,-1.35349 0.0771,-0.359924 0.10538,-0.678225 0.11709,-0.924125 0.0117,-0.245901 0.007,-0.41938 -0.0309,-0.548528 -0.0378,-0.129149 -0.10866,-0.214009 -0.21161,-0.290481 -0.10296,-0.07647 -0.23802,-0.144562 -0.41211,-0.175905 -0.17409,-0.03134 -0.38719,-0.02594 -0.64472,0.06908 -0.25754,0.09502 -0.56189,0.281119 -0.86414,0.584842 -0.30226,0.303722 -0.60361,0.725786 -0.82812,1.192719 -0.22452,0.466932 -0.37219,0.978703 -0.44636,1.398616 -0.0742,0.419913 -0.0748,0.747942 -0.0466,1.118676 0.0282,0.370734 0.0852,0.784156 0.19116,1.147055 0.10595,0.3629 0.26083,0.675256 0.40641,0.867918 0.14557,0.192663 0.28183,0.265617 0.43341,0.321553 0.15158,0.05593 0.31846,0.09484 0.53247,0.07674 0.21401,-0.0181 0.47514,-0.09322 0.93378,-0.293997 0.45864,-0.200772 1.11475,-0.52718 1.62981,-0.842521 0.51507,-0.31534 0.88905,-0.619593 1.22732,-0.929259 0.33828,-0.309666 0.64083,-0.62473 0.84553,-0.924668 0.20471,-0.299938 0.31156,-0.584736 0.29565,-0.734703 -0.0159,-0.149967 -0.15458,-0.165101 -0.30706,-0.155643 -0.15248,0.0095 -0.31876,0.0435 -0.49255,0.108626 -0.17379,0.06512 -0.35507,0.161313 -0.56548,0.264536 -0.21041,0.103223 -0.44993,0.213469 -0.65583,0.306153 -0.20591,0.09268 -0.37819,0.167799 -0.42383,0.174565 -0.0456,0.0068 0.0354,-0.05486 0.21883,-0.159435 0.1834,-0.104575 0.46913,-0.252105 0.69305,-0.383971 0.22391,-0.131865 0.38599,-0.248056 1.06002,-0.589423 0.67402,-0.341367 1.85925,-0.907554 3.04485,-1.473918"
       id="path96"
       transform="matrix(0.62399112,-0.24009004,0.24009004,0.62399112,-28.377003,25.814876)" /><text
       xml:space="preserve"
       style="font-style:normal;font-variant:normal;font-weight:bold;font-stretch:normal;font-size:1.87242px;line-height:1.45;font-family:Arial;-inkscape-font-specification:'Arial Bold';letter-spacing:0.211666px;fill:#000000;fill-opacity:1;stroke-width:0.0468107"
       id="text99"
       transform="matrix(1.1692972,0,0,1.1692972,-18.923664,-3.2365125)"><textPath
         xlink:href="#path97"
         id="textPath97"><tspan
           id="tspan99"
           style="font-style:normal;font-variant:normal;font-weight:bold;font-stretch:normal;line-height:1.45;font-family:Arial;-inkscape-font-specification:'Arial Bold';letter-spacing:0.211666px;fill:#000000;fill-opacity:1;stroke-width:0.0468107">SHOP</tspan></textPath></text><path
       style="fill:#a05a2c;fill-opacity:1;stroke:#000000;stroke-width:0.4;stroke-linecap:round;stroke-linejoin:bevel;stroke-dasharray:none;stroke-opacity:1"
       d="m 70.637246,7.7269209 c 0.05009,-0.096175 0.07051,-0.2091675 0.138133,-0.2942613 0.0744,-0.093622 0.173285,-0.1640359 0.269026,-0.2340614 0.46863,-0.3427617 1.016409,-0.5485841 1.54852,-0.7692364 0.295888,-0.1226973 0.593879,-0.2426567 0.877741,-0.3909412 0.02678,-0.013987 0.121414,-0.098155 0.09572,-0.021783 -0.03641,0.1082007 -0.122489,0.1882422 -0.162548,0.2966138 -0.09239,0.2499393 -0.129056,0.5179327 -0.132467,0.7828261 -0.0063,0.4922282 0.09662,0.9798457 0.243377,1.447182 0.173886,0.5537332 0.393029,1.099064 0.707466,1.5877171 0.278358,0.432584 0.569131,0.861131 0.91981,1.238588 0.111716,0.120246 0.514124,0.399523 0.364858,0.330309 -0.158464,-0.07348 -0.339767,-0.02713 -0.494148,0.03522 -0.153863,0.06214 -0.291872,0.155288 -0.43839,0.231712 -0.07006,0.03655 -0.1068,-0.05965 -0.138595,-0.104934 -0.09993,-0.142332 -0.175038,-0.302483 -0.28604,-0.436136 -0.616662,-0.7425 -1.343755,-1.383637 -1.959563,-2.1274271 -0.469568,-0.5671573 -0.935425,-1.1562192 -1.552895,-1.571388 z"
       id="path437"
       transform="matrix(1.0995514,0,0,1.0995514,6.1463014,-1.3727347)" /><path
       style="fill:#915228;fill-opacity:1;stroke:#000000;stroke-width:0.4;stroke-linecap:round;stroke-linejoin:bevel;stroke-dasharray:none;stroke-opacity:1"
       d="m 74.738364,12.827818 c 0.08451,-0.119797 0.186098,-0.228944 0.307858,-0.311476 0.03995,-0.02708 0.08071,-0.05319 0.125371,-0.07223 0.14354,-0.0612 0.283106,-0.137899 0.435454,-0.171809 0.03,-0.0067 0.08537,-0.04992 0.09311,-0.02 0.01169,0.04519 0.0092,0.09327 0.0039,0.13917 -0.0043,0.03718 0.0059,0.07335 0.0172,0.108368 0.03124,0.09693 0.07585,0.188644 0.112807,0.283432 0.02671,0.0685 0.04622,0.14138 0.08675,0.20276 0.0094,0.01416 -0.01579,0.0075 -0.02356,0.0079 -0.06711,0.0032 -0.130969,0.03286 -0.180252,0.07805 -0.05814,0.05332 -0.10716,0.115546 -0.155684,0.177424 -0.05038,0.06424 -0.104296,0.129603 -0.128984,0.208242 -0.01196,0.03811 0.01198,0.114328 -0.02869,0.116496 -0.02497,0.0013 -0.04263,-0.02814 -0.05757,-0.04607 -0.08955,-0.107422 -0.146546,-0.236708 -0.233367,-0.346507 -0.101556,-0.128434 -0.229291,-0.232056 -0.354072,-0.336732 -0.0068,-0.0057 -0.0135,-0.01136 -0.02025,-0.01702 z"
       id="path438"
       transform="matrix(1.0995514,0,0,1.0995514,6.1463014,-1.3727347)" /><path
       style="fill:#a05a2c;fill-opacity:1;stroke:#000000;stroke-width:0.610548;stroke-linecap:round;stroke-linejoin:bevel;stroke-dasharray:none;stroke-opacity:1"
       d="m 59.502934,14.188915 c 0.153952,-0.143085 0.618203,-0.569717 0.461696,-0.42943 -0.04701,0.04214 -0.109051,0.10263 -0.02143,0.02413 0.958192,-0.858435 1.855719,-1.796239 2.936538,-2.507154 0.273194,-0.179696 0.545543,-0.361141 0.819119,-0.539974 0.15095,-0.09867 -0.03121,0.112628 -0.07068,0.157661 -0.287275,0.32774 -0.386548,0.777176 -0.402529,1.202382 -0.03224,0.857787 0.284027,1.687766 0.707598,2.419236 0.445091,0.768633 0.990105,1.478082 1.598498,2.122591 0.528047,0.559395 1.205294,0.939962 1.865947,1.32434 0.146848,0.08544 0.541669,0.131211 0.436599,0.265127 -0.123908,0.157925 -0.33092,0.225328 -0.482656,0.355824 -0.281692,0.242261 -0.526637,0.523733 -0.768001,0.805624 -0.109456,0.127834 -0.259161,-0.02609 -0.338831,-0.109548 -0.389073,-0.407574 -0.667761,-0.902835 -1.014506,-1.343776 -0.595085,-0.756745 -1.257173,-1.460139 -1.983701,-2.093916 -0.670854,-0.58521 -1.416621,-1.103883 -2.266062,-1.398917 -0.475884,-0.165287 -0.984458,-0.175443 -1.477601,-0.254199 z"
       id="path439"
       transform="matrix(0.72032944,-0.0076273,0.0076273,0.72032944,38.563799,1.5017054)" /><path
       style="fill:#915228;fill-opacity:1;stroke:#000000;stroke-width:0.610548;stroke-linecap:round;stroke-linejoin:bevel;stroke-dasharray:none;stroke-opacity:1"
       d="m 66.994116,20.432126 c -0.02783,-0.132112 -0.02905,-0.280967 0.04907,-0.397151 0.08505,-0.126491 0.216568,-0.209504 0.324212,-0.314633 0.08879,-0.08671 0.166728,-0.183562 0.250618,-0.274933 0.226628,-0.246841 0.447175,-0.501769 0.702348,-0.719364 0.0599,-0.05108 0.116193,-0.112126 0.190422,-0.14062 0.0547,-0.021 0.06089,0.05885 0.07231,0.0942 0.06805,0.210713 0.113464,0.430624 0.210118,0.630474 0.04305,0.08902 0.111007,0.162524 0.170799,0.240364 0.09245,0.120352 0.169054,0.252853 0.26837,0.368171 0.03995,0.04638 -0.007,0.08799 -0.04409,0.11744 -0.194028,0.153917 -0.412559,0.277084 -0.593437,0.446914 -0.06622,0.06217 -0.111426,0.142272 -0.165015,0.214862 -0.07193,0.09744 -0.14942,0.190499 -0.227784,0.283541 -0.02962,0.03517 -0.07282,0.008 -0.106852,-0.0033 -0.129306,-0.04315 -0.236047,-0.131768 -0.329836,-0.227938 -0.09829,-0.100788 -0.213784,-0.18669 -0.346876,-0.236128 -0.135753,-0.05043 -0.280575,-0.0714 -0.424382,-0.08185 z"
       id="path440"
       transform="matrix(0.72032944,-0.0076273,0.0076273,0.72032944,38.563799,1.5017054)" /><path
       style="fill:none;fill-opacity:1;stroke:#000000;stroke-width:0.439821;stroke-linecap:round;stroke-linejoin:bevel;stroke-dasharray:none;stroke-opacity:1"
       d="m 104.20751,12.066701 c 0.57001,-0.6852 1.21686,-1.683733 2.13419,-1.960356"
       id="path447" /><path
       style="fill:none;fill-opacity:1;stroke:#000000;stroke-width:0.439821;stroke-linecap:round;stroke-linejoin:bevel;stroke-dasharray:none;stroke-opacity:1"
       d="m 105.02896,13.14274 c 0.49423,-1.01073 1.17454,-1.945037 2.00629,-2.701984"
       id="path448" /><path
       style="fill:none;fill-opacity:1;stroke:#000000;stroke-width:0.439821;stroke-linecap:round;stroke-linejoin:bevel;stroke-dasharray:none;stroke-opacity:1"
       d="m 85.87656,24.380802 c -0.913562,0.45826 -1.417185,1.45633 -1.84798,2.354073"
       id="path449" /><path
       style="fill:none;fill-opacity:1;stroke:#000000;stroke-width:0.439821;stroke-linecap:round;stroke-linejoin:bevel;stroke-dasharray:none;stroke-opacity:1"
       d="m 86.318812,25.241856 c -1.326835,-0.03115 -1.642649,2.011488 -1.642649,3.112432"
       id="path450" /><path
       style="opacity:0;fill:none;stroke:#000000;stroke-width:0.4;stroke-linecap:round;stroke-linejoin:bevel"
       d="m 99.836149,20.631968 c 0.108569,-0.202165 0.336101,-0.358642 0.438981,-0.5644 0.009,-0.0187 -0.0148,-0.04793 0,-0.06271 0.0148,-0.01478 0.0479,0.01478 0.0627,0 0.0764,-0.07638 0.0294,-0.14011 0.12542,-0.188134 0.0187,-0.0093 0.0479,0.01478 0.0627,0 0.0209,-0.0209 0.0418,-0.16723 0.0627,-0.188133 0.15232,-0.152313 0.0921,0.01865 0.18814,-0.125422 0.0259,-0.03889 0.0297,-0.09237 0.0627,-0.125423 0.0116,-0.01155 0.17658,-0.05116 0.18813,-0.06271 0.0322,-0.0322 0.13705,-0.256657 0.25085,-0.313556 0.0865,-0.04325 0.0561,0.07595 0.12542,-0.06271 0.009,-0.0187 -0.0148,-0.04793 0,-0.06271 0.0208,-0.0208 0.21381,-0.106908 0.25084,-0.125422 0.0753,-0.03763 0.11288,-0.150507 0.18814,-0.188134 0.0536,-0.02682 0.1345,-0.0359 0.18813,-0.06271 0.0752,-0.03763 0.11288,-0.150507 0.18813,-0.188133 0.0774,-0.03872 0.17341,-0.0867 0.25085,-0.125423 0.26099,-0.130494 -0.067,0.0043 0.0627,-0.125422 0.049,-0.04901 0.18877,-0.04202 0.25084,-0.06271 0.19574,-0.06525 -0.0209,-0.04181 0.0627,-0.125423 0.0711,-0.07104 0.36794,-0.117091 0.43898,-0.188133 0.0148,-0.01478 -0.0148,-0.04793 0,-0.06271 0.0805,-0.08049 0.29578,-0.04494 0.37627,-0.125422 0.0148,-0.01478 -0.0148,-0.04793 0,-0.06271 0.0666,-0.06664 0.18813,0.0607 0.18813,-0.125422"
       id="path97" /></g><script
     id="mesh_polyfill"
     type="text/javascript">
!function(){const t=&quot;http://www.w3.org/2000/svg&quot;,e=&quot;http://www.w3.org/1999/xlink&quot;,s=&quot;http://www.w3.org/1999/xhtml&quot;,r=2;if(document.createElementNS(t,&quot;meshgradient&quot;).x)return;const n=(t,e,s,r)=&gt;{let n=new x(.5*(e.x+s.x),.5*(e.y+s.y)),o=new x(.5*(t.x+e.x),.5*(t.y+e.y)),i=new x(.5*(s.x+r.x),.5*(s.y+r.y)),a=new x(.5*(n.x+o.x),.5*(n.y+o.y)),h=new x(.5*(n.x+i.x),.5*(n.y+i.y)),l=new x(.5*(a.x+h.x),.5*(a.y+h.y));return[[t,o,a,l],[l,h,i,r]]},o=t=&gt;{let e=t[0].distSquared(t[1]),s=t[2].distSquared(t[3]),r=.25*t[0].distSquared(t[2]),n=.25*t[1].distSquared(t[3]),o=e&gt;s?e:s,i=r&gt;n?r:n;return 18*(o&gt;i?o:i)},i=(t,e)=&gt;Math.sqrt(t.distSquared(e)),a=(t,e)=&gt;t.scale(2/3).add(e.scale(1/3)),h=t=&gt;{let e,s,r,n,o,i,a,h=new g;return t.match(/(\w+\(\s*[^)]+\))+/g).forEach(t=&gt;{let l=t.match(/[\w.-]+/g),d=l.shift();switch(d){case&quot;translate&quot;:2===l.length?e=new g(1,0,0,1,l[0],l[1]):(console.error(&quot;mesh.js: translate does not have 2 arguments!&quot;),e=new g(1,0,0,1,0,0)),h=h.append(e);break;case&quot;scale&quot;:1===l.length?s=new g(l[0],0,0,l[0],0,0):2===l.length?s=new g(l[0],0,0,l[1],0,0):(console.error(&quot;mesh.js: scale does not have 1 or 2 arguments!&quot;),s=new g(1,0,0,1,0,0)),h=h.append(s);break;case&quot;rotate&quot;:if(3===l.length&amp;&amp;(e=new g(1,0,0,1,l[1],l[2]),h=h.append(e)),l[0]){r=l[0]*Math.PI/180;let t=Math.cos(r),e=Math.sin(r);Math.abs(t)&lt;1e-16&amp;&amp;(t=0),Math.abs(e)&lt;1e-16&amp;&amp;(e=0),a=new g(t,e,-e,t,0,0),h=h.append(a)}else console.error(&quot;math.js: No argument to rotate transform!&quot;);3===l.length&amp;&amp;(e=new g(1,0,0,1,-l[1],-l[2]),h=h.append(e));break;case&quot;skewX&quot;:l[0]?(r=l[0]*Math.PI/180,n=Math.tan(r),o=new g(1,0,n,1,0,0),h=h.append(o)):console.error(&quot;math.js: No argument to skewX transform!&quot;);break;case&quot;skewY&quot;:l[0]?(r=l[0]*Math.PI/180,n=Math.tan(r),i=new g(1,n,0,1,0,0),h=h.append(i)):console.error(&quot;math.js: No argument to skewY transform!&quot;);break;case&quot;matrix&quot;:6===l.length?h=h.append(new g(...l)):console.error(&quot;math.js: Incorrect number of arguments for matrix!&quot;);break;default:console.error(&quot;mesh.js: Unhandled transform type: &quot;+d)}}),h},l=t=&gt;{let e=[],s=t.split(/[ ,]+/);for(let t=0,r=s.length-1;t&lt;r;t+=2)e.push(new x(parseFloat(s[t]),parseFloat(s[t+1])));return e},d=(t,e)=&gt;{for(let s in e)t.setAttribute(s,e[s])},c=(t,e,s,r,n)=&gt;{let o,i,a=[0,0,0,0];for(let h=0;h&lt;3;++h)e[h]&lt;t[h]&amp;&amp;e[h]&lt;s[h]||t[h]&lt;e[h]&amp;&amp;s[h]&lt;e[h]?a[h]=0:(a[h]=.5*((e[h]-t[h])/r+(s[h]-e[h])/n),o=Math.abs(3*(e[h]-t[h])/r),i=Math.abs(3*(s[h]-e[h])/n),a[h]&gt;o?a[h]=o:a[h]&gt;i&amp;&amp;(a[h]=i));return a},u=[[1,0,0,0,0,0,0,0,0,0,0,0,0,0,0,0],[0,0,0,0,1,0,0,0,0,0,0,0,0,0,0,0],[-3,3,0,0,-2,-1,0,0,0,0,0,0,0,0,0,0],[2,-2,0,0,1,1,0,0,0,0,0,0,0,0,0,0],[0,0,0,0,0,0,0,0,1,0,0,0,0,0,0,0],[0,0,0,0,0,0,0,0,0,0,0,0,1,0,0,0],[0,0,0,0,0,0,0,0,-3,3,0,0,-2,-1,0,0],[0,0,0,0,0,0,0,0,2,-2,0,0,1,1,0,0],[-3,0,3,0,0,0,0,0,-2,0,-1,0,0,0,0,0],[0,0,0,0,-3,0,3,0,0,0,0,0,-2,0,-1,0],[9,-9,-9,9,6,3,-6,-3,6,-6,3,-3,4,2,2,1],[-6,6,6,-6,-3,-3,3,3,-4,4,-2,2,-2,-2,-1,-1],[2,0,-2,0,0,0,0,0,1,0,1,0,0,0,0,0],[0,0,0,0,2,0,-2,0,0,0,0,0,1,0,1,0],[-6,6,6,-6,-4,-2,4,2,-3,3,-3,3,-2,-1,-2,-1],[4,-4,-4,4,2,2,-2,-2,2,-2,2,-2,1,1,1,1]],f=t=&gt;{let e=[];for(let s=0;s&lt;16;++s){e[s]=0;for(let r=0;r&lt;16;++r)e[s]+=u[s][r]*t[r]}return e},p=(t,e,s)=&gt;{const r=e*e,n=s*s,o=e*e*e,i=s*s*s;return t[0]+t[1]*e+t[2]*r+t[3]*o+t[4]*s+t[5]*s*e+t[6]*s*r+t[7]*s*o+t[8]*n+t[9]*n*e+t[10]*n*r+t[11]*n*o+t[12]*i+t[13]*i*e+t[14]*i*r+t[15]*i*o},y=t=&gt;{let e=[],s=[],r=[];for(let s=0;s&lt;4;++s)e[s]=[],e[s][0]=n(t[0][s],t[1][s],t[2][s],t[3][s]),e[s][1]=[],e[s][1].push(...n(...e[s][0][0])),e[s][1].push(...n(...e[s][0][1])),e[s][2]=[],e[s][2].push(...n(...e[s][1][0])),e[s][2].push(...n(...e[s][1][1])),e[s][2].push(...n(...e[s][1][2])),e[s][2].push(...n(...e[s][1][3]));for(let t=0;t&lt;8;++t){s[t]=[];for(let r=0;r&lt;4;++r)s[t][r]=[],s[t][r][0]=n(e[0][2][t][r],e[1][2][t][r],e[2][2][t][r],e[3][2][t][r]),s[t][r][1]=[],s[t][r][1].push(...n(...s[t][r][0][0])),s[t][r][1].push(...n(...s[t][r][0][1])),s[t][r][2]=[],s[t][r][2].push(...n(...s[t][r][1][0])),s[t][r][2].push(...n(...s[t][r][1][1])),s[t][r][2].push(...n(...s[t][r][1][2])),s[t][r][2].push(...n(...s[t][r][1][3]))}for(let t=0;t&lt;8;++t){r[t]=[];for(let e=0;e&lt;8;++e)r[t][e]=[],r[t][e][0]=s[t][0][2][e],r[t][e][1]=s[t][1][2][e],r[t][e][2]=s[t][2][2][e],r[t][e][3]=s[t][3][2][e]}return r};class x{constructor(t,e){this.x=t||0,this.y=e||0}toString(){return`(x=${this.x}, y=${this.y})`}clone(){return new x(this.x,this.y)}add(t){return new x(this.x+t.x,this.y+t.y)}scale(t){return void 0===t.x?new x(this.x*t,this.y*t):new x(this.x*t.x,this.y*t.y)}distSquared(t){let e=this.x-t.x,s=this.y-t.y;return e*e+s*s}transform(t){let e=this.x*t.a+this.y*t.c+t.e,s=this.x*t.b+this.y*t.d+t.f;return new x(e,s)}}class g{constructor(t,e,s,r,n,o){void 0===t?(this.a=1,this.b=0,this.c=0,this.d=1,this.e=0,this.f=0):(this.a=t,this.b=e,this.c=s,this.d=r,this.e=n,this.f=o)}toString(){return`affine: ${this.a} ${this.c} ${this.e} \n       ${this.b} ${this.d} ${this.f}`}append(t){t instanceof g||console.error(&quot;mesh.js: argument to Affine.append is not affine!&quot;);let e=this.a*t.a+this.c*t.b,s=this.b*t.a+this.d*t.b,r=this.a*t.c+this.c*t.d,n=this.b*t.c+this.d*t.d,o=this.a*t.e+this.c*t.f+this.e,i=this.b*t.e+this.d*t.f+this.f;return new g(e,s,r,n,o,i)}}class w{constructor(t,e){this.nodes=t,this.colors=e}paintCurve(t,e){if(o(this.nodes)&gt;r){const s=n(...this.nodes);let r=[[],[]],o=[[],[]];for(let t=0;t&lt;4;++t)r[0][t]=this.colors[0][t],r[1][t]=(this.colors[0][t]+this.colors[1][t])/2,o[0][t]=r[1][t],o[1][t]=this.colors[1][t];let i=new w(s[0],r),a=new w(s[1],o);i.paintCurve(t,e),a.paintCurve(t,e)}else{let s=Math.round(this.nodes[0].x);if(s&gt;=0&amp;&amp;s&lt;e){let r=4*(~~this.nodes[0].y*e+s);t[r]=Math.round(this.colors[0][0]),t[r+1]=Math.round(this.colors[0][1]),t[r+2]=Math.round(this.colors[0][2]),t[r+3]=Math.round(this.colors[0][3])}}}}class m{constructor(t,e){this.nodes=t,this.colors=e}split(){let t=[[],[],[],[]],e=[[],[],[],[]],s=[[[],[]],[[],[]]],r=[[[],[]],[[],[]]];for(let s=0;s&lt;4;++s){const r=n(this.nodes[0][s],this.nodes[1][s],this.nodes[2][s],this.nodes[3][s]);t[0][s]=r[0][0],t[1][s]=r[0][1],t[2][s]=r[0][2],t[3][s]=r[0][3],e[0][s]=r[1][0],e[1][s]=r[1][1],e[2][s]=r[1][2],e[3][s]=r[1][3]}for(let t=0;t&lt;4;++t)s[0][0][t]=this.colors[0][0][t],s[0][1][t]=this.colors[0][1][t],s[1][0][t]=(this.colors[0][0][t]+this.colors[1][0][t])/2,s[1][1][t]=(this.colors[0][1][t]+this.colors[1][1][t])/2,r[0][0][t]=s[1][0][t],r[0][1][t]=s[1][1][t],r[1][0][t]=this.colors[1][0][t],r[1][1][t]=this.colors[1][1][t];return[new m(t,s),new m(e,r)]}paint(t,e){let s,n=!1;for(let t=0;t&lt;4;++t)if((s=o([this.nodes[0][t],this.nodes[1][t],this.nodes[2][t],this.nodes[3][t]]))&gt;r){n=!0;break}if(n){let s=this.split();s[0].paint(t,e),s[1].paint(t,e)}else{new w([...this.nodes[0]],[...this.colors[0]]).paintCurve(t,e)}}}class b{constructor(t){this.readMesh(t),this.type=t.getAttribute(&quot;type&quot;)||&quot;bilinear&quot;}readMesh(t){let e=[[]],s=[[]],r=Number(t.getAttribute(&quot;x&quot;)),n=Number(t.getAttribute(&quot;y&quot;));e[0][0]=new x(r,n);let o=t.children;for(let t=0,r=o.length;t&lt;r;++t){e[3*t+1]=[],e[3*t+2]=[],e[3*t+3]=[],s[t+1]=[];let r=o[t].children;for(let n=0,o=r.length;n&lt;o;++n){let o=r[n].children;for(let r=0,i=o.length;r&lt;i;++r){let i=r;0!==t&amp;&amp;++i;let h,d=o[r].getAttribute(&quot;path&quot;),c=&quot;l&quot;;null!=d&amp;&amp;(c=(h=d.match(/\s*([lLcC])\s*(.*)/))[1]);let u=l(h[2]);switch(c){case&quot;l&quot;:0===i?(e[3*t][3*n+3]=u[0].add(e[3*t][3*n]),e[3*t][3*n+1]=a(e[3*t][3*n],e[3*t][3*n+3]),e[3*t][3*n+2]=a(e[3*t][3*n+3],e[3*t][3*n])):1===i?(e[3*t+3][3*n+3]=u[0].add(e[3*t][3*n+3]),e[3*t+1][3*n+3]=a(e[3*t][3*n+3],e[3*t+3][3*n+3]),e[3*t+2][3*n+3]=a(e[3*t+3][3*n+3],e[3*t][3*n+3])):2===i?(0===n&amp;&amp;(e[3*t+3][3*n+0]=u[0].add(e[3*t+3][3*n+3])),e[3*t+3][3*n+1]=a(e[3*t+3][3*n],e[3*t+3][3*n+3]),e[3*t+3][3*n+2]=a(e[3*t+3][3*n+3],e[3*t+3][3*n])):(e[3*t+1][3*n]=a(e[3*t][3*n],e[3*t+3][3*n]),e[3*t+2][3*n]=a(e[3*t+3][3*n],e[3*t][3*n]));break;case&quot;L&quot;:0===i?(e[3*t][3*n+3]=u[0],e[3*t][3*n+1]=a(e[3*t][3*n],e[3*t][3*n+3]),e[3*t][3*n+2]=a(e[3*t][3*n+3],e[3*t][3*n])):1===i?(e[3*t+3][3*n+3]=u[0],e[3*t+1][3*n+3]=a(e[3*t][3*n+3],e[3*t+3][3*n+3]),e[3*t+2][3*n+3]=a(e[3*t+3][3*n+3],e[3*t][3*n+3])):2===i?(0===n&amp;&amp;(e[3*t+3][3*n+0]=u[0]),e[3*t+3][3*n+1]=a(e[3*t+3][3*n],e[3*t+3][3*n+3]),e[3*t+3][3*n+2]=a(e[3*t+3][3*n+3],e[3*t+3][3*n])):(e[3*t+1][3*n]=a(e[3*t][3*n],e[3*t+3][3*n]),e[3*t+2][3*n]=a(e[3*t+3][3*n],e[3*t][3*n]));break;case&quot;c&quot;:0===i?(e[3*t][3*n+1]=u[0].add(e[3*t][3*n]),e[3*t][3*n+2]=u[1].add(e[3*t][3*n]),e[3*t][3*n+3]=u[2].add(e[3*t][3*n])):1===i?(e[3*t+1][3*n+3]=u[0].add(e[3*t][3*n+3]),e[3*t+2][3*n+3]=u[1].add(e[3*t][3*n+3]),e[3*t+3][3*n+3]=u[2].add(e[3*t][3*n+3])):2===i?(e[3*t+3][3*n+2]=u[0].add(e[3*t+3][3*n+3]),e[3*t+3][3*n+1]=u[1].add(e[3*t+3][3*n+3]),0===n&amp;&amp;(e[3*t+3][3*n+0]=u[2].add(e[3*t+3][3*n+3]))):(e[3*t+2][3*n]=u[0].add(e[3*t+3][3*n]),e[3*t+1][3*n]=u[1].add(e[3*t+3][3*n]));break;case&quot;C&quot;:0===i?(e[3*t][3*n+1]=u[0],e[3*t][3*n+2]=u[1],e[3*t][3*n+3]=u[2]):1===i?(e[3*t+1][3*n+3]=u[0],e[3*t+2][3*n+3]=u[1],e[3*t+3][3*n+3]=u[2]):2===i?(e[3*t+3][3*n+2]=u[0],e[3*t+3][3*n+1]=u[1],0===n&amp;&amp;(e[3*t+3][3*n+0]=u[2])):(e[3*t+2][3*n]=u[0],e[3*t+1][3*n]=u[1]);break;default:console.error(&quot;mesh.js: &quot;+c+&quot; invalid path type.&quot;)}if(0===t&amp;&amp;0===n||r&gt;0){let e=window.getComputedStyle(o[r]).stopColor.match(/^rgb\s*\(\s*(\d+)\s*,\s*(\d+)\s*,\s*(\d+)\s*\)$/i),a=window.getComputedStyle(o[r]).stopOpacity,h=255;a&amp;&amp;(h=Math.floor(255*a)),e&amp;&amp;(0===i?(s[t][n]=[],s[t][n][0]=Math.floor(e[1]),s[t][n][1]=Math.floor(e[2]),s[t][n][2]=Math.floor(e[3]),s[t][n][3]=h):1===i?(s[t][n+1]=[],s[t][n+1][0]=Math.floor(e[1]),s[t][n+1][1]=Math.floor(e[2]),s[t][n+1][2]=Math.floor(e[3]),s[t][n+1][3]=h):2===i?(s[t+1][n+1]=[],s[t+1][n+1][0]=Math.floor(e[1]),s[t+1][n+1][1]=Math.floor(e[2]),s[t+1][n+1][2]=Math.floor(e[3]),s[t+1][n+1][3]=h):3===i&amp;&amp;(s[t+1][n]=[],s[t+1][n][0]=Math.floor(e[1]),s[t+1][n][1]=Math.floor(e[2]),s[t+1][n][2]=Math.floor(e[3]),s[t+1][n][3]=h))}}e[3*t+1][3*n+1]=new x,e[3*t+1][3*n+2]=new x,e[3*t+2][3*n+1]=new x,e[3*t+2][3*n+2]=new x,e[3*t+1][3*n+1].x=(-4*e[3*t][3*n].x+6*(e[3*t][3*n+1].x+e[3*t+1][3*n].x)+-2*(e[3*t][3*n+3].x+e[3*t+3][3*n].x)+3*(e[3*t+3][3*n+1].x+e[3*t+1][3*n+3].x)+-1*e[3*t+3][3*n+3].x)/9,e[3*t+1][3*n+2].x=(-4*e[3*t][3*n+3].x+6*(e[3*t][3*n+2].x+e[3*t+1][3*n+3].x)+-2*(e[3*t][3*n].x+e[3*t+3][3*n+3].x)+3*(e[3*t+3][3*n+2].x+e[3*t+1][3*n].x)+-1*e[3*t+3][3*n].x)/9,e[3*t+2][3*n+1].x=(-4*e[3*t+3][3*n].x+6*(e[3*t+3][3*n+1].x+e[3*t+2][3*n].x)+-2*(e[3*t+3][3*n+3].x+e[3*t][3*n].x)+3*(e[3*t][3*n+1].x+e[3*t+2][3*n+3].x)+-1*e[3*t][3*n+3].x)/9,e[3*t+2][3*n+2].x=(-4*e[3*t+3][3*n+3].x+6*(e[3*t+3][3*n+2].x+e[3*t+2][3*n+3].x)+-2*(e[3*t+3][3*n].x+e[3*t][3*n+3].x)+3*(e[3*t][3*n+2].x+e[3*t+2][3*n].x)+-1*e[3*t][3*n].x)/9,e[3*t+1][3*n+1].y=(-4*e[3*t][3*n].y+6*(e[3*t][3*n+1].y+e[3*t+1][3*n].y)+-2*(e[3*t][3*n+3].y+e[3*t+3][3*n].y)+3*(e[3*t+3][3*n+1].y+e[3*t+1][3*n+3].y)+-1*e[3*t+3][3*n+3].y)/9,e[3*t+1][3*n+2].y=(-4*e[3*t][3*n+3].y+6*(e[3*t][3*n+2].y+e[3*t+1][3*n+3].y)+-2*(e[3*t][3*n].y+e[3*t+3][3*n+3].y)+3*(e[3*t+3][3*n+2].y+e[3*t+1][3*n].y)+-1*e[3*t+3][3*n].y)/9,e[3*t+2][3*n+1].y=(-4*e[3*t+3][3*n].y+6*(e[3*t+3][3*n+1].y+e[3*t+2][3*n].y)+-2*(e[3*t+3][3*n+3].y+e[3*t][3*n].y)+3*(e[3*t][3*n+1].y+e[3*t+2][3*n+3].y)+-1*e[3*t][3*n+3].y)/9,e[3*t+2][3*n+2].y=(-4*e[3*t+3][3*n+3].y+6*(e[3*t+3][3*n+2].y+e[3*t+2][3*n+3].y)+-2*(e[3*t+3][3*n].y+e[3*t][3*n+3].y)+3*(e[3*t][3*n+2].y+e[3*t+2][3*n].y)+-1*e[3*t][3*n].y)/9}}this.nodes=e,this.colors=s}paintMesh(t,e){let s=(this.nodes.length-1)/3,r=(this.nodes[0].length-1)/3;if(&quot;bilinear&quot;===this.type||s&lt;2||r&lt;2){let n;for(let o=0;o&lt;s;++o)for(let s=0;s&lt;r;++s){let r=[];for(let t=3*o,e=3*o+4;t&lt;e;++t)r.push(this.nodes[t].slice(3*s,3*s+4));let i=[];i.push(this.colors[o].slice(s,s+2)),i.push(this.colors[o+1].slice(s,s+2)),(n=new m(r,i)).paint(t,e)}}else{let n,o,a,h,l,d,u;const x=s,g=r;s++,r++;let w=new Array(s);for(let t=0;t&lt;s;++t){w[t]=new Array(r);for(let e=0;e&lt;r;++e)w[t][e]=[],w[t][e][0]=this.nodes[3*t][3*e],w[t][e][1]=this.colors[t][e]}for(let t=0;t&lt;s;++t)for(let e=0;e&lt;r;++e)0!==t&amp;&amp;t!==x&amp;&amp;(n=i(w[t-1][e][0],w[t][e][0]),o=i(w[t+1][e][0],w[t][e][0]),w[t][e][2]=c(w[t-1][e][1],w[t][e][1],w[t+1][e][1],n,o)),0!==e&amp;&amp;e!==g&amp;&amp;(n=i(w[t][e-1][0],w[t][e][0]),o=i(w[t][e+1][0],w[t][e][0]),w[t][e][3]=c(w[t][e-1][1],w[t][e][1],w[t][e+1][1],n,o));for(let t=0;t&lt;r;++t){w[0][t][2]=[],w[x][t][2]=[];for(let e=0;e&lt;4;++e)n=i(w[1][t][0],w[0][t][0]),o=i(w[x][t][0],w[x-1][t][0]),w[0][t][2][e]=n&gt;0?2*(w[1][t][1][e]-w[0][t][1][e])/n-w[1][t][2][e]:0,w[x][t][2][e]=o&gt;0?2*(w[x][t][1][e]-w[x-1][t][1][e])/o-w[x-1][t][2][e]:0}for(let t=0;t&lt;s;++t){w[t][0][3]=[],w[t][g][3]=[];for(let e=0;e&lt;4;++e)n=i(w[t][1][0],w[t][0][0]),o=i(w[t][g][0],w[t][g-1][0]),w[t][0][3][e]=n&gt;0?2*(w[t][1][1][e]-w[t][0][1][e])/n-w[t][1][3][e]:0,w[t][g][3][e]=o&gt;0?2*(w[t][g][1][e]-w[t][g-1][1][e])/o-w[t][g-1][3][e]:0}for(let s=0;s&lt;x;++s)for(let r=0;r&lt;g;++r){let n=i(w[s][r][0],w[s+1][r][0]),o=i(w[s][r+1][0],w[s+1][r+1][0]),c=i(w[s][r][0],w[s][r+1][0]),x=i(w[s+1][r][0],w[s+1][r+1][0]),g=[[],[],[],[]];for(let t=0;t&lt;4;++t){(d=[])[0]=w[s][r][1][t],d[1]=w[s+1][r][1][t],d[2]=w[s][r+1][1][t],d[3]=w[s+1][r+1][1][t],d[4]=w[s][r][2][t]*n,d[5]=w[s+1][r][2][t]*n,d[6]=w[s][r+1][2][t]*o,d[7]=w[s+1][r+1][2][t]*o,d[8]=w[s][r][3][t]*c,d[9]=w[s+1][r][3][t]*x,d[10]=w[s][r+1][3][t]*c,d[11]=w[s+1][r+1][3][t]*x,d[12]=0,d[13]=0,d[14]=0,d[15]=0,u=f(d);for(let e=0;e&lt;9;++e){g[t][e]=[];for(let s=0;s&lt;9;++s)g[t][e][s]=p(u,e/8,s/8),g[t][e][s]&gt;255?g[t][e][s]=255:g[t][e][s]&lt;0&amp;&amp;(g[t][e][s]=0)}}h=[];for(let t=3*s,e=3*s+4;t&lt;e;++t)h.push(this.nodes[t].slice(3*r,3*r+4));l=y(h);for(let s=0;s&lt;8;++s)for(let r=0;r&lt;8;++r)(a=new m(l[s][r],[[[g[0][s][r],g[1][s][r],g[2][s][r],g[3][s][r]],[g[0][s][r+1],g[1][s][r+1],g[2][s][r+1],g[3][s][r+1]]],[[g[0][s+1][r],g[1][s+1][r],g[2][s+1][r],g[3][s+1][r]],[g[0][s+1][r+1],g[1][s+1][r+1],g[2][s+1][r+1],g[3][s+1][r+1]]]])).paint(t,e)}}}transform(t){if(t instanceof x)for(let e=0,s=this.nodes.length;e&lt;s;++e)for(let s=0,r=this.nodes[0].length;s&lt;r;++s)this.nodes[e][s]=this.nodes[e][s].add(t);else if(t instanceof g)for(let e=0,s=this.nodes.length;e&lt;s;++e)for(let s=0,r=this.nodes[0].length;s&lt;r;++s)this.nodes[e][s]=this.nodes[e][s].transform(t)}scale(t){for(let e=0,s=this.nodes.length;e&lt;s;++e)for(let s=0,r=this.nodes[0].length;s&lt;r;++s)this.nodes[e][s]=this.nodes[e][s].scale(t)}}document.querySelectorAll(&quot;rect,circle,ellipse,path,text&quot;).forEach((r,n)=&gt;{let o=r.getAttribute(&quot;id&quot;);o||(o=&quot;patchjs_shape&quot;+n,r.setAttribute(&quot;id&quot;,o));const i=r.style.fill.match(/^url\(\s*&quot;?\s*#([^\s&quot;]+)&quot;?\s*\)/),a=r.style.stroke.match(/^url\(\s*&quot;?\s*#([^\s&quot;]+)&quot;?\s*\)/);if(i&amp;&amp;i[1]){const a=document.getElementById(i[1]);if(a&amp;&amp;&quot;meshgradient&quot;===a.nodeName){const i=r.getBBox();let l=document.createElementNS(s,&quot;canvas&quot;);d(l,{width:i.width,height:i.height});const c=l.getContext(&quot;2d&quot;);let u=c.createImageData(i.width,i.height);const f=new b(a);&quot;objectBoundingBox&quot;===a.getAttribute(&quot;gradientUnits&quot;)&amp;&amp;f.scale(new x(i.width,i.height));const p=a.getAttribute(&quot;gradientTransform&quot;);null!=p&amp;&amp;f.transform(h(p)),&quot;userSpaceOnUse&quot;===a.getAttribute(&quot;gradientUnits&quot;)&amp;&amp;f.transform(new x(-i.x,-i.y)),f.paintMesh(u.data,l.width),c.putImageData(u,0,0);const y=document.createElementNS(t,&quot;image&quot;);d(y,{width:i.width,height:i.height,x:i.x,y:i.y});let g=l.toDataURL();y.setAttributeNS(e,&quot;xlink:href&quot;,g),r.parentNode.insertBefore(y,r),r.style.fill=&quot;none&quot;;const w=document.createElementNS(t,&quot;use&quot;);w.setAttributeNS(e,&quot;xlink:href&quot;,&quot;#&quot;+o);const m=&quot;patchjs_clip&quot;+n,M=document.createElementNS(t,&quot;clipPath&quot;);M.setAttribute(&quot;id&quot;,m),M.appendChild(w),r.parentElement.insertBefore(M,r),y.setAttribute(&quot;clip-path&quot;,&quot;url(#&quot;+m+&quot;)&quot;),u=null,l=null,g=null}}if(a&amp;&amp;a[1]){const o=document.getElementById(a[1]);if(o&amp;&amp;&quot;meshgradient&quot;===o.nodeName){const i=parseFloat(r.style.strokeWidth.slice(0,-2))*(parseFloat(r.style.strokeMiterlimit)||parseFloat(r.getAttribute(&quot;stroke-miterlimit&quot;))||1),a=r.getBBox(),l=Math.trunc(a.width+i),c=Math.trunc(a.height+i),u=Math.trunc(a.x-i/2),f=Math.trunc(a.y-i/2);let p=document.createElementNS(s,&quot;canvas&quot;);d(p,{width:l,height:c});const y=p.getContext(&quot;2d&quot;);let g=y.createImageData(l,c);const w=new b(o);&quot;objectBoundingBox&quot;===o.getAttribute(&quot;gradientUnits&quot;)&amp;&amp;w.scale(new x(l,c));const m=o.getAttribute(&quot;gradientTransform&quot;);null!=m&amp;&amp;w.transform(h(m)),&quot;userSpaceOnUse&quot;===o.getAttribute(&quot;gradientUnits&quot;)&amp;&amp;w.transform(new x(-u,-f)),w.paintMesh(g.data,p.width),y.putImageData(g,0,0);const M=document.createElementNS(t,&quot;image&quot;);d(M,{width:l,height:c,x:0,y:0});let S=p.toDataURL();M.setAttributeNS(e,&quot;xlink:href&quot;,S);const k=&quot;pattern_clip&quot;+n,A=document.createElementNS(t,&quot;pattern&quot;);d(A,{id:k,patternUnits:&quot;userSpaceOnUse&quot;,width:l,height:c,x:u,y:f}),A.appendChild(M),o.parentNode.appendChild(A),r.style.stroke=&quot;url(#&quot;+k+&quot;)&quot;,g=null,p=null,S=null}}})}();
</script></svg>
