<?xml version="1.0" encoding="UTF-8" standalone="no"?>
<!-- Created with Inkscape (http://www.inkscape.org/) -->

<svg
   width="257.20596"
   height="240.78079"
   viewBox="0 0 68.052409 63.706585"
   version="1.1"
   id="svg1"
   xml:space="preserve"
   xmlns:xlink="http://www.w3.org/1999/xlink"
   xmlns="http://www.w3.org/2000/svg"
   xmlns:svg="http://www.w3.org/2000/svg"><defs
     id="defs1"><linearGradient
       id="linearGradient10"><stop
         style="stop-color:#7f9b62;stop-opacity:1;"
         offset="0"
         id="stop10" /><stop
         style="stop-color:#344a2f;stop-opacity:1;"
         offset="1"
         id="stop11" /></linearGradient><linearGradient
       xlink:href="#linearGradient10"
       id="linearGradient11"
       x1="24.352715"
       y1="27.477076"
       x2="56.251915"
       y2="62.822319"
       gradientUnits="userSpaceOnUse"
       gradientTransform="matrix(1.0125326,0,0,1.0125326,-2.0441957,-0.28848835)" /><clipPath
       clipPathUnits="userSpaceOnUse"
       id="clipPath28"><path
         style="fill:#ffffff;fill-opacity:1;stroke:#94b674;stroke-width:0.499999;stroke-linecap:round;stroke-linejoin:bevel;stroke-dasharray:none;stroke-opacity:1"
         d="m 34.718461,40.025391 0.35275,0.533046 0.470334,0.470334 0.548722,0.462494 0.03136,0.09407 -0.164619,6.741448 -0.470334,0.0078 -0.705498,-1.019056 z"
         id="path28" /></clipPath></defs><g
     id="layer1"
     transform="translate(-2.8684157,-8.0180664)"><path
       style="fill:url(#linearGradient11);stroke:#000000;stroke-width:1.2;stroke-linecap:round;stroke-linejoin:bevel;stroke-dasharray:none;stroke-opacity:1"
       d="m 70.033125,37.974105 c 0.116174,0.185916 -0.153491,0.733382 -0.176827,0.94331 -0.03917,0.353317 -0.03052,0.706349 -0.0253,1.061222 0.01206,0.804298 0.176899,1.587595 0.15998,2.400381 -0.01068,0.495529 -0.139165,0.946855 -0.252605,1.423386 -0.138781,0.583063 -0.17961,1.190244 -0.303116,1.777126 -0.142155,0.675393 -0.366172,1.345586 -0.580989,2.004528 -0.402144,1.233617 -0.827796,2.438817 -1.389303,3.61321 -0.221883,0.464058 -0.580924,0.858942 -0.783059,1.330739 -0.206981,0.483076 -0.300746,1.017381 -0.496787,1.507609 -0.353896,0.884985 -0.923347,1.733267 -1.498761,2.493028 -0.458677,0.605621 -1.025205,1.076026 -1.557708,1.608676 -0.38718,0.387294 -0.59791,0.900908 -0.976723,1.297051 -0.323527,0.33833 -0.758617,0.586648 -1.103022,0.90962 -1.37953,1.293672 -2.866314,2.44911 -4.302636,3.680587 -0.5343,0.458101 -1.115717,0.851939 -1.667164,1.288627 -0.531552,0.42093 -0.953399,0.946866 -1.498766,1.356005 -0.262314,0.196788 -0.568312,0.326801 -0.842001,0.505344 -1.413722,0.922251 -2.830446,1.655495 -4.412097,2.248781 -0.863244,0.3238 -1.612884,0.372989 -2.517587,0.429541 -0.447225,0.02793 -0.884094,-0.06402 -1.330365,0.02527 -0.292524,0.05851 -0.579791,0.217177 -0.858841,0.269516 -0.477718,0.0896 -1.002828,0.03349 -1.498767,0.151602 -0.676223,0.16105 -1.328251,0.398141 -2.020807,0.488498 -1.30106,0.169743 -2.581812,0.205752 -3.890054,0.244249 -0.511501,0.01509 -1.019765,0.09264 -1.532443,0.09264 -0.871243,0 -1.656424,-0.274498 -2.45023,-0.59799 C 31.946828,70.412433 31.625982,70.383235 31.33463,70.307678 30.512683,70.094512 29.688274,69.87546 28.876014,69.625464 27.549765,69.217272 26.120778,69.155988 24.800719,68.715844 23.915123,68.420562 23.48693,67.546252 22.956735,66.854495 22.493464,66.250061 21.798791,65.824146 21.222208,65.338465 20.757054,64.946648 20.492382,64.39484 20.051823,63.990879 19.64084,63.61404 18.971135,63.541671 18.485704,63.358262 17.366665,62.938505 16.852568,61.300344 15.951268,60.511489 15.530114,60.142874 15.032913,59.844454 14.646166,59.433421 14.211537,58.971497 13.88292,58.443644 13.383164,58.043724 12.268245,57.151546 10.806039,56.425634 10.048832,55.163266 9.5277713,54.294596 9.3773003,53.295432 9.1815683,52.316497 c -0.222006,-1.11034 -0.426057,-2.249174 -0.715702,-3.343693 -0.176814,-0.668152 -0.833146,-1.029172 -1.069345,-1.65921 -0.189814,-0.506294 -0.160137,-1.142663 -0.26102,-1.676055 -0.129498,-0.684677 -0.25427,-1.373285 -0.39574,-2.055067 -0.07911,-0.381302 -0.256274,-0.738852 -0.345221,-1.120176 -0.155927,-0.668427 -0.230275,-1.323918 -0.463101,-1.970843 -0.292971,-0.814037 -0.914343,-1.452629 -1.271425,-2.231934 -0.181975,-0.397152 -0.284818,-0.834843 -0.42942,-1.246512 -0.2247,-0.639713 -0.535904,-1.253938 -0.648344,-1.928731 -0.203768,-1.222937 -0.09616,-2.575831 0.05051,-3.798503 0.319795,-2.665693 1.442701,-5.371708 3.04805,-7.512776 0.383498,-0.511473 0.864752,-0.918992 1.288266,-1.389694 0.438912,-0.487816 0.928311,-1.009445 1.473505,-1.381274 1.1606597,-0.791582 2.3233947,-1.549846 3.5195727,-2.274049 0.479138,-0.290084 0.913995,-0.655703 1.406142,-0.926462 1.045603,-0.575244 2.082444,-1.16785 3.149091,-1.701325 1.035484,-0.517887 1.856037,-1.320466 2.862805,-1.86977 0.697496,-0.380559 1.419835,-0.708482 2.121851,-1.078068 0.914481,-0.481441 1.744089,-1.095484 2.669148,-1.558142 0.497077,-0.248611 1.040914,-0.347578 1.557707,-0.539033 0.673733,-0.249604 1.310217,-0.554376 1.961864,-0.850664 0.641255,-0.2915703 1.382287,-0.3029763 2.05449,-0.4548073 0.410516,-0.09271 0.826003,-0.135668 1.237739,-0.210562 0.332811,-0.06052 0.641559,-0.221503 0.968304,-0.303206 0.580065,-0.145134 1.185301,-0.08413 1.776629,-0.1516 0.231322,-0.150738 0.457279,-0.310034 0.693969,-0.452189 0.146311,-0.08788 2.764182,0.265696 3.115409,0.286363 0.707854,0.04165 1.352009,-0.285796 2.062907,-0.202138 1.501285,0.176671 3.039509,0.496419 4.496295,0.901196 0.584469,0.162391 1.201405,0.12479 1.793465,0.235828 0.722171,0.135435 1.404967,0.4411773 2.138689,0.5390343 0.754787,0.100666 1.529055,0.113559 2.290247,0.193713 0.673262,0.0709 1.259589,0.359323 1.902927,0.513765 1.709573,0.410415 3.478638,0.773633 4.917296,1.852928 0.480709,0.360634 0.966551,0.712962 1.431405,1.094913 0.333783,0.274255 0.619739,0.641535 0.976721,0.884353 1.134462,0.771648 2.461932,1.551574 3.174352,2.754121 0.43439,0.733243 1.517978,2.480938 1.338782,2.17298 -0.06831,-0.117395 -0.528559,-0.55428 -0.467956,-0.837177 0.159973,0.216176 1.211079,1.891205 1.368903,2.108957 0.178117,0.245751 0.25348,1.182656 0.336795,1.51603 0.06577,0.263287 0.171393,0.523803 0.261028,0.774864 0.121178,0.339398 0.339891,0.647357 0.51362,0.960151 0.254824,0.458815 0.393637,0.987012 0.606244,1.465499 0.291396,0.655826 0.598239,1.289737 0.850415,1.962416 0.319568,0.852398 0.395678,1.770209 0.69887,2.619366 0.413204,1.157303 0.897202,2.376107 1.010396,3.621633 0.03224,0.355155 0.0032,0.712276 0.0253,1.069643 0.07398,1.18425 0.154301,1.706657 -0.23085,2.853513 z"
       id="path1" /><circle
       style="opacity:1;fill:#4a6943;fill-opacity:1;stroke:#344a2f;stroke-width:1.96814;stroke-linecap:round;stroke-linejoin:bevel;stroke-dasharray:none;stroke-opacity:1"
       id="path3"
       cx="38.246014"
       cy="39.400764"
       r="27.636774" /><circle
       style="fill:#7f9b62;fill-opacity:1;stroke:#4a6943;stroke-width:1.71844;stroke-linecap:round;stroke-linejoin:bevel;stroke-dasharray:none;stroke-opacity:1"
       id="circle3"
       cx="38.246014"
       cy="39.400764"
       r="24.130545" /><circle
       style="opacity:1;fill:#759760;fill-opacity:1;stroke:#94b674;stroke-width:1.49586;stroke-linecap:round;stroke-linejoin:bevel;stroke-dasharray:none;stroke-opacity:1"
       id="circle4"
       cx="38.246014"
       cy="39.400764"
       r="21.005068" /><path
       style="display:inline;fill:none;fill-opacity:1;stroke:#94b674;stroke-width:0.461603;stroke-linecap:round;stroke-linejoin:bevel;stroke-dasharray:none;stroke-opacity:1"
       id="circle5"
       transform="rotate(115.10188)" /><path
       style="fill:#ffffff;fill-opacity:1;stroke:#94b674;stroke-width:0.658177;stroke-linecap:round;stroke-linejoin:bevel;stroke-dasharray:none;stroke-opacity:1"
       d="m 48.924639,44.874334 c -0.03854,-0.06315 0.877751,0.278643 0.952412,0.34177 0.123334,0.104291 -0.08377,-0.04242 0.0442,0.06153 0.249982,0.203088 0.417923,0.495602 0.611767,0.747317 0.40681,0.528274 0.701925,1.227611 0.646557,1.906289 -0.05566,0.682365 -1.117987,0.995707 -1.635212,0.649676 -0.801099,-0.535948 -0.756988,-1.700542 -1.017927,-2.519219 -0.119859,-0.376078 -0.271342,-0.814493 -0.504246,-1.137993 -0.06822,-0.09473 -0.126151,-0.194397 -0.195281,-0.288536 -0.02767,-0.0376 -0.131783,-0.100466 -0.08615,-0.110391 0.221608,-0.04813 1.986852,0.717587 2.246634,0.785986 z"
       id="path5" /><path
       style="display:inline;fill:#94b674;fill-opacity:1;stroke:#344a2f;stroke-width:0.8;stroke-linecap:round;stroke-linejoin:bevel;stroke-dasharray:none"
       d="m 53.16869,28.029155 -1.787299,-0.549185 -1.329672,0.111846 -0.991956,-0.546272 -0.588269,-0.5243 -0.685121,-0.07009 -0.761205,0.176615 -0.761827,0.705715 -0.943534,0.377564 -0.784801,0.336535 -0.83285,-0.661904 -0.29372,-0.37329 -0.311891,-0.235279 -0.26022,-0.01009 -0.356817,0.184042 -0.590217,0.269811 -0.398445,0.306056 -0.41548,0.225662 -0.656754,0.08337 -0.695413,0.188688 -0.763733,0.166098 -0.593743,0.32488 -0.351467,0.483974 -0.344772,0.609658 -0.242098,0.762669 -0.06595,0.678583 0.0093,0.684566 -0.156671,1.067115 -0.02087,0.706956 -0.04431,0.537652 -0.250725,0.442656 -0.174881,0.283704 -0.547065,0.466015 -0.484192,0.304591 -0.387346,0.01295 -0.489142,-0.07447 -0.337551,-0.251143 -0.364705,-0.495692 -0.25598,-0.447253 -0.199674,-0.331446 -0.196965,-0.2954 -0.298995,-0.240533 -0.425968,-0.176731 -0.459481,0.03103 -0.68732,0.229673 -0.69043,0.250377 -0.693244,0.307862 -0.986527,0.605504 -0.489354,0.541887 -0.508145,0.714869 -0.266508,0.666092 -0.570502,0.726013 -0.580855,0.704157 -0.223707,0.261905 -0.09016,0.372555 -0.03999,0.600568 0.0397,0.882034 0.140077,1.77846 -0.0028,1.367772 -0.0536,1.140985 0.01178,1.564817 0.176102,0.617824 0.391486,0.886527 0.395991,0.803505 0.575953,1.108051 0.163338,1.003613 0.02041,0.712487 -0.02888,1.319118 0.104631,1.317843 0.288528,1.12604 0.439007,1.003702 0.656744,0.708062 0.385742,0.25881 -0.640267,-1.425527 -0.129202,-1.070667 0.220001,-0.72168 0.298388,-0.284716 0.539548,-0.478205 0.494094,-0.36029 0.869782,-0.342228 0.912667,-0.244505 1.062902,-0.246935 0.900666,-0.106519 0.892569,-0.169891 1.106257,0.124345 1.00487,-0.01983 0.962813,0.09177 0.554883,0.01229 0.45621,-0.0735 0.392375,-0.223873 0.369256,-0.289239 0.483397,-0.553237 0.371449,-0.487442 0.318008,-0.504047 0.271239,-0.50688 0.304258,-0.67264 0.137278,-0.583165 0.206762,-0.502981 0.238853,-0.286289 0.396308,-0.335692 0.398008,-0.338844 0.325475,-0.241628 0.275893,-0.164593 0.191874,-0.102051 -0.453371,-0.323756 -0.538854,-0.377974 -0.428845,-0.320714 -0.395076,-0.1967 -0.368285,-0.212793 -0.273119,-0.411731 -0.07441,-0.414476 0.295435,-0.223235 0.414113,-0.0738 0.401087,-0.04217 0.402902,-0.116479 0.340879,0.04339 0.203743,-0.191282 0.153497,-0.411654 0.134062,-0.468929 0.145197,-0.373853 0.360284,-0.418184 0.362578,-0.325388 0.516795,-0.282946 0.336531,-0.239738 0.370915,-0.404313 0.451579,-0.348623 0.453696,-0.363752 0.437538,-0.378571 0.183733,-0.254968 0.0077,-0.604175 -0.04698,-0.607218 -0.06062,-0.693916 0.02588,-0.600498 0.104538,-0.302181 0.491269,-0.325187 0.498915,-0.361762 0.53353,-0.261716 0.375029,-0.385818 0.210879,-0.417344 0.05867,-0.42615 -9.13e-4,-0.584417 0.07649,-0.978095 0.134245,-0.316234 0.180039,-0.285444 0.284431,-0.497732 0.601136,-0.670843 0.785604,-0.8637 0.742012,-0.678313 0.556874,-0.383416 0.207014,-0.171206 z"
       id="path11" /><path
       style="fill:#274a1a;fill-opacity:1;stroke:#274a1a;stroke-width:0.285431;stroke-linecap:round;stroke-linejoin:bevel;stroke-opacity:1"
       id="path16"
       d="m 44.402342,28.959049 c -0.546756,0.444414 -1.178201,0.763883 -1.797643,1.094875 1.961797,-1.171474 0.798071,-0.484243 0.380039,-0.150993 -0.453352,0.34978 -0.75801,0.785422 -0.946082,1.32277 -0.02469,0.06343 -0.04729,0.127703 -0.07412,0.190264 -0.03429,0.07989 -0.07461,0.157099 -0.109031,0.236937 -0.113628,0.263368 -0.205469,0.530678 -0.273802,0.808941 -0.01835,0.05646 -0.03381,0.113969 -0.05513,0.169386 -0.04296,0.111682 -0.09891,0.218333 -0.137552,0.331579 -0.07063,0.206937 -0.132284,0.475914 -0.15069,0.69593 -0.0034,0.04065 0.0073,0.426277 0.0084,0.478127 0.02384,0.428895 0.01647,0.867866 0.133759,1.285377 0.02123,0.07556 0.05435,0.147266 0.08153,0.220908 0.04933,0.186095 0.140532,0.533045 0.370289,0.597377 0.02787,0.0079 0.05522,-0.01751 0.08282,-0.02625 0,0 -1.119174,0.770016 -1.119174,0.770016 v 0 c -0.02386,-0.02438 -0.05376,-0.04395 -0.07167,-0.07298 -0.02902,-0.04711 -0.04463,-0.101252 -0.06688,-0.151912 -0.151658,-0.345058 -0.06313,-0.165121 -0.265192,-0.528068 -0.106426,-0.507654 -0.246423,-1.013425 -0.236398,-1.536524 0.0053,-0.08239 0.0057,-0.165244 0.0159,-0.247166 0.04113,-0.32994 0.129196,-0.654005 0.175677,-0.98318 0.01329,-0.0942 0.01056,-0.190388 0.02656,-0.284173 0.0099,-0.05774 0.03369,-0.112222 0.05054,-0.168325 0.164235,-0.421427 0.324216,-0.844626 0.491116,-1.26472 0.02722,-0.05557 0.213424,-0.437363 0.233529,-0.47343 0.174032,-0.312409 0.386353,-0.603105 0.616917,-0.875705 0.566402,-0.466722 1.230446,-0.807575 1.860085,-1.17268 0.422185,-0.228825 1.044249,-0.606805 -0.83982,0.507204 -0.04059,0.024 0.0826,-0.04563 0.12261,-0.0706 0.162257,-0.101218 0.148565,-0.0979 0.298501,-0.219546 z" /><path
       style="fill:#274a1a;fill-opacity:1;stroke:#274a1a;stroke-width:0.285431;stroke-linecap:round;stroke-linejoin:bevel;stroke-opacity:1"
       id="path18"
       d="m 33.188597,50.9741 c -0.0049,-0.264512 -0.01801,-0.34669 0.01533,-0.593972 0.01649,-0.122293 0.06212,-0.182254 0.04387,-0.303829 -0.03417,-0.223433 -0.04535,-0.449479 -0.04993,-0.6752 -9.08e-4,-0.161816 0.0052,-0.324132 -0.0053,-0.485778 -0.0061,-0.09414 -0.02099,-0.187808 -0.02235,-0.282143 -0.0011,-0.07637 0.01,-0.152441 0.01496,-0.228662 0.02876,-0.201145 0.05757,-0.40162 0.06991,-0.604379 0.003,-0.04954 0.01126,-0.099 0.0096,-0.148603 -0.0034,-0.09911 -0.01679,-0.197606 -0.02519,-0.296415 -0.0075,-0.37267 0.01539,-0.744718 0.02333,-1.117167 3.71e-4,-0.04373 0.0022,-0.08749 0.0011,-0.131227 -0.01897,-0.697502 -4.37e-4,0.413964 -0.0168,-0.378122 -0.0036,-0.176458 0.0047,-0.349336 -0.0056,-0.525591 -0.06023,-0.436119 0.005,-0.872107 0.02216,-1.308299 0.0061,-0.296617 0.07417,-0.585034 0.115354,-0.87683 0.0081,-0.05727 0.04305,-0.438032 0.04643,-0.474007 0.0038,-0.296941 0.07583,-0.584446 0.131761,-0.874016 0.01216,-0.06279 0.03314,-0.124421 0.03663,-0.188266 -0.0063,-0.520233 -0.01566,-0.262857 0.02655,-0.772169 0.01685,-0.100103 0.02629,-0.201759 0.05053,-0.300346 0.09148,-0.3723 0.03388,0.0669 0.09044,-0.280142 0.03077,-0.188795 0.04981,-0.382051 0.07414,-0.571932 0.02479,-0.568829 -0.177079,-1.099233 -0.393415,-1.614568 -0.112057,-0.270039 -0.248333,-0.528349 -0.345559,-0.804391 -0.01626,-0.04615 -0.02993,-0.09318 -0.04527,-0.139639 -0.01091,-0.03318 -0.01444,-0.07006 -0.03362,-0.09926 -0.255922,-0.389656 -0.526461,-0.769514 -0.789688,-1.154272 0,0 0.601785,1.23137 0.601785,1.23137 v 0 C 32.596014,36.6246 32.36674,36.269944 32.128534,35.921309 c -0.02708,-0.03963 0.04677,0.0839 0.06737,0.127242 0.117553,0.247372 0.230041,0.497735 0.347155,0.745467 0.05056,0.106954 0.100818,0.214035 0.151224,0.321051 0.04285,0.106989 0.08967,0.21245 0.128536,0.320942 0.130627,0.364717 0.204938,0.753351 0.211003,1.140383 -0.01618,0.190318 -0.0099,0.185798 -0.04983,0.373691 -0.01217,0.05706 -0.03292,0.112279 -0.04196,0.169896 -0.02603,0.165744 0.0035,0.21356 -0.0011,0.394473 -0.0028,0.112174 -0.01561,0.22387 -0.02341,0.335809 -0.01508,0.120936 -0.03016,0.241872 -0.04524,0.362806 -0.02388,0.09974 -0.0567,0.197746 -0.07167,0.2992 -0.01079,0.07258 -6.17e-4,0.14681 -0.0049,0.220053 -0.01739,0.292463 -0.05111,0.586531 -0.135525,0.867989 -0.02595,0.12723 -0.06375,0.300207 -0.08158,0.431599 -0.04161,0.306484 -0.0357,0.618537 -0.08505,0.92445 -0.05886,0.419498 -0.09259,0.844175 -0.08,1.267846 0.01161,0.178781 0.02907,0.356134 0.02514,0.535574 -0.0026,0.113429 -0.01631,0.226451 -0.01799,0.339894 -6.64e-4,0.04533 0.0028,0.09062 0.0042,0.135919 0.01091,0.39765 0.04121,0.794406 0.04167,1.192229 -0.04744,0.341497 -0.06633,0.685567 -0.06347,1.030598 -0.0031,0.07994 -10e-4,0.160223 -0.0091,0.239802 -0.0074,0.07257 -0.02816,0.14326 -0.03727,0.215633 -0.01931,0.153288 -0.0056,0.310823 -0.0187,0.464614 0.0095,0.217396 0.033,0.433713 0.02153,0.651572 4.42e-4,0.08509 0.03029,0.147971 0.0471,0.232237 0.04928,0.24708 0.05189,0.494202 -0.01496,0.739318 z" /><path
       style="fill:none;stroke:#ffffff;stroke-width:0.722122;stroke-linecap:round;stroke-linejoin:round;stroke-dasharray:none;stroke-opacity:1"
       d="m 166.06702,57.244649 c 0.17981,0.236919 0.36258,0.477734 0.52346,0.61257 0.16088,0.134836 0.30135,0.165639 0.43737,0.177057 0.13602,0.01142 0.27219,0.0032 0.43247,-0.0479 0.16028,-0.05107 0.34697,-0.145102 0.5961,-0.382623 0.24913,-0.237521 0.56068,-0.618512 1.27475,-2.26846 0.71408,-1.649948 1.83062,-4.568723 2.4228,-6.022467 0.59218,-1.453743 0.66005,-1.442387 0.68016,-1.376184 0.0201,0.0662 -0.007,0.187256 -0.0846,0.630142 -0.0771,0.442887 -0.2038,1.207572 -0.27223,1.888242 -0.0684,0.680671 -0.0786,1.277288 -0.0621,2.179268 0.0165,0.90198 0.0597,2.109265 0.13358,2.954764 0.0738,0.845499 0.17829,1.329173 0.27973,1.63396 0.10144,0.304788 0.19991,0.430729 0.30376,0.512332 0.10385,0.0816 0.21311,0.118895 0.26623,0.139984 0.0531,0.02109 0.0501,0.02591 0.0786,0.02564 0.0285,-2.65e-4 0.0886,-0.0057 0.1687,-0.02378 0.0801,-0.0181 0.18039,-0.04891 0.47514,-0.261568 0.29475,-0.212659 0.78399,-0.607162 1.34618,-1.274867 0.56219,-0.667705 1.1973,-1.608566 1.69345,-2.470282 0.49616,-0.861716 0.85333,-1.644233 1.09495,-2.236274 0.24163,-0.59204 0.36769,-0.993566 0.44484,-1.35349 0.0771,-0.359924 0.10538,-0.678225 0.11709,-0.924125 0.0117,-0.245901 0.007,-0.41938 -0.0309,-0.548528 -0.0378,-0.129149 -0.10866,-0.214009 -0.21161,-0.290481 -0.10296,-0.07647 -0.23802,-0.144562 -0.41211,-0.175905 -0.17409,-0.03134 -0.38719,-0.02594 -0.64472,0.06908 -0.25754,0.09502 -0.56189,0.281119 -0.86414,0.584842 -0.30226,0.303722 -0.60361,0.725786 -0.82812,1.192719 -0.22452,0.466932 -0.37219,0.978703 -0.44636,1.398616 -0.0742,0.419913 -0.0748,0.747942 -0.0466,1.118676 0.0282,0.370734 0.0852,0.784156 0.19116,1.147055 0.10595,0.3629 0.26083,0.675256 0.40641,0.867918 0.14557,0.192663 0.28183,0.265617 0.43341,0.321553 0.15158,0.05593 0.31846,0.09484 0.53247,0.07674 0.21401,-0.0181 0.47514,-0.09322 0.93378,-0.293997 0.45864,-0.200772 1.11475,-0.52718 1.62981,-0.842521 0.51507,-0.31534 0.88905,-0.619593 1.22732,-0.929259 0.33828,-0.309666 0.64083,-0.62473 0.84553,-0.924668 0.20471,-0.299938 0.31156,-0.584736 0.29565,-0.734703 -0.0159,-0.149967 -0.15458,-0.165101 -0.30706,-0.155643 -0.15248,0.0095 -0.31876,0.0435 -0.49255,0.108626 -0.17379,0.06512 -0.35507,0.161313 -0.56548,0.264536 -0.21041,0.103223 -0.44993,0.213469 -0.65583,0.306153 -0.20591,0.09268 -0.37819,0.167799 -0.42383,0.174565 -0.0456,0.0068 0.0354,-0.05486 0.21883,-0.159435 0.1834,-0.104575 0.46913,-0.252105 0.69305,-0.383971 0.22391,-0.131865 0.38599,-0.248056 1.06002,-0.589423 0.67402,-0.341367 1.85925,-0.907554 3.04485,-1.473918"
       id="path21"
       transform="matrix(0.61261921,-0.49434587,0.54193472,0.63969725,-103.1772,95.35944)" /><path
       style="fill:#274a1a;fill-opacity:1;stroke:#274a1a;stroke-width:0.285431;stroke-linecap:round;stroke-linejoin:bevel;stroke-opacity:1"
       id="path19"
       d="m 39.27984,40.80402 c -0.0461,-0.143021 -0.03652,-0.288197 -0.0011,-0.431698 0.03163,-0.146099 0.12,-0.267448 0.203134,-0.388287 0.06533,-0.09211 0.165513,-0.146136 0.248446,-0.218931 0.178479,-0.156648 -0.04189,0.01609 0.160089,-0.137006 0.18476,-0.113183 0.385899,-0.199239 0.588852,-0.274188 0.227089,-0.08153 0.445213,-0.18575 0.674353,-0.260844 0.295217,-0.07892 0.59892,-0.117909 0.897388,-0.182524 0.140948,-0.03637 0.291415,-0.04958 0.429946,-0.09555 0.05134,-0.01705 0.09837,-0.04531 0.149219,-0.06374 0.106884,-0.03874 0.217564,-0.06607 0.326272,-0.09934 0.345762,-0.09569 0.687292,-0.215784 1.014648,-0.362992 0.05555,-0.02746 0.115529,-0.04741 0.166698,-0.08238 0.06226,-0.04256 0.112655,-0.100361 0.170804,-0.148367 0.247455,-0.204244 0.500307,-0.402371 0.748182,-0.606253 0.05865,-0.05662 0.120886,-0.109735 0.175913,-0.169858 0.127926,-0.139754 0.242388,-0.291352 0.368494,-0.432748 0.19226,-0.215563 0.391286,-0.424646 0.585083,-0.638822 0.387241,-0.447067 0.819432,-0.848424 1.290637,-1.204883 0.264077,-0.30929 0.62042,-0.47098 0.97753,-0.64331 0,0 -0.289213,-0.481934 -0.289213,-0.481934 v 0 c -0.366107,0.159483 -0.724075,0.33999 -1.105409,0.461444 -0.165659,0.118922 -0.327953,0.230109 -0.483302,0.362722 -0.298347,0.254685 -0.563195,0.544999 -0.836016,0.825763 -0.196438,0.209482 -0.383472,0.428488 -0.588455,0.629786 -0.271146,0.266269 -0.129563,0.120012 -0.413136,0.354918 -0.06151,0.05095 -0.120012,0.105464 -0.180007,0.158201 -0.231468,0.210959 -0.470982,0.426501 -0.754935,0.56611 -0.0651,0.032 -0.13614,0.05033 -0.202561,0.0795 -0.05515,0.02421 -0.107834,0.05365 -0.161752,0.08047 -0.330073,0.138356 -0.668098,0.244669 -1.013953,0.336206 -0.01337,0.0034 -0.317328,0.08205 -0.333129,0.08508 -0.05633,0.01079 -0.114274,0.01161 -0.170597,0.02243 -0.141258,0.02711 -0.278309,0.07985 -0.420384,0.104396 -0.299618,0.06228 -0.597877,0.131299 -0.898933,0.186268 -0.100126,0.01665 -0.201508,0.02614 -0.300834,0.04704 -0.148934,0.03132 -0.292244,0.08992 -0.435226,0.140341 -0.205552,0.08777 -0.407837,0.18077 -0.600324,0.295288 -0.06609,0.03277 -0.136091,0.05781 -0.200218,0.09426 -0.103188,0.05866 -0.178438,0.15927 -0.271188,0.231227 -0.119643,0.110743 -0.200081,0.249326 -0.266866,0.397324 -0.03788,0.132223 -0.04718,0.267267 -0.07946,0.400249 z" /><path
       style="fill:#274a1a;fill-opacity:1;stroke:#274a1a;stroke-width:0.285431;stroke-linecap:round;stroke-linejoin:bevel;stroke-opacity:1"
       id="path20"
       d="m 31.485303,53.162492 c -0.04223,-0.207662 -0.0079,-0.417892 0.03579,-0.622013 0.07235,-0.295362 0.217505,-0.556954 0.39587,-0.800122 0.235137,-0.290612 0.451712,-0.597823 0.702745,-0.874763 0.297188,-0.36478 0.676481,-0.646906 1.042046,-0.938144 0.05781,-0.04333 0.115612,-0.08667 0.173421,-0.130015 0.05744,-0.0461 0.113816,-0.09359 0.172339,-0.138317 0.05822,-0.04448 0.121875,-0.08193 0.177821,-0.129256 0.06547,-0.05538 0.120138,-0.122736 0.18559,-0.178147 0.160199,-0.135634 0.263852,-0.191732 0.440654,-0.302342 0.418447,-0.264281 0.849476,-0.500524 1.309603,-0.683301 0.397894,-0.176872 0.814287,-0.299884 1.231696,-0.419976 0.408132,-0.125776 0.827468,-0.206823 1.24298,-0.302746 0.400826,-0.100232 0.802438,-0.19691 1.202763,-0.299166 0.357443,-0.08418 0.696448,-0.219549 1.026131,-0.378853 0.318447,-0.13304 0.6185,-0.307722 0.923531,-0.469097 0,0 -0.689643,-0.859563 -0.689643,-0.859563 v 0 c -0.08197,0.06248 -0.165713,0.129016 -0.252929,0.184136 -0.197773,0.125005 -0.413364,0.215157 -0.618545,0.326197 -0.329912,0.139286 -0.661928,0.274453 -1.002661,0.385185 -0.387061,0.125359 -0.776547,0.244701 -1.175563,0.326535 -0.417168,0.09752 -0.832179,0.204383 -1.248741,0.304587 -0.415751,0.125308 -0.823589,0.27917 -1.217991,0.460818 -0.435642,0.230899 -0.87169,0.462706 -1.27149,0.753078 -0.171207,0.118212 -0.268248,0.19159 -0.451788,0.292298 -0.0776,0.04257 -0.162451,0.0716 -0.238271,0.11729 -0.06315,0.03808 -0.117541,0.08909 -0.176805,0.13295 -0.263477,0.195028 -0.100384,0.0631 -0.346371,0.273176 -0.357836,0.305856 -0.690711,0.639293 -1.053651,0.939267 -0.274018,0.254079 -0.576488,0.479536 -0.7998,0.784358 -0.177351,0.243504 -0.352942,0.493114 -0.470929,0.771793 -0.07009,0.167306 -0.116996,0.342708 -0.184023,0.510147 z" /><path
       style="fill:#274a1a;fill-opacity:1;stroke:#344a2f;stroke-width:0.287354;stroke-linecap:round;stroke-linejoin:bevel;stroke-opacity:1"
       id="path12"
       d="m 55.007362,28.661717 c -0.111517,-0.03713 -0.228121,-0.05918 -0.342429,-0.08802 -0.107881,-0.03077 -0.214135,-0.06582 -0.322714,-0.09467 -0.104514,-0.02317 -0.211314,-0.03936 -0.318011,-0.05413 -0.09636,-0.01712 -0.195233,-0.02137 -0.293713,-0.027 -0.109711,-0.0061 -0.220673,-0.0041 -0.331477,0.0014 -0.125612,0.0075 -0.251139,0.01958 -0.376809,0.03569 -0.150461,0.01917 -0.299519,0.05615 -0.44795,0.0955 -0.165155,0.04646 -0.329965,0.09251 -0.49409,0.144866 -0.168094,0.05144 -0.335281,0.106508 -0.500954,0.168735 -0.170277,0.06015 -0.335923,0.135445 -0.501514,0.211111 -0.158457,0.07737 -0.317705,0.152301 -0.476365,0.22912 -0.152358,0.07409 -0.306055,0.144174 -0.459685,0.214647 -0.188642,0.06859 -0.368114,0.165703 -0.543056,0.270592 -0.170845,0.09437 -0.340086,0.190826 -0.50653,0.294636 -0.204251,0.109981 -0.40127,0.23817 -0.596515,0.366734 -0.180302,0.126732 -0.35626,0.260644 -0.529577,0.39825 -0.186504,0.127578 -0.361315,0.273888 -0.541318,0.411777 -0.184638,0.144011 -0.368211,0.290311 -0.567602,0.4091 -0.215719,0.142254 -0.433556,0.280229 -0.646697,0.427077 -0.173817,0.114345 -0.343786,0.235386 -0.512021,0.359158 -0.143668,0.112104 -0.284497,0.228305 -0.425809,0.343796 -0.154389,0.122837 -0.299297,0.257975 -0.446904,0.38964 -0.176406,0.179053 -0.360485,0.348971 -0.534692,0.530363 -0.208401,0.207321 -0.419487,0.40758 -0.611049,0.632453 -0.152785,0.191178 -0.309457,0.378805 -0.467392,0.565523 -0.155116,0.171199 -0.289225,0.358044 -0.415372,0.551801 -0.156719,0.203843 -0.29704,0.420851 -0.436537,0.636857 -0.13807,0.252378 -0.30206,0.489363 -0.448508,0.736505 -0.134286,0.239219 -0.260277,0.483129 -0.36905,0.734087 -0.116198,0.240916 -0.217914,0.487457 -0.310865,0.736942 -0.09552,0.257721 -0.193764,0.515027 -0.275455,0.77666 -0.06484,0.246144 -0.149159,0.487426 -0.216952,0.732851 -0.06517,0.255124 -0.129508,0.51037 -0.189747,0.766315 -0.06146,0.231329 -0.124599,0.46257 -0.173329,0.695978 -0.04644,0.197251 -0.09195,0.3946 -0.135751,0.592248 -0.04593,0.237899 -0.102942,0.472868 -0.142704,0.711693 -0.03251,0.261305 -0.07969,0.521548 -0.138837,0.780399 -0.0561,0.253117 -0.158607,0.493498 -0.270839,0.729562 -0.122369,0.258298 -0.235049,0.520604 -0.358845,0.778284 -0.161166,0.281333 -0.321521,0.562894 -0.488978,0.840863 -0.153401,0.264264 -0.318957,0.521456 -0.499217,0.768326 -0.187461,0.247517 -0.38422,0.488169 -0.583004,0.726365 -0.213854,0.253374 -0.430835,0.505977 -0.664533,0.740038 -0.225367,0.253425 -0.454258,0.502282 -0.692411,0.742749 -0.292047,0.279672 -0.627746,0.500465 -0.950621,0.7362 -0.316089,0.234397 -0.637456,0.4595 -0.942689,0.710314 -0.234532,0.177921 -0.43895,0.394505 -0.662861,0.585766 -0.237892,0.200792 -0.449157,0.431858 -0.644338,0.676642 -0.193068,0.244566 -0.36193,0.503699 -0.507987,0.778366 -0.139739,0.25741 -0.262455,0.522309 -0.370827,0.792872 -0.111963,0.270359 -0.207928,0.546211 -0.29942,0.822825 -0.09683,0.274819 -0.185294,0.551813 -0.274322,0.828687 -0.08126,0.256408 -0.1615,0.513286 -0.231152,0.772298 -0.07688,0.261424 -0.122457,0.527895 -0.186141,0.791379 -0.05943,0.293999 -0.08068,0.590682 -0.110145,0.886028 -0.02137,0.222572 -0.03462,0.444603 -0.0448,0.666809 0,0 -2.351167,-0.676553 -2.351167,-0.676553 v 0 c -0.01021,-0.234487 -0.0276,-0.467362 -0.04042,-0.701432 -0.008,-0.314365 0.02906,-0.625498 0.08838,-0.940848 0.04024,-0.274509 0.115365,-0.545422 0.182745,-0.816642 0.0726,-0.264117 0.150473,-0.526744 0.242404,-0.786279 0.09418,-0.276255 0.191704,-0.551555 0.282528,-0.828719 0.09879,-0.281991 0.192281,-0.565546 0.302848,-0.844038 0.121608,-0.278677 0.24612,-0.556709 0.395284,-0.823177 0.167554,-0.281327 0.329101,-0.567856 0.534197,-0.824104 0.20522,-0.251059 0.414786,-0.498501 0.644321,-0.726505 0.221373,-0.218481 0.472105,-0.402092 0.713499,-0.594452 0.328521,-0.23678 0.658809,-0.470781 0.993023,-0.697955 0.304002,-0.220522 0.591981,-0.460418 0.862086,-0.726856 0.246488,-0.2267 0.485974,-0.462562 0.710626,-0.712935 0.204671,-0.251136 0.425274,-0.488289 0.631509,-0.738217 0.192695,-0.234048 0.385334,-0.467856 0.565529,-0.712204 0.175794,-0.241041 0.347946,-0.484759 0.506925,-0.737387 0.163747,-0.266867 0.323313,-0.53968 0.446598,-0.826468 0.126805,-0.250706 0.256176,-0.500567 0.360772,-0.760705 0.08725,-0.226223 0.170956,-0.453946 0.22895,-0.687804 0.06328,-0.246905 0.122154,-0.494805 0.159183,-0.745074 0.03207,-0.24788 0.04631,-0.497243 0.101604,-0.743204 0.03972,-0.202687 0.0902,-0.404103 0.14649,-0.60412 0.07058,-0.229034 0.129474,-0.460527 0.188665,-0.691858 0.07242,-0.253233 0.140832,-0.507253 0.211537,-0.760839 0.06465,-0.25372 0.11147,-0.510592 0.214845,-0.755741 0.09615,-0.261463 0.186425,-0.524698 0.285796,-0.785186 0.0998,-0.255835 0.190586,-0.515056 0.304066,-0.766093 0.131087,-0.251977 0.264065,-0.502655 0.411875,-0.745858 0.142745,-0.251437 0.277674,-0.5068 0.439547,-0.747576 0.130853,-0.225904 0.263387,-0.450281 0.400952,-0.672374 0.145786,-0.190934 0.293086,-0.380775 0.440208,-0.570184 0.161454,-0.194977 0.328673,-0.384357 0.508363,-0.561739 0.202994,-0.214622 0.386056,-0.446419 0.594257,-0.655233 0.178438,-0.175023 0.34347,-0.363207 0.520809,-0.539534 0.136452,-0.149638 0.277918,-0.295842 0.430137,-0.427904 0.14605,-0.120416 0.296144,-0.234924 0.445464,-0.350592 0.174864,-0.133734 0.355668,-0.257458 0.541848,-0.371626 0.221294,-0.131933 0.438845,-0.271653 0.653567,-0.41606 0.177083,-0.137046 0.36567,-0.256374 0.539943,-0.398211 0.177449,-0.139917 0.362132,-0.269534 0.532687,-0.419177 0.186458,-0.135505 0.371103,-0.273642 0.562648,-0.400694 0.189664,-0.135551 0.380264,-0.268068 0.573161,-0.398141 0.171249,-0.09736 0.337269,-0.203819 0.507082,-0.303952 0.182914,-0.09515 0.364882,-0.19292 0.544797,-0.295026 0.153014,-0.07142 0.306278,-0.141954 0.45948,-0.212814 0.162379,-0.07399 0.323726,-0.150857 0.485762,-0.225829 0.166804,-0.07944 0.333244,-0.160396 0.502137,-0.233596 0.170105,-0.06713 0.341285,-0.130349 0.515259,-0.181069 0.161677,-0.05213 0.321564,-0.111177 0.483819,-0.159939 0.15049,-0.04614 0.301501,-0.08898 0.453626,-0.125119 0.125816,-0.02974 0.252239,-0.05564 0.379274,-0.0658 0.110966,-0.01274 0.221713,-0.02456 0.332606,-0.02994 0.104889,-0.0038 0.209085,-7.64e-4 0.313154,0.0035 0.110966,0.01091 0.220989,0.02535 0.331526,0.03826 0.111776,0.0141 0.222545,0.03395 0.327747,0.07055 0.105206,0.03326 0.210041,0.06973 0.320843,0.08551 z" /><text
       xml:space="preserve"
       style="font-style:normal;font-variant:normal;font-weight:bold;font-stretch:normal;font-size:2.843px;line-height:1.45;font-family:Arial;-inkscape-font-specification:'Arial Bold';letter-spacing:0.272419px;fill:#ffffff;fill-opacity:1;stroke-width:0.0710752"
       x="6.4927707"
       y="54.541264"
       id="text20"
       transform="rotate(-40.742489)"><tspan
         id="tspan20"
         style="font-style:normal;font-variant:normal;font-weight:bold;font-stretch:normal;line-height:1.45;font-family:Arial;-inkscape-font-specification:'Arial Bold';letter-spacing:0.272419px;fill:#ffffff;fill-opacity:1;stroke-width:0.0710752"
         x="6.4927707"
         y="54.541264">SHOP</tspan></text><path
       style="fill:#274a1a;fill-opacity:1;stroke:#274a1a;stroke-width:0.243308;stroke-linecap:round;stroke-linejoin:bevel;stroke-opacity:1"
       id="path25"
       d="m 35.602694,46.392581 c -0.0042,-0.225476 0.219817,0.425651 0.185526,1.249596 -0.0044,0.105098 0.05295,-0.155357 0.0374,-0.258991 -0.02913,-0.190459 -0.03866,-0.383146 -0.04256,-0.575556 -7.74e-4,-0.137936 0.0044,-0.276298 -0.0045,-0.414089 -0.0052,-0.08025 -0.01789,-0.160092 -0.01905,-0.240505 -9.43e-4,-0.0651 0.0085,-0.129945 0.01275,-0.194917 0.02452,-0.171461 0.04907,-0.342351 0.05959,-0.515187 0.0026,-0.04223 0.0096,-0.08439 0.0082,-0.126673 -0.0029,-0.08448 -0.01431,-0.168444 -0.02147,-0.252671 -0.0064,-0.317673 0.01312,-0.634815 0.01989,-0.9523 3.16e-4,-0.03728 0.0019,-0.07458 9.36e-4,-0.111861 -0.01617,-0.594567 -3.73e-4,0.352873 -0.01432,-0.32232 -0.0031,-0.150417 0.004,-0.297782 -0.0048,-0.448026 -0.05134,-0.371758 0.0043,-0.743405 0.01889,-1.115225 0.0052,-0.252844 0.06322,-0.498697 0.09833,-0.747431 0.0069,-0.04882 0.0367,-0.373389 0.03958,-0.404055 0.0032,-0.253119 0.06464,-0.498195 0.112316,-0.745032 0.01037,-0.05352 0.02825,-0.106059 0.03122,-0.160482 -0.0054,-0.443459 -0.01335,-0.224066 0.02263,-0.658215 0.01436,-0.08533 0.02241,-0.171984 0.04307,-0.256022 0.07798,-0.317358 0.02888,0.05703 0.07709,-0.2388 0.02623,-0.160933 0.04246,-0.325669 0.0632,-0.487528 0.02113,-0.484884 -0.150946,-0.937013 -0.335356,-1.376296 -0.09552,-0.230188 -0.211685,-0.450378 -0.294563,-0.685682 -0.01386,-0.03934 -0.02551,-0.07943 -0.03859,-0.119032 -0.0093,-0.02828 -0.01231,-0.05972 -0.02866,-0.08461 -0.218154,-0.332152 -0.448768,-0.655952 -0.673149,-0.983929 l 0.512976,1.049649 v 0 c -0.199247,-0.29975 -0.394685,-0.602067 -0.597738,-0.899252 -0.02308,-0.03378 0.03987,0.07152 0.05743,0.108464 0.100205,0.210866 0.196092,0.424281 0.295923,0.635454 0.0431,0.09117 0.08594,0.182448 0.128907,0.273671 0.03653,0.0912 0.07644,0.181098 0.109567,0.273579 0.11135,0.310893 0.174694,0.642174 0.179864,0.972089 -0.01379,0.162232 -0.0084,0.158379 -0.04248,0.318543 -0.01037,0.04864 -0.02806,0.09571 -0.03577,0.144824 -0.02219,0.141284 0.003,0.182043 -9.11e-4,0.336258 -0.0024,0.09562 -0.01331,0.190832 -0.01996,0.286251 -0.01285,0.103089 -0.02571,0.206178 -0.03856,0.309265 -0.02036,0.08502 -0.04833,0.168563 -0.06109,0.255045 -0.0092,0.06187 -5.26e-4,0.125144 -0.0042,0.187578 -0.01482,0.249303 -0.04357,0.499973 -0.115524,0.739895 -0.02212,0.108454 -0.05434,0.255903 -0.06954,0.367905 -0.03547,0.261254 -0.03043,0.527256 -0.0725,0.788023 -0.05017,0.35759 -0.07893,0.719595 -0.06819,1.080742 0.0099,0.152397 0.02478,0.303577 0.02143,0.456536 -0.0022,0.09669 -0.0139,0.193032 -0.01534,0.289734 -5.66e-4,0.03864 0.0024,0.07725 0.0036,0.11586 0.0093,0.338967 0.03513,0.677171 0.03552,1.016285 -0.04044,0.2911 -0.05654,0.584393 -0.0541,0.878506 -0.0026,0.06814 -8.6e-4,0.136578 -0.0078,0.204413 -0.0063,0.06186 -0.024,0.122118 -0.03177,0.18381 -0.01646,0.130667 -0.0048,0.264953 -0.01594,0.396048 0.0081,0.185314 0.02813,0.369708 0.01835,0.555416 3.77e-4,0.07253 0.02582,0.126134 0.04015,0.197964 0.04201,0.210617 0.09126,-0.456686 0.03428,-0.247744 z"
       clip-path="url(#clipPath28)"
       transform="matrix(1.1874064,0,0,1.1874064,-9.2763337,-6.1925849)" /></g></svg>
