<?xml version="1.0" encoding="UTF-8" standalone="no"?>
<!-- Created with Inkscape (http://www.inkscape.org/) -->

<svg
   width="246.48238"
   height="246.48239"
   viewBox="0 0 65.215127 65.215133"
   version="1.1"
   id="svg1"
   xml:space="preserve"
   xmlns:xlink="http://www.w3.org/1999/xlink"
   xmlns="http://www.w3.org/2000/svg"
   xmlns:svg="http://www.w3.org/2000/svg"><defs
     id="defs1" /><g
     id="layer5"
     transform="translate(-146.03588,-3.6683257)"><g
       id="g39"
       transform="matrix(1.109108,0,0,1.109108,-15.269819,104.33971)"><path
         d="m 145.99316,-65.369137 28.84165,4.00079 h 0.002 l -12.54858,-26.237675 a 29.193848,29.193848 0 0 0 -2.04794,0.95498 29.193848,29.193848 0 0 0 -4.16874,2.919202 29.193848,29.193848 0 0 0 -3.59823,3.59823 29.193848,29.193848 0 0 0 -2.91868,4.168221 29.193848,29.193848 0 0 0 -2.15078,4.612122 29.193848,29.193848 0 0 0 -1.31723,4.915462 29.193848,29.193848 0 0 0 -0.0935,1.068668 z"
         style="opacity:1;fill:#4d4d4d;fill-opacity:1;stroke:none;stroke-width:0.41193;stroke-linecap:round;stroke-linejoin:round;stroke-miterlimit:15.3"
         id="path39" /><path
         d="m 145.68723,-61.872192 29.14758,0.503845 -28.84165,-4.00079 a 29.193848,29.193848 0 0 0 -0.30593,3.496945 z"
         style="opacity:1;fill:#b3b3b3;fill-opacity:1;stroke:none;stroke-width:0.41193;stroke-linecap:round;stroke-linejoin:round;stroke-miterlimit:15.3"
         id="path38" /><path
         d="m 146.86545,-53.393123 27.97142,-7.975224 h -0.002 l -29.14758,-0.503845 a 29.193848,29.193848 0 0 0 -0.0439,0.503845 29.193848,29.193848 0 0 0 0.44338,5.069458 29.193848,29.193848 0 0 0 0.77876,2.905766 z"
         style="opacity:1;fill:#888888;fill-opacity:1;stroke:none;stroke-width:0.41193;stroke-linecap:round;stroke-linejoin:round;stroke-miterlimit:15.3"
         id="path37" /><path
         d="m 174.83739,-61.36783 -5.2e-4,-5.17e-4 -27.97142,7.975224 a 29.193848,29.193848 0 0 0 0.53847,2.009696 29.193848,29.193848 0 0 0 2.15078,4.612122 29.193848,29.193848 0 0 0 2.91868,4.168737 29.193848,29.193848 0 0 0 3.59823,3.59823 29.193848,29.193848 0 0 0 4.16874,2.918685 29.193848,29.193848 0 0 0 4.61212,2.150773 29.193848,29.193848 0 0 0 3.42201,0.917257 z"
         style="opacity:1;fill:#ffffff;fill-opacity:1;stroke:none;stroke-width:0.41193;stroke-linecap:round;stroke-linejoin:round;stroke-miterlimit:15.3"
         id="path36" /><path
         d="m 174.83739,-61.36783 -6.56291,28.350207 a 29.193848,29.193848 0 0 0 1.49345,0.399976 29.193848,29.193848 0 0 0 2.47995,0.217041 z"
         style="opacity:1;fill:#585858;fill-opacity:1;stroke:none;stroke-width:0.41193;stroke-linecap:round;stroke-linejoin:round;stroke-miterlimit:15.3"
         id="path35" /><path
         d="m 174.83739,-61.36783 -2.58951,28.967224 a 29.193848,29.193848 0 0 0 2.08566,0.182418 z"
         style="opacity:1;fill:#a1a1a1;fill-opacity:1;stroke:none;stroke-width:0.41193;stroke-linecap:round;stroke-linejoin:round;stroke-miterlimit:15.3"
         id="path32" /><path
         d="m 174.83739,-61.36783 -0.50385,29.149642 a 29.193848,29.193848 0 0 0 0.50385,0.04392 29.193848,29.193848 0 0 0 5.06946,-0.443383 29.193848,29.193848 0 0 0 4.91546,-1.317233 29.193848,29.193848 0 0 0 2.56367,-1.195792 z"
         style="opacity:1;fill:#a1a1a1;fill-opacity:1;stroke:none;stroke-width:0.41193;stroke-linecap:round;stroke-linejoin:round;stroke-miterlimit:15.3"
         id="path30" /><path
         d="m 174.83739,-61.36783 12.54859,26.237158 a 29.193848,29.193848 0 0 0 2.04845,-0.954981 29.193848,29.193848 0 0 0 4.16822,-2.918685 29.193848,29.193848 0 0 0 3.59823,-3.59823 29.193848,29.193848 0 0 0 2.9192,-4.168737 29.193848,29.193848 0 0 0 2.15026,-4.612122 29.193848,29.193848 0 0 0 1.31723,-4.915462 29.193848,29.193848 0 0 0 0.0935,-1.068152 z"
         style="opacity:1;fill:#282828;fill-opacity:1;stroke:none;stroke-width:0.41193;stroke-linecap:round;stroke-linejoin:round;stroke-miterlimit:15.3"
         id="path29" /><path
         d="m 174.83739,-61.368347 v 5.17e-4 l 28.84372,4.000789 a 29.193848,29.193848 0 0 0 0.30592,-3.497461 z"
         style="opacity:1;fill:#000000;fill-opacity:1;stroke:none;stroke-width:0.41193;stroke-linecap:round;stroke-linejoin:round;stroke-miterlimit:15.3"
         id="path28" /><path
         d="m 174.83739,-61.368347 29.14964,0.503845 a 29.193848,29.193848 0 0 0 0.0439,-0.503845 29.193848,29.193848 0 0 0 -0.0574,-1.832963 29.193848,29.193848 0 0 0 -0.1726,-1.825729 29.193848,29.193848 0 0 0 -0.28681,-1.811775 29.193848,29.193848 0 0 0 -0.40049,-1.789555 29.193848,29.193848 0 0 0 -0.21497,-0.740523 z"
         style="opacity:1;fill:#e4e4e4;fill-opacity:1;stroke:none;stroke-width:0.41193;stroke-linecap:round;stroke-linejoin:round;stroke-miterlimit:15.3"
         id="path27" /><path
         d="m 174.83739,-61.368347 28.06134,-8.000545 a 29.193848,29.193848 0 0 0 -0.29663,-1.02061 29.193848,29.193848 0 0 0 -0.62115,-1.725476 29.193848,29.193848 0 0 0 -0.72812,-1.683618 29.193848,29.193848 0 0 0 -0.83302,-1.634009 29.193848,29.193848 0 0 0 -0.93328,-1.578198 29.193848,29.193848 0 0 0 -1.03094,-1.51722 29.193848,29.193848 0 0 0 -1.12397,-1.449007 29.193848,29.193848 0 0 0 -1.21284,-1.375627 29.193848,29.193848 0 0 0 -1.29708,-1.297079 29.193848,29.193848 0 0 0 -1.37563,-1.212845 29.193848,29.193848 0 0 0 -1.449,-1.123963 29.193848,29.193848 0 0 0 -1.51671,-1.030945 29.193848,29.193848 0 0 0 -1.57871,-0.933276 29.193848,29.193848 0 0 0 -1.63401,-0.833024 29.193848,29.193848 0 0 0 -1.68362,-0.728121 29.193848,29.193848 0 0 0 -1.72548,-0.621151 29.193848,29.193848 0 0 0 -1.76113,-0.511596 29.193848,29.193848 0 0 0 -0.67954,-0.151929 z"
         style="opacity:1;fill:#c4c4c4;fill-opacity:1;stroke:none;stroke-width:0.41193;stroke-linecap:round;stroke-linejoin:round;stroke-miterlimit:15.3"
         id="path26" /><path
         d="m 174.83739,-61.368347 6.58048,-28.428239 a 29.193848,29.193848 0 0 0 -1.11001,-0.248564 29.193848,29.193848 0 0 0 -1.81178,-0.286804 29.193848,29.193848 0 0 0 -1.0604,-0.100252 z"
         style="opacity:1;fill:#888888;fill-opacity:1;stroke:none;stroke-width:0.41193;stroke-linecap:round;stroke-linejoin:round;stroke-miterlimit:15.3"
         id="path25" /><path
         d="m 175.34175,-90.545894 a 29.193848,29.193848 0 0 0 -0.50436,-0.01602 29.193848,29.193848 0 0 0 -5.06946,0.443384 29.193848,29.193848 0 0 0 -4.91546,1.317232 29.193848,29.193848 0 0 0 -2.56418,1.195276 l 12.54858,26.237675 h 5.2e-4 z"
         style="opacity:1;fill:#e4e4e4;fill-opacity:1;stroke:none;stroke-width:0.41193;stroke-linecap:round;stroke-linejoin:round;stroke-miterlimit:15.3"
         id="path24" /><path
         d="m 175.34175,-90.545894 -0.50436,29.177547 2.59829,-29.063859 a 29.193848,29.193848 0 0 0 -0.76533,-0.07235 29.193848,29.193848 0 0 0 -1.3286,-0.04134 z"
         style="opacity:1;fill:#000000;fill-opacity:1;stroke:#000000;stroke-width:0.41193;stroke-linecap:round;stroke-linejoin:round;stroke-miterlimit:15.3"
         id="path23" /></g></g><g
     id="layer3"
     transform="translate(-146.03588,-3.6683257)"><circle
       style="opacity:1;fill:none;stroke:#000000;stroke-width:0.456874;stroke-linecap:round;stroke-linejoin:round;stroke-miterlimit:15.3;stroke-opacity:1"
       id="path1"
       cx="178.64345"
       cy="36.27589"
       r="32.379128" /><circle
       style="opacity:1;fill:none;stroke:#000000;stroke-width:0.41509;stroke-linecap:round;stroke-linejoin:round;stroke-miterlimit:15.3;stroke-opacity:1"
       id="circle1"
       cx="178.64345"
       cy="36.27589"
       r="29.417795" /><circle
       style="opacity:1;fill:none;stroke:#000000;stroke-width:0.379902;stroke-linecap:round;stroke-linejoin:round;stroke-miterlimit:15.3;stroke-opacity:1"
       id="circle2"
       cx="178.64345"
       cy="36.27589"
       r="26.924042" /><circle
       style="opacity:1;fill:none;stroke:#000000;stroke-width:0.299264;stroke-linecap:round;stroke-linejoin:round;stroke-miterlimit:15.3;stroke-opacity:1"
       id="circle3"
       cx="178.64345"
       cy="36.27589"
       r="21.20919" /><circle
       style="opacity:1;fill:#202d3c;fill-opacity:1;stroke:#000000;stroke-width:0.913903;stroke-linecap:round;stroke-linejoin:round;stroke-miterlimit:15.3;stroke-dasharray:none;stroke-opacity:1"
       id="circle4"
       cx="178.64345"
       cy="36.27589"
       r="9.7275324" /><circle
       style="display:inline;opacity:1;fill:none;stroke:#ffffff;stroke-width:0.802998;stroke-linecap:round;stroke-linejoin:round;stroke-miterlimit:15.3;stroke-dasharray:none;stroke-opacity:1"
       id="circle12"
       cx="179.23035"
       cy="36.27589"
       r="9.7275324" /><circle
       style="opacity:1;fill:#ffffff;fill-opacity:1;stroke:#000000;stroke-width:0.089022;stroke-linecap:round;stroke-linejoin:round;stroke-miterlimit:15.3;stroke-opacity:1"
       id="circle31"
       cx="178.64345"
       cy="36.27589"
       r="6.3090639" /><circle
       style="opacity:1;fill:none;stroke:#000000;stroke-width:0.103537;stroke-linecap:round;stroke-linejoin:round;stroke-miterlimit:15.3;stroke-opacity:1"
       id="circle5"
       cx="178.64345"
       cy="36.27589"
       r="7.3376846" /><circle
       style="opacity:1;fill:#203c3b;fill-opacity:1;stroke:#000000;stroke-width:0.151946;stroke-linecap:round;stroke-linejoin:round;stroke-miterlimit:15.3;stroke-dasharray:none;stroke-opacity:1"
       id="circle6"
       cx="178.64345"
       cy="36.27589"
       r="2.9216626" /><path
       style="opacity:1;fill:none;stroke:#000000;stroke-width:0.076599;stroke-linecap:round;stroke-linejoin:round;stroke-miterlimit:15.3;stroke-opacity:1"
       id="path8"
       d="m -173.78035,-39.032512 a 5.4286189,5.4286189 0 0 1 -1.05422,6.274123 5.4286189,5.4286189 0 0 1 -6.28856,0.964319 5.4286189,5.4286189 0 0 1 -2.88578,-5.669946"
       transform="scale(-1)" /><path
       style="opacity:1;fill:none;stroke:#000000;stroke-width:0.0540626;stroke-linecap:round;stroke-linejoin:round;stroke-miterlimit:15.3;stroke-opacity:1"
       id="path9"
       d="m 182.07732,34.82063 a 3.8314543,3.8314543 0 0 1 -0.74405,4.428201 3.8314543,3.8314543 0 0 1 -4.43839,0.680605 3.8314543,3.8314543 0 0 1 -2.03675,-4.00178" /><circle
       style="opacity:1;fill:none;stroke:#ffffff;stroke-width:0.299264;stroke-linecap:round;stroke-linejoin:round;stroke-miterlimit:15.3;stroke-opacity:1"
       id="circle9"
       cx="179.0874"
       cy="36.27589"
       r="21.20919" /><circle
       style="opacity:1;fill:none;stroke:#ffffff;stroke-width:0.379902;stroke-linecap:round;stroke-linejoin:round;stroke-miterlimit:15.3;stroke-opacity:1"
       id="circle10"
       cx="179.23035"
       cy="36.27589"
       r="26.924042" /><circle
       style="opacity:1;fill:none;stroke:#ffffff;stroke-width:0.41509;stroke-linecap:round;stroke-linejoin:round;stroke-miterlimit:15.3;stroke-opacity:1"
       id="circle11"
       cx="179.23035"
       cy="36.27589"
       r="29.417795" /><circle
       style="opacity:1;fill:#fde5c1;fill-opacity:1;stroke:#000000;stroke-width:0.465826;stroke-linecap:round;stroke-linejoin:round;stroke-miterlimit:15.3;stroke-dasharray:none;stroke-opacity:1"
       id="circle7"
       cx="178.64345"
       cy="36.27589"
       r="1.5440453" /></g><g
     id="layer6"
     transform="translate(-146.03588,-3.6683257)"><path
       style="fill:none;stroke:#202d3c;stroke-width:0.465;stroke-linecap:round;stroke-linejoin:round;stroke-dasharray:none;stroke-opacity:1"
       d="m 166.06702,57.244649 c 0.17981,0.236919 0.36258,0.477734 0.52346,0.61257 0.16088,0.134836 0.30135,0.165639 0.43737,0.177057 0.13602,0.01142 0.27219,0.0032 0.43247,-0.0479 0.16028,-0.05107 0.34697,-0.145102 0.5961,-0.382623 0.24913,-0.237521 0.56068,-0.618512 1.27475,-2.26846 0.71408,-1.649948 1.83062,-4.568723 2.4228,-6.022467 0.59218,-1.453743 0.66005,-1.442387 0.68016,-1.376184 0.0201,0.0662 -0.007,0.187256 -0.0846,0.630142 -0.0771,0.442887 -0.2038,1.207572 -0.27223,1.888242 -0.0684,0.680671 -0.0786,1.277288 -0.0621,2.179268 0.0165,0.90198 0.0597,2.109265 0.13358,2.954764 0.0738,0.845499 0.17829,1.329173 0.27973,1.63396 0.10144,0.304788 0.19991,0.430729 0.30376,0.512332 0.10385,0.0816 0.21311,0.118895 0.26623,0.139984 0.0531,0.02109 0.0501,0.02591 0.0786,0.02564 0.0285,-2.65e-4 0.0886,-0.0057 0.1687,-0.02378 0.0801,-0.0181 0.18039,-0.04891 0.47514,-0.261568 0.29475,-0.212659 0.78399,-0.607162 1.34618,-1.274867 0.56219,-0.667705 1.1973,-1.608566 1.69345,-2.470282 0.49616,-0.861716 0.85333,-1.644233 1.09495,-2.236274 0.24163,-0.59204 0.36769,-0.993566 0.44484,-1.35349 0.0771,-0.359924 0.10538,-0.678225 0.11709,-0.924125 0.0117,-0.245901 0.007,-0.41938 -0.0309,-0.548528 -0.0378,-0.129149 -0.10866,-0.214009 -0.21161,-0.290481 -0.10296,-0.07647 -0.23802,-0.144562 -0.41211,-0.175905 -0.17409,-0.03134 -0.38719,-0.02594 -0.64472,0.06908 -0.25754,0.09502 -0.56189,0.281119 -0.86414,0.584842 -0.30226,0.303722 -0.60361,0.725786 -0.82812,1.192719 -0.22452,0.466932 -0.37219,0.978703 -0.44636,1.398616 -0.0742,0.419913 -0.0748,0.747942 -0.0466,1.118676 0.0282,0.370734 0.0852,0.784156 0.19116,1.147055 0.10595,0.3629 0.26083,0.675256 0.40641,0.867918 0.14557,0.192663 0.28183,0.265617 0.43341,0.321553 0.15158,0.05593 0.31846,0.09484 0.53247,0.07674 0.21401,-0.0181 0.47514,-0.09322 0.93378,-0.293997 0.45864,-0.200772 1.11475,-0.52718 1.62981,-0.842521 0.51507,-0.31534 0.88905,-0.619593 1.22732,-0.929259 0.33828,-0.309666 0.64083,-0.62473 0.84553,-0.924668 0.20471,-0.299938 0.31156,-0.584736 0.29565,-0.734703 -0.0159,-0.149967 -0.15458,-0.165101 -0.30706,-0.155643 -0.15248,0.0095 -0.31876,0.0435 -0.49255,0.108626 -0.17379,0.06512 -0.35507,0.161313 -0.56548,0.264536 -0.21041,0.103223 -0.44993,0.213469 -0.65583,0.306153 -0.20591,0.09268 -0.37819,0.167799 -0.42383,0.174565 -0.0456,0.0068 0.0354,-0.05486 0.21883,-0.159435 0.1834,-0.104575 0.46913,-0.252105 0.69305,-0.383971 0.22391,-0.131865 0.38599,-0.248056 1.06002,-0.589423 0.67402,-0.341367 1.85925,-0.907554 3.04485,-1.473918"
       id="path3827"
       transform="matrix(0.57568504,0.57914479,-0.5727438,0.58211889,97.215558,-86.311236)" /><text
       xml:space="preserve"
       style="font-style:normal;font-variant:normal;font-weight:bold;font-stretch:normal;font-size:2.57562px;line-height:1.45;font-family:Arial;-inkscape-font-specification:'Arial Bold';letter-spacing:0.246797px;display:inline;fill:#202d3c;fill-opacity:1;stroke-width:0.0643908"
       id="text2379"
       transform="matrix(0.77381487,0,0,0.77381487,43.546907,13.686543)"><textPath
         xlink:href="#path40"
         id="textPath40"><tspan
           id="tspan2379"
           style="font-style:normal;font-variant:normal;font-weight:bold;font-stretch:normal;line-height:1.45;font-family:Arial;-inkscape-font-specification:'Arial Bold';letter-spacing:0.246797px;fill:#202d3c;fill-opacity:1;stroke-width:0.0643908">SHOP</tspan></textPath></text><path
       style="display:none;fill:none;stroke:#ef2a2a;stroke-width:0.264583px;stroke-linecap:butt;stroke-linejoin:miter;stroke-opacity:1"
       d="m 159.40934,47.799452 c 0.26685,0.333563 0.5337,0.667123 0.82279,0.984011 0.28909,0.316887 0.60041,0.617088 1.00069,0.989572 0.40028,0.372483 0.88949,0.817222 1.27309,1.145227 0.3836,0.328005 0.66156,0.539255 1.123,0.828346 0.46143,0.289091 1.1063,0.656001 1.76787,1.017365 0.66158,0.361364 1.33981,0.717156 1.97914,0.989565 0.63933,0.27241 1.23973,0.461424 1.67337,0.600409 0.43363,0.138985 0.70047,0.227932 0.96733,0.316885"
       id="path40"
       transform="translate(0.33356213,0.30020591)" /></g></svg>
